<?xml version="1.0" encoding="utf-8"?>
<!-- Generator: Adobe Illustrator 24.2.0, SVG Export Plug-In . SVG Version: 6.00 Build 0)  -->
<svg version="1.1" id="Layer_1" xmlns="http://www.w3.org/2000/svg" xmlns:xlink="http://www.w3.org/1999/xlink" x="0px" y="0px"
	 viewBox="0 0 350 350" style="enable-background:new 0 0 350 350;" xml:space="preserve">
<style type="text/css">
	.st0{fill-rule:evenodd;clip-rule:evenodd;fill:#FBB017;}
	.st1{fill-rule:evenodd;clip-rule:evenodd;fill:#009B95;}
	.st2{fill-rule:evenodd;clip-rule:evenodd;fill:#1F61AD;}
	.st3{fill-rule:evenodd;clip-rule:evenodd;fill:#5F439A;}
	.st4{fill-rule:evenodd;clip-rule:evenodd;fill:#AF3862;}
	.st5{fill-rule:evenodd;clip-rule:evenodd;fill:#ED2F24;}
	.st6{fill-rule:evenodd;clip-rule:evenodd;fill:#F47E20;}
	.st7{fill:none;stroke:#009B95;stroke-width:10;stroke-linejoin:round;stroke-miterlimit:10;}
	.st8{fill:none;stroke:#1F61AD;stroke-width:10;stroke-linejoin:round;stroke-miterlimit:10;}
	.st9{fill:none;stroke:#5F439A;stroke-width:10;stroke-linejoin:round;stroke-miterlimit:10;}
	.st10{fill:none;stroke:#AF3862;stroke-width:10;stroke-linejoin:round;stroke-miterlimit:10;}
	.st11{fill:none;stroke:#ED2F24;stroke-width:10;stroke-linejoin:round;stroke-miterlimit:10;}
	.st12{fill:none;stroke:#F47E20;stroke-width:10;stroke-linejoin:round;stroke-miterlimit:10;}
	.st13{fill:none;stroke:#FBB017;stroke-width:10;stroke-linejoin:round;stroke-miterlimit:10;}
</style>
<g id="BACKGROUND">
</g>
<g>
	<g>
		<g>
			<path class="st0" d="M46.66,110.39c26.87,39.18,145.63,33.35,152.53,31.11c6.9-2.23-9.82-12.09-13.67-17.94
				c-57.95-14.73-96.02-18.8-126.29-45.64C45.37,65.63,33.9,91.8,46.66,110.39z"/>
		</g>
		<g>
			<path class="st1" d="M38.76,233.08c47.41,2.95,115.94-94.23,118.43-101.05s-4.17-10.85-11.16-11.42
				c-47.29,36.61-85.32,75.24-125.11,82.57C2.68,206.53,16.25,231.67,38.76,233.08z"/>
		</g>
		<g>
			<path class="st2" d="M128.1,314.18c31.51-35.54-2.88-149.37-6.71-155.53c-3.85-6.15-9.46-3.91-14.22,1.24
				c-0.27,59.81,5.1,114.08-13.62,149.94C84.97,326.26,113.14,331.05,128.1,314.18z"/>
		</g>
		<g>
			<path class="st3" d="M248.91,294.12c-8.6-46.72-119.47-89.7-126.7-90.46c-7.21-0.76-9.8,5.24-8.65,12.16
				c46.96,37.02,93.91,66.02,110.65,102.85C231.88,335.54,253,316.29,248.91,294.12z"/>
		</g>
		<g>
			<path class="st4" d="M308.82,186.72c-42.12-21.98-144.23,38.93-149.28,44.15s-1,10.94,5.17,14.3
				c58.09-14.2,108.95-33.35,148.27-23.87C330.97,225.64,328.81,197.14,308.82,186.72z"/>
		</g>
		<g>
			<path class="st5" d="M260.85,74.45c-43.25,19.66-58.12,137.62-57.13,144.82c1.01,7.18,7.68,8.52,14.11,5.74
				c24.57-54.52,41.12-107.37,72.8-132.52C305.16,80.96,281.38,65.13,260.85,74.45z"/>
		</g>
		<g>
			<path class="st6" d="M143.28,45.01c-11.14,46.17,72.67,130.53,78.95,134.17c6.28,3.64,13.7,0.12,15.47-6.66
				c-27.83-52.92-61.56-99.44-61.87-139.89C175.7,14.08,148.57,23.08,143.28,45.01z"/>
		</g>
		<path class="st0" d="M171.95,121.16c-4.53,16.02,2.37,17.14,5.15,22.08c8.69,11.26,31.56,2.39,34.89,1.01
			c0.6-0.21,1.22-0.43,1.77-0.64c5.22-1.87,8.6-6.27,7.47-9.43c-0.6-1.7-2.37-2.76-4.69-3.13c2.46-2.09,3.71-4.74,2.95-6.83
			c-0.74-2.04-3.14-3.18-6.15-3.25c2.15-2.03,3.21-4.46,2.49-6.44c-0.93-2.59-4.57-3.74-8.74-3.04c1.36-1.63,1.92-3.45,1.39-4.96
			c-1.05-2.9-5.79-3.86-10.59-2.13c-1.8,0.64-3.35,1.58-4.53,2.63C186.68,107.95,174.97,110.48,171.95,121.16z"/>
		<path class="st6" d="M222.38,147.86c-16.14,4.09-13.67,10.63-16.55,15.49c-5.41,13.15,13.7,28.52,16.57,30.72
			c0.48,0.41,1,0.84,1.43,1.22c4.24,3.59,9.72,4.31,11.88,1.75c1.17-1.37,1.2-3.43,0.36-5.61c3.04,1.08,5.96,0.84,7.4-0.86
			c1.39-1.65,1.18-4.31-0.27-6.95c2.83,0.86,5.48,0.53,6.82-1.05c1.79-2.09,0.96-5.84-1.73-9.08c2.09,0.34,3.95-0.05,4.98-1.27
			c1.99-2.35,0.45-6.94-3.45-10.25c-1.46-1.24-3.04-2.11-4.55-2.61C241.18,154.02,233.15,145.13,222.38,147.86z"/>
		<path class="st5" d="M227.4,199.18c-13.38-9.92-16.86-3.86-22.46-3.02c-13.62,4.12-13.43,28.66-13.32,32.26
			c-0.02,0.64-0.03,1.3-0.03,1.87c-0.1,5.55,2.82,10.27,6.16,10.32c1.8,0.03,3.43-1.24,4.58-3.28c1.08,3.04,3.11,5.15,5.34,5.19
			c2.16,0.03,4.09-1.8,5.22-4.6c1.12,2.73,3.04,4.58,5.13,4.62c2.75,0.05,5.13-2.95,5.94-7.09c1.05,1.84,2.54,3.02,4.14,3.06
			c3.09,0.05,5.67-4.04,5.75-9.15c0.03-1.91-0.27-3.69-0.86-5.17C234.51,217.64,236.31,205.79,227.4,199.18z"/>
		<path class="st4" d="M190.12,239.96c-1.91-16.54-8.71-14.96-13.15-18.46c-12.31-7.13-30.1,9.79-32.66,12.33
			c-0.48,0.43-0.96,0.88-1.39,1.25c-4.12,3.73-5.56,9.07-3.31,11.56c1.2,1.34,3.25,1.67,5.51,1.1c-1.48,2.87-1.63,5.8-0.14,7.45
			c1.44,1.61,4.1,1.75,6.92,0.65c-1.22,2.7-1.27,5.36,0.14,6.9c1.84,2.04,5.65,1.73,9.24-0.52c-0.62,2.03-0.48,3.93,0.6,5.12
			c2.06,2.28,6.82,1.37,10.61-2.06c1.43-1.27,2.49-2.73,3.19-4.16C181.5,257.79,191.39,251,190.12,239.96z"/>
		<path class="st3" d="M137.66,234.35c12.86-10.58,7.81-15.44,8.35-21.07c-0.72-14.22-24.57-19.94-28.09-20.71
			c-0.62-0.17-1.25-0.34-1.82-0.5c-5.36-1.44-10.63,0.26-11.5,3.49c-0.46,1.73,0.38,3.62,2.08,5.24c-3.21,0.31-5.75,1.79-6.34,3.93
			c-0.57,2.09,0.77,4.4,3.21,6.16c-2.92,0.43-5.19,1.85-5.72,3.86c-0.7,2.66,1.61,5.68,5.44,7.49c-2.04,0.58-3.55,1.73-3.97,3.28
			c-0.81,2.99,2.56,6.47,7.49,7.8c1.84,0.5,3.64,0.62,5.22,0.43C118.02,236.8,129.08,241.41,137.66,234.35z"/>
		<path class="st2" d="M109.86,187.49c16.57,1.55,16.43-5.44,20.78-9.07c9.51-10.59-3.38-31.47-5.32-34.5
			c-0.33-0.55-0.65-1.13-0.94-1.63c-2.78-4.79-7.73-7.31-10.61-5.63c-1.55,0.91-2.28,2.83-2.22,5.17c-2.51-2.04-5.34-2.8-7.26-1.67
			c-1.87,1.08-2.56,3.66-2.08,6.65c-2.37-1.75-4.98-2.34-6.78-1.29c-2.39,1.39-2.85,5.17-1.41,9.15c-1.85-1.03-3.74-1.27-5.12-0.46
			c-2.66,1.55-2.75,6.39-0.17,10.8c0.96,1.65,2.15,3,3.42,3.98C94.2,175.38,98.8,186.44,109.86,187.49z"/>
		<g>
			<path class="st0" d="M188.18,123.34c-16.64-4.22-31.61-7.57-45.26-10.83c11.16,8.21,21.89,18.06,27.01,30.44
				c17.22,0.03,29.81-1,31.92-1.68C208.75,139.03,192.04,129.19,188.18,123.34z"/>
		</g>
		<path class="st1" d="M132.49,139.27c11.76,11.8,16.11,6.32,21.77,6.3c14.08-2.06,17.51-26.36,17.94-29.93
			c0.1-0.64,0.22-1.29,0.31-1.85c0.93-5.48-1.27-10.56-4.57-11.11c-1.77-0.29-3.57,0.72-5.01,2.56c-0.62-3.18-2.32-5.56-4.52-5.92
			c-2.13-0.36-4.31,1.18-5.84,3.78c-0.7-2.87-2.34-4.98-4.4-5.32c-2.71-0.46-5.51,2.16-6.92,6.13c-0.77-1.97-2.06-3.37-3.64-3.64
			c-3.04-0.52-6.2,3.16-7.04,8.19c-0.33,1.89-0.27,3.69,0.07,5.24C128.2,119.96,124.66,131.41,132.49,139.27z"/>
	</g>
	<g>
		<polyline class="st7" points="62.33,270.8 16.49,212.75 31.84,146.95 		"/>
		<polyline class="st8" points="174.49,318.83 99.97,318.49 62.33,270.8 		"/>
		<polyline class="st9" points="280.18,262.65 234.69,319.12 174.49,318.83 		"/>
		<polyline class="st10" points="304.13,146.71 319.19,214.19 280.18,262.65 		"/>
		<polyline class="st11" points="227.69,52.41 289.85,82.71 304.13,146.71 		"/>
		<polyline class="st12" points="104.51,54.24 168.74,23.68 227.69,52.41 		"/>
		<polyline class="st13" points="31.84,146.95 47.09,81.55 104.51,54.24 		"/>
	</g>
</g>
</svg>
