<?xml version="1.0" encoding="utf-8"?>
<!-- Generator: Adobe Illustrator 24.2.0, SVG Export Plug-In . SVG Version: 6.00 Build 0)  -->
<svg version="1.1" xmlns="http://www.w3.org/2000/svg" xmlns:xlink="http://www.w3.org/1999/xlink" x="0px" y="0px"
	 viewBox="0 0 436.8 362.88" style="enable-background:new 0 0 436.8 362.88;" xml:space="preserve">
<style type="text/css">
	.st0{fill:#A2E5FF;}
	.st1{fill:#FFFFFF;}
	.st2{fill:#EC8C2F;}
	.st3{fill:#FFAB00;}
	.st4{fill:#332612;}
	.st5{fill:#F0940C;}
	.st6{fill:#89663B;}
	.st7{fill:#DF9824;}
	.st8{fill:#FFD094;}
	.st9{fill:#003646;}
	.st10{fill:#004261;}
</style>
<g id="BACKGROUND">
</g>
<g id="OBJECTS">
	<g>
		<path d="M56.37,324.8c-2.41,1.2-7.23,2.41-13.4,2.41c-14.3,0-25.07-9.03-25.07-25.67c0-15.89,10.77-26.65,26.5-26.65
			c6.32,0,10.31,1.35,12.05,2.26l-1.58,5.35c-2.48-1.2-6.02-2.11-10.24-2.11c-11.9,0-19.8,7.6-19.8,20.93
			c0,12.42,7.15,20.4,19.5,20.4c3.99,0,8.06-0.83,10.69-2.11L56.37,324.8z"/>
		<path d="M96.5,307.93c0,13.48-9.34,19.35-18.14,19.35c-9.86,0-17.47-7.23-17.47-18.75c0-12.2,7.98-19.35,18.07-19.35
			C89.43,289.19,96.5,296.79,96.5,307.93z M67.59,308.31c0,7.98,4.59,14,11.07,14c6.32,0,11.07-5.95,11.07-14.15
			c0-6.17-3.09-14-10.92-14C70.98,294.15,67.59,301.38,67.59,308.31z"/>
		<path d="M104.86,299.88c0-3.76-0.08-6.85-0.3-9.86h5.8l0.3,5.87h0.23c2.03-3.46,5.42-6.7,11.44-6.7c4.97,0,8.73,3.01,10.31,7.3
			h0.15c1.13-2.03,2.56-3.61,4.07-4.74c2.18-1.66,4.59-2.56,8.06-2.56c4.82,0,11.97,3.16,11.97,15.81v21.46h-6.47v-20.63
			c0-7-2.56-11.22-7.91-11.22c-3.76,0-6.7,2.79-7.83,6.02c-0.3,0.9-0.53,2.11-0.53,3.31v22.51h-6.48v-21.83
			c0-5.8-2.56-10.01-7.6-10.01c-4.14,0-7.15,3.31-8.21,6.63c-0.38,0.98-0.53,2.11-0.53,3.24v21.98h-6.47V299.88z"/>
		<path d="M167.66,301.91c0-4.67-0.15-8.43-0.3-11.9h5.95l0.3,6.25h0.15c2.71-4.44,7-7.08,12.95-7.08c8.81,0,15.43,7.45,15.43,18.52
			c0,13.1-7.98,19.57-16.56,19.57c-4.82,0-9.03-2.11-11.22-5.72h-0.15v19.8h-6.55V301.91z M174.21,311.62c0,0.98,0.15,1.88,0.3,2.71
			c1.2,4.59,5.19,7.75,9.94,7.75c7,0,11.07-5.72,11.07-14.08c0-7.3-3.84-13.55-10.84-13.55c-4.52,0-8.73,3.24-10.01,8.21
			c-0.23,0.83-0.45,1.81-0.45,2.71V311.62z"/>
		<path d="M214.19,309.44c0.15,8.96,5.87,12.65,12.5,12.65c4.74,0,7.6-0.83,10.09-1.88l1.13,4.74c-2.33,1.05-6.32,2.26-12.12,2.26
			c-11.22,0-17.92-7.38-17.92-18.37c0-10.99,6.47-19.65,17.09-19.65c11.9,0,15.06,10.46,15.06,17.17c0,1.35-0.15,2.41-0.23,3.09
			H214.19z M233.61,304.69c0.08-4.22-1.73-10.77-9.19-10.77c-6.7,0-9.64,6.17-10.16,10.77H233.61z"/>
		<path d="M256.2,279.55v10.46h9.49v5.04h-9.49v19.65c0,4.52,1.28,7.08,4.97,7.08c1.73,0,3.01-0.23,3.84-0.45l0.3,4.97
			c-1.28,0.53-3.31,0.9-5.87,0.9c-3.09,0-5.57-0.98-7.15-2.79c-1.88-1.96-2.56-5.19-2.56-9.49v-19.88h-5.65v-5.04h5.65v-8.73
			L256.2,279.55z"/>
		<path d="M280.52,279.77c0.08,2.26-1.58,4.07-4.22,4.07c-2.33,0-3.99-1.81-3.99-4.07c0-2.33,1.73-4.14,4.14-4.14
			C278.93,275.63,280.52,277.44,280.52,279.77z M273.14,326.45v-36.44h6.63v36.44H273.14z"/>
		<path d="M298.74,279.55v10.46h9.49v5.04h-9.49v19.65c0,4.52,1.28,7.08,4.97,7.08c1.73,0,3.01-0.23,3.84-0.45l0.3,4.97
			c-1.28,0.53-3.31,0.9-5.87,0.9c-3.09,0-5.57-0.98-7.15-2.79c-1.88-1.96-2.56-5.19-2.56-9.49v-19.88h-5.65v-5.04h5.65v-8.73
			L298.74,279.55z"/>
		<path d="M323.05,279.77c0.08,2.26-1.58,4.07-4.22,4.07c-2.33,0-3.99-1.81-3.99-4.07c0-2.33,1.73-4.14,4.14-4.14
			C321.47,275.63,323.05,277.44,323.05,279.77z M315.68,326.45v-36.44h6.63v36.44H315.68z"/>
		<path d="M366.27,307.93c0,13.48-9.34,19.35-18.14,19.35c-9.86,0-17.47-7.23-17.47-18.75c0-12.2,7.98-19.35,18.07-19.35
			C359.19,289.19,366.27,296.79,366.27,307.93z M337.36,308.31c0,7.98,4.59,14,11.07,14c6.32,0,11.07-5.95,11.07-14.15
			c0-6.17-3.09-14-10.92-14C340.75,294.15,337.36,301.38,337.36,308.31z"/>
		<path d="M374.63,299.88c0-3.76-0.08-6.85-0.3-9.86h5.87l0.38,6.02h0.15c1.81-3.46,6.02-6.85,12.05-6.85
			c5.04,0,12.87,3.01,12.87,15.51v21.76h-6.63v-21c0-5.87-2.18-10.77-8.43-10.77c-4.37,0-7.75,3.09-8.88,6.78
			c-0.3,0.83-0.45,1.96-0.45,3.09v21.91h-6.63V299.88z"/>
	</g>
	<g>
		<circle id="XMLID_1186_" class="st0" cx="203.95" cy="130.99" r="114.61"/>
		<path id="XMLID_955_" class="st1" d="M264.31,150.82c-1.76-0.09-3.37-1.05-4.62-2.36c-1.41-1.47-2.35-3.37-3.06-5.33
			c-0.43-1.17-0.79-2.37-1.14-3.57c-0.16-0.53-0.81-0.51-0.97,0c-0.55,1.71-1.22,3.37-2.01,4.96c-0.66,1.32-1.4,2.65-2.47,3.62
			c-0.05,0.04-0.09,0.08-0.14,0.12c-1.18,0.8-2.58,1.19-3.98,1.11c-0.56-0.03-0.7,0.96-0.13,1.07c3.85,0.75,7.07,4.01,8.24,8.02
			c0.33,1.14,0.49,2.31,0.47,3.5c-0.01,0.65,0.8,0.7,0.99,0.15c1.24-3.65,2.68-7.72,6.12-9.53c0.85-0.45,1.78-0.69,2.73-0.67
			C264.96,151.93,264.95,150.85,264.31,150.82z"/>
		<g id="XMLID_942_">
			<g id="XMLID_950_">
				<path id="XMLID_951_" class="st2" d="M234.08,143.82c-12.21,0-22.15-9.45-22.15-21.06s9.94-21.06,22.15-21.06
					c12.21,0,22.15,9.45,22.15,21.06S246.29,143.82,234.08,143.82z M234.08,107.26c-9.14,0-16.58,6.95-16.58,15.5
					s7.44,15.5,16.58,15.5c9.14,0,16.58-6.95,16.58-15.5S243.22,107.26,234.08,107.26z"/>
			</g>
			<g id="XMLID_946_">
				<path id="XMLID_947_" class="st2" d="M174.93,143.82c-12.21,0-22.15-9.45-22.15-21.06s9.94-21.06,22.15-21.06
					c12.21,0,22.15,9.45,22.15,21.06S187.14,143.82,174.93,143.82z M174.93,107.26c-9.14,0-16.58,6.95-16.58,15.5
					s7.44,15.5,16.58,15.5c9.14,0,16.58-6.95,16.58-15.5S184.07,107.26,174.93,107.26z"/>
			</g>
			<path id="XMLID_945_" class="st3" d="M235.18,117.32V94.97c-17.47,1.51-13.76,1.32-27.74,1.32l2.29-1.32
				c-13.98,0-9.92,0-34.71,0.52l-0.1,21.83c0,14.34,11.6,30.99,24.57,33.02v19.7l-13.31,18.57h12.32h13.07h14.3l-13.31-18.68v-19.7
				C225.1,147.75,235.18,131.41,235.18,117.32z"/>
			<ellipse id="XMLID_944_" class="st4" cx="205.05" cy="95.79" rx="30.13" ry="6.95"/>
			<rect id="XMLID_943_" x="177.26" y="188.61" class="st5" width="60.68" height="49.59"/>
		</g>
		<path id="XMLID_941_" class="st1" d="M174.68,87.48c-1.42-0.07-2.72-0.85-3.73-1.9c-1.14-1.19-1.89-2.72-2.47-4.3
			c-0.34-0.94-0.63-1.91-0.92-2.88c-0.13-0.42-0.65-0.41-0.78,0c-0.44,1.38-0.98,2.72-1.62,4c-0.53,1.07-1.13,2.13-2,2.92
			c-0.04,0.03-0.07,0.06-0.11,0.1c-0.95,0.64-2.08,0.96-3.21,0.9c-0.45-0.02-0.56,0.78-0.11,0.87c3.1,0.6,5.7,3.23,6.65,6.47
			c0.27,0.92,0.4,1.86,0.38,2.82c-0.01,0.52,0.65,0.56,0.8,0.12c1-2.94,2.16-6.22,4.93-7.69c0.69-0.36,1.44-0.56,2.2-0.54
			C175.21,88.37,175.2,87.5,174.68,87.48z"/>
		<g id="XMLID_660_">
			<g id="XMLID_669_">
				<circle id="XMLID_672_" class="st6" cx="229.9" cy="64.56" r="9.24"/>
				
					<ellipse id="XMLID_671_" transform="matrix(0.2404 -0.9707 0.9707 0.2404 111.0972 271.0854)" class="st7" cx="228.76" cy="64.56" rx="9.24" ry="9.24"/>
				
					<ellipse id="XMLID_670_" transform="matrix(0.4492 -0.8934 0.8934 0.4492 68.3174 239.9328)" class="st8" cx="228.76" cy="64.56" rx="6.44" ry="6.44"/>
			</g>
			<g id="XMLID_665_">
				
					<ellipse id="XMLID_668_" transform="matrix(0.4467 -0.8947 0.8947 0.4467 55.7073 196.5528)" class="st6" cx="186.76" cy="53.24" rx="10.43" ry="10.43"/>
				
					<ellipse id="XMLID_667_" transform="matrix(0.7071 -0.7071 0.7071 0.7071 16.684 146.7415)" class="st7" cx="185.47" cy="53.23" rx="10.43" ry="10.43"/>
				
					<ellipse id="XMLID_666_" transform="matrix(0.7146 -0.6995 0.6995 0.7146 15.6962 144.9359)" class="st8" cx="185.47" cy="53.23" rx="7.27" ry="7.27"/>
			</g>
			<g id="XMLID_661_">
				
					<ellipse id="XMLID_664_" transform="matrix(0.4581 -0.8889 0.8889 0.4581 29.8915 228.1511)" class="st6" cx="202.06" cy="89.56" rx="11.11" ry="11.11"/>
				
					<ellipse id="XMLID_663_" transform="matrix(0.8541 -0.5202 0.5202 0.8541 -17.2942 117.4599)" class="st7" cx="200.69" cy="89.55" rx="11.11" ry="11.11"/>
				
					<ellipse id="XMLID_662_" transform="matrix(0.069 -0.9976 0.9976 0.069 97.5026 283.5857)" class="st8" cx="200.69" cy="89.55" rx="7.74" ry="7.74"/>
			</g>
		</g>
		<path id="XMLID_659_" class="st4" d="M180.31,97.33h47.3c0,0-9.21,4.23-12.98,4.3C210.85,101.71,179.55,100.8,180.31,97.33z"/>
		<rect id="XMLID_658_" x="136.15" y="207.83" class="st9" width="47.08" height="39.45"/>
		<rect id="XMLID_657_" x="234.13" y="207.83" class="st9" width="47.08" height="39.45"/>
		<rect id="XMLID_656_" x="177.26" y="197.87" class="st10" width="60.68" height="49.41"/>
		<path id="XMLID_954_" class="st1" d="M177.82,48.93c-0.98-0.05-1.88-0.54-2.58-1.22c-0.79-0.76-1.31-1.74-1.71-2.75
			c-0.24-0.6-0.44-1.22-0.64-1.84c-0.09-0.27-0.45-0.26-0.54,0c-0.31,0.88-0.68,1.74-1.13,2.56c-0.37,0.68-0.78,1.36-1.38,1.87
			c-0.03,0.02-0.05,0.04-0.08,0.06c-0.66,0.41-1.44,0.61-2.23,0.57c-0.31-0.02-0.39,0.5-0.07,0.55c2.15,0.39,3.95,2.07,4.6,4.14
			c0.19,0.59,0.27,1.19,0.26,1.81c-0.01,0.33,0.45,0.36,0.55,0.07c0.69-1.88,1.5-3.98,3.42-4.92c0.47-0.23,1-0.36,1.52-0.35
			C178.18,49.5,178.18,48.95,177.82,48.93z"/>
	</g>
</g>
</svg>
