<?xml version="1.0" encoding="utf-8"?>
<!-- Generator: Adobe Illustrator 24.2.0, SVG Export Plug-In . SVG Version: 6.00 Build 0)  -->
<svg version="1.1" id="Layer_1" xmlns="http://www.w3.org/2000/svg" xmlns:xlink="http://www.w3.org/1999/xlink" x="0px" y="0px"
	 viewBox="0 0 403.68 348.48" style="enable-background:new 0 0 403.68 348.48;" xml:space="preserve">
<style type="text/css">
	.st0{fill:#537507;}
	.st1{fill:#719A18;}
	.st2{opacity:0.7;fill:#719A18;enable-background:new    ;}
	.st3{fill:#FFF7E8;}
	.st4{fill:#F1C40F;}
	.st5{fill:#F12613;}
	.st6{fill:#19B4FD;}
</style>
<g id="BACKGROUND">
</g>
<g id="share">
	<path class="st0" d="M259.73,55.24H133.97c-44,0-80,33.51-80,74.47v117.08c0,40.95,35.99,74.47,80,74.47h125.76l0,0l0,0
		c43.99,0,79.98-33.51,79.98-74.47l0,0l0,0V129.71C339.7,88.75,303.72,55.24,259.73,55.24z"/>
	<path class="st1" d="M259.73,42.82H133.97c-44,0-80,33.51-80,74.47v117.08c0,40.95,35.99,74.47,80,74.47h125.76l0,0l0,0
		c43.99,0,79.98-33.51,79.98-74.47l0,0l0,0V117.29C339.7,76.34,303.72,42.82,259.73,42.82z"/>
	<path class="st2" d="M260.86,224.64c-10.44,0-19.71,4.55-25.73,11.63l-84.85-45.61c1.42-3.41,2.22-7.11,2.22-10.98
		c0-3.87-0.81-7.57-2.22-10.98l85.06-45.73c6.02,6.93,15.21,11.37,25.52,11.37c18.11,0,32.8-13.68,32.8-30.54
		s-14.69-30.53-32.8-30.53s-32.8,13.66-32.8,30.53c0,3.89,0.81,7.57,2.22,10.98l-85.06,45.73c-6.02-6.93-15.2-11.37-25.52-11.37
		c-18.11,0-32.79,13.68-32.79,30.54s14.69,30.54,32.79,30.54c10.33,0,19.51-4.44,25.52-11.37l84.94,45.65
		c-1.35,3.32-2.1,6.92-2.1,10.69c0,16.87,14.68,30.53,32.8,30.53c18.11,0,32.8-13.68,32.8-30.53
		C293.67,238.31,278.98,224.64,260.86,224.64z"/>
	<path class="st3" d="M255.69,219.81c-10.44,0-19.71,4.55-25.73,11.63l-84.85-45.61c1.42-3.41,2.22-7.11,2.22-10.98
		c0-3.87-0.81-7.57-2.22-10.98l85.06-45.73c6.02,6.93,15.21,11.37,25.52,11.37c18.11,0,32.79-13.68,32.79-30.54
		s-14.69-30.53-32.79-30.53c-18.11,0-32.8,13.68-32.8,30.53c0,3.89,0.81,7.57,2.22,10.98l-85.06,45.73
		c-6.02-6.93-15.2-11.37-25.52-11.37c-18.11,0-32.8,13.68-32.8,30.54s14.69,30.54,32.8,30.54c10.33,0,19.51-4.44,25.52-11.37
		l84.94,45.65c-1.35,3.34-2.12,6.92-2.12,10.69c0,16.87,14.69,30.54,32.8,30.54s32.79-13.68,32.79-30.54
		C288.48,233.49,273.78,219.81,255.69,219.81z"/>
	<path class="st4" d="M140.71,175.32c0-13.34-11.62-24.15-25.94-24.15s-25.94,10.8-25.94,24.15c0,13.34,11.62,24.15,25.94,24.15
		S140.71,188.66,140.71,175.32z"/>
	<path class="st5" d="M281.37,99.21c0-13.34-11.62-24.15-25.94-24.15c-14.33,0-25.94,10.8-25.94,24.15s11.62,24.15,25.94,24.15
		C269.75,123.35,281.37,112.54,281.37,99.21z"/>
	<path class="st6" d="M281.37,250.12c0-13.34-11.62-24.15-25.94-24.15c-14.33,0-25.94,10.82-25.94,24.15
		c0,13.34,11.62,24.15,25.94,24.15C269.75,274.27,281.37,263.46,281.37,250.12z"/>
</g>
</svg>
