<?xml version="1.0" encoding="utf-8"?>
<!-- Generator: Adobe Illustrator 24.2.0, SVG Export Plug-In . SVG Version: 6.00 Build 0)  -->
<svg version="1.1" id="Layer_1" xmlns="http://www.w3.org/2000/svg" xmlns:xlink="http://www.w3.org/1999/xlink" x="0px" y="0px"
	 viewBox="0 0 350 350" style="enable-background:new 0 0 350 350;" xml:space="preserve">
<style type="text/css">
	.st0{fill:#F3BBAE;}
	.st1{fill:#001C32;}
	.st2{fill:#9BA7AE;}
	.st3{fill:#002D51;}
	.st4{fill:#ECECEC;}
	.st5{fill:#005467;}
	.st6{fill:#FFFFFF;}
	.st7{opacity:0.12;}
	.st8{fill:#A6D6CA;}
	.st9{opacity:0.47;}
	.st10{fill:#839196;}
	.st11{opacity:0.32;}
	.st12{fill:#00182D;}
</style>
<g id="BACKGROUND">
</g>
<g>
	<g>
		<g>
			<g>
				<g>
					<polygon class="st0" points="153.54,78.16 153.25,71.56 160.36,66.25 164.95,68.17 160.9,80.77 					"/>
				</g>
			</g>
			<g>
				<g>
					<polygon class="st0" points="126.78,139.07 143.42,116.33 153.54,78.16 160.61,79.25 160.9,120.11 154.48,132.17 
						137.95,156.44 					"/>
				</g>
			</g>
		</g>
		<g>
			<g>
				<g>
					<g>
						<g>
							<polygon class="st1" points="91.51,314.65 90.95,317.89 98.95,322.08 103.78,319.31 100.07,315.6 92.07,311.41 							"/>
						</g>
					</g>
				</g>
				<g>
					<g>
						<g>
							<polygon class="st2" points="94.95,215.36 93.25,225.2 104.33,259.3 91.24,313.56 99.5,315.78 123.21,263 127.2,247.59 
								128.14,214.84 							"/>
						</g>
					</g>
				</g>
			</g>
			<g>
				<g>
					<g>
						<g>
							<polygon class="st2" points="158.67,227.46 138.17,318.4 130.21,318.26 130.67,259.75 117.52,218.45 							"/>
						</g>
					</g>
				</g>
				<g>
					<g>
						<g>
							<polygon class="st1" points="130.27,317.53 130.17,320.81 138.67,324.24 143.09,321.04 138.89,317.69 							"/>
						</g>
					</g>
				</g>
			</g>
			<g>
				<g>
					<g>
						<g>
							<path class="st3" d="M98.24,189.39c0.61-1.81,1.05-3.11,1.2-3.57c2.78-8.41,1.88-18.24,2.58-26.95
								c0.54-6.8,0.09-13.64,0.73-20.41c0.49-5.26,6.27-7.89,6.27-7.89c2.51-0.32,4.72-1.32,7.26-1.69
								c17.16-2.5,26.19,6.12,32.28,15.36c4.85,7.35,8.75,13.96,9.09,22.05c0.55,13.2-1.39,26.39,2.3,39.31
								c2.13,7.5,2.92,15.19,2.33,22.83c-7.05-1.59-13.63-3.68-20.48-5.45c-8.13-2.11-17.87-1.65-26.38-1.74
								c-9.85-0.12-19.47,0.48-29.29-0.7C87.43,220.68,95.15,198.45,98.24,189.39z"/>
						</g>
					</g>
				</g>
			</g>
		</g>
		<g>
			<g>
				<polygon class="st4" points="131.69,129.28 133.81,163.9 110.43,130.63 117.62,128.9 122.75,127.88 				"/>
			</g>
		</g>
	</g>
	<g>
		<g>
			<g>
				<g>
					<g>
						<polygon class="st5" points="237.36,249.36 131.29,233 161.13,131.3 267.2,147.65 						"/>
					</g>
					<g>
						<polygon class="st6" points="233.3,244.16 137.92,229.45 165.53,135.36 260.9,150.07 						"/>
					</g>
					<g>
						<g class="st7">
							<polygon points="233.25,148.21 191.83,141.83 192.65,139.03 234.07,145.42 							"/>
						</g>
						<g>
							<g>
								<path class="st8" d="M228.05,135.65l-0.64-0.1l0.09-0.31c0.87-2.93-2.25-5.9-6.94-6.62l-6.17-0.95
									c-4.69-0.72-9.19,1.07-10.05,4l-0.09,0.31l-0.64-0.1c-4.69-0.72-9.19,1.07-10.05,4l-1.74,5.94l41.42,6.39l1.74-5.94
									C235.86,139.34,232.75,136.38,228.05,135.65z M221.26,134.74l-10.91-1.68c-1.12-0.17-1.83-0.97-1.61-1.77
									c0.24-0.81,1.34-1.32,2.46-1.14l10.91,1.68c1.12,0.17,1.83,0.97,1.61,1.77C223.48,134.39,222.37,134.9,221.26,134.74z"/>
							</g>
						</g>
					</g>
				</g>
				<g class="st9">
					<g>
						<path class="st10" d="M184.46,165.77c-4.67-0.72-9.33-1.44-14-2.16c-0.39-0.06-0.8,0.13-0.88,0.41
							c-0.98,3.35-1.97,6.7-2.95,10.06c-0.09,0.29,0.18,0.58,0.58,0.64c4.67,0.72,9.33,1.44,14,2.16c0.21,0.04,0.39,0,0.54-0.06
							c0.01,0,0.03-0.01,0.03-0.01s0.01,0,0.01-0.01c0.14-0.06,0.25-0.17,0.3-0.32c0.98-3.35,1.97-6.7,2.95-10.06
							C185.12,166.13,184.86,165.83,184.46,165.77z M180.78,175.72c-4.18-0.65-8.37-1.29-12.54-1.93c0.88-3,1.77-6.01,2.65-9.01
							c4.18,0.65,8.37,1.29,12.54,1.93C182.54,169.71,181.66,172.72,180.78,175.72z"/>
					</g>
					<g>
						<path class="st10" d="M179,184.37c-4.67-0.72-9.33-1.44-14-2.16c-0.39-0.06-0.8,0.13-0.88,0.41
							c-0.98,3.35-1.97,6.7-2.95,10.06c-0.09,0.29,0.18,0.58,0.58,0.64c4.67,0.72,9.33,1.44,14,2.16c0.21,0.04,0.39,0,0.54-0.06
							c0.01,0,0.03-0.01,0.03-0.01s0.01,0,0.01-0.01c0.14-0.06,0.25-0.17,0.3-0.32c0.98-3.35,1.97-6.7,2.95-10.06
							C179.65,184.73,179.39,184.43,179,184.37z M175.31,194.32c-4.18-0.65-8.37-1.29-12.54-1.93c0.88-3,1.77-6.01,2.65-9.01
							c4.18,0.65,8.37,1.29,12.54,1.93C177.08,188.31,176.2,191.32,175.31,194.32z"/>
					</g>
					<g>
						<path class="st10" d="M173.54,202.97c-4.67-0.72-9.33-1.44-14-2.16c-0.39-0.06-0.8,0.13-0.88,0.41
							c-0.98,3.35-1.97,6.7-2.95,10.06c-0.09,0.29,0.18,0.58,0.58,0.64c4.67,0.72,9.33,1.44,14,2.16c0.21,0.04,0.39,0,0.54-0.06
							c0.01,0,0.03-0.01,0.03-0.01s0.01,0,0.01-0.01c0.14-0.06,0.25-0.17,0.3-0.32c0.98-3.35,1.97-6.7,2.95-10.06
							C174.2,203.33,173.93,203.04,173.54,202.97z M169.86,212.92c-4.18-0.65-8.37-1.29-12.54-1.93c0.88-3,1.77-6.01,2.65-9.01
							c4.18,0.65,8.37,1.29,12.54,1.93C171.62,206.91,170.75,209.92,169.86,212.92z"/>
					</g>
				</g>
				<g>
					<polygon class="st5" points="174.06,168.15 177.49,167.87 178.61,170.46 196.32,164.87 198.04,165.4 177.07,173.17 					"/>
				</g>
				<g>
					<polygon class="st5" points="167.28,187.04 170.73,186.76 171.85,189.36 189.56,183.76 191.27,184.3 170.3,192.07 					"/>
				</g>
				<g>
					<polygon class="st5" points="161.83,204.6 165.28,204.33 166.38,206.91 184.1,201.32 185.81,201.85 164.84,209.63 					"/>
				</g>
				<g class="st11">
					<polygon class="st10" points="229.26,221.1 179.87,213.48 181.33,208.45 230.74,216.07 					"/>
				</g>
				<g class="st11">
					<polygon class="st10" points="235.04,201.4 185.65,193.78 187.11,188.74 236.52,196.36 					"/>
				</g>
				<g class="st11">
					<polygon class="st10" points="240.82,181.69 191.42,174.07 192.9,169.05 242.3,176.67 					"/>
				</g>
			</g>
		</g>
	</g>
	<g>
		<g>
			<g>
				<g>
					<g>
						<path class="st5" d="M96.88,57.41l19.74-1.77c0.44-0.82,1.42-1.43,2.66-1.54l52.11-4.66c1.24-0.11,2.4,0.31,3.1,1.02
							l19.74-1.77l2.58,15.18l-19.53,1.74c-0.3,1-1.39,1.79-2.81,1.91l-52.11,4.66c-1.42,0.13-2.73-0.44-3.37-1.36l-19.53,1.74
							L96.88,57.41z"/>
					</g>
				</g>
				<g class="st7">
					<g>
						<polygon points="187.82,49.69 190.33,64.47 182.85,65.13 185.66,49.84 						"/>
					</g>
				</g>
				<g>
					<g>
						<g>
							<path class="st5" d="M203.17,82.76l1.15-0.11c5.09-0.46,8.72-3.8,8.09-7.46l-6.79-39.85c-0.63-3.66-5.26-6.27-10.36-5.82
								l-1.15,0.11c-5.09,0.46-8.72,3.8-8.09,7.46l6.8,39.87C193.45,80.62,198.08,83.22,203.17,82.76z"/>
						</g>
					</g>
					<g>
						<g>
							<path class="st5" d="M222.64,81.02l1.15-0.11c5.09-0.46,8.72-3.8,8.09-7.46l-6.79-39.85c-0.63-3.66-5.26-6.27-10.36-5.82
								l-1.15,0.11c-5.09,0.46-8.72,3.8-8.09,7.46l6.79,39.85C212.92,78.88,217.54,81.47,222.64,81.02z"/>
						</g>
					</g>
					<g>
						<g>
							<path class="st5" d="M230.73,61.17l1.94-0.65c1.4-0.47,2.23-1.87,1.97-3.39l-1.39-8.19c-0.26-1.51-1.52-2.74-3.05-2.94
								l-2.09-0.29c-2.09-0.29-3.76,1.43-3.4,3.52l1.56,9.12C226.6,60.45,228.78,61.82,230.73,61.17z"/>
						</g>
					</g>
				</g>
				<g>
					<g>
						<g>
							<path class="st5" d="M102.33,91.78l-1.15,0.11c-5.09,0.46-9.73-2.15-10.36-5.82l-6.79-39.85c-0.63-3.66,3-7,8.09-7.46
								l1.15-0.11c5.09-0.46,9.73,2.15,10.36,5.82l6.79,39.85C111.04,87.99,107.42,91.33,102.33,91.78z"/>
						</g>
					</g>
					<g>
						<g>
							<path class="st5" d="M82.86,93.51l-1.15,0.11c-5.09,0.46-9.73-2.15-10.36-5.82l-6.79-39.85c-0.63-3.66,3-7,8.09-7.46
								l1.15-0.11c5.09-0.46,9.73,2.15,10.36,5.82l6.79,39.85C91.58,89.73,87.95,93.07,82.86,93.51z"/>
						</g>
					</g>
					<g>
						<g>
							<path class="st5" d="M68.36,75.68l-2.09-0.29c-1.53-0.2-2.78-1.43-3.05-2.94l-1.39-8.19c-0.26-1.51,0.56-2.92,1.97-3.39
								l1.94-0.65c1.94-0.65,4.13,0.73,4.48,2.81l1.56,9.12C72.11,74.25,70.46,75.97,68.36,75.68z"/>
						</g>
					</g>
				</g>
			</g>
		</g>
	</g>
	<g>
		<polygon class="st0" points="138.8,193.24 149.11,198.97 155.48,197.07 153.04,193.11 148.83,190.78 149.7,188.44 141.01,186.7 
			109.25,165.46 112.86,150.31 103.34,136.17 93.31,167.21 99.64,176.08 		"/>
	</g>
	<g>
		<g>
			<g>
				<path class="st12" d="M125.25,98.44c0,0,11.38,4.55,12.28,14.66s4.14,16.3,4.14,16.3s-4.16,2.27-8,1.3
					c-3.84-0.99-5.19-1.08-5.16-5.25s-3.27-23.5-3.27-23.5v-3.51H125.25z"/>
			</g>
		</g>
	</g>
	<g>
		<g>
			<g>
				<path class="st0" d="M133.19,109.45c-5.77-9.7-22.65-5.13-25.12,3.88c-1.4,5.12,2.07,14.13,10.54,14.36
					c0.4,0.88,1.08,2.54,2.21,2.98c1.22,0.48,4.25-0.66,5.46-1.07c0.33-0.12,0.68-0.25,0.88-0.47c0.25-0.29,0.11-0.91-0.1-1.6
					c0.92-0.19,1.82-0.48,2.72-0.87c3.75-1.62,5.86-4.82,6.15-7.99C136.2,115.5,134.92,112.36,133.19,109.45z"/>
			</g>
		</g>
	</g>
	<g>
		<g>
			<g>
				<path class="st12" d="M126.18,99.23c0,0,3.37,5.21-5.83,8.31c-9.21,3.1-13.81,9.6-10.35,15.13c3.46,5.53,11.93,8.64,8.62,10.78
					c-3.32,2.14-17.69,2.86-17.69,2.86s-14.73-19.08-6.08-29.77C103.48,95.86,119.81,92.9,126.18,99.23z"/>
			</g>
		</g>
	</g>
</g>
</svg>
