<?xml version="1.0" encoding="utf-8"?>
<!-- Generator: Adobe Illustrator 24.2.0, SVG Export Plug-In . SVG Version: 6.00 Build 0)  -->
<svg version="1.1" id="Layer_1" xmlns="http://www.w3.org/2000/svg" xmlns:xlink="http://www.w3.org/1999/xlink" x="0px" y="0px"
	 viewBox="0 0 350 350" style="enable-background:new 0 0 350 350;" xml:space="preserve">
<style type="text/css">
	.st0{fill:#3A3F4F;}
	.st1{fill:#FFFFFF;}
</style>
<g id="BACKGROUND">
</g>
<g id="OBJECTS">
	<g>
		<g>
			<path class="st0" d="M290.31,257.23l-43.93,17.75l-52.83,21.35c-0.01,0.01-0.05,0.01-0.06,0.03l-0.29,0.12
				c-0.14,0.06-0.29,0.09-0.44,0.15c-0.42,0.17-0.84,0.32-1.26,0.44c-0.24,0.08-0.48,0.14-0.72,0.2c-0.36,0.09-0.72,0.18-1.1,0.26
				c-0.29,0.06-0.57,0.09-0.86,0.14c-0.33,0.05-0.66,0.11-1.01,0.14c-0.32,0.03-0.62,0.05-0.93,0.06c-0.32,0.01-0.63,0.03-0.96,0.03
				l0,0c-0.54,0-1.08-0.03-1.62-0.08c-0.08,0-0.17-0.02-0.24-0.02c-0.47-0.05-0.95-0.12-1.41-0.2c-0.15-0.03-0.3-0.05-0.45-0.08
				c-0.06-0.02-0.14-0.03-0.2-0.05c-0.36-0.08-0.71-0.17-1.07-0.26c-0.2-0.05-0.38-0.09-0.57-0.15c-0.44-0.14-0.86-0.29-1.26-0.44
				c-0.14-0.06-0.29-0.09-0.44-0.15L32.53,237.41c-9.89-3.99-15.25-15.16-11.44-25.13c3.89-10.15,15.33-15.1,25.37-11.05
				l129.91,52.49l2.18,0.89c4.74,1.92,10.06,1.92,14.82,0l117.43-47.44l24.47-9.89c2.91-1.16,2.63-4.55,0.18-5.87l-135.42-61.06
				c-8.95-4.04-19.22-4.04-28.16,0L30.25,194.17c-7.01,2.49-12.78,7.87-15.69,15.06c-5.48,13.59,1.1,29.1,14.68,34.59l146.11,59.03
				c1.73,0.75,3.53,1.31,5.4,1.68c0.12,0.03,0.23,0.05,0.35,0.06c0.65,0.12,1.28,0.21,1.94,0.29c0.2,0.02,0.38,0.05,0.57,0.06
				c0.77,0.08,1.55,0.11,2.33,0.11l0,0l0,0c3.41,0,6.76-0.65,9.94-1.94l133.84-54.06c6.49-2.63,7.61-4.97,7.61-10.82L290.31,257.23z
				 M185.95,249.82L185.95,249.82L185.95,249.82L185.95,249.82L185.95,249.82z M32.47,193.5c-0.05,0.01-0.11,0.03-0.15,0.05
				C32.37,193.53,32.43,193.51,32.47,193.5 M36.99,192.71c-0.15,0.02-0.3,0.03-0.45,0.05C36.69,192.76,36.84,192.73,36.99,192.71
				 M34.74,193.02c-0.12,0.02-0.23,0.05-0.35,0.06C34.52,193.05,34.62,193.03,34.74,193.02"/>
			<path class="st0" d="M185.94,288.78c-2.07,0-4.14-0.3-6.19-0.9c-0.08-0.02-0.14-0.05-0.21-0.08l-140.88-57
				c-1.16-0.47-1.71-1.77-1.25-2.91c0.47-1.16,1.77-1.7,2.93-1.25l140.78,56.97c3.23,0.93,6.4,0.93,9.65,0l135.93-54.81
				c1.14-0.47,2.46,0.09,2.91,1.25c0.47,1.16-0.09,2.46-1.25,2.91l-136.03,54.86c-0.08,0.03-0.14,0.05-0.21,0.08
				C190.08,288.48,188.01,288.78,185.94,288.78"/>
			<path class="st0" d="M185.94,273.15c-2.07,0-4.14-0.3-6.19-0.9c-0.08-0.02-0.14-0.05-0.21-0.08L38.66,215.16
				c-1.16-0.47-1.7-1.77-1.23-2.91c0.47-1.16,1.77-1.7,2.91-1.25l140.78,56.97c3.24,0.93,6.4,0.93,9.65,0l135.93-54.81
				c1.14-0.47,2.46,0.09,2.91,1.25c0.47,1.14-0.09,2.46-1.25,2.91l-136.03,54.86c-0.08,0.03-0.14,0.05-0.21,0.08
				C190.08,272.85,188.01,273.15,185.94,273.15"/>
			<path class="st0" d="M175.85,60.68l-99.7,45.53c-2.51,1.14-2.51,4.71,0,5.86l99.7,45.53c3.02,1.38,6.47,1.38,9.49,0l99.7-45.53
				c2.51-1.14,2.51-4.71,0-5.86l-99.7-45.53C182.32,59.31,178.86,59.31,175.85,60.68"/>
			<path class="st1" d="M180.07,211.48c-43.85,0-76.91-14.92-76.91-34.71v-51.73l70.22,32.05c2.28,1.05,4.73,1.58,7.24,1.58
				c2.52,0,4.95-0.53,7.25-1.58l69.13-31.57v51.24C256.98,196.56,223.9,211.48,180.07,211.48"/>
			<path class="st0" d="M190.15,162.18c-3.02,1.38-6.25,2.09-9.56,2.09c-3.32,0-6.55-0.71-9.56-2.09l-62.29-28.43v43.03
				c0,16.08,31.93,29.11,71.33,29.11s71.33-13.03,71.33-29.11v-42.55L190.15,162.18z"/>
		</g>
	</g>
</g>
</svg>
