<?xml version="1.0" encoding="utf-8"?>
<!-- Generator: Adobe Illustrator 24.2.0, SVG Export Plug-In . SVG Version: 6.00 Build 0)  -->
<svg version="1.1" id="Layer_1" xmlns="http://www.w3.org/2000/svg" xmlns:xlink="http://www.w3.org/1999/xlink" x="0px" y="0px"
	 viewBox="0 0 350 350" style="enable-background:new 0 0 350 350;" xml:space="preserve">
<style type="text/css">
	.st0{fill:#FDB037;}
	.st1{fill:#005467;}
	.st2{fill:#C2D69F;}
	.st3{fill:#00BABA;}
</style>
<g id="BACKGROUND">
</g>
<g id="OBJECTS">
	<g>
		<g>
			<g>
				<g>
					<path class="st0" d="M179.71,256.37c0.16-0.71,5.77-1.71,6.37-1.87c5.75-1.42,11.63-2.31,17.53-2.68
						c16.99-1.07,30.32,3.2,45.68,10.1c14.08,6.31,37.37,11.74,77.58,1.66l10.18,28.04c0.26,0.71-50.93,16.5-85.15,5.34
						c-7.88-2.57-17.36-5.79-25-8.98c-5.56-2.32-11.38-4.11-17.28-5.35c-11.77-2.48-24.17-2.73-35.85,0.43L179.71,256.37z"/>
				</g>
				<g>
					
						<rect x="207.85" y="257.87" transform="matrix(0.3344 -0.9424 0.9424 0.3344 -101.054 375.5742)" class="st1" width="15.04" height="2.91"/>
				</g>
				<g>
					
						<rect x="236.43" y="264.82" transform="matrix(0.2912 -0.9567 0.9567 0.2912 -82.5035 421.2088)" class="st1" width="13.13" height="2.91"/>
				</g>
				<g>
					
						<rect x="264.76" y="272.93" transform="matrix(0.198 -0.9802 0.9802 0.198 -51.6245 485.6871)" class="st1" width="12.46" height="2.91"/>
				</g>
				<g>
					
						<rect x="299.05" y="268.41" transform="matrix(0.991 -0.1336 0.1336 0.991 -34.0116 42.612)" class="st1" width="2.91" height="12.65"/>
				</g>
			</g>
			<g>
				<g>
					<g>
						<path class="st2" d="M207.12,110.92c-21.06-15.34-43.34-11.98-59.1-5.85c-11.4,4.43-24.13,3.98-35.31-1
							c-15.54-6.95-38.08-11.6-60.12,3.18c-29.55,19.81-35.94,55.98-30.68,89.13c3.89,24.53,11.89,49.98,25.79,70.99
							c13.44,20.32,39.44,42.11,65.68,33.91c8-2.49,16.62-2.37,24.4,0.78c37.2,15.04,65.64-26.76,79.31-54.91
							c14.27-29.41,24.69-65.65,15.9-98.2C228.85,133.63,219.94,120.25,207.12,110.92z"/>
					</g>
					<g>
						<path class="st3" d="M120.12,79.59c3.64-9.27,10.87-17.21,18.43-22.24c7.55-5.02,15.43-7.5,23.09-9.27
							c6.79-1.57,13.52-2.66,20.14-3.24c-1.59,6.1-4.2,12.17-6.92,18.11c-3.91,8.59-8.17,17.19-13.67,24.86
							c-5.5,7.67-12.39,14.43-19.67,17.66C126.51,112.14,112.47,99.1,120.12,79.59z"/>
					</g>
				</g>
			</g>
			<g>
				<path class="st0" d="M26.49,140.72c0,0-11.81,10.18,8.66,14.54c15.61,2.87,31.37,5.01,47.11,6.91
					c32.71,3.95,65.75,6.52,98.71,5.85c11.35-0.24,22.7-0.87,33.97-2.21c5.23-0.62,10.49-1.34,15.66-2.39
					c4.09-0.83,6.16-2.53,4.61-6.85c7.49,1.79,7.39,8.29,7.3,14.53c-0.07,4.14-0.43,8.28-1.05,12.36c-0.55,3.7-0.37,9.17-2.25,12.43
					c-2.37,4.1-8.37,4.26-12.46,4.85c-5.23,0.76-10.48,1.37-15.74,1.87c-10.51,1-21.05,1.57-31.59,1.99
					c-25.06,1.01-50.19,0.43-75.18-1.66c-15.09-1.27-30.13-3.1-45.09-5.51c-7.99-1.29-15.96-2.75-23.9-4.38
					c-5.09-1.04-12.8-2.36-16.19-6.85c-1.41-1.87-2.41-4.05-3.16-6.26c-2.72-8.08-1.74-17.2-0.01-25.37
					C15.91,154.53,18.18,143.24,26.49,140.72z"/>
			</g>
			<g>
				<path class="st0" d="M22.08,198.51c0,0,1.34,13.95,11.72,14.84c0,0,132.38,14.74,199.87-9.69c0,0-1.01,14.08-13.05,38.7
					c-18.02,5.1-27.17,7.25-45.67,9.48c-23.8,2.86-47.78,4.15-71.74,3.91c-14.47-0.14-28.95-0.86-43.36-2.16
					c-12.56-1.13-24.28-3.82-31.55-15.03c-1.62-2.49-2.87-5.23-3.94-8c-2.06-5.33-3.36-10.89-5-16.34c-0.55-1.88-0.9-3.9-1.05-5.85
					C17.99,204.85,18.26,200.06,22.08,198.51z"/>
			</g>
			<g>
				<g>
					
						<rect x="32.28" y="163.13" transform="matrix(0.1551 -0.9879 0.9879 0.1551 -128.3417 179.1117)" class="st1" width="16.53" height="2.91"/>
				</g>
				<g>
					
						<rect x="66.63" y="168.26" transform="matrix(0.1509 -0.9886 0.9886 0.1509 -104.0782 218.2658)" class="st1" width="16.78" height="2.91"/>
				</g>
				<g>
					
						<rect x="100.74" y="171.91" transform="matrix(0.116 -0.9932 0.9932 0.116 -75.8111 261.5583)" class="st1" width="16.6" height="2.91"/>
				</g>
				<g>
					
						<rect x="136.23" y="174.44" transform="matrix(0.0619 -0.9981 0.9981 0.0619 -39.8007 309.4379)" class="st1" width="16.96" height="2.91"/>
				</g>
				<g>
					
						<rect x="175.72" y="168.26" transform="matrix(0.9953 -0.0972 0.0972 0.9953 -16.3164 18.0564)" class="st1" width="2.91" height="16.49"/>
				</g>
				<g>
					
						<rect x="209.77" y="166.23" transform="matrix(1 -9.758857e-03 9.758857e-03 1 -1.6922 2.0697)" class="st1" width="2.91" height="16.4"/>
				</g>
				<g>
					
						<rect x="38.9" y="213.81" transform="matrix(0.9892 -0.1465 0.1465 0.9892 -32.0325 8.3031)" class="st1" width="2.91" height="15.63"/>
				</g>
				<g>
					
						<rect x="71.26" y="216.32" transform="matrix(0.997 -0.0773 0.0773 0.997 -17.1111 6.2916)" class="st1" width="2.91" height="15.7"/>
				</g>
				<g>
					
						<rect x="107.15" y="217.63" transform="matrix(0.9944 -0.1061 0.1061 0.9944 -23.2465 12.7917)" class="st1" width="2.91" height="14.51"/>
				</g>
				<g>
					
						<rect x="143.02" y="217.31" transform="matrix(0.9933 -0.1154 0.1154 0.9933 -25.0071 18.1771)" class="st1" width="2.91" height="15.5"/>
				</g>
				<g>
					
						<rect x="178.75" y="214.9" transform="matrix(0.9965 -0.084 0.084 0.9965 -18.1063 15.9257)" class="st1" width="2.91" height="16.49"/>
				</g>
				<g>
					
						<rect x="209.92" y="210.1" transform="matrix(0.9905 -0.1377 0.1377 0.9905 -28.0364 31.1846)" class="st1" width="2.91" height="16.27"/>
				</g>
			</g>
		</g>
	</g>
</g>
</svg>
