<?xml version="1.0" encoding="utf-8"?>
<!-- Generator: Adobe Illustrator 24.2.0, SVG Export Plug-In . SVG Version: 6.00 Build 0)  -->
<svg version="1.1" id="Layer_1" xmlns="http://www.w3.org/2000/svg" xmlns:xlink="http://www.w3.org/1999/xlink" x="0px" y="0px"
	 viewBox="0 0 350 350" style="enable-background:new 0 0 350 350;" xml:space="preserve">
<style type="text/css">
	.st0{fill:#FFFFFF;stroke:#26A69A;stroke-width:1;stroke-miterlimit:9.9999;}
	.st1{fill:#4F4F4F;}
	.st2{fill:#333333;}
	.st3{fill:#F0851D;}
	.st4{fill:#E8721B;}
	.st5{fill:#F9B256;}
	.st6{fill:#FFFFFF;}
	.st7{fill:#F4B073;}
</style>
<g>
	<g id="BACKGROUND">
	</g>
	<g>
		<ellipse class="st0" cx="172.01" cy="180.78" rx="144.54" ry="144.54"/>
		<g>
			<g>
				<path class="st1" d="M147.36,139.61c6.32-14.34,28.25-14.97,38.66-14.98V99.77c-0.07,0-0.15,0-0.23,0
					c-13.72,0-37.71,0.28-52.42,16.26c-14.21,15.44-16.67,36.37-11.82,52.01h28.03C143.5,160.87,142.55,150.55,147.36,139.61z"/>
				<path class="st2" d="M186.09,124.63c10.48,0,32.83,0.61,39.15,14.98c4.81,10.94,3.86,21.25-2.23,28.41h28.03
					c4.85-15.62,2.41-36.56-11.82-52.01c-14.64-15.88-39.45-16.24-53.22-16.24v24.86C186.04,124.63,186.07,124.63,186.09,124.63z"/>
				<path class="st3" d="M202.81,246.77c0-9.1-7.38-16.49-16.49-16.49c-0.1,0-0.2,0.02-0.28,0.02v32.96c0.1,0,0.2,0.02,0.28,0.02
					C195.42,263.26,202.81,255.87,202.81,246.77z"/>
				<path class="st3" d="M135.3,209.24c-3.83,8.6-18.42,38.86-4.78,62.62c12.64,21.99,34.4,23.89,55.51,23.91v-32.52v-32.96v-55.3
					c-6.62,0-14.28,4.4-24.96,0.64c-4.86-1.72-8.71-4.32-11.48-7.6h-28.03c0.85,2.77,1.92,5.39,3.21,7.76
					C133.38,191.55,139.11,200.63,135.3,209.24z"/>
				<path class="st4" d="M211.55,175.62c-10.66,3.77-18.86-0.64-25.53-0.64v55.3c0.1,0,0.2-0.02,0.28-0.02
					c9.1,0,16.49,7.38,16.49,16.49c0,9.1-7.39,16.49-16.49,16.49c-0.1,0-0.2-0.02-0.28-0.02v32.52c0.1,0,0.2,0,0.28,0
					c21.19,0,43.11-1.82,55.81-23.91c13.64-23.76-0.95-54.02-4.78-62.62c-3.83-8.6,1.92-17.68,10.51-33.45
					c1.29-2.37,2.36-4.99,3.21-7.76h-28.03C220.25,171.28,216.4,173.9,211.55,175.62z"/>
			</g>
			<path class="st5" d="M186.3,230.72c-0.1,0-0.2,0.02-0.28,0.02c-8.97,0.15-16.21,7.47-16.21,16.47c0,9.01,7.24,16.33,16.21,16.47
				c0.1,0,0.2,0.02,0.28,0.02c9.1,0,16.49-7.38,16.49-16.49C202.79,238.11,195.41,230.72,186.3,230.72z"/>
			<g>
				<path class="st6" d="M186.3,264.54c-9.56,0-17.32-7.78-17.32-17.32c0-9.56,7.78-17.32,17.32-17.32
					c9.56,0,17.32,7.78,17.32,17.32C203.63,256.76,195.85,264.54,186.3,264.54z M186.3,231.8c-8.5,0-15.41,6.91-15.41,15.41
					s6.91,15.41,15.41,15.41s15.41-6.91,15.41-15.41C201.71,238.71,194.8,231.8,186.3,231.8z"/>
			</g>
			<path class="st7" d="M200.76,59.41c-0.44-1.18-6.11-20.91-6.4-21.91h-46.67c1.03,5.53,5.16,35.57,4.08,45.18
				c-1.23,11.02-1.13,21.24,0.72,29c4.01,16.83,10.97,26.43,16.83,19.99c4.49,4.08,10.2,6.94,13.89,0.41
				c0.56,0.51,6.94,6.75,13.07,0.41c1.98,1.56,5.68,7.76,12.66,0.41c4.67-4.93,5.73-23.68,6.26-30.08c1.39,0.15,3.95,1.23,8.43,2.59
				c0.15-4.18-1.82-19.9-7.3-24.91C204.86,70.04,201.81,62.19,200.76,59.41z"/>
			<g>
				<path class="st6" d="M175.54,252.04h3.31v-9.73h-2.72v-1.67c1.47-0.28,2.49-0.65,3.42-1.21h2v12.61h2.91v2.19h-8.91v-2.19
					H175.54z"/>
				<path class="st6" d="M195.11,242.46c-0.54-0.65-1.46-1.11-2.36-1.11c-1.87,0-3.37,1.38-3.49,5.47c0.87-1.1,2.15-1.75,3.21-1.75
					c2.55,0,4.32,1.49,4.32,4.58c0,2.95-2.11,4.86-4.65,4.86c-2.91,0-5.37-2.26-5.37-7.24c0-5.75,2.8-8.12,5.81-8.12
					c1.78,0,3.08,0.74,3.96,1.67L195.11,242.46z M194.33,249.65c0-1.75-0.87-2.64-2.33-2.64c-0.84,0-1.82,0.46-2.65,1.7
					c0.28,2.64,1.33,3.75,2.77,3.75C193.34,252.47,194.33,251.47,194.33,249.65z"/>
			</g>
		</g>
	</g>
</g>
</svg>
