<?xml version="1.0" encoding="utf-8"?>
<!-- Generator: Adobe Illustrator 24.2.0, SVG Export Plug-In . SVG Version: 6.00 Build 0)  -->
<svg version="1.1" id="Layer_1" xmlns="http://www.w3.org/2000/svg" xmlns:xlink="http://www.w3.org/1999/xlink" x="0px" y="0px"
	 viewBox="0 0 350 350" style="enable-background:new 0 0 350 350;" xml:space="preserve">
<style type="text/css">
	.st0{fill:#9BC9FF;}
	.st1{fill:#FFFFFF;}
	.st2{fill:#1E81CE;}
</style>
<g id="BACKGROUND">
</g>
<g id="OBJECTS">
	<g>
		<g>
			<g>
				<g id="_x36_0_x2C__love_x2C__heart_x2C__beat">
					<path class="st0" d="M50.97,247.75c10.91,0,19.76,8.85,19.76,19.76s-8.85,19.76-19.76,19.76c-10.91,0-19.76-8.85-19.76-19.76
						S40.05,247.75,50.97,247.75z"/>
					<path class="st0" d="M288.08,267.51c12.65,0,22.87,10.26,22.87,22.87c0,12.65-10.26,22.87-22.87,22.87
						c-12.65,0-22.87-10.26-22.87-22.87C265.21,277.77,275.43,267.51,288.08,267.51z"/>
					<path class="st0" d="M284.97,196.28l1.57,2.1c-27.03,33.81-68.12,65.53-110.74,108.15c-35.35-35.35-71.23-62.91-99.31-90.46
						l0.52-0.52h45.25l13.01-65l32.76,103.99l19.76-84.76l26.01,65l13.01-38.99h58.22v0.49H284.97z"/>
					<path class="st1" d="M244.4,46.52c-36.4,0-50.42,18.18-68.64,54.59C157.58,64.7,135.2,46.52,98.8,46.52
						c-40.04,0-72.8,32.76-72.8,72.8c0,37.45,20.28,67.07,50.42,96.2l0.52-0.52h45.25l13.01-64.48l32.76,103.99l19.76-84.76
						l26.01,65l13.01-38.99h58.75l1.57,2.06c19.23-23.92,30.67-48.36,30.67-78.54C317.21,79.28,284.44,46.52,244.4,46.52z"/>
					<path class="st2" d="M295.88,236.84c1.05,1.05,2.1,2.59,2.1,4.69s-0.52,3.64-2.1,4.69c-1.05,1.05-2.59,2.06-4.69,2.06
						c-3.64,0-6.75-3.11-6.75-6.75c0-1.57,0.52-3.64,2.06-4.69c1.05-1.05,2.59-2.06,4.69-2.06
						C293.29,234.75,294.83,235.79,295.88,236.84z"/>
					<path class="st2" d="M211.12,126.59c1.05,1.05,2.06,2.59,2.06,4.69c0,2.06-0.52,3.64-2.06,4.69c-1.05,1.05-2.59,2.06-4.69,2.06
						c-3.64,0-6.75-3.11-6.75-6.75c0-1.57,0.52-3.64,2.1-4.69c1.05-1.05,2.59-2.1,4.69-2.1
						C208.53,124.49,210.07,125.02,211.12,126.59z"/>
					<path class="st2" d="M146.11,113.58c1.05,1.05,2.06,2.59,2.06,4.69c0,2.1-0.52,3.64-2.06,4.69c-1.05,1.05-2.59,2.1-4.69,2.1
						c-3.64,0-6.75-3.11-6.75-6.75c0-1.57,0.52-3.64,2.1-4.69c1.05-1.05,2.59-2.06,4.69-2.06
						C143.52,111.52,145.1,112.04,146.11,113.58z"/>
					<path class="st2" d="M100.9,282.58c1.05,1.05,2.1,2.59,2.1,4.69c0,1.57-0.52,3.64-2.1,4.69c-1.57,1.05-2.59,2.1-4.69,2.1
						c-3.64,0-6.75-3.11-6.75-6.75c0-1.57,0.52-3.64,2.1-4.69c1.57-1.05,3.11-2.1,4.69-2.1C97.75,280.52,99.85,281.04,100.9,282.58z
						"/>
					<path class="st2" d="M81.14,132.82c1.05,1.05,2.1,2.59,2.1,4.69c0,2.06-0.52,3.64-2.1,4.69c-1.05,1.05-2.59,2.1-4.69,2.1
						c-3.64,0-6.75-3.11-6.75-6.75c0-1.57,0.52-3.64,2.06-4.69c1.05-1.05,2.59-2.1,4.69-2.1C78.52,130.75,80.09,131.8,81.14,132.82z
						"/>
					<path class="st2" d="M175.76,313.25c-1.57,0-3.11-0.52-4.69-2.06c-18.71-18.71-37.97-35.35-56.16-51.47
						c-15.6-13.53-30.14-26.51-43.15-38.99c-26.01-25.49-52.52-57.73-52.52-100.88c0-43.67,35.35-79.03,79.03-79.03
						c19.23,0,35.35,4.69,48.88,15.07c10.39,7.27,19.23,18.18,27.55,32.24c7.27-13.53,14.55-23.92,23.39-31.72
						c11.96-10.39,26.51-15.07,45.77-15.07c43.67,0,79.55,35.35,79.55,79.03c0,29.13-10.39,55.11-32.24,82.66
						c-16.64,20.81-39.51,41.61-63.43,63.43c-15.6,14.06-31.72,29.13-48.36,45.25C178.88,312.23,177.34,313.25,175.76,313.25z
						 M98.8,53.27c-36.4,0-66.05,29.65-66.05,66.02c0,31.19,14.06,57.73,48.36,91.51c12.48,12.48,27.03,25.49,42.63,38.47
						c17.17,15.07,34.3,30.14,52,47.31c15.07-15.07,29.65-28.08,44.2-41.09c24.44-22.35,45.77-41.61,61.89-61.89
						c20.28-25.49,29.65-48.36,29.65-74.87c0-36.4-29.65-66.05-66.54-66.05c-32.24,0-45.25,15.07-62.91,50.95
						c-1.05,2.06-3.11,3.64-5.73,3.64l0,0c-2.59,0-4.69-1.57-5.73-3.64C151.32,67.85,131.04,53.27,98.8,53.27z"/>
					<path class="st2" d="M305.77,92.29h-19.76c-3.64,0-6.75-3.11-6.75-6.75s3.11-6.75,6.75-6.75h19.76c3.64,0,6.75,3.11,6.75,6.75
						C312,89.14,308.88,92.29,305.77,92.29z"/>
					<path class="st2" d="M312,111.52h-38.99c-3.64,0-6.75-3.11-6.75-6.75s3.11-6.75,6.75-6.75H312c3.64,0,6.75,3.11,6.75,6.75
						S315.63,111.52,312,111.52z"/>
					<path class="st2" d="M312,131.28h-52c-3.64,0-6.75-3.11-6.75-6.75c0-3.64,3.11-6.75,6.75-6.75h52c3.64,0,6.75,3.11,6.75,6.75
						C318.75,128.16,315.63,131.28,312,131.28z"/>
					<path class="st2" d="M167.44,261.29c-2.59,0-5.21-2.1-6.23-4.69l-24.44-80.08l-7.8,40.04c-0.52,3.11-3.11,5.21-6.23,5.21H76.98
						c-3.64,0-6.75-3.11-6.75-6.75c0-3.64,3.11-6.75,6.75-6.75h40.04l11.96-59.79c0.52-3.11,3.11-5.21,6.23-5.21
						c3.11,0,5.73,1.57,6.75,4.69l25.49,81.12l14.06-61.37c0.52-2.59,3.11-4.69,5.73-5.21c2.59,0,5.73,1.57,6.75,4.16l19.23,48.36
						l7.27-22.35c1.05-2.59,3.11-4.69,6.23-4.69h58.75c3.64,0,6.75,3.11,6.75,6.75c0,3.64-4.16,7.8-7.27,7.8h-54.06l-11.43,34.3
						c-1.05,2.59-3.11,4.16-5.73,4.69c-2.59,0-5.21-1.57-6.26-4.16L189.3,191.6l-15.07,64.48
						C173.18,258.66,171.08,260.76,167.44,261.29C167.97,260.76,167.97,261.29,167.44,261.29z"/>
					<path class="st2" d="M50.97,293.49c-14.55,0-25.98-11.43-25.98-25.98s11.43-26.01,25.98-26.01s26.01,11.43,26.01,26.01
						C76.98,282.06,65.02,293.49,50.97,293.49z M50.97,254.5c-7.27,0-13.01,5.73-13.01,13.01s5.73,13.01,13.01,13.01
						s13.01-5.73,13.01-13.01S57.71,254.5,50.97,254.5z"/>
					<path class="st2" d="M288.08,319.51c-16.12,0-29.13-13.01-29.13-29.13s13.01-29.13,29.13-29.13s29.13,13.01,29.13,29.13
						S304.2,319.51,288.08,319.51z M288.08,274.26c-8.85,0-16.12,7.27-16.12,16.12s7.27,16.12,16.12,16.12s16.12-7.27,16.12-16.12
						C304.2,281.53,296.93,274.26,288.08,274.26z"/>
				</g>
				<g id="Layer_1_14_">
				</g>
			</g>
		</g>
	</g>
</g>
</svg>
