<?xml version="1.0" encoding="utf-8"?>
<!-- Generator: Adobe Illustrator 24.2.0, SVG Export Plug-In . SVG Version: 6.00 Build 0)  -->
<svg version="1.1" id="Layer_1" xmlns="http://www.w3.org/2000/svg" xmlns:xlink="http://www.w3.org/1999/xlink" x="0px" y="0px"
	 viewBox="0 0 350.4 328.32" style="enable-background:new 0 0 350.4 328.32;" xml:space="preserve">
<style type="text/css">
	.st0{fill:#FFCC01;}
	.st1{fill:#FFDB53;}
	.st2{fill:#FCBD11;}
</style>
<g id="BACKGROUND">
</g>
<g id="OBJECTS">
	<g>
		<path class="st0" d="M173,31.39l40.36,81.8c0.67,1.35,1.94,2.28,3.43,2.49l90.26,13.12c3.74,0.54,5.23,5.14,2.52,7.78
			l-65.32,63.67c-1.08,1.05-1.56,2.55-1.32,4.04l15.42,89.91c0.64,3.73-3.27,6.56-6.62,4.8L171,256.56c-1.33-0.69-2.92-0.69-4.24,0
			l-80.74,42.44c-3.34,1.76-7.26-1.08-6.62-4.8l15.42-89.91c0.26-1.47-0.24-2.99-1.32-4.04l-65.27-63.69
			c-2.71-2.64-1.22-7.23,2.52-7.78l90.26-13.12c1.49-0.21,2.76-1.15,3.43-2.49l40.36-81.8C166.5,28,171.33,28,173,31.39z"/>
		<g>
			<path class="st1" d="M168.92,50.28l-35.97,69.68c-1.88,3.66-5.51,6.09-9.61,6.46l-78.1,7.13l82.52,3.85
				c5.24,0.24,10.03-2.93,11.86-7.85L168.92,50.28z"/>
		</g>
		<path class="st2" d="M81.23,283.83l-1.77,10.35c-0.64,3.73,3.27,6.56,6.62,4.8l80.74-42.44c1.33-0.69,2.92-0.69,4.24,0
			l80.74,42.44c3.34,1.76,7.26-1.08,6.62-4.8l-15.42-89.91c-0.26-1.47,0.24-2.99,1.32-4.04l65.32-63.67
			c2.71-2.64,1.22-7.23-2.52-7.78l-30.23-4.39C227.93,212.15,153.06,258.36,81.23,283.83z"/>
	</g>
</g>
</svg>
