<?xml version="1.0" encoding="utf-8"?>
<!-- Generator: Adobe Illustrator 24.2.0, SVG Export Plug-In . SVG Version: 6.00 Build 0)  -->
<svg version="1.1" id="Layer_1" xmlns="http://www.w3.org/2000/svg" xmlns:xlink="http://www.w3.org/1999/xlink" x="0px" y="0px"
	 viewBox="0 0 350 350" style="enable-background:new 0 0 350 350;" xml:space="preserve">
<style type="text/css">
	.st0{fill:#4B4B55;}
	.st1{fill:#CCCCCC;}
	.st2{fill:#B5975E;}
	.st3{fill:#DBD5D5;}
	.st4{fill:#161313;}
	.st5{fill:#D1AB86;}
	.st6{fill:#FFE2C2;}
	.st7{fill:#FFF8F8;}
	.st8{fill:#333030;}
	.st9{fill:#0C0A0A;}
	.st10{fill:#916826;}
	.st11{fill:#383840;}
	.st12{fill:#969696;}
	.st13{fill:#5C5C5C;}
	.st14{fill:#9FB603;}
</style>
<g id="BACKGROUND">
</g>
<g>
	<g>
		<ellipse class="st0" cx="167.22" cy="181.09" rx="133.44" ry="133.44"/>
	</g>
	<g>
		<path class="st1" d="M300.65,181.09c0-16.36-2.97-32.06-8.36-46.54l-19.52-19.52l-5.49,5.97c-0.48-0.5-14.53-14.49-15.18-15.14
			c-0.65-0.67-1.32-1.34-1.99-1.99c-21.15-21.99-50.33-34.7-81.28-34.7c-62.24,0-112.88,50.64-112.88,112.88
			c0,31.62,13.09,60.23,34.09,80.74c0.65,0.67,1.32,1.32,1.99,1.99c0.63,0.65,1.28,1.3,1.93,1.93c0.48,0.5,29.99,30.01,44.71,44.73
			c9.21,2.01,18.74,3.1,28.54,3.1C240.9,314.52,300.65,254.79,300.65,181.09z"/>
	</g>
	<g>
		<g>
			<g>
				<g>
					<g>
						<path class="st2" d="M92.92,176.69c0,0,2.78,24.88-4.21,33.61c-6.99,8.73,9.74,7.41,9.74,7.41l14.1-9.61l2.18-14.39
							l-11.48-19.48L92.92,176.69z"/>
					</g>
					<g>
						<path class="st2" d="M142.65,176.69c0,0-2.76,24.88,4.21,33.61c6.99,8.73-9.74,7.41-9.74,7.41l-14.1-9.61l-2.18-14.39
							l11.48-19.48L142.65,176.69z"/>
					</g>
					<g>
						<polygon class="st3" points="131.58,198.35 104.35,197.91 101.25,198.79 100.18,199.37 100.45,200.19 108.9,225.99 
							111.37,232.95 125.4,232.95 126.72,226.47 134.09,200.3 134.4,199.23 						"/>
					</g>
					<g>
						<path class="st4" d="M100.45,200.19c-7.69,9.99-20.08,11.44-22.26,23.58l-0.71,9.21h33.91l-2.47-6.97L100.45,200.19z"/>
					</g>
					<g>
						<path class="st4" d="M125.4,232.95h32.75l-0.71-9.21c-1.7-8.25-11-12.21-23.33-23.46l-7.37,26.18L125.4,232.95z"/>
					</g>
					<g>
						<path class="st5" d="M126.32,185.86h-2.72h-14.3c-2.93,0-5.32,2.11-5.32,4.69v12.1c0,2.58,2.39,4.69,5.32,4.69h17.03
							c2.56,0,4.69-1.59,5.19-3.71c0.04-0.02,0.1-0.02,0.11-0.04v-0.96v-0.27v-11.83C131.64,187.94,129.25,185.86,126.32,185.86z"/>
					</g>
					<g>
						<path class="st6" d="M142.8,163.6c-0.67-0.21-1.42,0.27-2.16,1.22c0.02-0.48,0.04-0.94,0.04-1.4
							c0-15.12-10.24-27.39-22.87-27.39s-22.87,12.27-22.87,27.39c0,0.46,0.02,0.92,0.04,1.4c-0.73-0.96-1.49-1.42-2.14-1.22
							c-1.61,0.5-2.09,4.71-1.07,9.42c1.01,4.71,3.14,8.11,4.75,7.62c0.57-0.17,1-0.82,1.26-1.8c3.89,11.31,11.41,21.57,20.06,21.57
							s16.15-10.24,20.06-21.57c0.27,0.98,0.71,1.63,1.26,1.8c1.61,0.5,3.73-2.91,4.75-7.62C144.88,168.31,144.39,164.1,142.8,163.6
							z"/>
					</g>
					<g>
						<path class="st7" d="M103.76,199.02c0,0,0.46,4.27,8.23,6.6c7.79,2.33,2.6,7.75,2.6,7.75l-6.09,1.26l-3.58-6.99l-1.51-5.34
							L103.76,199.02z"/>
					</g>
					<g>
						<path class="st7" d="M131.85,199.81c0,0-0.44,4.27-8.23,6.6c-7.79,2.33-2.6,7.75-2.6,7.75l6.09,1.26l3.58-6.99l1.51-5.34
							L131.85,199.81z"/>
					</g>
					<g>
						<polygon class="st8" points="101.69,198.35 93.25,203.37 108.9,225.99 						"/>
					</g>
					<g>
						<polygon class="st8" points="134.09,198.26 142.91,204.9 126.72,226.47 						"/>
					</g>
					<g>
						<g>
							<polygon class="st9" points="116.69,216.55 112.56,232.92 124.04,232.92 119.32,216.55 							"/>
						</g>
						<g>
							<polygon class="st9" points="114.59,206.93 121.42,207.04 122.68,212.07 121.29,217.22 114.84,217.22 113.29,212.42 							
								"/>
						</g>
					</g>
					<g>
						<path class="st2" d="M142.13,158.58c0.36-3.67-0.23-7.37-1.89-11.02c-5.57-9.95-12.82-15.33-22.49-14.16
							c-9.38,1.28-14.7,4.73-16.31,10.12c-4.36,1.13-7.08,5.05-7.06,13.53c-2.95,4.54-3.98,9.63-2.81,15.33
							c1.55-1.74,3.16-1.89,4.8-0.56l1.4,7.02c-0.73-11.33,2.95-16.96,4.78-23.1c2.89,6.28,9.44,9.51,18.12,11
							c-3.02-2.6-4.57-5.42-2.91-8.73c1.21,4.25,4.38,6.72,8.73,8.15c-2.39-2.81-4.11-5.88-3.89-9.7c1.89,4.92,5.7,8.29,10.47,10.85
							c-2.11-2.81-3.67-5.72-2.72-9.11c4.96,6.64,6.45,13.61,7.5,20.63l1.4-7.04c1.63-1.32,3.23-1.17,4.78,0.57
							C145.08,167.29,144.37,162.72,142.13,158.58z"/>
					</g>
				</g>
			</g>
			<g>
				<g>
					<g>
						<polygon class="st3" points="227.03,197.97 197.51,197.53 194.17,198.41 193,198.98 193.29,199.79 202.45,225.61 
							205.13,232.57 220.33,232.57 221.78,226.08 229.76,199.9 230.09,198.83 						"/>
					</g>
					<g>
						<path class="st4" d="M193.29,199.79c-14.12,2.79-25.03,9.15-25.03,19.31l-1.15,13.45h38.03l-2.68-6.97L193.29,199.79z"/>
					</g>
					<g>
						<path class="st4" d="M220.33,232.57h36.76l-1.15-13.45c0-9.82-11.5-16.29-26.18-19.2l-7.98,26.18L220.33,232.57z"/>
					</g>
					<g>
						<path class="st5" d="M221.32,186.3h-2.95h-15.5c-3.2,0-5.78,2.01-5.78,4.52v11.62c0,2.49,2.58,4.52,5.78,4.52h18.45
							c2.78,0,5.07-1.53,5.65-3.56c0.04-0.02,0.1-0.02,0.13-0.04v-0.92v-0.25v-11.37C227.1,188.31,224.52,186.3,221.32,186.3z"/>
					</g>
					<g>
						<path class="st6" d="M239.2,164.9c-0.73-0.19-1.55,0.25-2.33,1.17c0.02-0.46,0.04-0.9,0.04-1.34
							c0-14.55-11.1-26.33-24.78-26.33c-13.68,0-24.78,11.79-24.78,26.33c0,0.44,0.02,0.9,0.04,1.34c-0.78-0.92-1.61-1.38-2.33-1.17
							c-1.74,0.48-2.26,4.54-1.17,9.05c1.09,4.52,3.41,7.81,5.15,7.33c0.61-0.17,1.07-0.8,1.38-1.72
							c4.21,10.89,12.36,20.73,21.74,20.73c9.38,0,17.53-9.86,21.74-20.73c0.29,0.94,0.75,1.55,1.38,1.72
							c1.74,0.48,4.04-2.79,5.15-7.33C241.46,169.43,240.94,165.38,239.2,164.9z"/>
					</g>
					<g>
						<path class="st7" d="M196.88,198.64c0,0,0.48,4.27,8.92,6.6c8.44,2.33,2.81,7.75,2.81,7.75l-6.6,1.26l-3.87-6.99l-1.65-5.34
							L196.88,198.64z"/>
					</g>
					<g>
						<path class="st7" d="M227.31,199.42c0,0-0.48,4.27-8.92,6.6c-8.44,2.33-2.81,7.75-2.81,7.75l6.58,1.26l3.87-6.99l1.65-5.34
							L227.31,199.42z"/>
					</g>
					<g>
						<polygon class="st8" points="194.3,196.8 186.84,200.29 202.45,225.61 						"/>
					</g>
					<g>
						<polygon class="st8" points="229.92,197.28 237.38,200.78 221.78,226.08 						"/>
					</g>
					<g>
						<polygon class="st9" points="211.1,216.07 206.97,232.44 218.45,232.44 213.72,216.07 						"/>
					</g>
					<g>
						<polygon class="st9" points="209,206.45 215.83,206.54 217.09,211.6 215.7,216.73 209.25,216.73 207.7,211.92 						"/>
					</g>
					<g>
						<path class="st10" d="M227.27,143.81c3.29-16.46-45.89-15.6-39.92,22.26l3,13.49l1.72-11.06l0.57-8.44
							c0,0,16.71,8.42,30.62-9.05c5.17,2.33,8.11,6.76,9.13,17.4l1.42,11.18l3-13.49C236.84,166.07,241.11,138.81,227.27,143.81z"/>
					</g>
				</g>
			</g>
			<g>
				<path class="st11" d="M205.94,251.92c-17.05,0-40.97-0.06-47.67-0.08c-5.17,0.02-23.69,0.08-36.98,0.08
					c-13.99,0-14.33-0.06-14.77-0.13c-0.56-0.08-2.55-0.57-3.1-3.18c-0.38-1.78-1.47-43.6,5.89-50.97
					c4.13-5.22,17.93-7.75,22.14-8.42l4.1-1.05l0.5-0.27l6.58-5.53c0.73-0.75,1.26-1.55,1.34-2.97l0.27-4.96
					c-2.11-3-3.96-6.33-5.44-9.86c-3.02-1.21-6.07-4.52-7.43-8.4c-1.4-3.96-1.51-7.77-0.34-10.2c0.54-1.11,1.24-1.82,1.93-2.26
					c-0.48-4.08-0.57-9.51,0.98-15c2.47-8.67,10.72-18.85,21.7-21.55c2.89-0.71,7.29-1.65,12.31-1.65c9.84,0,18.35,3.58,25.3,10.6
					c1.95,1.99,4.11,6.22,4.46,11.08c1.24,2.68,1.68,5.86,1.3,9.47c-0.27,2.56-0.55,4.92-0.84,7.04c0.69,0.44,1.42,1.15,1.95,2.26
					c1.17,2.43,1.05,6.24-0.33,10.22c-1.3,3.75-4.19,6.99-7.14,8.29c-1.53,3.62-3.46,7.08-5.72,10.18l0.27,4.78
					c0.08,1.32,0.54,2.09,1.38,2.97l6.47,5.03l1.97,1.09l3,0.77c3.9,0.59,17.68,3.14,21.82,8.34c7.37,7.37,6.28,49.19,5.89,50.97
					c-0.55,2.6-2.55,3.1-3.14,3.18C224.17,251.86,223.85,251.92,205.94,251.92z"/>
			</g>
			<g>
				<g>
					<g>
						<path class="st3" d="M169.78,242.1l28.9-46.18l-15.12-11.27l-37.55,2.66l-14.26,13.42l32.17,44.73
							C165.88,244.25,167.81,243.14,169.78,242.1z"/>
					</g>
					<g>
						<path class="st12" d="M219.14,200.08c-3.1-4.63-20.02-7.29-20.02-7.29l-10.89-2.76l-22.68,54.37l-22.68-54.37L132,192.78
							c0,0-16.92,2.66-20.04,7.29c-5.59,3.56-5.99,47.98-4.88,48.15c1,0.17,42.91,0.04,51.18,0c10.66,0.02,64.76,0.15,65.76,0
							C225.15,248.05,224.75,203.63,219.14,200.08z"/>
					</g>
					<g>
						<rect x="148.77" y="166.53" class="st5" width="33.63" height="26.28"/>
					</g>
					<g>
						<g>
							<path class="st6" d="M192.79,149.7c-2.07,20.32-17.42,35.41-27.16,35.41c-10.43,0-24.73-15.5-27.16-35.41
								c-2.37-19.41,12.15-29.28,27.16-29.28C180.63,120.42,194.78,130.26,192.79,149.7z"/>
						</g>
						<g>
							<path class="st9" d="M137.42,129.72c2.22-7.79,9.65-16.71,19.1-19.02c7.92-1.93,22.14-4.19,34.18,8
								c1.59,1.59,3.35,5.45,3.44,9.47c1.07,1.95,1.67,4.57,1.28,8.13c-1.38,12.84-2.55,16.48-2.55,16.48l-3.23,1.49
								c0,0,1.57-4.4-0.52-10.51c-0.57-1.65-1.34-3.2-2.18-4.61c-13.8,7.62-35.06,9.11-44.55,9.38c-0.31,3.48,0.48,5.74,0.48,5.74
								l-3.23-1.49c0,0-0.36-1.11-0.9-4.19c-0.77,0-1.21,0-1.21,0S134.78,139.01,137.42,129.72z"/>
						</g>
						<g>
							<g>
								<path class="st6" d="M140.85,152.9c1.42,4.06,2.51,7.98,0.82,8.55c-1.67,0.57-5.47-2.39-6.89-6.45
									c-1.42-4.06-1.21-7.83,0.46-8.4C136.92,146.03,139.43,148.84,140.85,152.9z"/>
							</g>
						</g>
						<g>
							<g>
								<path class="st6" d="M190.3,152.9c-1.42,4.06-2.51,7.98-0.82,8.55c1.67,0.57,5.47-2.39,6.89-6.45s1.21-7.83-0.46-8.4
									C194.22,146.03,191.72,148.84,190.3,152.9z"/>
							</g>
						</g>
					</g>
					<g>
						<g>
							<polygon class="st9" points="174.03,197.15 165.55,204.25 157.09,197.15 165.55,190.05 							"/>
						</g>
						<g>
							<polygon class="st9" points="164.04,202.6 159.07,226.93 165.23,246.94 172.86,226.93 167.18,202.6 							"/>
						</g>
					</g>
					<g>
						<g>
							<path class="st7" d="M147.56,179.6l17.99,10.45l-5.91,12.59l-14.05-13.01c0,0-3.69-0.96-2.47-2.62
								C144.37,185.36,147.35,183.88,147.56,179.6z"/>
						</g>
						<g>
							<path class="st7" d="M183.58,179.64l-17.97,10.43l5.91,12.55l14.05-12.98c0,0,3.69-0.96,2.47-2.6
								C186.78,185.4,183.81,183.9,183.58,179.64z"/>
						</g>
					</g>
					<g>
						<polygon class="st13" points="165.57,244.42 144.98,185.11 138.09,190.91 130.88,194.77 139.72,209.53 143.77,209.45 
							141.19,217.97 						"/>
					</g>
					<g>
						<polygon class="st13" points="165.57,244.42 186.15,185.11 193.06,190.49 200.9,194.77 191.43,209.53 187.37,209.45 
							189.96,217.97 						"/>
					</g>
				</g>
			</g>
		</g>
		<g>
			<path class="st14" d="M168.83,294.94c-62.24,0-112.88-50.64-112.88-112.88S106.59,69.19,168.83,69.19
				c37.76,0,72.92,18.89,94.03,50.54l2.35,3.52l7.56-8.21l-2.93,40.17l-33.32-25.63l16.5-0.57l-3.66-5.07
				C230.6,98.13,200.5,82.7,168.83,82.7c-54.79,0-99.37,44.57-99.37,99.37s44.57,99.37,99.37,99.37c45.26,0,84.23-29.99,95.92-73.32
				l13.17,3.08C264.77,260.67,220.39,294.94,168.83,294.94z"/>
		</g>
	</g>
</g>
</svg>
