<?xml version="1.0" encoding="utf-8"?>
<!-- Generator: Adobe Illustrator 24.2.0, SVG Export Plug-In . SVG Version: 6.00 Build 0)  -->
<svg version="1.1" id="Layer_1" xmlns="http://www.w3.org/2000/svg" xmlns:xlink="http://www.w3.org/1999/xlink" x="0px" y="0px"
	 viewBox="0 0 350 350" style="enable-background:new 0 0 350 350;" xml:space="preserve">
<style type="text/css">
	.st0{fill:#E8B722;}
	.st1{clip-path:url(#SVGID_2_);fill:#231F20;}
	.st2{fill:#C02626;}
	.st3{fill:#231F20;}
	.st4{fill:#FCFDFF;}
</style>
<g id="BACKGROUND">
</g>
<g>
	<g>
		<g>
			<path class="st0" d="M46.72,116.14l0.26-0.46c0.84-1.47,1.54-2.6,3.13-3.77c-0.12-2.88-0.13-5.39-0.08-7.42
				c5.22-1.28,12.23-3.35,19.24-5.98c10.5-3.93,24.67-10.42,36.51-20c11.84,9.58,26.01,16.07,36.51,20
				c7.02,2.63,14.03,4.71,19.26,5.99c0.04,2.02,0.04,4.52-0.08,7.39c1.61,1.18,2.33,2.32,3.17,3.8l0.26,0.46
				c0.73,1.27,2.37,3.58,4.08,5.65c1.55-14.43,0.42-24.1,0.42-24.1c-2.12,0-41.26-8.32-63.62-30.17
				C83.42,89.38,44.28,97.7,42.16,97.7c0,0-1.14,9.7,0.42,24.16C44.31,119.77,45.98,117.42,46.72,116.14z"/>
			<path class="st0" d="M80.94,200.19c0.12-0.46,1.2-4.57,1.98-6.46c0.07-0.16,0.13-0.35,0.17-0.54
				c-4.06-4.27-7.76-8.81-11.09-13.62c-3.93-5.67-7.37-11.73-10.28-18.12c-0.88,0.2-1.74,0.31-2.62,0.31c-2.34,0-4.28-0.71-6.16-1.4
				c-0.26-0.09-0.52-0.19-0.79-0.28c5.81,14.19,14.77,29.01,28.53,42.38l0.19-2.01L80.94,200.19z"/>
			<path class="st0" d="M158.67,160.36c-1.88,0.69-3.82,1.4-6.15,1.4l0,0c-0.89,0-1.77-0.11-2.67-0.32
				c-2.87,6.27-6.23,12.23-10.07,17.81c-3.38,4.91-7.14,9.53-11.27,13.88c0.05,0.21,0.11,0.41,0.19,0.59c0.78,1.89,1.86,6,1.98,6.46
				l0.07,0.26l0.18,1.95c13.72-13.34,22.67-28.14,28.47-42.31C159.15,160.19,158.91,160.27,158.67,160.36z"/>
		</g>
		<g>
			<g>
				<defs>
					<rect id="SVGID_1_" x="32.55" y="91.1" width="147.65" height="112.11"/>
				</defs>
				<clipPath id="SVGID_2_">
					<use xlink:href="#SVGID_1_"  style="overflow:visible;"/>
				</clipPath>
				<path class="st1" d="M176.71,146.33c-0.42-4.89-5.31-15.5-7.91-18.11c-2.6-2.6-5.62-6.76-6.76-8.74
					c-1.14-1.98-1.46-2.91-4.79-4.58c-3.33-1.66-9.89-1.99-11.66-1.47s-2.72,4.3-2.91,6.24c-0.21,2.08,2.01,2.06,2.01,2.06
					l0.52,0.57c1.55,1.03,2.26-0.14,2.26-0.14c0.77,1.06,2.04,0.54,2.04,0.54c1.98,1.14,1.93-0.32,4.01-0.64
					c2.08-0.31,5.41,6.45,6.35,13.22c0.94,6.76,2.5,8.64,2.5,8.64c-1.54-1.41-2.73-1.88-4.48-2.47l1.83,2.92
					c-2.18-2.12-3.51-3.92-8.37-4.53c-6.42-0.8-11.46,3.76-11.46,3.76l2.86-3.25c-2.01,0.34-2.53-0.48-3.84-0.97
					c-7.63-2.87-11.33,1.5-12,2.14c-0.28,0.03-0.44,0.06-0.44,0.06c-4.91-2.05-12.39-5.22-12.39-5.22l0.1-5.12
					c-0.87,1.02-3.08,2.13-4.29,2.7c2.78-1.51,5.83-5.57,5.83-5.57l0.61-3.17c0,0,2.76-3.89,2.76-5.73s-2.05-1.43-2.05-1.43
					c0.72-4.71-0.92-10.13-0.92-10.13c-2.44-5.67-7.91-6.49-10.31-6.57c-2.39,0.08-7.86,0.9-10.31,6.57c0,0-1.64,5.42-0.92,10.13
					c0,0-2.05-0.41-2.05,1.43s2.76,5.73,2.76,5.73l0.61,3.17c0,0,3.04,4.06,5.83,5.57c-1.21-0.56-3.42-1.68-4.29-2.7l0.1,5.12
					c0,0-7.47,3.17-12.39,5.22c0,0-0.16-0.03-0.44-0.06c-0.67-0.64-4.37-5.01-12-2.14c-1.31,0.49-1.83,1.32-3.84,0.97l2.86,3.25
					c0,0-5.04-4.56-11.46-3.76c-4.86,0.61-6.19,2.41-8.37,4.53l1.83-2.92c-1.75,0.59-2.94,1.06-4.48,2.47c0,0,1.56-1.87,2.5-8.64
					c0.94-6.76,4.27-13.53,6.35-13.22s2.03,1.78,4.01,0.64c0,0,1.26,0.52,2.04-0.54c0,0,0.72,1.17,2.26,0.14l0.52-0.57
					c0,0,2.21,0.02,2.01-2.06c-0.19-1.95-1.14-5.72-2.91-6.24s-8.33-0.2-11.66,1.47c-3.33,1.66-3.64,2.6-4.79,4.58
					c-1.14,1.98-4.16,6.14-6.76,8.74c-2.6,2.6-7.49,13.22-7.91,18.11c0,0-1.66,4.06,0.42,4.79s4.27,5.52,11.34,6.04
					c1.72,0.13,3.17,0.43,4.46,0.79c0.01-0.05,0.02-0.11,0.03-0.16l0.29,0.26c3.79,1.13,6.12,2.74,9.79,1.82
					c3.92-0.98,7.22-1.94,9.26-1.36c1.61,0.57,3.13,1.37,3.33,2.01c1.73,2.2,2.98,5.6,4.82,9.35c0.16,0.33,0.32,0.64,0.47,0.95
					c0.04,0.08,0.08,0.17,0.11,0.25c0-0.01,0-0.01,0.01-0.01c0.67,1.32,1.28,2.45,1.82,3.4l2.92,3.96c0,0-0.13-3.61-0.57-5.73
					c0.87,0.94,3.48,5.68,4.36,7.22c1.23,3.89,1.2,5.43,2.64,6.45c0,0-3.79-1.94-4.91-4.61c0,0-0.1,5.22,0.92,7.68
					c0,0,0.78,4.37-0.41,7.27c-0.72,1.74-1.84,6.04-1.84,6.04l-0.27,2.9l-0.04,0.38c0,0-0.54,5.3-1.24,8.18
					c22.1,17.2,23.65,22.16,23.65,22.16s2.29-7.24,23.13-22.68c-0.9-1.34-1.26-3.3-1.45-5.56c-0.1-1.23-0.14-2.11-0.14-2.11
					l-0.31-3.28c0,0-1.13-4.3-1.84-6.04c-1.19-2.9-0.41-7.27-0.41-7.27c1.02-2.46,0.92-7.68,0.92-7.68
					c-1.13,2.66-4.91,4.61-4.91,4.61c1.43-1.02,1.41-2.9,2.64-6.79c0.88-1.54,3.15-5.48,4.01-6.42c-0.45,2.12-0.23,5.27-0.23,5.27
					l2.92-3.96c0.54-0.95,1.15-2.08,1.82-3.4c0,0.01,0,0.01,0.01,0.01c0.04-0.08,0.08-0.17,0.11-0.25c0.16-0.31,0.31-0.62,0.47-0.95
					c1.84-3.74,3.09-7.15,4.82-9.35c0.2-0.64,1.71-1.44,3.33-2.01c2.03-0.58,5.33,0.38,9.26,1.36c4.99,1.25,7.49-2.19,14.57-2.71
					c7.08-0.52,9.26-5.31,11.34-6.04C178.37,150.39,176.71,146.33,176.71,146.33z M114.3,177.9l-8.98-4.72l-8.98,4.72l1.72-10
					l-7.27-7.08l10.04-1.46l4.49-9.1l4.49,9.1l10.04,1.46l-7.27,7.08L114.3,177.9z"/>
			</g>
		</g>
	</g>
	<g>
		<path class="st2" d="M319.46,266.25h-44.42v-70.09h44.42L319.46,266.25L319.46,266.25z M301.4,205.26l-10.15,39.47l0.34-0.11
			l10.31-39.69L301.4,205.26z"/>
		<g>
			<path class="st2" d="M54.32,245.51v-14.86h-6.76l0.94-3.72h0.47v-0.57h-0.34l0.27-0.89h0.07v-0.24l0.74-2.91v0.33h0.4v-0.57
				h-0.34l0.2-0.88h0.13v-0.57l0,0l0.34-1.05h0.47v0.16h0.4v-0.16h0.74v0.16h0.47v-0.16h0.73v0.16h0.47v-0.16h0.6v-15.19H64.5v41.14
				h-0.07v-0.4h-0.4v0.4h-0.8v-0.4h-0.4v0.4h-0.74v-0.4h-0.47v0.4h-0.74v-0.4h-0.47v0.4h-0.74v-0.4H59.2v0.4h-0.74v-0.4h-0.47v0.4
				h-0.74v-0.4h-0.4v0.4h-0.74v-0.4h-0.47v0.4H54.9v-0.4h-0.47v0.4h-0.11V245.51z M54.46,205.35h0.47v-0.57h-0.47V205.35z
				 M55.66,205.35h0.47v-0.57h-0.47V205.35z M56.87,205.35h0.4v-0.57h-0.4V205.35z M58.01,205.35h0.47v-0.57h-0.47V205.35z
				 M59.21,205.35h0.47v-0.57h-0.47V205.35z M60.42,205.35h0.47v-0.57h-0.47V205.35z M61.62,205.35h0.47v-0.57h-0.47V205.35z
				 M62.83,205.35h0.4v-0.57h-0.4V205.35z M64.03,205.35h0.4v-0.57h-0.4V205.35z M54.46,206.8h0.47v-0.57h-0.47V206.8z M55.66,206.8
				h0.47v-0.57h-0.47V206.8z M56.87,206.8h0.4v-0.57h-0.4V206.8z M58.01,206.8h0.47v-0.57h-0.47V206.8z M59.21,206.8h0.47v-0.57
				h-0.47V206.8z M60.42,206.8h0.47v-0.57h-0.47V206.8z M61.62,206.8h0.47v-0.57h-0.47V206.8z M62.83,206.8h0.4v-0.57h-0.4V206.8z
				 M64.03,206.8h0.4v-0.57h-0.4V206.8z M54.46,208.17h0.47v-0.48h-0.47V208.17z M55.66,208.17h0.47v-0.48h-0.47V208.17z
				 M56.87,208.17h0.4v-0.48h-0.4V208.17z M58.01,208.17h0.47v-0.48h-0.47V208.17z M59.21,208.17h0.47v-0.48h-0.47V208.17z
				 M60.42,208.17h0.47v-0.48h-0.47V208.17z M61.62,208.17h0.47v-0.48h-0.47V208.17z M62.83,208.17h0.4v-0.48h-0.4V208.17z
				 M64.03,208.17h0.4v-0.48h-0.4V208.17z M54.46,209.62h0.47v-0.48h-0.47V209.62z M55.66,209.62h0.47v-0.48h-0.47V209.62z
				 M56.87,209.62h0.4v-0.48h-0.4V209.62z M58.01,209.62h0.47v-0.48h-0.47V209.62z M59.21,209.62h0.47v-0.48h-0.47V209.62z
				 M60.42,209.62h0.47v-0.48h-0.47V209.62z M61.62,209.62h0.47v-0.48h-0.47V209.62z M62.83,209.62h0.4v-0.48h-0.4V209.62z
				 M64.03,209.62h0.4v-0.48h-0.4V209.62z M54.46,211.08h0.47v-0.57h-0.47V211.08z M55.66,211.08h0.47v-0.57h-0.47V211.08z
				 M56.87,211.08h0.4v-0.57h-0.4V211.08z M58.01,211.08h0.47v-0.57h-0.47V211.08z M59.21,211.08h0.47v-0.57h-0.47V211.08z
				 M60.42,211.08h0.47v-0.57h-0.47V211.08z M61.62,211.08h0.47v-0.57h-0.47V211.08z M62.83,211.08h0.4v-0.57h-0.4V211.08z
				 M64.03,211.08h0.4v-0.57h-0.4V211.08z M54.46,212.53h0.47v-0.57h-0.47V212.53z M55.66,212.53h0.47v-0.57h-0.47V212.53z
				 M56.87,212.53h0.4v-0.57h-0.4V212.53z M58.01,212.53h0.47v-0.57h-0.47V212.53z M59.21,212.53h0.47v-0.57h-0.47V212.53z
				 M60.42,212.53h0.47v-0.57h-0.47V212.53z M61.62,212.53h0.47v-0.57h-0.47V212.53z M62.83,212.53h0.4v-0.57h-0.4V212.53z
				 M64.03,212.53h0.4v-0.57h-0.4V212.53z M54.46,213.99h0.47v-0.57h-0.47V213.99z M55.66,213.99h0.47v-0.57h-0.47V213.99z
				 M56.87,213.99h0.4v-0.57h-0.4V213.99z M58.01,213.99h0.47v-0.57h-0.47V213.99z M59.21,213.99h0.47v-0.57h-0.47V213.99z
				 M60.42,213.99h0.47v-0.57h-0.47V213.99z M61.62,213.99h0.47v-0.57h-0.47V213.99z M62.83,213.99h0.4v-0.57h-0.4V213.99z
				 M64.03,213.99h0.4v-0.57h-0.4V213.99z M54.46,215.37h0.47v-0.48h-0.47V215.37z M55.66,215.37h0.47v-0.48h-0.47V215.37z
				 M56.87,215.37h0.4v-0.48h-0.4V215.37z M58.01,215.37h0.47v-0.48h-0.47V215.37z M59.21,215.37h0.47v-0.48h-0.47V215.37z
				 M60.42,215.37h0.47v-0.48h-0.47V215.37z M61.62,215.37h0.47v-0.48h-0.47V215.37z M62.83,215.37h0.4v-0.48h-0.4V215.37z
				 M64.03,215.37h0.4v-0.48h-0.4V215.37z M54.46,216.82h0.47v-0.48h-0.47V216.82z M55.66,216.82h0.47v-0.48h-0.47V216.82z
				 M56.87,216.82h0.4v-0.48h-0.4V216.82z M58.01,216.82h0.47v-0.48h-0.47V216.82z M59.21,216.82h0.47v-0.48h-0.47V216.82z
				 M60.42,216.82h0.47v-0.48h-0.47V216.82z M61.62,216.82h0.47v-0.48h-0.47V216.82z M62.83,216.82h0.4v-0.48h-0.4V216.82z
				 M64.03,216.82h0.4v-0.48h-0.4V216.82z M54.46,218.27h0.47v-0.57h-0.47V218.27z M55.66,218.27h0.47v-0.57h-0.47V218.27z
				 M56.87,218.27h0.4v-0.57h-0.4V218.27z M58.01,218.27h0.47v-0.57h-0.47V218.27z M59.21,218.27h0.47v-0.57h-0.47V218.27z
				 M60.42,218.27h0.47v-0.57h-0.47V218.27z M61.62,218.27h0.47v-0.57h-0.47V218.27z M62.83,218.27h0.4v-0.57h-0.4V218.27z
				 M64.03,218.27h0.4v-0.57h-0.4V218.27z M54.46,219.73h0.47v-0.57h-0.47V219.73z M55.66,219.73h0.47v-0.57h-0.47V219.73z
				 M56.87,219.73h0.4v-0.57h-0.4V219.73z M58.01,219.73h0.47v-0.57h-0.47V219.73z M59.21,219.73h0.47v-0.57h-0.47V219.73z
				 M60.42,219.73h0.47v-0.57h-0.47V219.73z M61.62,219.73h0.47v-0.57h-0.47V219.73z M62.83,219.73h0.4v-0.57h-0.4V219.73z
				 M64.03,219.73h0.4v-0.57h-0.4V219.73z M50.91,221.18h0.4v-0.57h-0.4V221.18z M52.05,221.18h0.47v-0.57h-0.47V221.18z
				 M53.25,221.18h0.47v-0.57h-0.47V221.18z M54.46,221.18h0.47v-0.57h-0.47V221.18z M55.66,221.18h0.47v-0.57h-0.47V221.18z
				 M56.87,221.18h0.4v-0.57h-0.4V221.18z M58.01,221.18h0.47v-0.57h-0.47V221.18z M59.21,221.18h0.47v-0.57h-0.47V221.18z
				 M60.42,221.18h0.47v-0.57h-0.47V221.18z M61.62,221.18h0.47v-0.57h-0.47V221.18z M62.83,221.18h0.4v-0.57h-0.4V221.18z
				 M64.03,221.18h0.4v-0.57h-0.4V221.18z M50.91,222.64h0.4v-0.57h-0.4V222.64z M52.05,222.64h0.47v-0.57h-0.47V222.64z
				 M53.25,222.64h0.47v-0.57h-0.47V222.64z M54.46,222.64h0.47v-0.57h-0.47V222.64z M55.66,222.64h0.47v-0.57h-0.47V222.64z
				 M56.87,222.64h0.4v-0.57h-0.4V222.64z M58.01,222.64h0.47v-0.57h-0.47V222.64z M59.21,222.64h0.47v-0.57h-0.47V222.64z
				 M60.42,222.64h0.47v-0.57h-0.47V222.64z M61.62,222.64h0.47v-0.57h-0.47V222.64z M62.83,222.64h0.4v-0.57h-0.4V222.64z
				 M64.03,222.64h0.4v-0.57h-0.4V222.64z M49.7,224.02h0.4v-0.48h-0.4V224.02z M50.91,224.02h0.4v-0.48h-0.4V224.02z M52.05,224.02
				h0.47v-0.48h-0.47V224.02z M53.25,224.02h0.47v-0.48h-0.47V224.02z M54.46,224.02h0.47v-0.48h-0.47V224.02z M55.66,224.02h0.47
				v-0.48h-0.47V224.02z M56.87,224.02h0.4v-0.48h-0.4V224.02z M58.01,224.02h0.47v-0.48h-0.47V224.02z M59.21,224.02h0.47v-0.48
				h-0.47V224.02z M60.42,224.02h0.47v-0.48h-0.47V224.02z M61.62,224.02h0.47v-0.48h-0.47V224.02z M62.83,224.02h0.4v-0.48h-0.4
				V224.02z M64.03,224.02h0.4v-0.48h-0.4V224.02z M49.7,225.46h0.4v-0.48h-0.4V225.46z M50.91,225.46h0.4v-0.48h-0.4V225.46z
				 M52.05,225.46h0.47v-0.48h-0.47V225.46z M53.25,225.46h0.47v-0.48h-0.47V225.46z M54.46,225.46h0.47v-0.48h-0.47V225.46z
				 M55.66,225.46h0.47v-0.48h-0.47V225.46z M56.87,225.46h0.4v-0.48h-0.4V225.46z M58.01,225.46h0.47v-0.48h-0.47V225.46z
				 M59.21,225.46h0.47v-0.48h-0.47V225.46z M60.42,225.46h0.47v-0.48h-0.47V225.46z M61.62,225.46h0.47v-0.48h-0.47V225.46z
				 M62.83,225.46h0.4v-0.48h-0.4V225.46z M64.03,225.46h0.4v-0.48h-0.4V225.46z M49.7,226.93h0.4v-0.57h-0.4V226.93z M50.91,226.93
				h0.4v-0.57h-0.4V226.93z M52.05,226.93h0.47v-0.57h-0.47V226.93z M53.25,226.93h0.47v-0.57h-0.47V226.93z M54.46,226.93h0.47
				v-0.57h-0.47V226.93z M55.66,226.93h0.47v-0.57h-0.47V226.93z M56.87,226.93h0.4v-0.57h-0.4V226.93z M58.01,226.93h0.47v-0.57
				h-0.47V226.93z M59.21,226.93h0.47v-0.57h-0.47V226.93z M60.42,226.93h0.47v-0.57h-0.47V226.93z M61.62,226.93h0.47v-0.57h-0.47
				V226.93z M62.83,226.93h0.4v-0.57h-0.4V226.93z M64.03,226.93h0.4v-0.57h-0.4V226.93z M48.5,228.37h0.47v-0.57H48.5V228.37z
				 M49.7,228.37h0.4v-0.57h-0.4V228.37z M50.91,228.37h0.4v-0.57h-0.4V228.37z M52.05,228.37h0.47v-0.57h-0.47V228.37z
				 M53.25,228.37h0.47v-0.57h-0.47V228.37z M54.46,228.37h0.47v-0.57h-0.47V228.37z M55.66,228.37h0.47v-0.57h-0.47V228.37z
				 M56.87,228.37h0.4v-0.57h-0.4V228.37z M58.01,228.37h0.47v-0.57h-0.47V228.37z M59.21,228.37h0.47v-0.57h-0.47V228.37z
				 M60.42,228.37h0.47v-0.57h-0.47V228.37z M61.62,228.37h0.47v-0.57h-0.47V228.37z M62.83,228.37h0.4v-0.57h-0.4V228.37z
				 M64.03,228.37h0.4v-0.57h-0.4V228.37z M48.5,229.82h0.47v-0.57H48.5V229.82z M49.7,229.82h0.4v-0.57h-0.4V229.82z M50.91,229.82
				h0.4v-0.57h-0.4V229.82z M52.05,229.82h0.47v-0.57h-0.47V229.82z M53.25,229.82h0.47v-0.57h-0.47V229.82z M54.46,229.82h0.47
				v-0.57h-0.47V229.82z M55.66,229.82h0.47v-0.57h-0.47V229.82z M56.87,229.82h0.4v-0.57h-0.4V229.82z M58.01,229.82h0.47v-0.57
				h-0.47V229.82z M59.21,229.82h0.47v-0.57h-0.47V229.82z M60.42,229.82h0.47v-0.57h-0.47V229.82z M61.62,229.82h0.47v-0.57h-0.47
				V229.82z M62.83,229.82h0.4v-0.57h-0.4V229.82z M64.03,229.82h0.4v-0.57h-0.4V229.82z M54.46,231.2h0.47v-0.48h-0.47V231.2z
				 M55.66,231.2h0.47v-0.48h-0.47V231.2z M56.87,231.2h0.4v-0.48h-0.4V231.2z M58.01,231.2h0.47v-0.48h-0.47V231.2z M59.21,231.2
				h0.47v-0.48h-0.47V231.2z M60.42,231.2h0.47v-0.48h-0.47V231.2z M61.62,231.2h0.47v-0.48h-0.47V231.2z M62.83,231.2h0.4v-0.48
				h-0.4V231.2z M64.03,231.2h0.4v-0.48h-0.4V231.2z M54.46,232.66h0.47v-0.48h-0.47V232.66z M55.66,232.66h0.47v-0.48h-0.47V232.66
				z M56.87,232.66h0.4v-0.48h-0.4V232.66z M58.01,232.66h0.47v-0.48h-0.47V232.66z M59.21,232.66h0.47v-0.48h-0.47V232.66z
				 M60.42,232.66h0.47v-0.48h-0.47V232.66z M61.62,232.66h0.47v-0.48h-0.47V232.66z M62.83,232.66h0.4v-0.48h-0.4V232.66z
				 M64.03,232.66h0.4v-0.48h-0.4V232.66z M54.46,234.11h0.47v-0.57h-0.47V234.11z M55.66,234.11h0.47v-0.57h-0.47V234.11z
				 M56.87,234.11h0.4v-0.57h-0.4V234.11z M58.01,234.11h0.47v-0.57h-0.47V234.11z M59.21,234.11h0.47v-0.57h-0.47V234.11z
				 M60.42,234.11h0.47v-0.57h-0.47V234.11z M61.62,234.11h0.47v-0.57h-0.47V234.11z M62.83,234.11h0.4v-0.57h-0.4V234.11z
				 M64.03,234.11h0.4v-0.57h-0.4V234.11z M54.46,235.57h0.47V235h-0.47V235.57z M55.66,235.57h0.47V235h-0.47V235.57z
				 M56.87,235.57h0.4V235h-0.4V235.57z M58.01,235.57h0.47V235h-0.47V235.57z M59.21,235.57h0.47V235h-0.47V235.57z M60.42,235.57
				h0.47V235h-0.47V235.57z M61.62,235.57h0.47V235h-0.47V235.57z M62.83,235.57h0.4V235h-0.4V235.57z M64.03,235.57h0.4V235h-0.4
				V235.57z M54.46,237.02h0.47v-0.57h-0.47V237.02z M55.66,237.02h0.47v-0.57h-0.47V237.02z M56.87,237.02h0.4v-0.57h-0.4V237.02z
				 M58.01,237.02h0.47v-0.57h-0.47V237.02z M59.21,237.02h0.47v-0.57h-0.47V237.02z M60.42,237.02h0.47v-0.57h-0.47V237.02z
				 M61.62,237.02h0.47v-0.57h-0.47V237.02z M62.83,237.02h0.4v-0.57h-0.4V237.02z M64.03,237.02h0.4v-0.57h-0.4V237.02z
				 M54.46,238.4h0.47v-0.48h-0.47V238.4z M55.66,238.4h0.47v-0.48h-0.47V238.4z M56.87,238.4h0.4v-0.48h-0.4V238.4z M58.01,238.4
				h0.47v-0.48h-0.47V238.4z M59.21,238.4h0.47v-0.48h-0.47V238.4z M60.42,238.4h0.47v-0.48h-0.47V238.4z M61.62,238.4h0.47v-0.48
				h-0.47V238.4z M62.83,238.4h0.4v-0.48h-0.4V238.4z M64.03,238.4h0.4v-0.48h-0.4V238.4z M54.46,239.84h0.47v-0.48h-0.47V239.84z
				 M55.66,239.84h0.47v-0.48h-0.47V239.84z M56.87,239.84h0.4v-0.48h-0.4V239.84z M58.01,239.84h0.47v-0.48h-0.47V239.84z
				 M59.21,239.84h0.47v-0.48h-0.47V239.84z M60.42,239.84h0.47v-0.48h-0.47V239.84z M61.62,239.84h0.47v-0.48h-0.47V239.84z
				 M62.83,239.84h0.4v-0.48h-0.4V239.84z M64.03,239.84h0.4v-0.48h-0.4V239.84z M54.46,241.31h0.47v-0.57h-0.47V241.31z
				 M55.66,241.31h0.47v-0.57h-0.47V241.31z M56.87,241.31h0.4v-0.57h-0.4V241.31z M58.01,241.31h0.47v-0.57h-0.47V241.31z
				 M59.21,241.31h0.47v-0.57h-0.47V241.31z M60.42,241.31h0.47v-0.57h-0.47V241.31z M61.62,241.31h0.47v-0.57h-0.47V241.31z
				 M62.83,241.31h0.4v-0.57h-0.4V241.31z M64.03,241.31h0.4v-0.57h-0.4V241.31z M54.46,242.75h0.47v-0.57h-0.47V242.75z
				 M55.66,242.75h0.47v-0.57h-0.47V242.75z M56.87,242.75h0.4v-0.57h-0.4V242.75z M58.01,242.75h0.47v-0.57h-0.47V242.75z
				 M59.21,242.75h0.47v-0.57h-0.47V242.75z M60.42,242.75h0.47v-0.57h-0.47V242.75z M61.62,242.75h0.47v-0.57h-0.47V242.75z
				 M62.83,242.75h0.4v-0.57h-0.4V242.75z M64.03,242.75h0.4v-0.57h-0.4V242.75z M54.46,244.22h0.47v-0.57h-0.47V244.22z
				 M55.66,244.22h0.47v-0.57h-0.47V244.22z M56.87,244.22h0.4v-0.57h-0.4V244.22z M58.01,244.22h0.47v-0.57h-0.47V244.22z
				 M59.21,244.22h0.47v-0.57h-0.47V244.22z M60.42,244.22h0.47v-0.57h-0.47V244.22z M61.62,244.22h0.47v-0.57h-0.47V244.22z
				 M62.83,244.22h0.4v-0.57h-0.4V244.22z M64.03,244.22h0.4v-0.57h-0.4V244.22z"/>
			<g>
				<polygon class="st2" points="46.62,230.63 42.6,230.63 42.6,245.51 32.42,245.51 32.42,204.37 42.6,204.37 42.6,219.56 
					49.49,219.56 				"/>
			</g>
			<path class="st2" d="M87.49,231.28v0.16h-0.07v0.57h0.07v0.88h-0.07v0.57h0.07v0.88h-0.07v0.48h0.07v0.98h-0.07v0.48h0.07v0.89
				h-0.07v0.57h0.07v0.89h-0.07v0.57h0.07v0.89h-0.07v0.57h0.07v0.89h-0.07v0.48h0.07v0.97h-0.07v0.48h0.07v0.89h-0.07v0.57h0.07
				v0.57h-9.84v-1.62l0.2-0.81v0.4h0.47v-0.48h-0.4l0.2-0.97h0.2v-0.48h-0.07l1.01-3.8h0.27v-0.57H79.4l0.94-3.72h0.4v-0.57h-0.27
				l1.01-3.79h0.47v-0.48h-0.34l0.27-0.97h0.07v-0.24l0.74-2.91v0.33h0.4v-0.57h-0.34l0.2-0.89h0.13v-0.57l0,0l1-3.8h0.2v-0.48
				h-0.07l0.94-3.79h0.34v-0.57h-0.2l1.01-3.72h0.4v-0.57h-0.27L86.7,209l0,0v-0.08l0.74-2.91v0.08h0.47v-0.57h-0.33l0.2-0.89h0.13
				v-0.24h0.74v0.24h0.4v-0.24h0.8v0.24h0.4v-0.24h0.74v0.24h0.47v-0.24h0.74v0.24h0.47v-0.24h0.73v0.24h0.47v-0.24h0.74v0.24h0.4
				v-0.24h0.8v0.24h0.4v-0.24h0.74v0.24h0.47v-0.24h0.74v0.24h0.4l-0.4,0.89l0,0v0.08l-0.74,1.77v-0.41h-0.47v0.57h0.4l-0.4,0.89
				l0,0l0,0l-0.74,1.77v-0.33h-0.4v0.57h0.33L95,213.11v-0.33h-0.4v0.48h0.34l-1.07,2.74v-0.4H93.4v0.56h0.4l-1.14,2.67v-0.33h-0.47
				v0.48h0.4l-1.14,2.75v-0.4h-0.47v0.57h0.4l-1.14,2.66v-0.31h-0.4v0.57h0.33l-1.14,2.67v-0.34h-0.4v0.48h0.34l-1.07,2.67v-0.33
				h-0.47v0.57h0.34L87.49,231.28z M98.6,204.37h0.07l-0.07,0.08V204.37z M88.63,206.07h0.4v-0.57h-0.4V206.07z M89.83,206.07h0.4
				v-0.57h-0.4V206.07z M90.97,206.07h0.47v-0.57h-0.47V206.07z M92.18,206.07h0.47v-0.57h-0.47V206.07z M93.38,206.07h0.47v-0.57
				h-0.47V206.07z M94.59,206.07h0.4v-0.57h-0.4V206.07z M95.79,206.07h0.4v-0.57h-0.4V206.07z M96.93,206.07h0.47v-0.57h-0.47
				V206.07z M87.42,207.52h0.47v-0.57h-0.47V207.52z M88.63,207.52h0.4v-0.57h-0.4V207.52z M89.83,207.52h0.4v-0.57h-0.4V207.52z
				 M90.97,207.52h0.47v-0.57h-0.47V207.52z M92.18,207.52h0.47v-0.57h-0.47V207.52z M93.38,207.52h0.47v-0.57h-0.47V207.52z
				 M94.59,207.52h0.4v-0.57h-0.4V207.52z M95.79,207.52h0.4v-0.57h-0.4V207.52z M87.42,208.98h0.47v-0.57h-0.47V208.98z
				 M88.63,208.98h0.4v-0.57h-0.4V208.98z M89.83,208.98h0.4v-0.57h-0.4V208.98z M90.97,208.98h0.47v-0.57h-0.47V208.98z
				 M92.18,208.98h0.47v-0.57h-0.47V208.98z M93.38,208.98h0.47v-0.57h-0.47V208.98z M94.59,208.98h0.4v-0.57h-0.4V208.98z
				 M95.79,208.98h0.4v-0.57h-0.4V208.98z M87.42,210.43h0.47v-0.57h-0.47V210.43z M88.63,210.43h0.4v-0.57h-0.4V210.43z
				 M89.83,210.43h0.4v-0.57h-0.4V210.43z M90.97,210.43h0.47v-0.57h-0.47V210.43z M92.18,210.43h0.47v-0.57h-0.47V210.43z
				 M93.38,210.43h0.47v-0.57h-0.47V210.43z M94.59,210.43h0.4v-0.57h-0.4V210.43z M86.22,211.81h0.47v-0.48h-0.47V211.81z
				 M87.42,211.81h0.47v-0.48h-0.47V211.81z M88.63,211.81h0.4v-0.48h-0.4V211.81z M89.83,211.81h0.4v-0.48h-0.4V211.81z
				 M90.97,211.81h0.47v-0.48h-0.47V211.81z M92.18,211.81h0.47v-0.48h-0.47V211.81z M93.38,211.81h0.47v-0.48h-0.47V211.81z
				 M94.59,211.81h0.4v-0.48h-0.4V211.81z M86.22,213.26h0.47v-0.48h-0.47V213.26z M87.42,213.26h0.47v-0.48h-0.47V213.26z
				 M88.63,213.26h0.4v-0.48h-0.4V213.26z M89.83,213.26h0.4v-0.48h-0.4V213.26z M90.97,213.26h0.47v-0.48h-0.47V213.26z
				 M92.18,213.26h0.47v-0.48h-0.47V213.26z M93.38,213.26h0.47v-0.48h-0.47V213.26z M86.22,214.72h0.47v-0.57h-0.47V214.72z
				 M87.42,214.72h0.47v-0.57h-0.47V214.72z M88.63,214.72h0.4v-0.57h-0.4V214.72z M89.83,214.72h0.4v-0.57h-0.4V214.72z
				 M90.97,214.72h0.47v-0.57h-0.47V214.72z M92.18,214.72h0.47v-0.57h-0.47V214.72z M93.38,214.72h0.47v-0.57h-0.47V214.72z
				 M85.01,216.17h0.47v-0.56h-0.47V216.17z M86.22,216.17h0.47v-0.56h-0.47V216.17z M87.42,216.17h0.47v-0.56h-0.47V216.17z
				 M88.63,216.17h0.4v-0.56h-0.4V216.17z M89.83,216.17h0.4v-0.56h-0.4V216.17z M90.97,216.17h0.47v-0.56h-0.47V216.17z
				 M92.18,216.17h0.47v-0.56h-0.47V216.17z M85.01,217.63h0.47v-0.57h-0.47V217.63z M86.22,217.63h0.47v-0.57h-0.47V217.63z
				 M87.42,217.63h0.47v-0.57h-0.47V217.63z M88.63,217.63h0.4v-0.57h-0.4V217.63z M89.83,217.63h0.4v-0.57h-0.4V217.63z
				 M90.97,217.63h0.47v-0.57h-0.47V217.63z M92.18,217.63h0.47v-0.57h-0.47V217.63z M85.01,218.99h0.47v-0.48h-0.47V218.99z
				 M86.22,218.99h0.47v-0.48h-0.47V218.99z M87.42,218.99h0.47v-0.48h-0.47V218.99z M88.63,218.99h0.4v-0.48h-0.4V218.99z
				 M89.83,218.99h0.4v-0.48h-0.4V218.99z M90.97,218.99h0.47v-0.48h-0.47V218.99z M83.87,220.45h0.4v-0.48h-0.4V220.45z
				 M85.01,220.45h0.47v-0.48h-0.47V220.45z M86.22,220.45h0.47v-0.48h-0.47V220.45z M87.42,220.45h0.47v-0.48h-0.47V220.45z
				 M88.63,220.45h0.4v-0.48h-0.4V220.45z M89.83,220.45h0.4v-0.48h-0.4V220.45z M90.97,220.45h0.47v-0.48h-0.47V220.45z
				 M83.87,221.91h0.4v-0.57h-0.4V221.91z M85.01,221.91h0.47v-0.57h-0.47V221.91z M86.22,221.91h0.47v-0.57h-0.47V221.91z
				 M87.42,221.91h0.47v-0.57h-0.47V221.91z M88.63,221.91h0.4v-0.57h-0.4V221.91z M89.83,221.91h0.4v-0.57h-0.4V221.91z
				 M83.87,223.36h0.4v-0.57h-0.4V223.36z M85.01,223.36h0.47v-0.57h-0.47V223.36z M86.22,223.36h0.47v-0.57h-0.47V223.36z
				 M87.42,223.36h0.47v-0.57h-0.47V223.36z M88.63,223.36h0.4v-0.57h-0.4V223.36z M89.83,223.36h0.4v-0.57h-0.4V223.36z
				 M83.87,224.81h0.4v-0.57h-0.4V224.81z M85.01,224.81h0.47v-0.57h-0.47V224.81z M86.22,224.81h0.47v-0.57h-0.47V224.81z
				 M87.42,224.81h0.47v-0.57h-0.47V224.81z M88.63,224.81h0.4v-0.57h-0.4V224.81z M82.67,226.27h0.4v-0.57h-0.4V226.27z
				 M83.87,226.27h0.4v-0.57h-0.4V226.27z M85.01,226.27h0.47v-0.57h-0.47V226.27z M86.22,226.27h0.47v-0.57h-0.47V226.27z
				 M87.42,226.27h0.47v-0.57h-0.47V226.27z M88.63,226.27h0.4v-0.57h-0.4V226.27z M82.67,227.65h0.4v-0.5h-0.4V227.65z
				 M83.87,227.65h0.4v-0.5h-0.4V227.65z M85.01,227.65h0.47v-0.5h-0.47V227.65z M86.22,227.65h0.47v-0.5h-0.47V227.65z
				 M87.42,227.65h0.47v-0.5h-0.47V227.65z M82.67,229.1h0.4v-0.48h-0.4V229.1z M83.87,229.1h0.4v-0.48h-0.4V229.1z M85.01,229.1
				h0.47v-0.48h-0.47V229.1z M86.22,229.1h0.47v-0.48h-0.47V229.1z M87.42,229.1h0.47v-0.48h-0.47V229.1z M81.46,230.56h0.47v-0.57
				h-0.47V230.56z M82.67,230.56h0.4v-0.57h-0.4V230.56z M83.87,230.56h0.4v-0.57h-0.4V230.56z M85.01,230.56h0.47v-0.57h-0.47
				V230.56z M86.22,230.56h0.47v-0.57h-0.47V230.56z M81.46,232.01h0.47v-0.57h-0.47V232.01z M82.67,232.01h0.4v-0.57h-0.4V232.01z
				 M83.87,232.01h0.4v-0.57h-0.4V232.01z M85.01,232.01h0.47v-0.57h-0.47V232.01z M86.22,232.01h0.47v-0.57h-0.47V232.01z
				 M81.46,233.47h0.47v-0.57h-0.47V233.47z M82.67,233.47h0.4v-0.57h-0.4V233.47z M83.87,233.47h0.4v-0.57h-0.4V233.47z
				 M85.01,233.47h0.47v-0.57h-0.47V233.47z M86.22,233.47h0.47v-0.57h-0.47V233.47z M80.26,234.83h0.47v-0.48h-0.47V234.83z
				 M81.46,234.83h0.47v-0.48h-0.47V234.83z M82.67,234.83h0.4v-0.48h-0.4V234.83z M83.87,234.83h0.4v-0.48h-0.4V234.83z
				 M85.01,234.83h0.47v-0.48h-0.47V234.83z M86.22,234.83h0.47v-0.48h-0.47V234.83z M80.26,236.3h0.47v-0.48h-0.47V236.3z
				 M81.46,236.3h0.47v-0.48h-0.47V236.3z M82.67,236.3h0.4v-0.48h-0.4V236.3z M83.87,236.3h0.4v-0.48h-0.4V236.3z M85.01,236.3
				h0.47v-0.48h-0.47V236.3z M86.22,236.3h0.47v-0.48h-0.47V236.3z M80.26,237.74h0.47v-0.57h-0.47V237.74z M81.46,237.74h0.47
				v-0.57h-0.47V237.74z M82.67,237.74h0.4v-0.57h-0.4V237.74z M83.87,237.74h0.4v-0.57h-0.4V237.74z M85.01,237.74h0.47v-0.57
				h-0.47V237.74z M86.22,237.74h0.47v-0.57h-0.47V237.74z M79.05,239.2h0.47v-0.57h-0.47V239.2z M80.26,239.2h0.47v-0.57h-0.47
				V239.2z M81.46,239.2h0.47v-0.57h-0.47V239.2z M82.67,239.2h0.4v-0.57h-0.4V239.2z M83.87,239.2h0.4v-0.57h-0.4V239.2z
				 M85.01,239.2h0.47v-0.57h-0.47V239.2z M86.22,239.2h0.47v-0.57h-0.47V239.2z M79.05,240.65h0.47v-0.57h-0.47V240.65z
				 M80.26,240.65h0.47v-0.57h-0.47V240.65z M81.46,240.65h0.47v-0.57h-0.47V240.65z M82.67,240.65h0.4v-0.57h-0.4V240.65z
				 M83.87,240.65h0.4v-0.57h-0.4V240.65z M85.01,240.65h0.47v-0.57h-0.47V240.65z M86.22,240.65h0.47v-0.57h-0.47V240.65z
				 M79.05,242.03h0.47v-0.48h-0.47V242.03z M80.26,242.03h0.47v-0.48h-0.47V242.03z M81.46,242.03h0.47v-0.48h-0.47V242.03z
				 M82.67,242.03h0.4v-0.48h-0.4V242.03z M83.87,242.03h0.4v-0.48h-0.4V242.03z M85.01,242.03h0.47v-0.48h-0.47V242.03z
				 M86.22,242.03h0.47v-0.48h-0.47V242.03z M79.05,243.48h0.47V243h-0.47V243.48z M80.26,243.48h0.47V243h-0.47V243.48z
				 M81.46,243.48h0.47V243h-0.47V243.48z M82.67,243.48h0.4V243h-0.4V243.48z M83.87,243.48h0.4V243h-0.4V243.48z M85.01,243.48
				h0.47V243h-0.47V243.48z M86.22,243.48h0.47V243h-0.47V243.48z M77.85,244.94h0.47v-0.57h-0.47V244.94z M79.05,244.94h0.47v-0.57
				h-0.47V244.94z M80.26,244.94h0.47v-0.57h-0.47V244.94z M81.46,244.94h0.47v-0.57h-0.47V244.94z M82.67,244.94h0.4v-0.57h-0.4
				V244.94z M83.87,244.94h0.4v-0.57h-0.4V244.94z M85.01,244.94h0.47v-0.57h-0.47V244.94z M86.22,244.94h0.47v-0.57h-0.47V244.94z"
				/>
			<g>
				<polygon class="st2" points="76.58,243.89 76.58,231.28 65.46,204.37 76.44,204.37 81.53,217.3 86.56,204.37 86.76,204.37 				
					"/>
			</g>
		</g>
		<g>
			<path class="st2" d="M117.06,247.2c-1.27,0-2.54-0.16-3.82-0.33l0.4-1.46h0.47v-0.57h-0.33l0.27-0.89h0.06v-0.24l0.74-2.91v0.24
				h0.4v-0.48h-0.34l0.2-0.97h0.13v-0.48l0,0l0.6-2.26c0.74,0.08,1.54,0.16,2.35,0.16c0.27,0,0.47,0,0.73,0c0.2,0,0.4,0,0.67-0.08
				c0.47,0,0.87-0.08,1.27-0.16h0.4v-0.24c0.27-0.16,0.54-0.4,0.8-0.72c0.07-0.16,0.2-0.33,0.27-0.48h0.07v-0.48
				c0.07-0.16,0.07-0.4,0.07-0.72c0-0.16,0-0.33-0.07-0.48v-0.33h-0.07c-0.13-0.16-0.2-0.33-0.4-0.41c-0.2-0.24-0.47-0.4-0.67-0.57
				v-0.4h-0.46v0.08c-0.2-0.08-0.4-0.17-0.6-0.24c-0.6-0.33-1.14-0.48-1.74-0.65l-0.8-0.16v-0.48h-0.13l0.94-3.8h0.4v-0.57h-0.27
				l0.27-0.88l0,0v-0.08l0.74-2.91v0.17h0.47v-0.57h-0.33l0.2-0.89h0.13v-0.41l0.13-0.48c0.47,0.08,0.94,0.24,1.47,0.4l0.34,0.17
				v0.33h0.4v-0.24c0.74,0.24,1.48,0.57,2.21,0.81c0.34,0.16,0.6,0.24,0.94,0.41v0.48h0.47v-0.24c0.47,0.24,0.94,0.57,1.41,0.89
				c0.2,0.07,0.33,0.24,0.53,0.33v0.41h0.4l0,0c0.4,0.24,0.73,0.57,1.07,0.97h-0.27v0.48h0.4v-0.33l0.2,0.24
				c0.27,0.33,0.53,0.64,0.8,0.97h-0.27v0.57h0.47v-0.16c0.27,0.48,0.53,0.97,0.67,1.53c0.13,0.33,0.27,0.64,0.33,0.97h-0.27v0.57
				h0.4c0.07,0.33,0.14,0.72,0.2,1.13c0.13,0.97,0.2,1.86,0.2,2.83c0,1.53-0.13,2.91-0.47,4.12h-0.34v0.57h0.2
				c-0.2,0.72-0.47,1.38-0.8,2.03l-0.14,0.33l0,0h-0.47v0.48h0.14c-0.27,0.48-0.54,0.89-0.87,1.29v-0.4h-0.4v0.57h0.27
				c-0.34,0.41-0.67,0.72-1.07,1.13v-0.24h-0.4V244h0.07c-0.27,0.17-0.47,0.33-0.67,0.48c-0.4,0.33-0.87,0.57-1.34,0.81v-0.41h-0.47
				v0.57h0.27c-0.74,0.33-1.47,0.65-2.21,0.89h-0.4v0.07c-0.27,0.08-0.54,0.16-0.74,0.16l-0.07,0.08v-0.33H122v0.4
				c-0.27,0-0.54,0.08-0.74,0.08v-0.48h-0.46v0.48h0.4C119.8,247.04,118.46,247.2,117.06,247.2L117.06,247.2z M124.35,206.56h0.47
				v-0.57h-0.47V206.56z M125.56,206.56h0.47v-0.57h-0.47V206.56z M126.77,206.56h0.47v-0.57h-0.47V206.56z M124.35,207.93h0.47
				v-0.48h-0.47V207.93z M125.56,207.93h0.47v-0.48h-0.47V207.93z M126.77,207.93h0.47v-0.48h-0.47V207.93z M127.97,207.93h0.4
				v-0.48h-0.4V207.93z M129.18,207.93h0.4v-0.48h-0.4V207.93z M123.22,209.38h0.4v-0.48h-0.4V209.38z M124.35,209.38h0.47v-0.48
				h-0.47V209.38z M125.56,209.38h0.47v-0.48h-0.47V209.38z M126.77,209.38h0.47v-0.48h-0.47V209.38z M127.97,209.38h0.4v-0.48h-0.4
				V209.38z M129.18,209.38h0.4v-0.48h-0.4V209.38z M123.22,210.84h0.4v-0.57h-0.4V210.84z M124.35,210.84h0.47v-0.57h-0.47V210.84z
				 M125.56,210.84h0.47v-0.57h-0.47V210.84z M126.77,210.84h0.47v-0.57h-0.47V210.84z M127.97,210.84h0.4v-0.57h-0.4V210.84z
				 M129.18,210.84h0.4v-0.57h-0.4V210.84z M123.22,212.29h0.4v-0.57h-0.4V212.29z M124.35,212.29h0.47v-0.57h-0.47V212.29z
				 M125.56,212.29h0.47v-0.57h-0.47V212.29z M126.77,212.29h0.47v-0.57h-0.47V212.29z M127.97,212.29h0.4v-0.57h-0.4V212.29z
				 M122.01,213.75h0.4v-0.57h-0.4V213.75z M123.22,213.75h0.4v-0.57h-0.4V213.75z M124.35,213.75h0.47v-0.57h-0.47V213.75z
				 M125.56,213.75h0.47v-0.57h-0.47V213.75z M126.77,213.75h0.47v-0.57h-0.47V213.75z M127.97,213.75h0.4v-0.57h-0.4V213.75z
				 M123.22,215.2h0.4v-0.57h-0.4V215.2z M124.35,215.2h0.47v-0.57h-0.47V215.2z M125.56,215.2h0.47v-0.57h-0.47V215.2z
				 M126.77,215.2h0.47v-0.57h-0.47V215.2z M120.8,220.94h0.47v-0.57h-0.47V220.94z M120.8,222.4h0.47v-0.57h-0.47V222.4z
				 M122.01,222.4h0.4v-0.57h-0.4V222.4z M123.22,222.4h0.4v-0.57h-0.4V222.4z M124.35,222.4h0.47v-0.57h-0.47V222.4z M119.6,223.76
				h0.47v-0.48h-0.47V223.76z M120.8,223.76h0.47v-0.48h-0.47V223.76z M122.01,223.76h0.4v-0.48h-0.4V223.76z M123.22,223.76h0.4
				v-0.48h-0.4V223.76z M124.35,223.76h0.47v-0.48h-0.47V223.76z M125.56,223.76h0.47v-0.48h-0.47V223.76z M126.77,223.76h0.47
				v-0.48h-0.47V223.76z M119.6,225.22h0.47v-0.48h-0.47V225.22z M120.8,225.22h0.47v-0.48h-0.47V225.22z M122.01,225.22h0.4v-0.48
				h-0.4V225.22z M123.22,225.22h0.4v-0.48h-0.4V225.22z M124.35,225.22h0.47v-0.48h-0.47V225.22z M125.56,225.22h0.47v-0.48h-0.47
				V225.22z M126.77,225.22h0.47v-0.48h-0.47V225.22z M127.97,225.22h0.4v-0.48h-0.4V225.22z M119.6,226.67h0.47v-0.57h-0.47V226.67
				z M120.8,226.67h0.47v-0.57h-0.47V226.67z M122.01,226.67h0.4v-0.57h-0.4V226.67z M123.22,226.67h0.4v-0.57h-0.4V226.67z
				 M124.35,226.67h0.47v-0.57h-0.47V226.67z M125.56,226.67h0.47v-0.57h-0.47V226.67z M126.77,226.67h0.47v-0.57h-0.47V226.67z
				 M127.97,226.67h0.4v-0.57h-0.4V226.67z M129.18,226.67h0.4v-0.57h-0.4V226.67z M118.39,228.13h0.47v-0.57h-0.47V228.13z
				 M119.6,228.13h0.47v-0.57h-0.47V228.13z M120.8,228.13h0.47v-0.57h-0.47V228.13z M122.01,228.13h0.4v-0.57h-0.4V228.13z
				 M123.22,228.13h0.4v-0.57h-0.4V228.13z M124.35,228.13h0.47v-0.57h-0.47V228.13z M125.56,228.13h0.47v-0.57h-0.47V228.13z
				 M126.77,228.13h0.47v-0.57h-0.47V228.13z M127.97,228.13h0.4v-0.57h-0.4V228.13z M129.18,228.13h0.4v-0.57h-0.4V228.13z
				 M130.31,228.13h0.47v-0.57h-0.47V228.13z M118.39,229.58h0.47v-0.57h-0.47V229.58z M119.6,229.58h0.47v-0.57h-0.47V229.58z
				 M120.8,229.58h0.47v-0.57h-0.47V229.58z M122.01,229.58h0.4v-0.57h-0.4V229.58z M123.22,229.58h0.4v-0.57h-0.4V229.58z
				 M124.35,229.58h0.47v-0.57h-0.47V229.58z M125.56,229.58h0.47v-0.57h-0.47V229.58z M126.77,229.58h0.47v-0.57h-0.47V229.58z
				 M127.97,229.58h0.4v-0.57h-0.4V229.58z M129.18,229.58h0.4v-0.57h-0.4V229.58z M130.31,229.58h0.47v-0.57h-0.47V229.58z
				 M118.39,230.96h0.47v-0.48h-0.47V230.96z M119.6,230.96h0.47v-0.48h-0.47V230.96z M120.8,230.96h0.47v-0.48h-0.47V230.96z
				 M122.01,230.96h0.4v-0.48h-0.4V230.96z M123.22,230.96h0.4v-0.48h-0.4V230.96z M124.35,230.96h0.47v-0.48h-0.47V230.96z
				 M125.56,230.96h0.47v-0.48h-0.47V230.96z M126.77,230.96h0.47v-0.48h-0.47V230.96z M127.97,230.96h0.4v-0.48h-0.4V230.96z
				 M129.18,230.96h0.4v-0.48h-0.4V230.96z M130.31,230.96h0.47v-0.48h-0.47V230.96z M131.52,230.96h0.47v-0.48h-0.47V230.96z
				 M122.01,232.42h0.4v-0.48h-0.4V232.42z M123.22,232.42h0.4v-0.48h-0.4V232.42z M124.35,232.42h0.47v-0.48h-0.47V232.42z
				 M125.56,232.42h0.47v-0.48h-0.47V232.42z M126.77,232.42h0.47v-0.48h-0.47V232.42z M127.97,232.42h0.4v-0.48h-0.4V232.42z
				 M129.18,232.42h0.4v-0.48h-0.4V232.42z M130.31,232.42h0.47v-0.48h-0.47V232.42z M131.52,232.42h0.47v-0.48h-0.47V232.42z
				 M123.22,233.87h0.4v-0.57h-0.4V233.87z M124.35,233.87h0.47v-0.57h-0.47V233.87z M125.56,233.87h0.47v-0.57h-0.47V233.87z
				 M126.77,233.87h0.47v-0.57h-0.47V233.87z M127.97,233.87h0.4v-0.57h-0.4V233.87z M129.18,233.87h0.4v-0.57h-0.4V233.87z
				 M130.31,233.87h0.47v-0.57h-0.47V233.87z M131.52,233.87h0.47v-0.57h-0.47V233.87z M123.22,235.32h0.4v-0.57h-0.4V235.32z
				 M124.35,235.32h0.47v-0.57h-0.47V235.32z M125.56,235.32h0.47v-0.57h-0.47V235.32z M126.77,235.32h0.47v-0.57h-0.47V235.32z
				 M127.97,235.32h0.4v-0.57h-0.4V235.32z M129.18,235.32h0.4v-0.57h-0.4V235.32z M130.31,235.32h0.47v-0.57h-0.47V235.32z
				 M131.52,235.32h0.47v-0.57h-0.47V235.32z M122.01,236.78h0.4v-0.57h-0.4V236.78z M123.22,236.78h0.4v-0.57h-0.4V236.78z
				 M124.35,236.78h0.47v-0.57h-0.47V236.78z M125.56,236.78h0.47v-0.57h-0.47V236.78z M126.77,236.78h0.47v-0.57h-0.47V236.78z
				 M127.97,236.78h0.4v-0.57h-0.4V236.78z M129.18,236.78h0.4v-0.57h-0.4V236.78z M130.31,236.78h0.47v-0.57h-0.47V236.78z
				 M131.52,236.78h0.47v-0.57h-0.47V236.78z M116.05,238.23h0.4v-0.57h-0.4V238.23z M117.19,238.23h0.47v-0.57h-0.47V238.23z
				 M118.39,238.23h0.47v-0.57h-0.47V238.23z M119.6,238.23h0.47v-0.57h-0.47V238.23z M120.8,238.23h0.47v-0.57h-0.47V238.23z
				 M122.01,238.23h0.4v-0.57h-0.4V238.23z M123.22,238.23h0.4v-0.57h-0.4V238.23z M124.35,238.23h0.47v-0.57h-0.47V238.23z
				 M125.56,238.23h0.47v-0.57h-0.47V238.23z M126.77,238.23h0.47v-0.57h-0.47V238.23z M127.97,238.23h0.4v-0.57h-0.4V238.23z
				 M129.18,238.23h0.4v-0.57h-0.4V238.23z M130.31,238.23h0.47v-0.57h-0.47V238.23z M116.05,239.6h0.4v-0.48h-0.4V239.6z
				 M117.19,239.6h0.47v-0.48h-0.47V239.6z M118.39,239.6h0.47v-0.48h-0.47V239.6z M119.6,239.6h0.47v-0.48h-0.47V239.6z
				 M120.8,239.6h0.47v-0.48h-0.47V239.6z M122.01,239.6h0.4v-0.48h-0.4V239.6z M123.22,239.6h0.4v-0.48h-0.4V239.6z M124.35,239.6
				h0.47v-0.48h-0.47V239.6z M125.56,239.6h0.47v-0.48h-0.47V239.6z M126.77,239.6h0.47v-0.48h-0.47V239.6z M127.97,239.6h0.4v-0.48
				h-0.4V239.6z M129.18,239.6h0.4v-0.48h-0.4V239.6z M130.31,239.6h0.47v-0.48h-0.47V239.6z M116.05,241.05h0.4v-0.48h-0.4V241.05z
				 M117.19,241.05h0.47v-0.48h-0.47V241.05z M118.39,241.05h0.47v-0.48h-0.47V241.05z M119.6,241.05h0.47v-0.48h-0.47V241.05z
				 M120.8,241.05h0.47v-0.48h-0.47V241.05z M122.01,241.05h0.4v-0.48h-0.4V241.05z M123.22,241.05h0.4v-0.48h-0.4V241.05z
				 M124.35,241.05h0.47v-0.48h-0.47V241.05z M125.56,241.05h0.47v-0.48h-0.47V241.05z M126.77,241.05h0.47v-0.48h-0.47V241.05z
				 M127.97,241.05h0.4v-0.48h-0.4V241.05z M129.18,241.05h0.4v-0.48h-0.4V241.05z M114.85,242.51h0.4v-0.57h-0.4V242.51z
				 M116.05,242.51h0.4v-0.57h-0.4V242.51z M117.19,242.51h0.47v-0.57h-0.47V242.51z M118.39,242.51h0.47v-0.57h-0.47V242.51z
				 M119.6,242.51h0.47v-0.57h-0.47V242.51z M120.8,242.51h0.47v-0.57h-0.47V242.51z M122.01,242.51h0.4v-0.57h-0.4V242.51z
				 M123.22,242.51h0.4v-0.57h-0.4V242.51z M124.35,242.51h0.47v-0.57h-0.47V242.51z M125.56,242.51h0.47v-0.57h-0.47V242.51z
				 M126.77,242.51h0.47v-0.57h-0.47V242.51z M127.97,242.51h0.4v-0.57h-0.4V242.51z M114.85,243.96h0.4v-0.57h-0.4V243.96z
				 M116.05,243.96h0.4v-0.57h-0.4V243.96z M117.19,243.96h0.47v-0.57h-0.47V243.96z M118.39,243.96h0.47v-0.57h-0.47V243.96z
				 M119.6,243.96h0.47v-0.57h-0.47V243.96z M120.8,243.96h0.47v-0.57h-0.47V243.96z M122.01,243.96h0.4v-0.57h-0.4V243.96z
				 M123.22,243.96h0.4v-0.57h-0.4V243.96z M124.35,243.96h0.47v-0.57h-0.47V243.96z M125.56,243.96h0.47v-0.57h-0.47V243.96z
				 M126.77,243.96h0.47v-0.57h-0.47V243.96z M114.85,245.42h0.4v-0.57h-0.4V245.42z M116.05,245.42h0.4v-0.57h-0.4V245.42z
				 M117.19,245.42h0.47v-0.57h-0.47V245.42z M118.39,245.42h0.47v-0.57h-0.47V245.42z M119.6,245.42h0.47v-0.57h-0.47V245.42z
				 M120.8,245.42h0.47v-0.57h-0.47V245.42z M122.01,245.42h0.4v-0.57h-0.4V245.42z M123.22,245.42h0.4v-0.57h-0.4V245.42z
				 M124.35,245.42h0.47v-0.57h-0.47V245.42z M113.64,246.8h0.47v-0.48h-0.47V246.8z M114.85,246.8h0.4v-0.48h-0.4V246.8z
				 M116.05,246.8h0.4v-0.48h-0.4V246.8z M117.19,246.8h0.47v-0.48h-0.47V246.8z M118.39,246.8h0.47v-0.48h-0.47V246.8z
				 M119.6,246.8h0.47v-0.48h-0.47V246.8z M124.22,204.37c0.2,0.08,0.34,0.16,0.54,0.16h-0.4v0.57h0.47v-0.57v0.08
				c0.27,0,0.54,0.08,0.74,0.16v0.33h0.47v-0.16c0.74,0.33,1.47,0.64,2.21,1.05h-0.27v0.57h0.4v-0.48c0.27,0.16,0.54,0.33,0.8,0.41
				v0.08l0,0c0.47,0.24,0.94,0.57,1.41,0.89h-0.27v0.48h0.47v-0.33c0.2,0.08,0.34,0.24,0.47,0.33l-0.47,1.05v-0.08h-0.47v0.48h0.27
				c-0.4,0.81-0.74,1.62-1.14,2.34h-0.27v0.57l0,0l-0.14,0.33c-0.27,0.64-0.6,1.29-0.94,2.02h-0.14v0.33l-0.73,1.53v-0.4h-0.47v0.48
				h0.4l-0.33,0.65c-0.34-0.24-0.74-0.41-1.07-0.65h0.27v-0.48h-0.47v0.4c-0.27-0.16-0.47-0.24-0.74-0.4l0,0l0,0
				c-0.87-0.48-1.61-0.81-2.41-1.13v-0.33h-0.4v0.08h-0.14l-0.27-0.16l0.61-2.26h0.2v-0.57h-0.07l0.94-3.8h0.33v-0.48h-0.2
				L124.22,204.37z"/>
			<g>
				<path class="st2" d="M112.23,247.61c-0.94-0.16-1.87-0.4-2.81-0.64c-2.21-0.65-4.28-1.62-6.29-2.75c-0.07,0-0.07,0-0.14-0.08
					c-0.07,0-0.2-0.08-0.27-0.08c-0.2-0.17-0.33-0.33-0.4-0.41c-0.07-0.16-0.13-0.33-0.13-0.41c0,0,0.2-0.48,0.6-1.29
					c0.34-0.88,0.8-1.86,1.34-2.91c0.47-0.97,0.94-1.86,1.34-2.83c0.4-0.89,0.74-1.53,1.01-2.1c0.4,0.16,0.67,0.33,0.87,0.48
					c0.2,0.08,0.34,0.16,0.54,0.33c1.54,0.88,3.01,1.62,4.55,2.1c0.8,0.24,1.61,0.48,2.41,0.57L112.23,247.61z M116.38,231.61
					l-0.8-0.17c-0.8-0.24-1.61-0.48-2.41-0.64c-0.8-0.24-1.61-0.48-2.34-0.72c-0.8-0.33-1.54-0.65-2.21-0.97
					c-0.67-0.41-1.34-0.81-2.01-1.22c-1.27-0.97-2.28-2.26-3.01-3.79c-0.74-1.53-1.14-3.63-1.14-6.22c0-1.86,0.34-3.55,1.01-5.25
					c0.6-1.7,1.47-3.08,2.48-4.12c1.01-1.05,2.14-1.94,3.42-2.51c1.2-0.64,2.48-1.05,3.88-1.29c1.34-0.24,2.68-0.33,4.02-0.33
					c2.01,0,3.95,0.24,5.96,0.81l-2.68,10.18c-1.41-0.56-2.95-0.81-4.62-0.81c-0.34,0-0.67,0-1.14,0.08c-0.4,0-0.8,0.08-1.21,0.24
					c-0.34,0.16-0.67,0.4-0.94,0.72c-0.2,0.33-0.34,0.81-0.34,1.45c0,0.4,0.07,0.72,0.2,1.05c0.2,0.33,0.47,0.64,0.94,0.89
					c0.47,0.16,1.07,0.41,1.87,0.72c0.8,0.24,1.61,0.48,2.54,0.64c0.4,0.16,0.87,0.24,1.34,0.41L116.38,231.61z"/>
			</g>
			<path class="st2" d="M154,233.14h-0.74v-0.48h-0.4v0.48h-0.8v-0.48h-0.4v0.48h-0.74v-0.48h-0.47v0.48h-0.74v-0.48h-0.47v0.48
				h-0.74v-0.48h-0.33l0.27-0.89h0.07v-0.33l0.74-2.91v0.41h0.47v-0.57h-0.4l0.2-0.88h0.2v-0.57h-0.07l1.01-3.8h0.27v-0.48h-0.13
				l0.07-0.48h2.88c0.6,0,1.14-0.16,1.61-0.48h0.33v-0.24c0.14-0.08,0.2-0.24,0.34-0.4c0.2-0.24,0.4-0.48,0.54-0.72h0.33v-0.57
				h-0.13c0.13-0.4,0.2-0.89,0.2-1.38c0-0.33-0.07-0.64-0.13-0.97h0.07v-0.57h-0.2c-0.13-0.41-0.4-0.89-0.67-1.29
				c-0.47-0.57-1-0.97-1.54-1.13v-0.41h-0.47v0.33c-0.07-0.08-0.13-0.08-0.27-0.08h-0.47v-0.24h-0.27l0.27-0.89l0,0v-0.16l0.74-2.91
				v0.16h0.47v-0.57h-0.34l0.2-0.88h0.14v-0.48l0.74-2.91v0.57h0.47v-0.57h-0.47l0.27-0.89h0.2v-0.08c1.07,0.16,2.15,0.48,3.15,0.97
				l0,0v0.57h0.4v-0.41c0.74,0.41,1.41,0.81,2.08,1.29h-0.14v0.48h0.47v-0.24c0.53,0.4,1,0.88,1.47,1.38
				c0.74,0.81,1.41,1.69,1.94,2.67h-0.27v0.57h0.4v-0.24c0.27,0.48,0.54,0.97,0.81,1.53v0.16l0,0c0.13,0.24,0.27,0.57,0.34,0.89
				h-0.34v0.48h0.4v-0.33c0.47,1.46,0.67,2.99,0.67,4.6c0,1.94-0.27,3.63-0.87,5.25h-0.2v0.57l0,0c-0.6,1.45-1.41,2.67-2.28,3.79
				h-0.13v0.16c-0.13,0.17-0.27,0.33-0.47,0.48c-0.8,0.89-1.68,1.62-2.68,2.26h-0.47v0.24c-0.27,0.16-0.6,0.33-1.01,0.48
				c-0.67,0.33-1.41,0.57-2.08,0.72v-0.08h-0.47v0.24c-0.27,0-0.47,0.08-0.74,0.08v-0.33h-0.47v0.4c-0.27,0-0.47,0-0.74,0v-0.4
				h-0.47v0.53H154z M156.41,205.92h0.47v-0.57h-0.47V205.92z M157.61,205.92h0.4v-0.57h-0.4V205.92z M155.2,207.28h0.47v-0.48
				h-0.47V207.28z M156.41,207.28h0.47v-0.48h-0.47V207.28z M157.61,207.28h0.4v-0.48h-0.4V207.28z M158.82,207.28h0.4v-0.48h-0.4
				V207.28z M159.96,207.28h0.47v-0.48h-0.47V207.28z M155.2,208.74h0.47v-0.48h-0.47V208.74z M156.41,208.74h0.47v-0.48h-0.47
				V208.74z M157.61,208.74h0.4v-0.48h-0.4V208.74z M158.82,208.74h0.4v-0.48h-0.4V208.74z M159.96,208.74h0.47v-0.48h-0.47V208.74z
				 M161.16,208.74h0.47v-0.48h-0.47V208.74z M162.37,208.74h0.47v-0.48h-0.47V208.74z M155.2,210.19h0.47v-0.57h-0.47V210.19z
				 M156.41,210.19h0.47v-0.57h-0.47V210.19z M157.61,210.19h0.4v-0.57h-0.4V210.19z M158.82,210.19h0.4v-0.57h-0.4V210.19z
				 M159.96,210.19h0.47v-0.57h-0.47V210.19z M161.16,210.19h0.47v-0.57h-0.47V210.19z M162.37,210.19h0.47v-0.57h-0.47V210.19z
				 M163.57,210.19h0.47v-0.57h-0.47V210.19z M154,211.65h0.47v-0.57H154V211.65z M155.2,211.65h0.47v-0.57h-0.47V211.65z
				 M156.41,211.65h0.47v-0.57h-0.47V211.65z M157.61,211.65h0.4v-0.57h-0.4V211.65z M158.82,211.65h0.4v-0.57h-0.4V211.65z
				 M159.96,211.65h0.47v-0.57h-0.47V211.65z M161.16,211.65h0.47v-0.57h-0.47V211.65z M162.37,211.65h0.47v-0.57h-0.47V211.65z
				 M163.57,211.65h0.47v-0.57h-0.47V211.65z M154,213.1h0.47v-0.57H154V213.1z M155.2,213.1h0.47v-0.57h-0.47V213.1z M156.41,213.1
				h0.47v-0.57h-0.47V213.1z M157.61,213.1h0.4v-0.57h-0.4V213.1z M158.82,213.1h0.4v-0.57h-0.4V213.1z M159.96,213.1h0.47v-0.57
				h-0.47V213.1z M161.16,213.1h0.47v-0.57h-0.47V213.1z M162.37,213.1h0.47v-0.57h-0.47V213.1z M163.57,213.1h0.47v-0.57h-0.47
				V213.1z M164.78,213.1h0.4v-0.57h-0.4V213.1z M155.2,214.48h0.47v-0.48h-0.47V214.48z M156.41,214.48h0.47v-0.48h-0.47V214.48z
				 M157.61,214.48h0.4v-0.48h-0.4V214.48z M158.82,214.48h0.4v-0.48h-0.4V214.48z M159.96,214.48h0.47v-0.48h-0.47V214.48z
				 M161.16,214.48h0.47v-0.48h-0.47V214.48z M162.37,214.48h0.47v-0.48h-0.47V214.48z M163.57,214.48h0.47v-0.48h-0.47V214.48z
				 M164.78,214.48h0.4v-0.48h-0.4V214.48z M156.41,215.93h0.47v-0.48h-0.47V215.93z M157.61,215.93h0.4v-0.48h-0.4V215.93z
				 M158.82,215.93h0.4v-0.48h-0.4V215.93z M159.96,215.93h0.47v-0.48h-0.47V215.93z M161.16,215.93h0.47v-0.48h-0.47V215.93z
				 M162.37,215.93h0.47v-0.48h-0.47V215.93z M163.57,215.93h0.47v-0.48h-0.47V215.93z M164.78,215.93h0.4v-0.48h-0.4V215.93z
				 M165.98,215.93h0.4v-0.48h-0.4V215.93z M157.61,217.39h0.4v-0.57h-0.4V217.39z M158.82,217.39h0.4v-0.57h-0.4V217.39z
				 M159.96,217.39h0.47v-0.57h-0.47V217.39z M161.16,217.39h0.47v-0.57h-0.47V217.39z M162.37,217.39h0.47v-0.57h-0.47V217.39z
				 M163.57,217.39h0.47v-0.57h-0.47V217.39z M164.78,217.39h0.4v-0.57h-0.4V217.39z M165.98,217.39h0.4v-0.57h-0.4V217.39z
				 M157.61,218.84h0.4v-0.57h-0.4V218.84z M158.82,218.84h0.4v-0.57h-0.4V218.84z M159.96,218.84h0.47v-0.57h-0.47V218.84z
				 M161.16,218.84h0.47v-0.57h-0.47V218.84z M162.37,218.84h0.47v-0.57h-0.47V218.84z M163.57,218.84h0.47v-0.57h-0.47V218.84z
				 M164.78,218.84h0.4v-0.57h-0.4V218.84z M165.98,218.84h0.4v-0.57h-0.4V218.84z M157.61,220.3h0.4v-0.57h-0.4V220.3z
				 M158.82,220.3h0.4v-0.57h-0.4V220.3z M159.96,220.3h0.47v-0.57h-0.47V220.3z M161.16,220.3h0.47v-0.57h-0.47V220.3z
				 M162.37,220.3h0.47v-0.57h-0.47V220.3z M163.57,220.3h0.47v-0.57h-0.47V220.3z M164.78,220.3h0.4v-0.57h-0.4V220.3z
				 M165.98,220.3h0.4v-0.57h-0.4V220.3z M156.41,221.66h0.47v-0.48h-0.47V221.66z M157.61,221.66h0.4v-0.48h-0.4V221.66z
				 M158.82,221.66h0.4v-0.48h-0.4V221.66z M159.96,221.66h0.47v-0.48h-0.47V221.66z M161.16,221.66h0.47v-0.48h-0.47V221.66z
				 M162.37,221.66h0.47v-0.48h-0.47V221.66z M163.57,221.66h0.47v-0.48h-0.47V221.66z M164.78,221.66h0.4v-0.48h-0.4V221.66z
				 M165.98,221.66h0.4v-0.48h-0.4V221.66z M151.65,223.12h0.4v-0.48h-0.4V223.12z M152.86,223.12h0.4v-0.48h-0.4V223.12z
				 M154,223.12h0.47v-0.48H154V223.12z M155.2,223.12h0.47v-0.48h-0.47V223.12z M156.41,223.12h0.47v-0.48h-0.47V223.12z
				 M157.61,223.12h0.4v-0.48h-0.4V223.12z M158.82,223.12h0.4v-0.48h-0.4V223.12z M159.96,223.12h0.47v-0.48h-0.47V223.12z
				 M161.16,223.12h0.47v-0.48h-0.47V223.12z M162.37,223.12h0.47v-0.48h-0.47V223.12z M163.57,223.12h0.47v-0.48h-0.47V223.12z
				 M164.78,223.12h0.4v-0.48h-0.4V223.12z M165.98,223.12h0.4v-0.48h-0.4V223.12z M150.45,224.58h0.47v-0.57h-0.47V224.58z
				 M151.65,224.58h0.4v-0.57h-0.4V224.58z M152.86,224.58h0.4v-0.57h-0.4V224.58z M154,224.58h0.47v-0.57H154V224.58z
				 M155.2,224.58h0.47v-0.57h-0.47V224.58z M156.41,224.58h0.47v-0.57h-0.47V224.58z M157.61,224.58h0.4v-0.57h-0.4V224.58z
				 M158.82,224.58h0.4v-0.57h-0.4V224.58z M159.96,224.58h0.47v-0.57h-0.47V224.58z M161.16,224.58h0.47v-0.57h-0.47V224.58z
				 M162.37,224.58h0.47v-0.57h-0.47V224.58z M163.57,224.58h0.47v-0.57h-0.47V224.58z M164.78,224.58h0.4v-0.57h-0.4V224.58z
				 M150.45,226.03h0.47v-0.57h-0.47V226.03z M151.65,226.03h0.4v-0.57h-0.4V226.03z M152.86,226.03h0.4v-0.57h-0.4V226.03z
				 M154,226.03h0.47v-0.57H154V226.03z M155.2,226.03h0.47v-0.57h-0.47V226.03z M156.41,226.03h0.47v-0.57h-0.47V226.03z
				 M157.61,226.03h0.4v-0.57h-0.4V226.03z M158.82,226.03h0.4v-0.57h-0.4V226.03z M159.96,226.03h0.47v-0.57h-0.47V226.03z
				 M161.16,226.03h0.47v-0.57h-0.47V226.03z M162.37,226.03h0.47v-0.57h-0.47V226.03z M163.57,226.03h0.47v-0.57h-0.47V226.03z
				 M164.78,226.03h0.4v-0.57h-0.4V226.03z M150.45,227.48h0.47v-0.57h-0.47V227.48z M151.65,227.48h0.4v-0.57h-0.4V227.48z
				 M152.86,227.48h0.4v-0.57h-0.4V227.48z M154,227.48h0.47v-0.57H154V227.48z M155.2,227.48h0.47v-0.57h-0.47V227.48z
				 M156.41,227.48h0.47v-0.57h-0.47V227.48z M157.61,227.48h0.4v-0.57h-0.4V227.48z M158.82,227.48h0.4v-0.57h-0.4V227.48z
				 M159.96,227.48h0.47v-0.57h-0.47V227.48z M161.16,227.48h0.47v-0.57h-0.47V227.48z M162.37,227.48h0.47v-0.57h-0.47V227.48z
				 M163.57,227.48h0.47v-0.57h-0.47V227.48z M150.45,228.94h0.47v-0.57h-0.47V228.94z M151.65,228.94h0.4v-0.57h-0.4V228.94z
				 M152.86,228.94h0.4v-0.57h-0.4V228.94z M154,228.94h0.47v-0.57H154V228.94z M155.2,228.94h0.47v-0.57h-0.47V228.94z
				 M156.41,228.94h0.47v-0.57h-0.47V228.94z M157.61,228.94h0.4v-0.57h-0.4V228.94z M158.82,228.94h0.4v-0.57h-0.4V228.94z
				 M159.96,228.94h0.47v-0.57h-0.47V228.94z M161.16,228.94h0.47v-0.57h-0.47V228.94z M162.37,228.94h0.47v-0.57h-0.47V228.94z
				 M149.24,230.32h0.47v-0.48h-0.47V230.32z M150.45,230.32h0.47v-0.48h-0.47V230.32z M151.65,230.32h0.4v-0.48h-0.4V230.32z
				 M152.86,230.32h0.4v-0.48h-0.4V230.32z M154,230.32h0.47v-0.48H154V230.32z M155.2,230.32h0.47v-0.48h-0.47V230.32z
				 M156.41,230.32h0.47v-0.48h-0.47V230.32z M157.61,230.32h0.4v-0.48h-0.4V230.32z M158.82,230.32h0.4v-0.48h-0.4V230.32z
				 M159.96,230.32h0.47v-0.48h-0.47V230.32z M161.16,230.32h0.47v-0.48h-0.47V230.32z M149.24,231.77h0.47v-0.48h-0.47V231.77z
				 M150.45,231.77h0.47v-0.48h-0.47V231.77z M151.65,231.77h0.4v-0.48h-0.4V231.77z M152.86,231.77h0.4v-0.48h-0.4V231.77z
				 M154,231.77h0.47v-0.48H154V231.77z M155.2,231.77h0.47v-0.48h-0.47V231.77z M156.41,231.77h0.47v-0.48h-0.47V231.77z
				 M157.61,231.77h0.4v-0.48h-0.4V231.77z M158.82,231.77h0.4v-0.48h-0.4V231.77z M148.1,233.23v0.88h-0.07v0.57h0.07v0.89h-0.07
				v0.57h0.07v0.88h-0.07v0.48h0.07v0.97h-0.07v0.48h0.07v0.88h-0.07v0.57h0.07v0.89h-0.07v0.57h0.07v0.89h-0.07v0.57h0.07v0.89
				h-0.07v0.57h0.07v0.65h-3.21l0.94-3.55h0.27v-0.57h-0.14l0.94-3.8h0.4v-0.48h-0.27l0.27-0.88l0,0v-0.08l0.73-2.91v0.08h0.07
				V233.23z M146.83,238.96h0.47v-0.48h-0.47V238.96z M146.83,240.41h0.47v-0.57h-0.47V240.41z M146.83,241.87h0.47v-0.57h-0.47
				V241.87z M145.69,243.32h0.4v-0.57h-0.4V243.32z M146.83,243.32h0.47v-0.57h-0.47V243.32z M145.69,244.77h0.4v-0.57h-0.4V244.77z
				 M146.83,244.77h0.47v-0.57h-0.47V244.77z"/>
			<g>
				<path class="st2" d="M144.26,245.51h-6.63v-41.12h15.74c0.47,0,0.94,0,1.41,0.08l-2.54,9.94h-4.62v7.92h2.61L144.26,245.51z"/>
			</g>
			<path class="st2" d="M190.68,246.8c-1.01,0-2.01-0.08-2.95-0.24h0.33v-0.57h-0.47v0.48c-0.27,0-0.47-0.08-0.74-0.17v-0.33h-0.47
				v0.24c-0.2-0.08-0.4-0.16-0.67-0.24l0.67-2.67v0.33h0.47v-0.57h-0.4l0.27-0.89h0.13v-0.48l0,0l0.94-3.79h0.27v-0.57h-0.07
				l0.54-2.19c0.67,0.24,1.41,0.33,2.14,0.33c1,0,2.01-0.16,2.88-0.64V235h0.47v-0.41c0.73-0.41,1.34-0.89,1.94-1.53v0.48h0.47
				v-0.48h-0.4c0.2-0.24,0.4-0.48,0.54-0.72c0.74-0.97,1.34-2.1,1.74-3.31l0.07-0.16v0.4h0.4v-0.57h-0.4
				c0.13-0.33,0.2-0.57,0.27-0.89h0.14v-0.57h-0.07c0.13-0.72,0.2-1.46,0.2-2.26c0-0.64-0.07-1.29-0.13-1.86v-0.17l0,0
				c-0.07-0.33-0.14-0.64-0.2-0.88h0.2v-0.57h-0.34c0-0.16-0.07-0.33-0.13-0.48c-0.2-0.64-0.47-1.29-0.74-1.86l0,0v-0.57h-0.34
				c-0.2-0.33-0.4-0.64-0.67-0.97l-0.14-0.16v-0.24h-0.27c-0.27-0.4-0.6-0.64-0.94-0.97v-0.48h-0.47v0.16
				c-0.27-0.24-0.53-0.41-0.8-0.57c-0.13,0-0.2-0.08-0.27-0.16l0.07-0.33h0.27v-0.57h-0.13l1.01-3.79h0.33v-0.48h-0.2l0.94-3.8h0.47
				v-0.57h-0.34l0.27-0.89h0.07v-0.17v-0.24c0.27,0.16,0.47,0.24,0.74,0.33v0.08h0.13l0.4,0.16c0.6,0.41,1.21,0.72,1.81,1.13v0.16
				h0.2c0.4,0.24,0.8,0.57,1.21,0.89h-0.2v0.57h0.47v-0.33c0.8,0.64,1.54,1.46,2.28,2.26c0.8,0.97,1.54,2.1,2.21,3.24h-0.2v0.57
				h0.47l0,0c0.4,0.72,0.74,1.53,1.07,2.34h-0.33v0.48h0.47v-0.17l0.2,0.48c0.2,0.64,0.4,1.38,0.6,2.02h-0.07v0.57h0.2
				c0.07,0.33,0.13,0.64,0.2,0.88h-0.4v0.57h0.47v-0.24c0.27,1.53,0.4,3.07,0.4,4.68c0,1.7-0.2,3.48-0.54,5.1h-0.33v0.57h0.27
				c-0.07,0.24-0.13,0.57-0.27,0.89l0,0v0.08c-0.13,0.64-0.33,1.21-0.54,1.86c-0.13,0.33-0.27,0.64-0.4,0.89h-0.27V235h0.07
				c-0.33,0.81-0.74,1.62-1.14,2.34h-0.13v0.16c-0.2,0.41-0.47,0.88-0.8,1.29h-0.33v0.57c-0.27,0.33-0.54,0.65-0.8,0.97v-0.08h-0.4
				v0.48h0.07c-0.33,0.33-0.6,0.65-0.87,0.97h-0.4v0.33c-1,0.97-2.08,1.77-3.28,2.5h-0.27v0.16c-0.27,0.17-0.47,0.24-0.67,0.4
				c-0.8,0.41-1.67,0.72-2.48,0.98v-0.08h-0.47v0.24c-0.27,0.08-0.47,0.16-0.73,0.16v-0.4h-0.47v0.57
				C192.62,246.71,191.68,246.8,190.68,246.8L190.68,246.8z M197.17,206.23h0.4v-0.57h-0.4V206.23z M198.38,206.23h0.4v-0.57h-0.4
				V206.23z M195.97,207.69h0.47v-0.57h-0.47V207.69z M197.17,207.69h0.4v-0.57h-0.4V207.69z M198.38,207.69h0.4v-0.57h-0.4V207.69z
				 M199.52,207.69h0.47v-0.57h-0.47V207.69z M195.97,209.06h0.47v-0.48h-0.47V209.06z M197.17,209.06h0.4v-0.48h-0.4V209.06z
				 M198.38,209.06h0.4v-0.48h-0.4V209.06z M199.52,209.06h0.47v-0.48h-0.47V209.06z M200.72,209.06h0.47v-0.48h-0.47V209.06z
				 M201.93,209.06h0.47v-0.48h-0.47V209.06z M195.97,210.52h0.47v-0.48h-0.47V210.52z M197.17,210.52h0.4v-0.48h-0.4V210.52z
				 M198.38,210.52h0.4v-0.48h-0.4V210.52z M199.52,210.52h0.47v-0.48h-0.47V210.52z M200.72,210.52h0.47v-0.48h-0.47V210.52z
				 M201.93,210.52h0.47v-0.48h-0.47V210.52z M203.13,210.52h0.4v-0.48h-0.4V210.52z M194.76,211.97h0.47v-0.57h-0.47V211.97z
				 M195.97,211.97h0.47v-0.57h-0.47V211.97z M197.17,211.97h0.4v-0.57h-0.4V211.97z M198.38,211.97h0.4v-0.57h-0.4V211.97z
				 M199.52,211.97h0.47v-0.57h-0.47V211.97z M200.72,211.97h0.47v-0.57h-0.47V211.97z M201.93,211.97h0.47v-0.57h-0.47V211.97z
				 M203.13,211.97h0.4v-0.57h-0.4V211.97z M204.34,211.97h0.4v-0.57h-0.4V211.97z M194.76,213.43h0.47v-0.57h-0.47V213.43z
				 M195.97,213.43h0.47v-0.57h-0.47V213.43z M197.17,213.43h0.4v-0.57h-0.4V213.43z M198.38,213.43h0.4v-0.57h-0.4V213.43z
				 M199.52,213.43h0.47v-0.57h-0.47V213.43z M200.72,213.43h0.47v-0.57h-0.47V213.43z M201.93,213.43h0.47v-0.57h-0.47V213.43z
				 M203.13,213.43h0.4v-0.57h-0.4V213.43z M204.34,213.43h0.4v-0.57h-0.4V213.43z M194.76,214.88h0.47v-0.57h-0.47V214.88z
				 M195.97,214.88h0.47v-0.57h-0.47V214.88z M197.17,214.88h0.4v-0.57h-0.4V214.88z M198.38,214.88h0.4v-0.57h-0.4V214.88z
				 M199.52,214.88h0.47v-0.57h-0.47V214.88z M200.72,214.88h0.47v-0.57h-0.47V214.88z M201.93,214.88h0.47v-0.57h-0.47V214.88z
				 M203.13,214.88h0.4v-0.57h-0.4V214.88z M204.34,214.88h0.4v-0.57h-0.4V214.88z M205.48,214.88h0.47v-0.57h-0.47V214.88z
				 M195.97,216.25h0.47v-0.48h-0.47V216.25z M197.17,216.25h0.4v-0.48h-0.4V216.25z M198.38,216.25h0.4v-0.48h-0.4V216.25z
				 M199.52,216.25h0.47v-0.48h-0.47V216.25z M200.72,216.25h0.47v-0.48h-0.47V216.25z M201.93,216.25h0.47v-0.48h-0.47V216.25z
				 M203.13,216.25h0.4v-0.48h-0.4V216.25z M204.34,216.25h0.4v-0.48h-0.4V216.25z M205.48,216.25h0.47v-0.48h-0.47V216.25z
				 M197.17,217.7h0.4v-0.48h-0.4V217.7z M198.38,217.7h0.4v-0.48h-0.4V217.7z M199.52,217.7h0.47v-0.48h-0.47V217.7z M200.72,217.7
				h0.47v-0.48h-0.47V217.7z M201.93,217.7h0.47v-0.48h-0.47V217.7z M203.13,217.7h0.4v-0.48h-0.4V217.7z M204.34,217.7h0.4v-0.48
				h-0.4V217.7z M205.48,217.7h0.47v-0.48h-0.47V217.7z M206.68,217.7h0.47v-0.48h-0.47V217.7z M198.38,219.16h0.4v-0.57h-0.4
				V219.16z M199.52,219.16h0.47v-0.57h-0.47V219.16z M200.72,219.16h0.47v-0.57h-0.47V219.16z M201.93,219.16h0.47v-0.57h-0.47
				V219.16z M203.13,219.16h0.4v-0.57h-0.4V219.16z M204.34,219.16h0.4v-0.57h-0.4V219.16z M205.48,219.16h0.47v-0.57h-0.47V219.16z
				 M206.68,219.16h0.47v-0.57h-0.47V219.16z M198.38,220.61h0.4v-0.57h-0.4V220.61z M199.52,220.61h0.47v-0.57h-0.47V220.61z
				 M200.72,220.61h0.47v-0.57h-0.47V220.61z M201.93,220.61h0.47v-0.57h-0.47V220.61z M203.13,220.61h0.4v-0.57h-0.4V220.61z
				 M204.34,220.61h0.4v-0.57h-0.4V220.61z M205.48,220.61h0.47v-0.57h-0.47V220.61z M206.68,220.61h0.47v-0.57h-0.47V220.61z
				 M199.52,222.07h0.47v-0.57h-0.47V222.07z M200.72,222.07h0.47v-0.57h-0.47V222.07z M201.93,222.07h0.47v-0.57h-0.47V222.07z
				 M203.13,222.07h0.4v-0.57h-0.4V222.07z M204.34,222.07h0.4v-0.57h-0.4V222.07z M205.48,222.07h0.47v-0.57h-0.47V222.07z
				 M206.68,222.07h0.47v-0.57h-0.47V222.07z M207.89,222.07h0.47v-0.57h-0.47V222.07z M199.52,223.52h0.47v-0.57h-0.47V223.52z
				 M200.72,223.52h0.47v-0.57h-0.47V223.52z M201.93,223.52h0.47v-0.57h-0.47V223.52z M203.13,223.52h0.4v-0.57h-0.4V223.52z
				 M204.34,223.52h0.4v-0.57h-0.4V223.52z M205.48,223.52h0.47v-0.57h-0.47V223.52z M206.68,223.52h0.47v-0.57h-0.47V223.52z
				 M207.89,223.52h0.47v-0.57h-0.47V223.52z M199.52,224.9h0.47v-0.48h-0.47V224.9z M200.72,224.9h0.47v-0.48h-0.47V224.9z
				 M201.93,224.9h0.47v-0.48h-0.47V224.9z M203.13,224.9h0.4v-0.48h-0.4V224.9z M204.34,224.9h0.4v-0.48h-0.4V224.9z M205.48,224.9
				h0.47v-0.48h-0.47V224.9z M206.68,224.9h0.47v-0.48h-0.47V224.9z M207.89,224.9h0.47v-0.48h-0.47V224.9z M199.52,226.35h0.47
				v-0.48h-0.47V226.35z M200.72,226.35h0.47v-0.48h-0.47V226.35z M201.93,226.35h0.47v-0.48h-0.47V226.35z M203.13,226.35h0.4
				v-0.48h-0.4V226.35z M204.34,226.35h0.4v-0.48h-0.4V226.35z M205.48,226.35h0.47v-0.48h-0.47V226.35z M206.68,226.35h0.47v-0.48
				h-0.47V226.35z M207.89,226.35h0.47v-0.48h-0.47V226.35z M199.52,227.81h0.47v-0.57h-0.47V227.81z M200.72,227.81h0.47v-0.57
				h-0.47V227.81z M201.93,227.81h0.47v-0.57h-0.47V227.81z M203.13,227.81h0.4v-0.57h-0.4V227.81z M204.34,227.81h0.4v-0.57h-0.4
				V227.81z M205.48,227.81h0.47v-0.57h-0.47V227.81z M206.68,227.81h0.47v-0.57h-0.47V227.81z M207.89,227.81h0.47v-0.57h-0.47
				V227.81z M199.52,229.26h0.47v-0.57h-0.47V229.26z M200.72,229.26h0.47v-0.57h-0.47V229.26z M201.93,229.26h0.47v-0.57h-0.47
				V229.26z M203.13,229.26h0.4v-0.57h-0.4V229.26z M204.34,229.26h0.4v-0.57h-0.4V229.26z M205.48,229.26h0.47v-0.57h-0.47V229.26z
				 M206.68,229.26h0.47v-0.57h-0.47V229.26z M207.89,229.26h0.47v-0.57h-0.47V229.26z M198.38,230.72h0.4v-0.57h-0.4V230.72z
				 M199.52,230.72h0.47v-0.57h-0.47V230.72z M200.72,230.72h0.47v-0.57h-0.47V230.72z M201.93,230.72h0.47v-0.57h-0.47V230.72z
				 M203.13,230.72h0.4v-0.57h-0.4V230.72z M204.34,230.72h0.4v-0.57h-0.4V230.72z M205.48,230.72h0.47v-0.57h-0.47V230.72z
				 M206.68,230.72h0.47v-0.57h-0.47V230.72z M197.17,232.09h0.4v-0.48h-0.4V232.09z M198.38,232.09h0.4v-0.48h-0.4V232.09z
				 M199.52,232.09h0.47v-0.48h-0.47V232.09z M200.72,232.09h0.47v-0.48h-0.47V232.09z M201.93,232.09h0.47v-0.48h-0.47V232.09z
				 M203.13,232.09h0.4v-0.48h-0.4V232.09z M204.34,232.09h0.4v-0.48h-0.4V232.09z M205.48,232.09h0.47v-0.48h-0.47V232.09z
				 M206.68,232.09h0.47v-0.48h-0.47V232.09z M197.17,233.54h0.4v-0.48h-0.4V233.54z M198.38,233.54h0.4v-0.48h-0.4V233.54z
				 M199.52,233.54h0.47v-0.48h-0.47V233.54z M200.72,233.54h0.47v-0.48h-0.47V233.54z M201.93,233.54h0.47v-0.48h-0.47V233.54z
				 M203.13,233.54h0.4v-0.48h-0.4V233.54z M204.34,233.54h0.4v-0.48h-0.4V233.54z M205.48,233.54h0.47v-0.48h-0.47V233.54z
				 M206.68,233.54h0.47v-0.48h-0.47V233.54z M194.76,235h0.47v-0.57h-0.47V235z M195.97,235h0.47v-0.57h-0.47V235z M197.17,235h0.4
				v-0.57h-0.4V235z M198.38,235h0.4v-0.57h-0.4V235z M199.52,235h0.47v-0.57h-0.47V235z M200.72,235h0.47v-0.57h-0.47V235z
				 M201.93,235h0.47v-0.57h-0.47V235z M203.13,235h0.4v-0.57h-0.4V235z M204.34,235h0.4v-0.57h-0.4V235z M205.48,235h0.47v-0.57
				h-0.47V235z M188.8,236.45h0.47v-0.57h-0.47V236.45z M190.01,236.45h0.47v-0.57h-0.47V236.45z M191.21,236.45h0.4v-0.57h-0.4
				V236.45z M192.35,236.45h0.47v-0.57h-0.47V236.45z M193.56,236.45h0.47v-0.57h-0.47V236.45z M194.76,236.45h0.47v-0.57h-0.47
				V236.45z M195.97,236.45h0.47v-0.57h-0.47V236.45z M197.17,236.45h0.4v-0.57h-0.4V236.45z M198.38,236.45h0.4v-0.57h-0.4V236.45z
				 M199.52,236.45h0.47v-0.57h-0.47V236.45z M200.72,236.45h0.47v-0.57h-0.47V236.45z M201.93,236.45h0.47v-0.57h-0.47V236.45z
				 M203.13,236.45h0.4v-0.57h-0.4V236.45z M204.34,236.45h0.4v-0.57h-0.4V236.45z M205.48,236.45h0.47v-0.57h-0.47V236.45z
				 M188.8,237.91h0.47v-0.57h-0.47V237.91z M190.01,237.91h0.47v-0.57h-0.47V237.91z M191.21,237.91h0.4v-0.57h-0.4V237.91z
				 M192.35,237.91h0.47v-0.57h-0.47V237.91z M193.56,237.91h0.47v-0.57h-0.47V237.91z M194.76,237.91h0.47v-0.57h-0.47V237.91z
				 M195.97,237.91h0.47v-0.57h-0.47V237.91z M197.17,237.91h0.4v-0.57h-0.4V237.91z M198.38,237.91h0.4v-0.57h-0.4V237.91z
				 M199.52,237.91h0.47v-0.57h-0.47V237.91z M200.72,237.91h0.47v-0.57h-0.47V237.91z M201.93,237.91h0.47v-0.57h-0.47V237.91z
				 M203.13,237.91h0.4v-0.57h-0.4V237.91z M204.34,237.91h0.4v-0.57h-0.4V237.91z M187.6,239.36h0.47v-0.57h-0.47V239.36z
				 M188.8,239.36h0.47v-0.57h-0.47V239.36z M190.01,239.36h0.47v-0.57h-0.47V239.36z M191.21,239.36h0.4v-0.57h-0.4V239.36z
				 M192.35,239.36h0.47v-0.57h-0.47V239.36z M193.56,239.36h0.47v-0.57h-0.47V239.36z M194.76,239.36h0.47v-0.57h-0.47V239.36z
				 M195.97,239.36h0.47v-0.57h-0.47V239.36z M197.17,239.36h0.4v-0.57h-0.4V239.36z M198.38,239.36h0.4v-0.57h-0.4V239.36z
				 M199.52,239.36h0.47v-0.57h-0.47V239.36z M200.72,239.36h0.47v-0.57h-0.47V239.36z M201.93,239.36h0.47v-0.57h-0.47V239.36z
				 M203.13,239.36h0.4v-0.57h-0.4V239.36z M187.6,240.74h0.47v-0.48h-0.47V240.74z M188.8,240.74h0.47v-0.48h-0.47V240.74z
				 M190.01,240.74h0.47v-0.48h-0.47V240.74z M191.21,240.74h0.4v-0.48h-0.4V240.74z M192.35,240.74h0.47v-0.48h-0.47V240.74z
				 M193.56,240.74h0.47v-0.48h-0.47V240.74z M194.76,240.74h0.47v-0.48h-0.47V240.74z M195.97,240.74h0.47v-0.48h-0.47V240.74z
				 M197.17,240.74h0.4v-0.48h-0.4V240.74z M198.38,240.74h0.4v-0.48h-0.4V240.74z M199.52,240.74h0.47v-0.48h-0.47V240.74z
				 M200.72,240.74h0.47v-0.48h-0.47V240.74z M201.93,240.74h0.47v-0.48h-0.47V240.74z M187.6,242.19h0.47v-0.48h-0.47V242.19z
				 M188.8,242.19h0.47v-0.48h-0.47V242.19z M190.01,242.19h0.47v-0.48h-0.47V242.19z M191.21,242.19h0.4v-0.48h-0.4V242.19z
				 M192.35,242.19h0.47v-0.48h-0.47V242.19z M193.56,242.19h0.47v-0.48h-0.47V242.19z M194.76,242.19h0.47v-0.48h-0.47V242.19z
				 M195.97,242.19h0.47v-0.48h-0.47V242.19z M197.17,242.19h0.4v-0.48h-0.4V242.19z M198.38,242.19h0.4v-0.48h-0.4V242.19z
				 M199.52,242.19h0.47v-0.48h-0.47V242.19z M200.72,242.19h0.47v-0.48h-0.47V242.19z M187.6,243.65h0.47v-0.57h-0.47V243.65z
				 M188.8,243.65h0.47v-0.57h-0.47V243.65z M190.01,243.65h0.47v-0.57h-0.47V243.65z M191.21,243.65h0.4v-0.57h-0.4V243.65z
				 M192.35,243.65h0.47v-0.57h-0.47V243.65z M193.56,243.65h0.47v-0.57h-0.47V243.65z M194.76,243.65h0.47v-0.57h-0.47V243.65z
				 M195.97,243.65h0.47v-0.57h-0.47V243.65z M197.17,243.65h0.4v-0.57h-0.4V243.65z M198.38,243.65h0.4v-0.57h-0.4V243.65z
				 M199.52,243.65h0.47v-0.57h-0.47V243.65z M186.39,245.1h0.47v-0.57h-0.47V245.1z M187.6,245.1h0.47v-0.57h-0.47V245.1z
				 M188.8,245.1h0.47v-0.57h-0.47V245.1z M190.01,245.1h0.47v-0.57h-0.47V245.1z M191.21,245.1h0.4v-0.57h-0.4V245.1z
				 M192.35,245.1h0.47v-0.57h-0.47V245.1z M193.56,245.1h0.47v-0.57h-0.47V245.1z M194.76,245.1h0.47v-0.57h-0.47V245.1z
				 M195.97,245.1h0.47v-0.57h-0.47V245.1z M197.17,245.1h0.4v-0.57h-0.4V245.1z M188.8,246.56h0.47v-0.57h-0.47V246.56z
				 M190.01,246.56h0.47v-0.57h-0.47V246.56z M191.21,246.56h0.4v-0.57h-0.4V246.56z M192.35,246.56h0.47v-0.57h-0.47V246.56z"/>
			<path class="st2" d="M234.71,245.51l-0.14-0.33v-0.08h-0.07l-0.4-0.88h0.47v-0.57h-0.47v0.48l-0.74-1.7v-0.24h-0.07l-1.14-2.58
				v-0.24h-0.13l-1.07-2.5v-0.41h-0.14l-1-2.43v-0.4h-0.27l-0.27-0.72h-6.03v12.61h-0.6v-0.41h-0.47v0.41h-0.74v-0.41h-0.47v0.41
				h-0.74v-0.41h-0.47v0.41h-0.54l0.67-2.75h0.33v-0.57h-0.2l1-3.72h0.4v-0.57h-0.27l0.27-0.89l0,0v-0.08l0.74-2.91v0.08h0.47v-0.48
				h-0.34l0.2-0.97h0.13v-0.33l0.74-2.91v0.4h0.4v-0.57h-0.4l0.27-0.89h0.18v-0.57l0,0l0.94-3.72h0.27v-0.57h-0.07l0.4-1.7h2.95
				c0.87,0,1.61-0.33,2.28-1.13v0.48h0.4v-0.57h-0.34c0.6-0.72,0.94-1.69,0.94-2.74c0-0.97-0.2-1.77-0.74-2.43h0.14v-0.57h-0.4v0.17
				c-0.6-0.64-1.34-1.05-2.14-1.05h0.2v-0.57h-0.47v0.57h-0.74v-0.16l0.74-2.91v0.17h0.47v-0.48h-0.4l0.27-0.97h0.13v-0.48
				l0.74-2.91v0.57h0.47v-0.57h-0.47l0.2-0.89h0.27v-0.57h-0.07l0.07-0.4h1.27c0.74,0,1.61,0.16,2.41,0.4
				c0.2,0.08,0.4,0.16,0.6,0.24v0.33h0.47v-0.17c0.47,0.17,0.94,0.41,1.41,0.72c0.2,0.08,0.33,0.24,0.54,0.33l0,0v0.57h0.4v-0.24
				c0.47,0.33,0.87,0.65,1.27,1.05c0.67,0.65,1.21,1.45,1.74,2.26c0.07,0.24,0.2,0.48,0.34,0.72h-0.2v0.48h0.47
				c0.27,0.72,0.54,1.38,0.74,2.1v0.24l0,0v0.57h0.13c0.07,0.33,0.14,0.57,0.14,0.89h-0.27v0.57h0.34c0.07,0.24,0.07,0.57,0.07,0.89
				h-0.4v0.48h0.47v0.08c0,0.33-0.07,0.57-0.07,0.89h-0.4v0.48h0.4c-0.07,0.33-0.07,0.65-0.13,0.89h-0.27v0.57h0.2
				c-0.2,0.97-0.54,1.94-0.87,2.83c-0.2,0.33-0.34,0.64-0.47,0.97h-0.07v0.08c-0.27,0.48-0.54,0.88-0.8,1.38h-0.4v0.48
				c-0.2,0.33-0.47,0.65-0.73,0.89h-0.4v0.4l-0.27,0.24l0.4,0.81h-0.13v0.57h0.33l1.01,2.34h-0.2v0.57h0.47l1.01,2.34h-0.27v0.48
				h0.47l0,0l1.01,2.34h-0.27v0.57h0.47v-0.16l1.07,2.5h-0.34v0.48h0.4v-0.24l1.14,2.58h-0.33v0.57h0.4v-0.33l0.74,1.7v0.08h0.07
				l0.53,1.29h-0.47l0.27-0.41h-0.4v0.41h-0.74v-0.41h-0.4v0.41h-0.8v-0.41h-0.4v0.41h-0.74v-0.41h-0.47v0.41h-0.74v-0.41h-0.47
				v0.41h-0.74v-0.41h-0.47v0.41h-0.73v-0.41h-0.4v0.41h-0.8v-0.41h-0.4v0.41h-0.74v-0.41h-0.47v0.41h-0.66V245.51z M230.56,205.35
				h0.4v-0.57h-0.4V205.35z M231.77,205.35h0.4v-0.57h-0.4V205.35z M232.9,205.35h0.47v-0.57h-0.47V205.35z M230.56,206.8h0.4v-0.57
				h-0.4V206.8z M231.77,206.8h0.4v-0.57h-0.4V206.8z M232.9,206.8h0.47v-0.57h-0.47V206.8z M234.11,206.8h0.47v-0.57h-0.47V206.8z
				 M235.31,206.8h0.47v-0.57h-0.47V206.8z M229.35,208.25h0.47v-0.57h-0.47V208.25z M230.56,208.25h0.4v-0.57h-0.4V208.25z
				 M231.77,208.25h0.4v-0.57h-0.4V208.25z M232.9,208.25h0.47v-0.57h-0.47V208.25z M234.11,208.25h0.47v-0.57h-0.47V208.25z
				 M235.31,208.25h0.47v-0.57h-0.47V208.25z M236.52,208.25h0.4v-0.57h-0.4V208.25z M237.72,208.25h0.4v-0.57h-0.4V208.25z
				 M229.35,209.62h0.47v-0.48h-0.47V209.62z M230.56,209.62h0.4v-0.48h-0.4V209.62z M231.77,209.62h0.4v-0.48h-0.4V209.62z
				 M232.9,209.62h0.47v-0.48h-0.47V209.62z M234.11,209.62h0.47v-0.48h-0.47V209.62z M235.31,209.62h0.47v-0.48h-0.47V209.62z
				 M236.52,209.62h0.4v-0.48h-0.4V209.62z M237.72,209.62h0.4v-0.48h-0.4V209.62z M238.86,209.62h0.47v-0.48h-0.47V209.62z
				 M229.35,211.08h0.47v-0.48h-0.47V211.08z M230.56,211.08h0.4v-0.48h-0.4V211.08z M231.77,211.08h0.4v-0.48h-0.4V211.08z
				 M232.9,211.08h0.47v-0.48h-0.47V211.08z M234.11,211.08h0.47v-0.48h-0.47V211.08z M235.31,211.08h0.47v-0.48h-0.47V211.08z
				 M236.52,211.08h0.4v-0.48h-0.4V211.08z M237.72,211.08h0.4v-0.48h-0.4V211.08z M238.86,211.08h0.47v-0.48h-0.47V211.08z
				 M228.15,212.53h0.47v-0.57h-0.47V212.53z M229.35,212.53h0.47v-0.57h-0.47V212.53z M230.56,212.53h0.4v-0.57h-0.4V212.53z
				 M231.77,212.53h0.4v-0.57h-0.4V212.53z M232.9,212.53h0.47v-0.57h-0.47V212.53z M234.11,212.53h0.47v-0.57h-0.47V212.53z
				 M235.31,212.53h0.47v-0.57h-0.47V212.53z M236.52,212.53h0.4v-0.57h-0.4V212.53z M237.72,212.53h0.4v-0.57h-0.4V212.53z
				 M238.86,212.53h0.47v-0.57h-0.47V212.53z M240.07,212.53h0.47v-0.57h-0.47V212.53z M229.35,213.99h0.47v-0.57h-0.47V213.99z
				 M230.56,213.99h0.4v-0.57h-0.4V213.99z M231.77,213.99h0.4v-0.57h-0.4V213.99z M232.9,213.99h0.47v-0.57h-0.47V213.99z
				 M234.11,213.99h0.47v-0.57h-0.47V213.99z M235.31,213.99h0.47v-0.57h-0.47V213.99z M236.52,213.99h0.4v-0.57h-0.4V213.99z
				 M237.72,213.99h0.4v-0.57h-0.4V213.99z M238.86,213.99h0.47v-0.57h-0.47V213.99z M240.07,213.99h0.47v-0.57h-0.47V213.99z
				 M231.77,215.44h0.4v-0.57h-0.4V215.44z M232.9,215.44h0.47v-0.57h-0.47V215.44z M234.11,215.44h0.47v-0.57h-0.47V215.44z
				 M235.31,215.44h0.47v-0.57h-0.47V215.44z M236.52,215.44h0.4v-0.57h-0.4V215.44z M237.72,215.44h0.4v-0.57h-0.4V215.44z
				 M238.86,215.44h0.47v-0.57h-0.47V215.44z M240.07,215.44h0.47v-0.57h-0.47V215.44z M231.77,216.82h0.4v-0.48h-0.4V216.82z
				 M232.9,216.82h0.47v-0.48h-0.47V216.82z M234.11,216.82h0.47v-0.48h-0.47V216.82z M235.31,216.82h0.47v-0.48h-0.47V216.82z
				 M236.52,216.82h0.4v-0.48h-0.4V216.82z M237.72,216.82h0.4v-0.48h-0.4V216.82z M238.86,216.82h0.47v-0.48h-0.47V216.82z
				 M240.07,216.82h0.47v-0.48h-0.47V216.82z M231.77,218.27h0.4v-0.48h-0.4V218.27z M232.9,218.27h0.47v-0.48h-0.47V218.27z
				 M234.11,218.27h0.47v-0.48h-0.47V218.27z M235.31,218.27h0.47v-0.48h-0.47V218.27z M236.52,218.27h0.4v-0.48h-0.4V218.27z
				 M237.72,218.27h0.4v-0.48h-0.4V218.27z M238.86,218.27h0.47v-0.48h-0.47V218.27z M240.07,218.27h0.47v-0.48h-0.47V218.27z
				 M231.77,219.73h0.4v-0.57h-0.4V219.73z M232.9,219.73h0.47v-0.57h-0.47V219.73z M234.11,219.73h0.47v-0.57h-0.47V219.73z
				 M235.31,219.73h0.47v-0.57h-0.47V219.73z M236.52,219.73h0.4v-0.57h-0.4V219.73z M237.72,219.73h0.4v-0.57h-0.4V219.73z
				 M238.86,219.73h0.47v-0.57h-0.47V219.73z M240.07,219.73h0.47v-0.57h-0.47V219.73z M231.77,221.18h0.4v-0.57h-0.4V221.18z
				 M232.9,221.18h0.47v-0.57h-0.47V221.18z M234.11,221.18h0.47v-0.57h-0.47V221.18z M235.31,221.18h0.47v-0.57h-0.47V221.18z
				 M236.52,221.18h0.4v-0.57h-0.4V221.18z M237.72,221.18h0.4v-0.57h-0.4V221.18z M238.86,221.18h0.47v-0.57h-0.47V221.18z
				 M240.07,221.18h0.47v-0.57h-0.47V221.18z M225.74,222.64h0.47v-0.57h-0.47V222.64z M226.94,222.64h0.47v-0.57h-0.47V222.64z
				 M228.15,222.64h0.47v-0.57h-0.47V222.64z M229.35,222.64h0.47v-0.57h-0.47V222.64z M230.56,222.64h0.4v-0.57h-0.4V222.64z
				 M231.77,222.64h0.4v-0.57h-0.4V222.64z M232.9,222.64h0.47v-0.57h-0.47V222.64z M234.11,222.64h0.47v-0.57h-0.47V222.64z
				 M235.31,222.64h0.47v-0.57h-0.47V222.64z M236.52,222.64h0.4v-0.57h-0.4V222.64z M237.72,222.64h0.4v-0.57h-0.4V222.64z
				 M238.86,222.64h0.47v-0.57h-0.47V222.64z M240.07,222.64h0.47v-0.57h-0.47V222.64z M225.74,224.09h0.47v-0.57h-0.47V224.09z
				 M226.94,224.09h0.47v-0.57h-0.47V224.09z M228.15,224.09h0.47v-0.57h-0.47V224.09z M229.35,224.09h0.47v-0.57h-0.47V224.09z
				 M230.56,224.09h0.4v-0.57h-0.4V224.09z M231.77,224.09h0.4v-0.57h-0.4V224.09z M232.9,224.09h0.47v-0.57h-0.47V224.09z
				 M234.11,224.09h0.47v-0.57h-0.47V224.09z M235.31,224.09h0.47v-0.57h-0.47V224.09z M236.52,224.09h0.4v-0.57h-0.4V224.09z
				 M237.72,224.09h0.4v-0.57h-0.4V224.09z M238.86,224.09h0.47v-0.57h-0.47V224.09z M224.6,225.46h0.4v-0.48h-0.4V225.46z
				 M225.74,225.46h0.47v-0.48h-0.47V225.46z M226.94,225.46h0.47v-0.48h-0.47V225.46z M228.15,225.46h0.47v-0.48h-0.47V225.46z
				 M229.35,225.46h0.47v-0.48h-0.47V225.46z M230.56,225.46h0.4v-0.48h-0.4V225.46z M231.77,225.46h0.4v-0.48h-0.4V225.46z
				 M232.9,225.46h0.47v-0.48h-0.47V225.46z M234.11,225.46h0.47v-0.48h-0.47V225.46z M235.31,225.46h0.47v-0.48h-0.47V225.46z
				 M236.52,225.46h0.4v-0.48h-0.4V225.46z M237.72,225.46h0.4v-0.48h-0.4V225.46z M224.6,226.91h0.4v-0.57h-0.4V226.91z
				 M225.74,226.91h0.47v-0.57h-0.47V226.91z M226.94,226.91h0.47v-0.57h-0.47V226.91z M228.15,226.91h0.47v-0.57h-0.47V226.91z
				 M229.35,226.91h0.47v-0.57h-0.47V226.91z M230.56,226.91h0.4v-0.57h-0.4V226.91z M231.77,226.91h0.4v-0.57h-0.4V226.91z
				 M232.9,226.91h0.47v-0.57h-0.47V226.91z M234.11,226.91h0.47v-0.57h-0.47V226.91z M235.31,226.91h0.47v-0.57h-0.47V226.91z
				 M236.52,226.91h0.4v-0.57h-0.4V226.91z M224.6,228.37h0.4v-0.57h-0.4V228.37z M225.74,228.37h0.47v-0.57h-0.47V228.37z
				 M226.94,228.37h0.47v-0.57h-0.47V228.37z M228.15,228.37h0.47v-0.57h-0.47V228.37z M229.35,228.37h0.47v-0.57h-0.47V228.37z
				 M230.56,228.37h0.4v-0.57h-0.4V228.37z M231.77,228.37h0.4v-0.57h-0.4V228.37z M232.9,228.37h0.47v-0.57h-0.47V228.37z
				 M234.11,228.37h0.47v-0.57h-0.47V228.37z M235.31,228.37h0.47v-0.57h-0.47V228.37z M236.52,228.37h0.4v-0.57h-0.4V228.37z
				 M224.6,229.82h0.4v-0.57h-0.4V229.82z M225.74,229.82h0.47v-0.57h-0.47V229.82z M226.94,229.82h0.47v-0.57h-0.47V229.82z
				 M228.15,229.82h0.47v-0.57h-0.47V229.82z M229.35,229.82h0.47v-0.57h-0.47V229.82z M230.56,229.82h0.4v-0.57h-0.4V229.82z
				 M231.77,229.82h0.4v-0.57h-0.4V229.82z M232.9,229.82h0.47v-0.57h-0.47V229.82z M234.11,229.82h0.47v-0.57h-0.47V229.82z
				 M235.31,229.82h0.47v-0.57h-0.47V229.82z M236.52,229.82h0.4v-0.57h-0.4V229.82z M237.72,229.82h0.4v-0.57h-0.4V229.82z
				 M223.4,231.28h0.4v-0.57h-0.4V231.28z M224.6,231.28h0.4v-0.57h-0.4V231.28z M225.74,231.28h0.47v-0.57h-0.47V231.28z
				 M226.94,231.28h0.47v-0.57h-0.47V231.28z M228.15,231.28h0.47v-0.57h-0.47V231.28z M229.35,231.28h0.47v-0.57h-0.47V231.28z
				 M230.56,231.28h0.4v-0.57h-0.4V231.28z M231.77,231.28h0.4v-0.57h-0.4V231.28z M232.9,231.28h0.47v-0.57h-0.47V231.28z
				 M234.11,231.28h0.47v-0.57h-0.47V231.28z M235.31,231.28h0.47v-0.57h-0.47V231.28z M236.52,231.28h0.4v-0.57h-0.4V231.28z
				 M237.72,231.28h0.4v-0.57h-0.4V231.28z M223.4,232.66h0.4v-0.48h-0.4V232.66z M224.6,232.66h0.4v-0.48h-0.4V232.66z
				 M225.74,232.66h0.47v-0.48h-0.47V232.66z M226.94,232.66h0.47v-0.48h-0.47V232.66z M228.15,232.66h0.47v-0.48h-0.47V232.66z
				 M229.35,232.66h0.47v-0.48h-0.47V232.66z M230.56,232.66h0.4v-0.48h-0.4V232.66z M231.77,232.66h0.4v-0.48h-0.4V232.66z
				 M232.9,232.66h0.47v-0.48h-0.47V232.66z M234.11,232.66h0.47v-0.48h-0.47V232.66z M235.31,232.66h0.47v-0.48h-0.47V232.66z
				 M236.52,232.66h0.4v-0.48h-0.4V232.66z M237.72,232.66h0.4v-0.48h-0.4V232.66z M238.86,232.66h0.47v-0.48h-0.47V232.66z
				 M230.56,234.11h0.4v-0.48h-0.4V234.11z M231.77,234.11h0.4v-0.48h-0.4V234.11z M232.9,234.11h0.47v-0.48h-0.47V234.11z
				 M234.11,234.11h0.47v-0.48h-0.47V234.11z M235.31,234.11h0.47v-0.48h-0.47V234.11z M236.52,234.11h0.4v-0.48h-0.4V234.11z
				 M237.72,234.11h0.4v-0.48h-0.4V234.11z M238.86,234.11h0.47v-0.48h-0.47V234.11z M222.19,235.57h0.47V235h-0.47V235.57z
				 M230.56,235.57h0.4V235h-0.4V235.57z M231.77,235.57h0.4V235h-0.4V235.57z M232.9,235.57h0.47V235h-0.47V235.57z M234.11,235.57
				h0.47V235h-0.47V235.57z M235.31,235.57h0.47V235h-0.47V235.57z M236.52,235.57h0.4V235h-0.4V235.57z M237.72,235.57h0.4V235
				h-0.4V235.57z M238.86,235.57h0.47V235h-0.47V235.57z M240.07,235.57h0.47V235h-0.47V235.57z M222.19,237.02h0.47v-0.57h-0.47
				V237.02z M231.77,237.02h0.4v-0.57h-0.4V237.02z M232.9,237.02h0.47v-0.57h-0.47V237.02z M234.11,237.02h0.47v-0.57h-0.47V237.02
				z M235.31,237.02h0.47v-0.57h-0.47V237.02z M236.52,237.02h0.4v-0.57h-0.4V237.02z M237.72,237.02h0.4v-0.57h-0.4V237.02z
				 M238.86,237.02h0.47v-0.57h-0.47V237.02z M240.07,237.02h0.47v-0.57h-0.47V237.02z M222.19,238.47h0.47v-0.57h-0.47V238.47z
				 M231.77,238.47h0.4v-0.57h-0.4V238.47z M232.9,238.47h0.47v-0.57h-0.47V238.47z M234.11,238.47h0.47v-0.57h-0.47V238.47z
				 M235.31,238.47h0.47v-0.57h-0.47V238.47z M236.52,238.47h0.4v-0.57h-0.4V238.47z M237.72,238.47h0.4v-0.57h-0.4V238.47z
				 M238.86,238.47h0.47v-0.57h-0.47V238.47z M240.07,238.47h0.47v-0.57h-0.47V238.47z M241.27,238.47h0.47v-0.57h-0.47V238.47z
				 M220.98,239.84h0.47v-0.48h-0.47V239.84z M222.19,239.84h0.47v-0.48h-0.47V239.84z M232.9,239.84h0.47v-0.48h-0.47V239.84z
				 M234.11,239.84h0.47v-0.48h-0.47V239.84z M235.31,239.84h0.47v-0.48h-0.47V239.84z M236.52,239.84h0.4v-0.48h-0.4V239.84z
				 M237.72,239.84h0.4v-0.48h-0.4V239.84z M238.86,239.84h0.47v-0.48h-0.47V239.84z M240.07,239.84h0.47v-0.48h-0.47V239.84z
				 M241.27,239.84h0.47v-0.48h-0.47V239.84z M220.98,241.31h0.47v-0.48h-0.47V241.31z M222.19,241.31h0.47v-0.48h-0.47V241.31z
				 M232.9,241.31h0.47v-0.48h-0.47V241.31z M234.11,241.31h0.47v-0.48h-0.47V241.31z M235.31,241.31h0.47v-0.48h-0.47V241.31z
				 M236.52,241.31h0.4v-0.48h-0.4V241.31z M237.72,241.31h0.4v-0.48h-0.4V241.31z M238.86,241.31h0.47v-0.48h-0.47V241.31z
				 M240.07,241.31h0.47v-0.48h-0.47V241.31z M241.27,241.31h0.47v-0.48h-0.47V241.31z M242.48,241.31h0.4v-0.48h-0.4V241.31z
				 M220.98,242.75h0.47v-0.57h-0.47V242.75z M222.19,242.75h0.47v-0.57h-0.47V242.75z M234.11,242.75h0.47v-0.57h-0.47V242.75z
				 M235.31,242.75h0.47v-0.57h-0.47V242.75z M236.52,242.75h0.4v-0.57h-0.4V242.75z M237.72,242.75h0.4v-0.57h-0.4V242.75z
				 M238.86,242.75h0.47v-0.57h-0.47V242.75z M240.07,242.75h0.47v-0.57h-0.47V242.75z M241.27,242.75h0.47v-0.57h-0.47V242.75z
				 M242.48,242.75h0.4v-0.57h-0.4V242.75z M219.78,244.22h0.47v-0.57h-0.47V244.22z M220.98,244.22h0.47v-0.57h-0.47V244.22z
				 M222.19,244.22h0.47v-0.57h-0.47V244.22z M235.31,244.22h0.47v-0.57h-0.47V244.22z M236.52,244.22h0.4v-0.57h-0.4V244.22z
				 M237.72,244.22h0.4v-0.57h-0.4V244.22z M238.86,244.22h0.47v-0.57h-0.47V244.22z M240.07,244.22h0.47v-0.57h-0.47V244.22z
				 M241.27,244.22h0.47v-0.57h-0.47V244.22z M242.48,244.22h0.4v-0.57h-0.4V244.22z M243.68,244.22h0.4v-0.57h-0.4V244.22z"/>
			<g>
				<path class="st2" d="M184.81,247.13c-0.74-0.24-1.47-0.57-2.14-0.88c-2.21-1.13-4.15-2.67-5.76-4.68
					c-1.67-1.93-2.95-4.2-3.88-6.87c-0.94-2.67-1.41-5.49-1.41-8.49c0-2.99,0.47-5.82,1.41-8.48c0.94-2.67,2.21-4.93,3.88-6.95
					c1.61-1.94,3.55-3.48,5.76-4.6c2.21-1.21,4.55-1.77,7.03-1.77c2.01,0,3.95,0.41,5.83,1.13l-2.81,10.9
					c-0.94-0.48-1.94-0.72-3.01-0.72c-1.14,0-2.21,0.33-3.21,0.81c-1.07,0.57-1.94,1.38-2.68,2.34c-0.74,0.88-1.27,2.02-1.74,3.31
					c-0.4,1.22-0.67,2.58-0.67,3.96c0,1.46,0.27,2.75,0.67,4.04c0.47,1.29,1,2.34,1.74,3.39c0.74,0.97,1.61,1.7,2.68,2.26
					c0.34,0.24,0.74,0.41,1.07,0.48L184.81,247.13z"/>
			</g>
			<g>
				<polygon class="st2" points="218.53,245.51 212.57,245.51 212.57,204.37 229.18,204.37 226.7,213.99 222.55,213.99 
					222.55,221.83 224.63,221.83 				"/>
			</g>
			<path class="st2" d="M274.34,215.04h-8.77v0.16h-0.34v0.48h0.34v0.88h-0.34v0.57h0.34v0.89h-0.34v0.57h0.34v0.88h-0.34v0.57h0.34
				v0.89h-0.34v0.48h0.34v0.97h-0.34v0.48h0.34v0.89h-0.34v0.57h0.34v0.89h-0.34v0.57h0.34v0.88h-0.34v0.57h0.34v0.88h-0.34v0.57
				h0.34v0.89h-0.34v0.48h0.34v0.97h-0.34v0.48h0.34v0.89h-0.34v0.57h0.34v0.89h-0.34v0.57h0.34v0.89h-0.34v0.57h0.34v0.89h-0.34
				v0.48h0.34v0.98h-0.34v0.48h0.34v0.89h-0.34v0.57h0.34v0.89h-0.34v0.57h0.34v0.89h-0.34v0.57h0.34V244h-0.34v0.57h0.34v0.89
				h-0.34v0.08h-0.73v-0.08h-0.47v0.08h-0.74v-0.08h-0.47v0.08h-0.73v-0.08h-0.4v0.08h-0.8v-0.08h-0.4v0.08h-0.74v-0.08h-0.47v0.08
				h-0.74v-0.08h-0.47v0.08h-0.74v-0.08h-0.47v0.08h-0.6l0.6-2.58v0.17h0.47v-0.57h-0.34l0.2-0.89h0.14v-0.41l0.74-2.91v0.4h0.47
				v-0.48h-0.47l0.27-0.98h0.2v-0.48h-0.07l1-3.8h0.27v-0.57h-0.14l0.94-3.72h0.33v-0.57h-0.2l1-3.79h0.4v-0.57h-0.27l0.2-0.89h0.07
				v-0.16l0.73-2.91v0.24h0.47v-0.57h-0.33l0.2-0.88h0.13v-0.57l1.01-3.8h0.2v-0.48h-0.07l0.94-3.79h0.34v-0.57h-0.2l1.01-3.72h0.34
				v-0.57h-0.2l0.2-0.72h8.37v0.72h-0.4v0.57h0.4v0.89h-0.4v0.48h0.4v0.97h-0.4v0.48h0.4v0.89h-0.4v0.57h0.4v0.89h-0.4v0.57h0.4
				v0.89h-0.4v0.57h0.4v0.89h-0.4v0.48h0.2L274.34,215.04z M267.64,205.66h0.4v-0.57h-0.4V205.66z M268.78,205.66h0.47v-0.57h-0.47
				V205.66z M269.98,205.66h0.47v-0.57h-0.47V205.66z M271.19,205.66h0.47v-0.57h-0.47V205.66z M272.39,205.66h0.47v-0.57h-0.47
				V205.66z M273.6,205.66h0.4v-0.57h-0.4V205.66z M266.44,207.04h0.4v-0.48h-0.4V207.04z M267.64,207.04h0.4v-0.48h-0.4V207.04z
				 M268.78,207.04h0.47v-0.48h-0.47V207.04z M269.98,207.04h0.47v-0.48h-0.47V207.04z M271.19,207.04h0.47v-0.48h-0.47V207.04z
				 M272.39,207.04h0.47v-0.48h-0.47V207.04z M273.6,207.04h0.4v-0.48h-0.4V207.04z M266.44,208.49h0.4v-0.48h-0.4V208.49z
				 M267.64,208.49h0.4v-0.48h-0.4V208.49z M268.78,208.49h0.47v-0.48h-0.47V208.49z M269.98,208.49h0.47v-0.48h-0.47V208.49z
				 M271.19,208.49h0.47v-0.48h-0.47V208.49z M272.39,208.49h0.47v-0.48h-0.47V208.49z M273.6,208.49h0.4v-0.48h-0.4V208.49z
				 M266.44,209.95h0.4v-0.57h-0.4V209.95z M267.64,209.95h0.4v-0.57h-0.4V209.95z M268.78,209.95h0.47v-0.57h-0.47V209.95z
				 M269.98,209.95h0.47v-0.57h-0.47V209.95z M271.19,209.95h0.47v-0.57h-0.47V209.95z M272.39,209.95h0.47v-0.57h-0.47V209.95z
				 M273.6,209.95h0.4v-0.57h-0.4V209.95z M265.23,211.4h0.47v-0.57h-0.47V211.4z M266.44,211.4h0.4v-0.57h-0.4V211.4z
				 M267.64,211.4h0.4v-0.57h-0.4V211.4z M268.78,211.4h0.47v-0.57h-0.47V211.4z M269.98,211.4h0.47v-0.57h-0.47V211.4z
				 M271.19,211.4h0.47v-0.57h-0.47V211.4z M272.39,211.4h0.47v-0.57h-0.47V211.4z M273.6,211.4h0.4v-0.57h-0.4V211.4z
				 M265.23,212.86h0.47v-0.57h-0.47V212.86z M266.44,212.86h0.4v-0.57h-0.4V212.86z M267.64,212.86h0.4v-0.57h-0.4V212.86z
				 M268.78,212.86h0.47v-0.57h-0.47V212.86z M269.98,212.86h0.47v-0.57h-0.47V212.86z M271.19,212.86h0.47v-0.57h-0.47V212.86z
				 M272.39,212.86h0.47v-0.57h-0.47V212.86z M273.6,212.86h0.4v-0.57h-0.4V212.86z M265.23,214.24h0.47v-0.48h-0.47V214.24z
				 M266.44,214.24h0.4v-0.48h-0.4V214.24z M267.64,214.24h0.4v-0.48h-0.4V214.24z M268.78,214.24h0.47v-0.48h-0.47V214.24z
				 M269.98,214.24h0.47v-0.48h-0.47V214.24z M271.19,214.24h0.47v-0.48h-0.47V214.24z M272.39,214.24h0.47v-0.48h-0.47V214.24z
				 M273.6,214.24h0.4v-0.48h-0.4V214.24z M264.02,215.68h0.47v-0.48h-0.47V215.68z M264.02,217.13h0.47v-0.57h-0.47V217.13z
				 M264.02,218.59h0.47v-0.57h-0.47V218.59z M264.02,220.04h0.47v-0.57h-0.47V220.04z M262.82,221.42h0.47v-0.48h-0.47V221.42z
				 M264.02,221.42h0.47v-0.48h-0.47V221.42z M262.82,222.88h0.47v-0.48h-0.47V222.88z M264.02,222.88h0.47v-0.48h-0.47V222.88z
				 M262.82,224.33h0.47v-0.57h-0.47V224.33z M264.02,224.33h0.47v-0.57h-0.47V224.33z M261.68,225.79h0.4v-0.57h-0.4V225.79z
				 M262.82,225.79h0.47v-0.57h-0.47V225.79z M264.02,225.79h0.47v-0.57h-0.47V225.79z M261.68,227.24h0.4v-0.57h-0.4V227.24z
				 M262.82,227.24h0.47v-0.57h-0.47V227.24z M264.02,227.24h0.47v-0.57h-0.47V227.24z M261.68,228.69h0.4v-0.57h-0.4V228.69z
				 M262.82,228.69h0.47v-0.57h-0.47V228.69z M264.02,228.69h0.47v-0.57h-0.47V228.69z M260.48,230.06h0.4v-0.48h-0.4V230.06z
				 M261.68,230.06h0.4v-0.48h-0.4V230.06z M262.82,230.06h0.47v-0.48h-0.47V230.06z M264.02,230.06h0.47v-0.48h-0.47V230.06z
				 M260.48,231.53h0.4v-0.48h-0.4V231.53z M261.68,231.53h0.4v-0.48h-0.4V231.53z M262.82,231.53h0.47v-0.48h-0.47V231.53z
				 M264.02,231.53h0.47v-0.48h-0.47V231.53z M260.48,232.97h0.4v-0.57h-0.4V232.97z M261.68,232.97h0.4v-0.57h-0.4V232.97z
				 M262.82,232.97h0.47v-0.57h-0.47V232.97z M264.02,232.97h0.47v-0.57h-0.47V232.97z M259.27,234.44h0.47v-0.57h-0.47V234.44z
				 M260.48,234.44h0.4v-0.57h-0.4V234.44z M261.68,234.44h0.4v-0.57h-0.4V234.44z M262.82,234.44h0.47v-0.57h-0.47V234.44z
				 M264.02,234.44h0.47v-0.57h-0.47V234.44z M259.27,235.88h0.47v-0.57h-0.47V235.88z M260.48,235.88h0.4v-0.57h-0.4V235.88z
				 M261.68,235.88h0.4v-0.57h-0.4V235.88z M262.82,235.88h0.47v-0.57h-0.47V235.88z M264.02,235.88h0.47v-0.57h-0.47V235.88z
				 M259.27,237.26h0.47v-0.48h-0.47V237.26z M260.48,237.26h0.4v-0.48h-0.4V237.26z M261.68,237.26h0.4v-0.48h-0.4V237.26z
				 M262.82,237.26h0.47v-0.48h-0.47V237.26z M264.02,237.26h0.47v-0.48h-0.47V237.26z M259.27,238.71h0.47v-0.48h-0.47V238.71z
				 M260.48,238.71h0.4v-0.48h-0.4V238.71z M261.68,238.71h0.4v-0.48h-0.4V238.71z M262.82,238.71h0.47v-0.48h-0.47V238.71z
				 M264.02,238.71h0.47v-0.48h-0.47V238.71z M258.07,240.17h0.47v-0.57h-0.47V240.17z M259.27,240.17h0.47v-0.57h-0.47V240.17z
				 M260.48,240.17h0.4v-0.57h-0.4V240.17z M261.68,240.17h0.4v-0.57h-0.4V240.17z M262.82,240.17h0.47v-0.57h-0.47V240.17z
				 M264.02,240.17h0.47v-0.57h-0.47V240.17z M258.07,241.62h0.47v-0.57h-0.47V241.62z M259.27,241.62h0.47v-0.57h-0.47V241.62z
				 M260.48,241.62h0.4v-0.57h-0.4V241.62z M261.68,241.62h0.4v-0.57h-0.4V241.62z M262.82,241.62h0.47v-0.57h-0.47V241.62z
				 M264.02,241.62h0.47v-0.57h-0.47V241.62z M258.07,243.08h0.47v-0.57h-0.47V243.08z M259.27,243.08h0.47v-0.57h-0.47V243.08z
				 M260.48,243.08h0.4v-0.57h-0.4V243.08z M261.68,243.08h0.4v-0.57h-0.4V243.08z M262.82,243.08h0.47v-0.57h-0.47V243.08z
				 M264.02,243.08h0.47v-0.57h-0.47V243.08z M256.86,244.53h0.47v-0.57h-0.47V244.53z M258.07,244.53h0.47v-0.57h-0.47V244.53z
				 M259.27,244.53h0.47v-0.57h-0.47V244.53z M260.48,244.53h0.4v-0.57h-0.4V244.53z M261.68,244.53h0.4v-0.57h-0.4V244.53z
				 M262.82,244.53h0.47v-0.57h-0.47V244.53z M264.02,244.53h0.47v-0.57h-0.47V244.53z"/>
			<g>
				<polygon class="st2" points="255.42,245.51 255.09,245.51 255.09,215.04 246.32,215.04 245.44,214.07 245.44,204.37 
					266.07,204.37 				"/>
			</g>
		</g>
		<g>
			<path class="st3" d="M302.82,245.51l-0.2-0.48h0.13v-0.48h-0.47l0,0l-0.74-1.38v-0.08h-0.07l-1.27-2.34h0.13v-0.57h-0.4
				l-0.73-1.38v-0.08h-0.07l-1.27-2.34h0.13v-0.48h-0.47l-0.47-0.81l-0.4,0.81h-0.33v0.48l0,0l-0.74,1.45v-0.48h-0.47v0.48h0.47
				l-1.27,2.34h-0.33v0.57l0,0l-2.08,3.8h-0.07l1.01-3.8h0.33v-0.57h-0.2l0.2-0.89l0,0v-0.08l0.8-2.91v0.08h0.4v-0.48h-0.34
				l0.27-0.89h0.07v-0.4l0.74-2.91v0.4h0.47v-0.57h-0.4l0.2-0.88h0.2v-0.48h-0.07l1-3.8h0.29v-0.57h-0.13l1-3.79H298v-0.48h-0.2
				l0.94-3.8h0.47v-0.57h-0.34l0.27-0.88h0.07V216l0.73-2.91v0.24h0.4v-0.48h-0.33l0.2-0.89h0.13v-0.57l1-3.79h0.2v-0.57h-0.07
				l0.47-1.69l0.34-0.65v0.08h0.47v-0.4h0.74v0.4h0.47v-0.4h0.74v0.4h0.47v-0.4h0.74v0.4h0.4v-0.4h0.8v0.4h0.4v-0.4h0.74v0.4h0.47
				v-0.4h0.74v0.4h0.47v-0.4h0.74v0.4h0.47v-0.4h0.73v0.4h0.4v-0.4h0.8v0.4h0.4v-0.4h0.41l-0.67,1.29h-0.13v0.24l-0.8,1.38v-0.24
				h-0.4v0.57h0.27l-1.27,2.34h-0.2v0.33l-0.74,1.38v-0.24h-0.47v0.57h0.27l-1.27,2.34h-0.2v0.33l-0.74,1.38v-0.31h-0.4v0.57h0.27
				l-1.27,2.34h-0.2v0.4l-0.74,1.38v-0.33h-0.47v0.48h0.33l-1.27,2.34h-0.27v0.48l-0.67,1.21l0.67,1.22l0,0v0.57h0.34l1.27,2.34
				h-0.4v0.48h0.47v-0.4l0.74,1.38v0.48h0.27l1.27,2.34h-0.34v0.57h0.4v-0.41l0.74,1.38v0.48h0.27l1.27,2.34h-0.33v0.48h0.47v-0.33
				l0.74,1.38v0.41h0.2l1.27,2.34h-0.27v0.57h0.4v-0.33l0.8,1.38v0.31h0.2l1,1.94h-11.47V245.51z M302.29,206.15h0.47v-0.48h-0.47
				V206.15z M303.49,206.15h0.47v-0.48h-0.47V206.15z M304.7,206.15h0.47v-0.48h-0.47V206.15z M305.9,206.15h0.4v-0.48h-0.4V206.15z
				 M307.11,206.15h0.4v-0.48h-0.4V206.15z M308.25,206.15h0.47v-0.48h-0.47V206.15z M309.45,206.15h0.47v-0.48h-0.47V206.15z
				 M310.66,206.15h0.47v-0.48h-0.47V206.15z M311.86,206.15h0.4v-0.48h-0.4V206.15z M302.29,207.61h0.47v-0.57h-0.47V207.61z
				 M303.49,207.61h0.47v-0.57h-0.47V207.61z M304.7,207.61h0.47v-0.57h-0.47V207.61z M305.9,207.61h0.4v-0.57h-0.4V207.61z
				 M307.11,207.61h0.4v-0.57h-0.4V207.61z M308.25,207.61h0.47v-0.57h-0.47V207.61z M309.45,207.61h0.47v-0.57h-0.47V207.61z
				 M310.66,207.61h0.47v-0.57h-0.47V207.61z M301.15,209.06h0.4v-0.57h-0.4V209.06z M302.29,209.06h0.47v-0.57h-0.47V209.06z
				 M303.49,209.06h0.47v-0.57h-0.47V209.06z M304.7,209.06h0.47v-0.57h-0.47V209.06z M305.9,209.06h0.4v-0.57h-0.4V209.06z
				 M307.11,209.06h0.4v-0.57h-0.4V209.06z M308.25,209.06h0.47v-0.57h-0.47V209.06z M309.45,209.06h0.47v-0.57h-0.47V209.06z
				 M310.66,209.06h0.47v-0.57h-0.47V209.06z M301.15,210.52h0.4v-0.57h-0.4V210.52z M302.29,210.52h0.47v-0.57h-0.47V210.52z
				 M303.49,210.52h0.47v-0.57h-0.47V210.52z M304.7,210.52h0.47v-0.57h-0.47V210.52z M305.9,210.52h0.4v-0.57h-0.4V210.52z
				 M307.11,210.52h0.4v-0.57h-0.4V210.52z M308.25,210.52h0.47v-0.57h-0.47V210.52z M309.45,210.52h0.47v-0.57h-0.47V210.52z
				 M301.15,211.97h0.4v-0.57h-0.4V211.97z M302.29,211.97h0.47v-0.57h-0.47V211.97z M303.49,211.97h0.47v-0.57h-0.47V211.97z
				 M304.7,211.97h0.47v-0.57h-0.47V211.97z M305.9,211.97h0.4v-0.57h-0.4V211.97z M307.11,211.97h0.4v-0.57h-0.4V211.97z
				 M308.25,211.97h0.47v-0.57h-0.47V211.97z M301.15,213.34h0.4v-0.48h-0.4V213.34z M302.29,213.34h0.47v-0.48h-0.47V213.34z
				 M303.49,213.34h0.47v-0.48h-0.47V213.34z M304.7,213.34h0.47v-0.48h-0.47V213.34z M305.9,213.34h0.4v-0.48h-0.4V213.34z
				 M307.11,213.34h0.4v-0.48h-0.4V213.34z M308.25,213.34h0.47v-0.48h-0.47V213.34z M299.94,214.8h0.4v-0.48h-0.4V214.8z
				 M301.15,214.8h0.4v-0.48h-0.4V214.8z M302.29,214.8h0.47v-0.48h-0.47V214.8z M303.49,214.8h0.47v-0.48h-0.47V214.8z
				 M304.7,214.8h0.47v-0.48h-0.47V214.8z M305.9,214.8h0.4v-0.48h-0.4V214.8z M307.11,214.8h0.4v-0.48h-0.4V214.8z M299.94,216.25
				h0.4v-0.57h-0.4V216.25z M301.15,216.25h0.4v-0.57h-0.4V216.25z M302.29,216.25h0.47v-0.57h-0.47V216.25z M303.49,216.25h0.47
				v-0.57h-0.47V216.25z M304.7,216.25h0.47v-0.57h-0.47V216.25z M305.9,216.25h0.4v-0.57h-0.4V216.25z M299.94,217.7h0.4v-0.57
				h-0.4V217.7z M301.15,217.7h0.4v-0.57h-0.4V217.7z M302.29,217.7h0.47v-0.57h-0.47V217.7z M303.49,217.7h0.47v-0.57h-0.47V217.7z
				 M304.7,217.7h0.47v-0.57h-0.47V217.7z M305.9,217.7h0.4v-0.57h-0.4V217.7z M298.74,219.16h0.47v-0.57h-0.47V219.16z
				 M299.94,219.16h0.4v-0.57h-0.4V219.16z M301.15,219.16h0.4v-0.57h-0.4V219.16z M302.29,219.16h0.47v-0.57h-0.47V219.16z
				 M303.49,219.16h0.47v-0.57h-0.47V219.16z M304.7,219.16h0.47v-0.57h-0.47V219.16z M298.74,220.54h0.47v-0.48h-0.47V220.54z
				 M299.94,220.54h0.4v-0.48h-0.4V220.54z M301.15,220.54h0.4v-0.48h-0.4V220.54z M302.29,220.54h0.47v-0.48h-0.47V220.54z
				 M303.49,220.54h0.47v-0.48h-0.47V220.54z M298.74,221.99h0.47v-0.48h-0.47V221.99z M299.94,221.99h0.4v-0.48h-0.4V221.99z
				 M301.15,221.99h0.4v-0.48h-0.4V221.99z M302.29,221.99h0.47v-0.48h-0.47V221.99z M303.49,221.99h0.47v-0.48h-0.47V221.99z
				 M297.53,223.44H298v-0.57h-0.47V223.44z M298.74,223.44h0.47v-0.57h-0.47V223.44z M299.94,223.44h0.4v-0.57h-0.4V223.44z
				 M301.15,223.44h0.4v-0.57h-0.4V223.44z M302.29,223.44h0.47v-0.57h-0.47V223.44z M297.53,224.9H298v-0.57h-0.47V224.9z
				 M298.74,224.9h0.47v-0.57h-0.47V224.9z M299.94,224.9h0.4v-0.57h-0.4V224.9z M301.15,224.9h0.4v-0.57h-0.4V224.9z M302.29,224.9
				h0.47v-0.57h-0.47V224.9z M297.53,226.35H298v-0.57h-0.47V226.35z M298.74,226.35h0.47v-0.57h-0.47V226.35z M299.94,226.35h0.4
				v-0.57h-0.4V226.35z M301.15,226.35h0.4v-0.57h-0.4V226.35z M302.29,226.35h0.47v-0.57h-0.47V226.35z M296.33,227.81h0.47v-0.57
				h-0.47V227.81z M297.53,227.81H298v-0.57h-0.47V227.81z M298.74,227.81h0.47v-0.57h-0.47V227.81z M299.94,227.81h0.4v-0.57h-0.4
				V227.81z M301.15,227.81h0.4v-0.57h-0.4V227.81z M302.29,227.81h0.47v-0.57h-0.47V227.81z M303.49,227.81h0.47v-0.57h-0.47
				V227.81z M296.33,229.18h0.47v-0.48h-0.47V229.18z M297.53,229.18H298v-0.48h-0.47V229.18z M298.74,229.18h0.47v-0.48h-0.47
				V229.18z M299.94,229.18h0.4v-0.48h-0.4V229.18z M301.15,229.18h0.4v-0.48h-0.4V229.18z M302.29,229.18h0.47v-0.48h-0.47V229.18z
				 M303.49,229.18h0.47v-0.48h-0.47V229.18z M296.33,230.63h0.47v-0.48h-0.47V230.63z M297.53,230.63H298v-0.48h-0.47V230.63z
				 M298.74,230.63h0.47v-0.48h-0.47V230.63z M299.94,230.63h0.4v-0.48h-0.4V230.63z M301.15,230.63h0.4v-0.48h-0.4V230.63z
				 M302.29,230.63h0.47v-0.48h-0.47V230.63z M303.49,230.63h0.47v-0.48h-0.47V230.63z M304.7,230.63h0.47v-0.48h-0.47V230.63z
				 M296.33,232.09h0.47v-0.57h-0.47V232.09z M297.53,232.09H298v-0.57h-0.47V232.09z M298.74,232.09h0.47v-0.57h-0.47V232.09z
				 M299.94,232.09h0.4v-0.57h-0.4V232.09z M301.15,232.09h0.4v-0.57h-0.4V232.09z M302.29,232.09h0.47v-0.57h-0.47V232.09z
				 M303.49,232.09h0.47v-0.57h-0.47V232.09z M304.7,232.09h0.47v-0.57h-0.47V232.09z M305.9,232.09h0.4v-0.57h-0.4V232.09z
				 M295.12,233.54h0.47v-0.57h-0.47V233.54z M296.33,233.54h0.47v-0.57h-0.47V233.54z M297.53,233.54H298v-0.57h-0.47V233.54z
				 M298.74,233.54h0.47v-0.57h-0.47V233.54z M299.94,233.54h0.4v-0.57h-0.4V233.54z M301.15,233.54h0.4v-0.57h-0.4V233.54z
				 M302.29,233.54h0.47v-0.57h-0.47V233.54z M303.49,233.54h0.47v-0.57h-0.47V233.54z M304.7,233.54h0.47v-0.57h-0.47V233.54z
				 M305.9,233.54h0.4v-0.57h-0.4V233.54z M295.12,234.99h0.47v-0.57h-0.47V234.99z M296.33,234.99h0.47v-0.57h-0.47V234.99z
				 M297.53,234.99H298v-0.57h-0.47V234.99z M298.74,234.99h0.47v-0.57h-0.47V234.99z M299.94,234.99h0.4v-0.57h-0.4V234.99z
				 M301.15,234.99h0.4v-0.57h-0.4V234.99z M302.29,234.99h0.47v-0.57h-0.47V234.99z M303.49,234.99h0.47v-0.57h-0.47V234.99z
				 M304.7,234.99h0.47v-0.57h-0.47V234.99z M305.9,234.99h0.4v-0.57h-0.4V234.99z M307.11,234.99h0.4v-0.57h-0.4V234.99z
				 M295.12,236.37h0.47v-0.48h-0.47V236.37z M298.74,236.37h0.47v-0.48h-0.47V236.37z M299.94,236.37h0.4v-0.48h-0.4V236.37z
				 M301.15,236.37h0.4v-0.48h-0.4V236.37z M302.29,236.37h0.47v-0.48h-0.47V236.37z M303.49,236.37h0.47v-0.48h-0.47V236.37z
				 M304.7,236.37h0.47v-0.48h-0.47V236.37z M305.9,236.37h0.4v-0.48h-0.4V236.37z M307.11,236.37h0.4v-0.48h-0.4V236.37z
				 M308.25,236.37h0.47v-0.48h-0.47V236.37z M293.98,237.83h0.4v-0.48h-0.4V237.83z M298.74,237.83h0.47v-0.48h-0.47V237.83z
				 M299.94,237.83h0.4v-0.48h-0.4V237.83z M301.15,237.83h0.4v-0.48h-0.4V237.83z M302.29,237.83h0.47v-0.48h-0.47V237.83z
				 M303.49,237.83h0.47v-0.48h-0.47V237.83z M304.7,237.83h0.47v-0.48h-0.47V237.83z M305.9,237.83h0.4v-0.48h-0.4V237.83z
				 M307.11,237.83h0.4v-0.48h-0.4V237.83z M308.25,237.83h0.47v-0.48h-0.47V237.83z M293.98,239.28h0.4v-0.57h-0.4V239.28z
				 M299.94,239.28h0.4v-0.57h-0.4V239.28z M301.15,239.28h0.4v-0.57h-0.4V239.28z M302.29,239.28h0.47v-0.57h-0.47V239.28z
				 M303.49,239.28h0.47v-0.57h-0.47V239.28z M304.7,239.28h0.47v-0.57h-0.47V239.28z M305.9,239.28h0.4v-0.57h-0.4V239.28z
				 M307.11,239.28h0.4v-0.57h-0.4V239.28z M308.25,239.28h0.47v-0.57h-0.47V239.28z M309.45,239.28h0.47v-0.57h-0.47V239.28z
				 M301.15,240.74h0.4v-0.57h-0.4V240.74z M302.29,240.74h0.47v-0.57h-0.47V240.74z M303.49,240.74h0.47v-0.57h-0.47V240.74z
				 M304.7,240.74h0.47v-0.57h-0.47V240.74z M305.9,240.74h0.4v-0.57h-0.4V240.74z M307.11,240.74h0.4v-0.57h-0.4V240.74z
				 M308.25,240.74h0.47v-0.57h-0.47V240.74z M309.45,240.74h0.47v-0.57h-0.47V240.74z M310.66,240.74h0.47v-0.57h-0.47V240.74z
				 M292.78,242.19h0.4v-0.57h-0.4V242.19z M301.15,242.19h0.4v-0.57h-0.4V242.19z M302.29,242.19h0.47v-0.57h-0.47V242.19z
				 M303.49,242.19h0.47v-0.57h-0.47V242.19z M304.7,242.19h0.47v-0.57h-0.47V242.19z M305.9,242.19h0.4v-0.57h-0.4V242.19z
				 M307.11,242.19h0.4v-0.57h-0.4V242.19z M308.25,242.19h0.47v-0.57h-0.47V242.19z M309.45,242.19h0.47v-0.57h-0.47V242.19z
				 M310.66,242.19h0.47v-0.57h-0.47V242.19z M302.29,243.56h0.47v-0.48h-0.47V243.56z M303.49,243.56h0.47v-0.48h-0.47V243.56z
				 M304.7,243.56h0.47v-0.48h-0.47V243.56z M305.9,243.56h0.4v-0.48h-0.4V243.56z M307.11,243.56h0.4v-0.48h-0.4V243.56z
				 M308.25,243.56h0.47v-0.48h-0.47V243.56z M309.45,243.56h0.47v-0.48h-0.47V243.56z M310.66,243.56h0.47v-0.48h-0.47V243.56z
				 M311.86,243.56h0.4v-0.48h-0.4V243.56z M303.49,245.01h0.47v-0.48h-0.47V245.01z M304.7,245.01h0.47v-0.48h-0.47V245.01z
				 M305.9,245.01h0.4v-0.48h-0.4V245.01z M307.11,245.01h0.4v-0.48h-0.4V245.01z M308.25,245.01h0.47v-0.48h-0.47V245.01z
				 M309.45,245.01h0.47v-0.48h-0.47V245.01z M310.66,245.01h0.47v-0.48h-0.47V245.01z M311.86,245.01h0.4v-0.48h-0.4V245.01z
				 M313.07,245.01h0.4v-0.48h-0.4V245.01z"/>
			<g>
				<polygon class="st3" points="290.98,244.86 290.58,245.51 279.19,245.51 290.58,224.57 279.46,204.37 290.91,204.37 
					296.27,214.15 301.15,205.35 				"/>
			</g>
		</g>
		<g>
			<path class="st4" d="M258.78,211.3h-0.86v-0.34h2.1v0.34h-0.87v2.76h-0.37L258.78,211.3L258.78,211.3z"/>
			<path class="st4" d="M262.73,212.7c-0.02-0.43-0.05-0.95-0.04-1.34h-0.01c-0.1,0.36-0.21,0.75-0.36,1.18l-0.5,1.51h-0.28
				l-0.46-1.47c-0.13-0.43-0.25-0.83-0.33-1.21h-0.01c-0.01,0.39-0.03,0.91-0.06,1.38l-0.08,1.33h-0.35l0.2-3.1h0.47l0.48,1.5
				c0.12,0.39,0.21,0.72,0.29,1.05h0.01c0.07-0.31,0.17-0.65,0.3-1.05l0.5-1.5h0.47l0.18,3.1h-0.35L262.73,212.7z"/>
		</g>
	</g>
	<g>
		<path class="st3" d="M161.16,260.66l3.36-0.3c0.2,1.05,0.61,1.81,1.23,2.31c0.62,0.5,1.45,0.74,2.51,0.74
			c1.11,0,1.95-0.22,2.52-0.65c0.57-0.43,0.84-0.94,0.84-1.53c0-0.37-0.12-0.69-0.36-0.95c-0.23-0.27-0.66-0.5-1.24-0.69
			c-0.4-0.13-1.33-0.36-2.76-0.69c-1.85-0.42-3.15-0.94-3.91-1.57c-1.05-0.87-1.58-1.93-1.58-3.19c0-0.81,0.24-1.56,0.74-2.26
			c0.5-0.7,1.21-1.23,2.14-1.61s2.05-0.56,3.38-0.56c2.15,0,3.76,0.43,4.85,1.3c1.09,0.87,1.65,2.04,1.71,3.49l-3.45,0.14
			c-0.14-0.81-0.47-1.4-0.95-1.75c-0.49-0.36-1.22-0.53-2.19-0.53c-1,0-1.79,0.19-2.36,0.57c-0.37,0.24-0.54,0.57-0.54,0.98
			c0,0.37,0.17,0.7,0.51,0.97c0.43,0.34,1.5,0.69,3.18,1.06c1.69,0.36,2.93,0.75,3.73,1.13c0.8,0.39,1.43,0.93,1.89,1.61
			c0.46,0.68,0.69,1.52,0.69,2.52c0,0.91-0.28,1.76-0.82,2.55c-0.54,0.8-1.32,1.38-2.31,1.76c-0.99,0.39-2.24,0.58-3.73,0.58
			c-2.17,0-3.83-0.46-4.99-1.39S161.39,262.44,161.16,260.66z"/>
		<path class="st3" d="M186.65,265.82v-13.16h-5.09v-2.68h13.61v2.68h-5.07v13.16H186.65z"/>
		<path class="st3" d="M202.17,249.97h3.45v8.57c0,1.36,0.04,2.25,0.13,2.64c0.14,0.65,0.5,1.17,1.05,1.56s1.32,0.59,2.29,0.59
			c0.98,0,1.72-0.18,2.22-0.56c0.5-0.37,0.8-0.82,0.9-1.36c0.1-0.54,0.16-1.44,0.16-2.69v-8.77h3.46v8.32c0,1.9-0.09,3.25-0.28,4.03
			c-0.19,0.78-0.53,1.45-1.03,1.99c-0.5,0.54-1.18,0.97-2.01,1.29c-0.84,0.33-1.94,0.48-3.3,0.48c-1.63,0-2.88-0.17-3.72-0.52
			c-0.84-0.35-1.51-0.81-2-1.36c-0.49-0.56-0.81-1.15-0.97-1.75c-0.22-0.91-0.34-2.25-0.34-4.02v-8.45H202.17z"/>
		<path class="st3" d="M224.24,249.97h6.32c1.42,0,2.51,0.1,3.26,0.3c1,0.28,1.87,0.76,2.59,1.46c0.72,0.7,1.27,1.56,1.63,2.57
			c0.37,1.01,0.56,2.26,0.56,3.74c0,1.3-0.18,2.43-0.52,3.37c-0.43,1.15-1.04,2.09-1.83,2.8c-0.6,0.54-1.41,0.97-2.43,1.27
			c-0.77,0.23-1.79,0.34-3.06,0.34h-6.51V249.97z M227.71,252.66v10.49h2.59c0.97,0,1.67-0.05,2.09-0.16
			c0.57-0.13,1.02-0.35,1.4-0.66c0.37-0.31,0.67-0.82,0.91-1.53c0.24-0.71,0.36-1.68,0.36-2.9s-0.12-2.16-0.36-2.83
			c-0.23-0.65-0.56-1.17-0.98-1.53s-0.95-0.62-1.6-0.75c-0.49-0.1-1.43-0.16-2.84-0.16h-1.57V252.66z"/>
		<path class="st3" d="M246.22,265.82v-15.84h3.45v15.84H246.22z"/>
		<path class="st3" d="M257.05,257.99c0-1.62,0.26-2.97,0.79-4.06c0.39-0.81,0.92-1.53,1.6-2.17c0.68-0.64,1.41-1.11,2.21-1.42
			c1.07-0.42,2.3-0.63,3.7-0.63c2.52,0,4.54,0.72,6.06,2.17c1.51,1.45,2.28,3.47,2.28,6.04c0,2.56-0.76,4.55-2.25,6
			c-1.5,1.45-3.51,2.16-6.03,2.16c-2.54,0-4.57-0.71-6.07-2.16C257.81,262.5,257.05,260.52,257.05,257.99z M260.62,257.88
			c0,1.8,0.44,3.15,1.34,4.08c0.9,0.93,2.03,1.39,3.41,1.39s2.51-0.46,3.4-1.38c0.89-0.92,1.32-2.29,1.32-4.13
			c0-1.81-0.43-3.16-1.29-4.06c-0.87-0.89-2-1.34-3.43-1.34c-1.42,0-2.58,0.45-3.44,1.35C261.06,254.71,260.62,256.06,260.62,257.88
			z"/>
	</g>
</g>
</svg>
