<?xml version="1.0" encoding="utf-8"?>
<!-- Generator: Adobe Illustrator 24.2.0, SVG Export Plug-In . SVG Version: 6.00 Build 0)  -->
<svg version="1.1" id="Layer_1" xmlns="http://www.w3.org/2000/svg" xmlns:xlink="http://www.w3.org/1999/xlink" x="0px" y="0px"
	 viewBox="0 0 350 350" style="enable-background:new 0 0 350 350;" xml:space="preserve">
<style type="text/css">
	.st0{fill:#EA4033;stroke:#231F20;stroke-width:0.5;stroke-miterlimit:10;}
	.st1{fill:#CCCCCC;stroke:#231F20;stroke-width:0.5;stroke-miterlimit:10;}
	.st2{fill:#161313;stroke:#231F20;stroke-width:0.5;stroke-miterlimit:10;}
	.st3{fill:#DBD5D5;stroke:#231F20;stroke-width:0.5;stroke-miterlimit:10;}
	.st4{fill:#D1AB86;stroke:#231F20;stroke-width:0.5;stroke-miterlimit:10;}
	.st5{fill:#FFE2C2;stroke:#231F20;stroke-width:0.5;stroke-miterlimit:10;}
	.st6{fill:#FFF8F8;stroke:#231F20;stroke-width:0.5;stroke-miterlimit:10;}
	.st7{fill:#333030;stroke:#231F20;stroke-width:0.5;stroke-miterlimit:10;}
	.st8{fill:#0C0A0A;stroke:#231F20;stroke-width:0.5;stroke-miterlimit:10;}
	.st9{fill:#0F303F;stroke:#231F20;stroke-width:0.5;stroke-miterlimit:10;}
	.st10{fill:#6B3B55;stroke:#231F20;stroke-width:0.5;stroke-miterlimit:10;}
	.st11{fill:#804665;stroke:#231F20;stroke-width:0.5;stroke-miterlimit:10;}
	.st12{fill:#8F8F8F;stroke:#231F20;stroke-width:0.5;stroke-miterlimit:10;}
	.st13{fill:#FFFFFF;stroke:#231F20;stroke-width:0.5;stroke-miterlimit:10;}
	.st14{fill:#E8E8E8;stroke:#231F20;stroke-width:0.5;stroke-miterlimit:10;}
	.st15{fill:#4B4B55;stroke:#231F20;stroke-width:0.5;stroke-miterlimit:10;}
	.st16{fill:#D1D1D1;stroke:#231F20;stroke-width:0.5;stroke-miterlimit:10;}
</style>
<g id="BACKGROUND">
</g>
<g>
	<g>
		<path class="st0" d="M293.06,160.79c0,71.66-58.1,129.76-129.76,129.76c-71.67,0-129.76-58.09-129.76-129.76
			S91.64,31.01,163.3,31.01S293.06,89.12,293.06,160.79z"/>
	</g>
	<g>
		<path class="st1" d="M292.49,172.78c-16.68-16.68-71.16-71.16-71.36-71.36c-31.71-31.71-83.15-31.71-114.85,0
			c-31.71,31.71-31.71,83.14,0,114.85c0.24,0.24,0.49,0.44,0.72,0.67c0.32,0.33,53.44,53.49,72.51,72.57
			C239.62,281.99,286.93,233.44,292.49,172.78z"/>
	</g>
	<g>
		<g>
			<g>
				<g>
					<path class="st2" d="M136.87,153.97c0,0,3.17,28.59-4.85,38.63c-8.02,10.03,11.2,8.52,11.2,8.52l16.22-11.03l2.51-16.55
						l-13.2-22.4L136.87,153.97z"/>
				</g>
				<g>
					<path class="st2" d="M194.05,153.97c0,0-3.17,28.59,4.85,38.63c8.03,10.03-11.2,8.52-11.2,8.52l-16.22-11.03l-2.51-16.55
						l13.21-22.4L194.05,153.97z"/>
				</g>
				<g>
					<polygon class="st3" points="181.31,178.87 150,178.37 146.46,179.38 145.23,180.05 145.52,180.99 155.24,210.64 
						158.08,218.65 174.2,218.65 175.74,211.2 184.2,181.1 184.56,179.88 					"/>
				</g>
				<g>
					<path class="st2" d="M145.52,180.99c-8.83,11.49-23.07,13.17-25.59,27.1l-0.82,10.57h38.97l-2.84-8.01L145.52,180.99z"/>
				</g>
				<g>
					<path class="st2" d="M174.2,218.65h37.64l-0.81-10.57c-1.97-9.48-12.64-14.04-26.83-26.97l-8.47,30.1L174.2,218.65z"/>
				</g>
				<g>
					<path class="st4" d="M175.27,164.51h-3.14h-16.44c-3.37,0-6.12,2.41-6.12,5.39v13.89c0,2.98,2.74,5.38,6.12,5.38h19.58
						c2.93,0,5.38-1.83,5.98-4.25c0.05-0.02,0.11-0.02,0.14-0.05v-1.09v-0.3v-13.59C181.37,166.92,178.64,164.51,175.27,164.51z"/>
				</g>
				<g>
					<path class="st5" d="M194.2,138.91c-0.76-0.23-1.64,0.31-2.48,1.4c0.02-0.55,0.04-1.07,0.04-1.6
						c0-17.38-11.76-31.47-26.28-31.47s-26.28,14.09-26.28,31.47c0,0.53,0.01,1.07,0.04,1.6c-0.84-1.09-1.71-1.64-2.47-1.4
						c-1.84,0.57-2.4,5.43-1.24,10.84c1.16,5.41,3.61,9.33,5.47,8.76c0.65-0.2,1.14-0.95,1.45-2.06
						c4.47,13.01,13.12,24.79,23.05,24.79c9.95,0,18.58-11.77,23.05-24.79c0.31,1.11,0.8,1.87,1.45,2.06
						c1.85,0.57,4.29-3.35,5.45-8.76C196.6,144.34,196.05,139.49,194.2,138.91z"/>
				</g>
				<g>
					<path class="st6" d="M149.34,179.66c0,0,0.51,4.91,9.46,7.58c8.95,2.67,2.98,8.91,2.98,8.91l-7,1.45l-4.11-8.03l-1.75-6.13
						L149.34,179.66z"/>
				</g>
				<g>
					<path class="st6" d="M181.61,180.55c0,0-0.51,4.91-9.46,7.58c-8.94,2.67-2.98,8.91-2.98,8.91l7,1.45l4.11-8.03l1.75-6.13
						L181.61,180.55z"/>
				</g>
				<g>
					<polygon class="st7" points="146.96,178.87 137.24,184.65 155.24,210.64 					"/>
				</g>
				<g>
					<polygon class="st7" points="184.2,178.76 194.35,186.4 175.74,211.2 					"/>
				</g>
				<g>
					<g>
						<polygon class="st8" points="164.2,199.81 159.45,218.62 172.65,218.62 167.22,199.81 						"/>
					</g>
					<g>
						<polygon class="st8" points="161.79,188.74 169.64,188.85 171.09,194.65 169.48,200.56 162.06,200.56 160.28,195.04 						"/>
					</g>
				</g>
				<g>
					<path class="st2" d="M193.44,133.15c0.42-4.23-0.27-8.46-2.19-12.68c-6.39-11.43-14.73-17.61-25.85-16.28
						c-10.78,1.49-16.9,5.43-18.75,11.64c-5.01,1.31-8.14,5.81-8.13,15.55c-3.37,5.23-4.59,11.06-3.23,17.61
						c1.78-2,3.62-2.17,5.51-0.63l1.59,8.08c-0.83-13.01,3.4-19.5,5.49-26.56c3.33,7.21,10.85,10.94,20.83,12.65
						c-3.47-2.98-5.25-6.23-3.34-10.04c1.39,4.88,5.04,7.72,10.03,9.36c-2.74-3.23-4.73-6.75-4.47-11.15
						c2.19,5.66,6.56,9.52,12.05,12.49c-2.42-3.23-4.22-6.58-3.12-10.48c5.69,7.63,7.4,15.65,8.64,23.72l1.6-8.1
						c1.88-1.51,3.71-1.34,5.49,0.65C196.83,143.18,196.01,137.91,193.44,133.15z"/>
				</g>
			</g>
		</g>
		<g>
			<g>
				<g>
					<path class="st9" d="M315.74,294.26c5.53,5.51,5.53,14.46,0,19.97l0,0c-5.51,5.51-14.46,5.51-19.97,0l-57.12-57.13
						c-5.53-5.51-5.53-14.46,0-19.97l0,0c5.51-5.51,14.46-5.51,19.97,0L315.74,294.26z"/>
				</g>
				<g>
					<path class="st10" d="M244.13,209.31c8.65,8.65,8.65,22.67,0,31.33l0,0c-8.66,8.65-22.68,8.65-31.32,0l-6.19-6.18
						c-8.65-8.65-8.65-22.67,0-31.32l0,0c8.65-8.65,22.68-8.65,31.33,0L244.13,209.31z"/>
				</g>
				<g>
					<path class="st11" d="M209.35,205.88c-1.02,1.01-1.89,2.14-2.63,3.32c7.31-4.61,17.07-3.74,23.44,2.63l5.29,5.28
						c6.36,6.36,7.22,16.12,2.63,23.43c1.18-0.74,2.29-1.6,3.32-2.63c7.39-7.38,7.39-19.36,0-26.75l-5.28-5.28
						C228.72,198.49,216.74,198.49,209.35,205.88z"/>
				</g>
				<g>
					<path class="st12" d="M125.06,197.25c-1.02-0.87-2.01-1.78-2.96-2.73c-9.53-9.53-14.78-22.2-14.78-35.68
						s5.25-26.15,14.78-35.68c2-2,4.15-3.81,6.42-5.43c-10.36,11.51-16.03,26.25-16.03,41.85
						C112.49,173.36,116.91,186.45,125.06,197.25z"/>
				</g>
				<g>
					<g>
						<path class="st13" d="M106.28,101.41c-31.71,31.71-31.71,83.14,0,114.85c31.7,31.71,83.14,31.71,114.85,0
							s31.71-83.14,0-114.85S137.98,69.7,106.28,101.41z M206.16,201.29c-23.44,23.44-61.46,23.44-84.91,0
							c-23.44-23.45-23.44-61.46,0-84.91s61.46-23.44,84.91,0S229.6,177.84,206.16,201.29z"/>
					</g>
				</g>
				<g>
					<path class="st14" d="M112.02,107.15c-28.54,28.54-28.54,74.82,0,103.36c28.53,28.54,74.82,28.54,103.36,0
						s28.54-74.82,0-103.36C186.85,78.61,140.56,78.61,112.02,107.15z M206.16,201.29c-23.44,23.44-61.46,23.44-84.91,0
						c-23.44-23.45-23.44-61.46,0-84.91s61.46-23.44,84.91,0S229.6,177.84,206.16,201.29z"/>
				</g>
				<g>
					<path class="st15" d="M302.91,305.38c1.51,1.51,1.51,3.97,0,5.48l0,0c-1.51,1.52-3.97,1.52-5.49,0l-56.26-56.26
						c-1.51-1.51-1.51-3.97,0-5.49l0,0c1.51-1.51,3.97-1.51,5.49,0L302.91,305.38z"/>
				</g>
				<g>
					<path class="st16" d="M116.28,212.45c-29.95-29.97-29.95-78.52,0-108.47c12.3-12.31,29.66-16.67,45.66-18.87
						c-18.44,0.83-38.54,5.42-52.64,19.5c-29.95,29.95-29.95,78.52,0,108.47c17.64,17.66,41.74,21.99,64.7,18.84
						C153.25,232.87,132.15,228.31,116.28,212.45z"/>
				</g>
			</g>
		</g>
	</g>
</g>
</svg>
