<?xml version="1.0" encoding="utf-8"?>
<!-- Generator: Adobe Illustrator 24.2.0, SVG Export Plug-In . SVG Version: 6.00 Build 0)  -->
<svg version="1.1" id="Layer_1" xmlns="http://www.w3.org/2000/svg" xmlns:xlink="http://www.w3.org/1999/xlink" x="0px" y="0px"
	 viewBox="0 0 350 350" style="enable-background:new 0 0 350 350;" xml:space="preserve">
<style type="text/css">
	.st0{fill:#FFFFFF;}
	.st1{fill:#333333;}
	.st2{fill:#D65E2F;}
	.st3{fill:#FBB03B;}
	.st4{fill:#FCC062;}
	.st5{fill:#8C6239;}
	.st6{fill:#A38161;}
</style>
<g id="BACKGROUND">
</g>
<g>
	<g>
		<path class="st0" d="M293.89,291.8c4.51-0.08,9.01-0.15,13.53-0.24c3.35-0.06,7.04,0.32,10.38-0.12c2.5-0.32,2.49-1.39,2.68-3.65
			c0.19-2.17,0.4-4.32,0.58-6.47c0.28-3.35,0.54-6.72,0.71-10.07c0.31-5.92,0.37-11.84,0.61-17.76c0.18-4.64,0.98-9.88-0.61-14.37
			c-1.7-4.82-5.97-7.2-10.72-8.2c-6.56-1.38-13.54-0.7-20.19-0.77c-14.18-0.15-28.52-0.44-42.63-2.05
			c-5.33-0.61-10.48-1.53-11.08-7.79c-0.36-3.79,0.18-7.81,0.22-11.63c0.04-4.28,0-8.56-0.12-12.83c-0.21-8.33-0.57-16.7-1.53-24.98
			c-0.4-3.48-0.79-6.98-3.92-9.16c-2.31-1.6-5.2-1.9-7.89-2.01c-4.78-0.19-9.62,0.03-14.4-0.03c-19.33-0.21-38.65-0.43-57.98-0.37
			c-9.14,0.03-18.34,0.15-27.44,1.2c-4.18,0.48-8.65,0.71-11.53,4.14c-2.8,3.34-3.73,7.49-3.8,11.75
			c-0.14,7.78,0.03,15.56,0.04,23.34c0.01,6.73,1.07,14.62-1.47,21.01c-2.59,6.52-8.78,7.8-15.15,8.24
			c-7.17,0.49-14.38,0.62-21.57,0.77c-7.26,0.15-14.55,0.43-21.81,0.4c-7.78-0.03-16.09-0.9-22.88,3.71
			c-2.86,1.96-4.31,3.86-4.27,7.6c0.03,2.49,0.48,5.03,0.64,7.53c0.3,4.41,0.43,8.83,0.49,13.24c0.06,4.82,0.04,9.66,0.09,14.48
			c0.05,4.47-0.72,9.94,1.83,13.85c2.22,1.73,8.2,0.92,10.72,0.97c3.65,0.06,7.3,0.1,10.95-0.03c19.34-0.64,38.8-0.39,58.17-0.15
			c22.45,0.27,44.89,0.68,67.34,1.03c35.02,0.54,70.05-0.06,105.07-0.37C282.6,291.97,288.24,291.89,293.89,291.8z"/>
		<path class="st1" d="M325.32,243.84c-0.44-7.26-4.17-12.65-11.18-14.88c-6.45-2.05-13.48-1.41-20.14-1.44
			c-7.38-0.03-14.74-0.22-22.12-0.52c-7.41-0.3-14.84-0.64-22.22-1.42c-1.52-0.15-3.09-0.27-4.59-0.58c-3.8-0.79-5.27-3.56-5.18-7.3
			c0.1-4.4,0.25-8.79,0.22-13.2c-0.03-9.08-0.34-18.16-1.06-27.21c-0.55-6.9-0.21-15.44-7.52-18.75c-3.53-1.6-7.25-1.48-11.05-1.47
			c-5.53,0.01-11.06-0.04-16.58-0.12c-10.39-0.15-20.77-0.37-31.17-0.31c-9.63,0.05-19.27-0.1-28.9,0.08
			c-8.85,0.17-19.05-0.26-27.58,2.44c-5.47,1.72-8.86,7.32-9.77,12.78c-1.24,7.4-0.28,15.65-0.27,23.15c0.01,4,0.01,8,0.03,11.98
			c0.01,4.41,0.36,9.27-1.61,13.35c-3.8,7.9-17.36,6.24-24.84,6.46c-7.84,0.23-15.67,0.35-23.51,0.52
			c-7.57,0.17-15.55-0.75-23.02,0.7c-5.34,1.03-13.28,4.56-14.18,10.68c-0.63,4.27,0.61,9.14,0.83,13.45
			c0.26,5.09,0.32,10.2,0.35,15.31c0.03,4.67,0.03,9.34,0.13,13.99c0.09,3.78-0.03,7.13,2.08,10.33c0.06,0.19,0.18,0.37,0.39,0.54
			c1.83,1.51,3.84,1.66,6.15,1.69c3.97,0.04,7.94,0.17,11.92,0.17c7.65,0,15.26-0.48,22.91-0.28c9.16,0.24,18.29-0.14,27.44-0.09
			c22.27,0.13,44.54,0.58,66.8,0.94c38.31,0.62,76.56,0.1,114.87-0.13c13.95-0.08,27.91-0.58,41.86-0.63
			c1.9-0.01,4.86,0.58,6.56-0.48c1.83-1.13,1.68-3.65,1.84-5.57c0.59-7.07,1.25-14.11,1.5-21.19
			C324.93,259.26,325.77,251.41,325.32,243.84z M322.44,253.49c-0.23,5.92-0.3,11.84-0.61,17.76c-0.17,3.37-0.43,6.72-0.71,10.07
			c-0.18,2.17-0.4,4.32-0.58,6.47c-0.19,2.26-0.18,3.31-2.68,3.65c-3.33,0.44-7.02,0.05-10.38,0.12c-4.51,0.09-9.01,0.17-13.53,0.24
			c-5.65,0.09-11.3,0.17-16.94,0.22c-35.02,0.31-70.05,0.93-105.07,0.37c-22.45-0.35-44.89-0.76-67.34-1.03
			c-19.37-0.23-38.83-0.49-58.17,0.15c-3.65,0.12-7.3,0.09-10.95,0.03c-2.53-0.05-8.5,0.76-10.72-0.97
			c-2.55-3.91-1.78-9.36-1.83-13.85c-0.05-4.82-0.03-9.66-0.09-14.48c-0.06-4.42-0.19-8.83-0.49-13.24
			c-0.17-2.49-0.62-5.04-0.64-7.53c-0.04-3.73,1.41-5.64,4.27-7.6c6.78-4.62,15.1-3.74,22.88-3.71c7.26,0.03,14.55-0.25,21.81-0.4
			c7.18-0.15,14.39-0.27,21.57-0.77c6.37-0.44,12.55-1.72,15.15-8.24c2.54-6.4,1.48-14.27,1.47-21.01
			c-0.01-7.78-0.18-15.56-0.04-23.34c0.08-4.26,1.01-8.41,3.8-11.75c2.88-3.43,7.35-3.66,11.53-4.14c9.1-1.03,18.29-1.17,27.44-1.2
			c19.33-0.05,38.65,0.18,57.98,0.37c4.78,0.05,9.62-0.17,14.4,0.03c2.71,0.12,5.6,0.41,7.89,2.01c3.15,2.18,3.52,5.67,3.92,9.16
			c0.97,8.28,1.32,16.65,1.53,24.98c0.1,4.28,0.15,8.56,0.12,12.83c-0.04,3.82-0.58,7.84-0.22,11.63c0.59,6.24,5.75,7.17,11.08,7.79
			c14.11,1.61,28.45,1.9,42.63,2.05c6.67,0.08,13.64-0.61,20.19,0.77c4.75,1.01,9.01,3.38,10.72,8.2
			C323.42,243.61,322.62,248.84,322.44,253.49z"/>
		<path class="st2" d="M168.05,221.69c5.05,0.04,10.1,0.08,15.15,0.12c0.14-1.37,0.23-2.9-0.09-4.05c-0.66-2.28-2.35-1.84-4.35-1.78
			c-0.71,0.03-1.34-0.63-1.33-1.33c0.18-7.41,0.3-14.84,0.19-22.26c-0.05-3.57-0.17-7.16-0.25-10.73c-0.03-0.93-0.01-1.86-0.05-2.79
			c-0.01-0.54-0.04-1.08-0.06-1.62l-0.22-0.12c-3.46-1.13-6.45,1.03-8.87,2.98c-1.07,0.85-2,1.65-3.24,2.3
			c-0.97,0.5-3.04,0.79-3.78,1.43c-0.98,0.86-1.57,3.52-1.08,4.82c0,0,1.02,0.04,1.52,0.05c2.7,0.1,5.42,0.14,8.11,0.03
			c0.52-0.03,0.86,0.21,1.07,0.53c0.15,0.21,0.26,0.46,0.26,0.8c-0.06,8.28,0.64,16.53,0.3,24.81c-0.03,0.7-0.59,1.35-1.33,1.33
			c-2.09-0.09-4.2-0.77-5.16,1.08c-0.37,0.72-0.36,3.38,0.05,3.88C165.62,222.02,166.93,221.69,168.05,221.69z"/>
		<path class="st1" d="M185.15,214.35c-1.03-1.29-3.24-1.23-5.03-1.11c0.17-7.4,0.27-14.8,0.14-22.22
			c-0.05-3.29-0.17-6.56-0.23-9.85c-0.04-1.75,0.23-3.89-0.32-5.58c-0.14-0.41-0.46-0.84-0.93-0.93c-2.79-0.53-7.52-0.88-9.96,0.7
			c-1.12,0.72-1.61,1.96-2.51,2.88c-1.44,1.46-3.34,2.27-5.26,2.88c-1.32,0.41-2.55,0.43-3.25,1.72c-0.93,1.72-0.99,7.34,1.15,8.36
			c2.24,1.06,6.52,0.54,9.47,0.3c0.01,7.32,0.54,14.64,0.32,21.96c-1.96-0.19-4.5-0.48-5.71,0.81c-1.62,1.73-1.42,6.85-0.97,8.95
			c0.1,0.45,0.5,0.81,0.93,0.93c2.88,0.8,6.6,0.22,9.57,0.25c3.95,0.03,7.88,0.06,11.82,0.09c0.77,0.01,1.25-0.62,1.33-1.33
			C185.93,221.04,186.63,216.21,185.15,214.35z M168.05,221.69c-1.12-0.01-2.44,0.34-3.13-0.52c-0.41-0.5-0.43-3.16-0.05-3.88
			c0.95-1.86,3.07-1.16,5.16-1.08c0.74,0.03,1.3-0.63,1.33-1.33c0.36-8.28-0.35-16.53-0.3-24.81c0-0.34-0.1-0.59-0.26-0.8
			c-0.21-0.32-0.55-0.54-1.07-0.53c-2.7,0.12-5.42,0.08-8.11-0.03c-0.52-0.01-1.52-0.05-1.52-0.05c-0.49-1.3,0.09-3.96,1.08-4.82
			c0.74-0.64,2.81-0.92,3.78-1.43c1.23-0.64,2.17-1.44,3.24-2.3c2.41-1.95,5.4-4.1,8.87-2.98l0.22,0.12
			c0.03,0.54,0.05,1.08,0.06,1.62c0.03,0.93,0.03,1.86,0.05,2.79c0.08,3.57,0.19,7.16,0.25,10.73c0.12,7.43-0.01,14.84-0.19,22.26
			c-0.01,0.7,0.62,1.35,1.33,1.33c1.99-0.06,3.69-0.52,4.35,1.78c0.34,1.15,0.23,2.68,0.09,4.05
			C178.16,221.76,173.1,221.73,168.05,221.69z"/>
	</g>
	<g>
		<g>
			<g>
				<g>
					<path class="st3" d="M131.32,54.37c-0.35,7.57-0.25,15.18,2.36,22.4c2.77,7.7,7.48,14.58,14.73,18.66
						c5.64,3.17,11.9,4.76,18.29,5.2c-1.39-0.84-2.72-1.82-3.98-2.89c-6-1.34-11.22-3.25-15.71-7.6c-4.4-4.27-8.47-9.56-10.01-15.59
						c-1.57-6.16-2.27-14.51-1.17-20.75c0.95-5.43,6.13-3.57,10.32-3.64c0-0.64,0-1.29,0-1.95c0-0.7-0.03-1.46-0.06-2.24
						c-3.3-0.14-6.59,0.13-9.89,0.06c-2.36-0.05-3.49-0.18-4.33,2.42C131.28,50.23,131.41,52.51,131.32,54.37z"/>
					<path class="st3" d="M186.91,98.77c12.22-6.49,18.12-20.26,20.81-33.18c1.43-6.9,1.96-13.97,1.69-20.99
						c-0.03-0.68,0.19-2.48-0.17-3.06c-0.85-1.35-3.03-1.02-4.38-1.16c-1.52-0.17-3.09-0.14-4.63-0.21
						c-3.17-0.14-6.34-0.26-9.53-0.36c-7.04-0.23-14.08-0.37-21.14-0.36c-3.71,0.01-7.43,0.05-11.14,0.17
						c-2.21,0.06-7.44-0.62-9.36,0.81c-0.62,1.47-0.22,3.86-0.25,5.38c-0.03,2.1-0.04,4.2-0.03,6.31c0.03,3.48,0.14,6.96,0.39,10.43
						c0.41,5.65,1.69,11.09,3.68,16.42C157.82,92.27,171.94,106.71,186.91,98.77z"/>
					<path class="st3" d="M226.39,56.36c0-1.24,0.01-2.49-0.08-3.71c-0.23-3.42-0.89-4.38-4.38-4.85c-3.17-0.43-6.6-0.49-9.81-0.46
						c0.01,1.39-0.01,2.8-0.06,4.19c3.7,0.08,8.85-1.23,9.81,3.4c0.71,3.44,0.03,7.65-0.34,11.1c-0.36,3.53-0.67,7.27-1.78,10.66
						c-4,12.3-15.2,19.76-27.32,21.99c-1.19,0.9-2.44,1.72-3.74,2.41c14.34-0.37,27.22-6.73,33.62-20.65
						C225.83,72.79,226.44,64.66,226.39,56.36z"/>
					<path class="st3" d="M179.54,135.71c4.73,0.12,9.49,0.43,14.24,0.44c-0.68-1.34-0.4-3.49-1.29-4.44
						c-0.67-0.71-2.95-1.02-3.89-1.33c-2.71-0.89-5.43-1.75-8.15-2.62c-0.54-0.17-1.02-0.67-0.99-1.28
						c0.31-7.54,0.31-15.1,0.46-22.64c-1.62,0.18-3.22,0.14-4.77-0.08c-0.23,7.51-0.28,15.04-0.45,22.54
						c-0.01,0.57-0.4,1.16-0.98,1.29c-3.38,0.76-10.83,2.06-12.43,5.12c-0.46,0.89-0.3,2.02-0.59,3
						C166.96,135.83,173.26,135.55,179.54,135.71z"/>
				</g>
				<path class="st4" d="M186.91,98.77c12.22-6.49,18.12-20.26,20.81-33.18c1.43-6.9,1.96-13.97,1.69-20.99
					c-0.03-0.68,0.19-2.48-0.17-3.06c-0.85-1.35-3.03-1.02-4.38-1.16c-1.52-0.17-3.09-0.14-4.63-0.21
					c-3.17-0.14-6.34-0.26-9.53-0.36c-0.61-0.03-1.21-0.04-1.82-0.05c0.19,6.98,0.97,51.41-9.37,61.23
					C181.92,100.79,184.41,100.1,186.91,98.77z"/>
				<path class="st4" d="M188.51,132.67c0.62,0.85,1.11,2.42,1.37,3.42c1.3,0.04,2.59,0.06,3.89,0.08c-0.68-1.34-0.4-3.49-1.29-4.44
					c-0.67-0.71-2.95-1.02-3.89-1.33c-2.71-0.89-5.43-1.75-8.15-2.62c-0.54-0.17-1.02-0.67-0.99-1.28
					c0.31-7.54,0.31-15.1,0.46-22.64c-0.68,0.08-1.37,0.1-2.04,0.1c-0.09,4.46-0.45,21.99-0.49,24.11
					C177.33,130.5,187.57,131.36,188.51,132.67z"/>
				<path class="st5" d="M195.93,155.28c0.1,0.01,0.3,0,0.52-0.03c-0.09-0.89,0.18-2.28,0.18-2.94c0.05-3.69,0.06-7.38,0.09-11.06
					c0-0.53,0.17-1.6,0.17-2.48c-5.76,0.15-11.57-0.26-17.33-0.4c-7.38-0.19-14.79,0.25-22.17-0.1c-0.22,2.81-0.27,5.65-0.39,8.46
					c-0.08,2.01-0.17,4.01-0.21,6.02c-0.01,0.5-0.06,1.03-0.04,1.55c0.22,0.04,0.44,0.05,0.57,0.03c1.87-0.43,4.63,0.28,6.59,0.35
					c2.22,0.08,4.45,0.12,6.67,0.13c4.27,0.01,8.54,0.04,12.8,0.14C187.46,155.04,191.88,154.68,195.93,155.28z"/>
				<path class="st6" d="M196.71,141.25c0-0.53,0.17-1.6,0.17-2.48c-2.27,0.06-4.54,0.03-6.81-0.04l-0.32,16.2
					c2.1,0,4.19,0.06,6.19,0.35c0.1,0.01,0.3,0,0.52-0.03c-0.09-0.89,0.18-2.28,0.18-2.94
					C196.68,148.62,196.69,144.93,196.71,141.25z"/>
			</g>
		</g>
		<path class="st1" d="M199.11,156.93c0.64-2.98,0.18-6.52,0.21-9.56c0.03-3.33,0.04-6.64,0.05-9.97c0-0.23-0.08-0.49-0.21-0.71
			c-0.14-0.27-0.4-0.49-0.75-0.57c-3.02-1.44-2.11-4.06-4.1-6.19c-0.76-0.81-1.84-1.03-2.89-1.38c-3.08-1.06-6.2-2.04-9.31-3.02
			c0.28-7.32,0.28-14.66,0.44-21.99c9,0.79,18.25-0.45,26.36-4.59c8.28-4.2,13.72-11.82,17.01-20.34c3.24-8.36,3.8-18.43,2.93-27.29
			c-0.27-2.67-0.71-5.33-3.62-6.11c-1.96-0.53-4.42-0.09-6.46-0.25c-2.22-0.15-4.38-0.32-6.6-0.32c0.06-1.92,0.04-4.1-0.95-5.42
			c-1.64-2.18-6.46-1.52-8.68-1.62c-10.17-0.46-20.36-0.8-30.55-0.83c-5.04-0.01-10.08,0.04-15.13,0.22
			c-2.93,0.1-6.87-0.49-9.4,1.32c-0.21,0.08-0.39,0.23-0.54,0.45c-0.17,0.19-0.26,0.39-0.28,0.59c-0.48,1.19-0.62,2.55-0.63,3.95
			c-3.98-0.19-8.92-0.59-12.8,0.03c-3.02,0.48-3.7,2.93-4.11,5.69c-1.3,8.67-1.13,18.62,1.55,27.02c2.6,8.15,7.31,15.8,14.57,20.54
			c8.01,5.22,17.83,7.11,27.27,6.78c-0.23,7.3-0.3,14.6-0.44,21.91c-3.53,0.85-7.03,2.04-10.3,3.58c-1.65,0.77-2.41,1.11-2.95,2.76
			c-0.77,2.35-0.25,3.06-2.86,3.95c-0.55,0.05-0.88,0.44-0.99,0.89c0,0,0,0,0,0.01c-0.01,0.04-0.03,0.08-0.03,0.12
			c-0.03,0.1-0.05,0.19-0.06,0.31c-0.53,5.02-0.58,10.16-0.7,15.2c-0.03,1.11-0.46,3.26,0.41,4.18c1.1,1.17,4.29,0.84,5.69,0.92
			c7.16,0.37,14.33,0.22,21.48,0.39c5.15,0.12,11.36,1.3,16.44,0.32C198.61,157.79,199.02,157.35,199.11,156.93z M221.92,47.78
			c3.49,0.48,4.15,1.43,4.38,4.85c0.09,1.24,0.08,2.48,0.08,3.71c0.04,8.3-0.57,16.43-4.07,24.06
			c-6.41,13.91-19.28,20.28-33.62,20.65c1.32-0.7,2.55-1.51,3.74-2.41c12.12-2.23,23.33-9.68,27.32-21.99
			c1.11-3.39,1.42-7.13,1.78-10.66c0.35-3.46,1.04-7.66,0.34-11.1c-0.97-4.63-6.11-3.33-9.81-3.4c0.05-1.39,0.08-2.8,0.06-4.19
			C215.32,47.29,218.76,47.36,221.92,47.78z M208.81,72.21c1.69-5.87,2.7-11.94,3.11-18.04c2.1,0.05,4.44-0.49,6.11,0.81
			c1.57,1.21,1.32,1.83,1.29,3.69c-0.01,1.47-0.09,2.94-0.19,4.4c-0.43,6.03-0.97,12.38-4.18,17.65
			c-4.49,7.39-10.7,11.88-18.39,14.22C202.54,88.62,206.57,79.99,208.81,72.21z M148.41,95.42c-7.23-4.07-11.95-10.96-14.73-18.66
			c-2.6-7.22-2.71-14.82-2.36-22.4c0.08-1.84-0.04-4.14,0.53-5.89c0.84-2.6,1.97-2.46,4.33-2.42c3.3,0.06,6.59-0.21,9.89-0.06
			c0.04,0.79,0.08,1.53,0.06,2.24c0,0.64,0,1.29,0,1.95c-4.19,0.06-9.36-1.79-10.32,3.64c-1.1,6.24-0.4,14.58,1.17,20.75
			c1.53,6.03,5.6,11.33,10.01,15.59c4.47,4.35,9.7,6.25,15.71,7.6c1.26,1.08,2.59,2.05,3.98,2.89
			C160.31,100.18,154.03,98.59,148.41,95.42z M146.16,52.82c0.03,2.76,0.12,5.52,0.28,8.28c0.39,6.29,1.57,12.21,3.71,18.14
			c1.78,4.93,4.82,10.3,8.79,14.79c-3.29-1.01-6.34-2.41-9.07-4.81c-3.69-3.25-7.11-7.4-9.13-11.92
			c-2.21-4.93-2.32-10.77-2.46-16.08c-0.08-2.58-0.64-7.61,2.1-8.63C141.73,52.09,144.64,52.8,146.16,52.82z M152.87,78.95
			c-1.97-5.31-3.26-10.75-3.68-16.42c-0.26-3.47-0.36-6.95-0.39-10.43c-0.01-2.1,0-4.2,0.03-6.31c0.03-1.52-0.37-3.91,0.25-5.38
			c1.92-1.43,7.16-0.75,9.36-0.81c3.71-0.12,7.43-0.15,11.14-0.17c7.04-0.01,14.09,0.13,21.14,0.36c3.17,0.1,6.36,0.23,9.53,0.36
			c1.53,0.06,3.09,0.05,4.63,0.21c1.35,0.14,3.53-0.19,4.38,1.16c0.36,0.57,0.14,2.36,0.17,3.06c0.27,7.03-0.26,14.11-1.69,20.99
			c-2.68,12.92-8.59,26.69-20.81,33.18C171.94,106.71,157.82,92.27,152.87,78.95z M173.7,127.59c0.58-0.13,0.97-0.71,0.98-1.29
			c0.17-7.52,0.21-15.04,0.45-22.54c1.56,0.22,3.15,0.26,4.77,0.08c-0.15,7.54-0.15,15.1-0.46,22.64c-0.03,0.61,0.45,1.11,0.99,1.28
			c2.72,0.86,5.43,1.73,8.15,2.62c0.94,0.31,3.22,0.61,3.89,1.33c0.89,0.94,0.61,3.09,1.29,4.44c-4.75-0.01-9.5-0.32-14.24-0.44
			c-6.27-0.15-12.57,0.13-18.85,0c0.3-0.97,0.13-2.11,0.59-3C162.88,129.65,170.32,128.35,173.7,127.59z M195.93,155.28
			c-4.05-0.58-8.47-0.23-12.56-0.34c-4.27-0.1-8.54-0.14-12.8-0.14c-2.22,0-4.45-0.05-6.67-0.13c-1.95-0.06-4.71-0.77-6.59-0.35
			c-0.12,0.03-0.35,0.01-0.57-0.03c-0.01-0.52,0.04-1.04,0.04-1.55c0.04-2.01,0.12-4.02,0.21-6.02c0.12-2.81,0.17-5.65,0.39-8.46
			c7.38,0.35,14.79-0.08,22.17,0.1c5.76,0.14,11.57,0.55,17.33,0.4c0,0.88-0.17,1.95-0.17,2.48c-0.01,3.69-0.04,7.38-0.09,11.06
			c-0.01,0.66-0.27,2.05-0.18,2.94C196.22,155.28,196.03,155.29,195.93,155.28z"/>
	</g>
</g>
</svg>
