<?xml version="1.0" encoding="utf-8"?>
<!-- Generator: Adobe Illustrator 24.2.0, SVG Export Plug-In . SVG Version: 6.00 Build 0)  -->
<svg version="1.1" id="Layer_1" xmlns="http://www.w3.org/2000/svg" xmlns:xlink="http://www.w3.org/1999/xlink" x="0px" y="0px"
	 viewBox="0 0 350 350" style="enable-background:new 0 0 350 350;" xml:space="preserve">
<style type="text/css">
	.st0{fill:#111111;}
	.st1{fill:#3A3A3A;}
	.st2{fill:#677A86;}
	.st3{fill:#DDEDF5;}
	.st4{opacity:0.4;fill:#677A86;enable-background:new    ;}
	.st5{fill:#FEFEFF;}
</style>
<g id="BACKGROUND">
</g>
<g id="video">
	<path class="st0" d="M231.62,61.97H106.84c-43.66,0-79.37,29.39-79.37,65.32V230c0,35.93,35.71,65.32,79.37,65.32h124.78l0,0l0,0
		c43.65,0,79.36-29.39,79.36-65.32l0,0l0,0V127.29C310.99,91.36,275.28,61.97,231.62,61.97z"/>
	<path class="st1" d="M231.62,51.08H106.84c-43.66,0-79.37,29.39-79.37,65.32v102.71c0,35.93,35.71,65.32,79.37,65.32h124.78l0,0
		l0,0c43.65,0,79.36-29.39,79.36-65.32l0,0l0,0V116.39C310.99,80.47,275.28,51.08,231.62,51.08z"/>
	<rect x="57.18" y="95.08" class="st2" width="224.1" height="145.35"/>
	<path class="st2" d="M46.7,95.08H31.87c-2.83,6.69-4.4,13.86-4.4,21.32v102.71c0,7.46,1.57,14.64,4.4,21.32h14.85V95.08H46.7z"/>
	<g>
		<path class="st3" d="M84.34,83.55c0,1.2-1.18,2.17-2.65,2.17H67.15c-1.45,0-2.65-0.99-2.65-2.17V72.11c0-1.2,1.2-2.17,2.65-2.17
			H81.7c1.46,0,2.65,0.97,2.65,2.17V83.55z"/>
		<path class="st3" d="M122.27,83.55c0,1.2-1.2,2.17-2.65,2.17h-14.54c-1.45,0-2.65-0.99-2.65-2.17V72.11c0-1.2,1.2-2.17,2.65-2.17
			h14.54c1.45,0,2.65,0.97,2.65,2.17C122.27,72.11,122.27,83.55,122.27,83.55z"/>
		<path class="st3" d="M160.19,83.55c0,1.2-1.2,2.17-2.65,2.17h-14.56c-1.45,0-2.65-0.99-2.65-2.17V72.11c0-1.2,1.2-2.17,2.65-2.17
			h14.56c1.45,0,2.65,0.97,2.65,2.17V83.55z"/>
		<path class="st3" d="M198.11,83.55c0,1.2-1.18,2.17-2.65,2.17h-14.54c-1.45,0-2.65-0.99-2.65-2.17V72.11c0-1.2,1.2-2.17,2.65-2.17
			h14.54c1.46,0,2.65,0.97,2.65,2.17V83.55z"/>
		<path class="st3" d="M236.03,83.55c0,1.2-1.18,2.17-2.65,2.17h-14.54c-1.45,0-2.65-0.99-2.65-2.17V72.11c0-1.2,1.2-2.17,2.65-2.17
			h14.54c1.46,0,2.65,0.97,2.65,2.17L236.03,83.55L236.03,83.55z"/>
		<path class="st3" d="M273.95,83.55c0,1.2-1.2,2.17-2.65,2.17h-14.54c-1.46,0-2.65-0.99-2.65-2.17V72.11c0-1.2,1.18-2.17,2.65-2.17
			h14.54c1.45,0,2.65,0.97,2.65,2.17V83.55z"/>
	</g>
	<g>
		<path class="st3" d="M84.34,266.77c0,1.2-1.18,2.17-2.65,2.17H67.15c-1.45,0-2.65-0.97-2.65-2.17v-11.42c0-1.2,1.2-2.18,2.65-2.18
			H81.7c1.46,0,2.65,0.99,2.65,2.18V266.77z"/>
		<path class="st3" d="M122.27,266.77c0,1.2-1.2,2.17-2.65,2.17h-14.54c-1.45,0-2.65-0.97-2.65-2.17v-11.42
			c0-1.2,1.2-2.18,2.65-2.18h14.54c1.45,0,2.65,0.99,2.65,2.18C122.27,255.35,122.27,266.77,122.27,266.77z"/>
		<path class="st3" d="M160.19,266.77c0,1.2-1.2,2.17-2.65,2.17h-14.56c-1.45,0-2.65-0.97-2.65-2.17v-11.42
			c0-1.2,1.2-2.18,2.65-2.18h14.56c1.45,0,2.65,0.99,2.65,2.18V266.77z"/>
		<path class="st3" d="M198.11,266.77c0,1.2-1.18,2.17-2.65,2.17h-14.54c-1.45,0-2.65-0.97-2.65-2.17v-11.42
			c0-1.2,1.2-2.18,2.65-2.18h14.54c1.46,0,2.65,0.99,2.65,2.18V266.77z"/>
		<path class="st3" d="M236.03,266.77c0,1.2-1.18,2.17-2.65,2.17h-14.54c-1.45,0-2.65-0.97-2.65-2.17v-11.42
			c0-1.2,1.2-2.18,2.65-2.18h14.54c1.46,0,2.65,0.99,2.65,2.18L236.03,266.77L236.03,266.77z"/>
		<path class="st3" d="M273.95,266.77c0,1.2-1.2,2.17-2.65,2.17h-14.54c-1.46,0-2.65-0.97-2.65-2.17v-11.42
			c0-1.2,1.18-2.18,2.65-2.18h14.54c1.45,0,2.65,0.99,2.65,2.18V266.77z"/>
	</g>
	<path class="st4" d="M130.39,128.72c0-11.98,10.31-16.87,22.92-10.89l83.25,39.55c12.6,5.99,12.6,15.78,0,21.77l-83.25,39.55
		c-12.61,5.99-22.92,1.09-22.92-10.89V128.72z"/>
	<path class="st5" d="M124.94,125.36c0-11.98,10.31-16.87,22.92-10.89l83.25,39.55c12.6,5.99,12.6,15.78,0,21.77l-83.25,39.55
		c-12.61,5.99-22.92,1.09-22.92-10.89V125.36z"/>
	<path class="st2" d="M291.76,95.08h14.85c2.83,6.69,4.4,13.86,4.4,21.32v102.71c0,7.46-1.55,14.64-4.4,21.32h-14.85V95.08z"/>
</g>
</svg>
