<?xml version="1.0" encoding="utf-8"?>
<!-- Generator: Adobe Illustrator 24.2.0, SVG Export Plug-In . SVG Version: 6.00 Build 0)  -->
<svg version="1.1" id="Layer_1" xmlns="http://www.w3.org/2000/svg" xmlns:xlink="http://www.w3.org/1999/xlink" x="0px" y="0px"
	 viewBox="0 0 350 350" style="enable-background:new 0 0 350 350;" xml:space="preserve">
<style type="text/css">
	.st0{fill:#FFE1ED;}
	.st1{opacity:0.9;fill:#414042;enable-background:new    ;}
	.st2{fill:#009A94;}
	.st3{fill:#ED3E37;}
	.st4{fill:#E6E6E6;}
	.st5{fill:#D83731;}
	.st6{fill:#F2F2F2;}
	.st7{opacity:0.1;fill:#FFFFFF;enable-background:new    ;}
</style>
<g id="BACKGROUND">
</g>
<g>
	<rect x="38.65" y="72.76" class="st0" width="265.88" height="218.47"/>
	<rect x="110.98" y="170.59" class="st1" width="121.23" height="120.64"/>
	<polygon class="st2" points="121.07,181.55 121.07,291.23 222.11,291.23 222.11,290.79 	"/>
	<polygon class="st2" points="222.11,181.54 121.07,181.54 121.07,181.55 222.11,290.79 	"/>
	<g>
		<path class="st3" d="M314.74,92.25c0,5.24-3.48,9.48-7.76,9.48H36.33c-4.28,0-7.76-4.24-7.76-9.48V63.72
			c0-5.23,3.48-9.48,7.76-9.48h270.66c4.28,0,7.76,4.25,7.76,9.48V92.25z"/>
		<path class="st3" d="M39.74,137.56c-8.79,0-17.57,0-26.37,0c0,11.52,0,23.04,0,34.57c7.29,8.89,19.08,8.89,26.37,0
			C39.74,160.61,39.74,149.09,39.74,137.56z"/>
		<path class="st4" d="M66.11,137.56c-8.79,0-17.57,0-26.37,0c0,11.52,0,23.04,0,34.57c7.29,8.89,19.08,8.89,26.37,0
			C66.11,160.61,66.11,149.09,66.11,137.56z"/>
		<path class="st3" d="M92.48,137.56c-8.79,0-17.57,0-26.37,0c0,11.52,0,23.04,0,34.57c7.29,8.89,19.08,8.89,26.37,0
			C92.48,160.61,92.48,149.09,92.48,137.56z"/>
		<path class="st4" d="M118.85,137.56c-8.79,0-17.57,0-26.37,0c0,11.52,0,23.04,0,34.57c7.29,8.89,19.08,8.89,26.37,0
			C118.85,160.61,118.85,149.09,118.85,137.56z"/>
		<path class="st3" d="M145.23,137.56c-8.79,0-17.57,0-26.37,0c0,11.52,0,23.04,0,34.57c7.29,8.89,19.08,8.89,26.37,0
			C145.23,160.61,145.23,149.09,145.23,137.56z"/>
		<path class="st4" d="M171.58,137.56c-8.79,0-17.57,0-26.37,0c0,11.52,0,23.04,0,34.57c7.29,8.89,19.08,8.89,26.37,0
			C171.58,160.61,171.58,149.09,171.58,137.56z"/>
		<path class="st3" d="M197.96,137.56c-8.79,0-17.59,0-26.37,0c0,11.52,0,23.04,0,34.57c7.29,8.89,19.08,8.89,26.37,0
			C197.96,160.61,197.96,149.09,197.96,137.56z"/>
		<path class="st4" d="M224.33,137.56c-8.79,0-17.57,0-26.37,0c0,11.52,0,23.04,0,34.57c7.29,8.89,19.08,8.89,26.37,0
			C224.33,160.61,224.33,149.09,224.33,137.56z"/>
		<path class="st3" d="M250.7,137.56c-8.79,0-17.57,0-26.37,0c0,11.52,0,23.04,0,34.57c7.29,8.89,19.08,8.89,26.37,0
			C250.7,160.61,250.7,149.09,250.7,137.56z"/>
		<path class="st4" d="M277.07,137.56c-8.79,0-17.57,0-26.37,0c0,11.52,0,23.04,0,34.57c7.29,8.89,19.08,8.89,26.37,0
			C277.07,160.61,277.07,149.09,277.07,137.56z"/>
		<path class="st3" d="M303.45,137.56c-8.79,0-17.57,0-26.37,0c0,11.52,0,23.04,0,34.57c7.29,8.89,19.08,8.89,26.37,0
			C303.45,160.61,303.45,149.09,303.45,137.56z"/>
		<path class="st4" d="M329.8,137.56c-8.79,0-17.59,0-26.37,0c0,11.52,0,23.04,0,34.57c7.29,8.89,19.08,8.89,26.37,0
			C329.8,160.61,329.8,149.09,329.8,137.56z"/>
		<g>
			<path class="st5" d="M52.42,76.8c-7.94,0-15.9,0-23.84,0c-5.01,20.26-10.04,40.51-15.06,60.77c8.78,0,17.57,0,26.35,0
				C44.06,117.31,48.23,97.05,52.42,76.8z"/>
			<path class="st6" d="M76.26,76.8c-7.94,0-15.9,0-23.84,0c-4.19,20.26-8.37,40.51-12.54,60.77c8.78,0,17.57,0,26.35,0
				C69.57,117.31,72.91,97.05,76.26,76.8z"/>
			<path class="st5" d="M100.11,76.8c-7.94,0-15.9,0-23.84,0c-3.35,20.26-6.69,40.51-10.04,60.77c8.79,0,17.57,0,26.35,0
				C95.1,117.31,97.6,97.05,100.11,76.8z"/>
			<path class="st6" d="M123.95,76.8c-7.94,0-15.9,0-23.84,0c-2.51,20.26-5.01,40.51-7.53,60.77c8.79,0,17.57,0,26.35,0
				C120.61,117.31,122.29,97.05,123.95,76.8z"/>
			<path class="st5" d="M147.8,76.8c-7.94,0-15.9,0-23.84,0c-1.68,20.26-3.34,40.51-5.01,60.77c8.78,0,17.57,0,26.35,0
				C146.14,117.31,146.98,97.05,147.8,76.8z"/>
			<path class="st6" d="M171.66,76.8c-7.94,0-15.9,0-23.85,0c-0.82,20.26-1.68,40.51-2.5,60.77c8.78,0,17.57,0,26.35,0
				C171.66,117.31,171.66,97.05,171.66,76.8z"/>
			<path class="st5" d="M195.51,76.8c-7.94,0-15.9,0-23.84,0c0,20.26,0,40.51,0,60.77c8.78,0,17.57,0,26.35,0
				C197.19,117.31,196.35,97.05,195.51,76.8z"/>
			<path class="st6" d="M219.35,76.8c-7.94,0-15.9,0-23.84,0c0.84,20.26,1.68,40.51,2.51,60.77c8.78,0,17.57,0,26.35,0
				C222.7,117.31,221.02,97.05,219.35,76.8z"/>
			<path class="st5" d="M243.22,76.8c-7.96,0-15.9,0-23.85,0c1.68,20.26,3.35,40.51,5.03,60.77c8.78,0,17.56,0,26.35,0
				C248.23,117.31,245.71,97.05,243.22,76.8z"/>
			<path class="st6" d="M267.05,76.8c-7.94,0-15.9,0-23.84,0c2.51,20.26,5.01,40.51,7.53,60.77c8.78,0,17.57,0,26.35,0
				C273.74,117.31,270.39,97.05,267.05,76.8z"/>
			<path class="st5" d="M290.91,76.8c-7.94,0-15.9,0-23.84,0c3.35,20.26,6.69,40.51,10.04,60.77c8.78,0,17.57,0,26.35,0
				C299.27,117.31,295.08,97.05,290.91,76.8z"/>
			<path class="st6" d="M314.74,76.8c-7.96,0-15.9,0-23.84,0c4.18,20.26,8.37,40.51,12.54,60.77c8.78,0,17.57,0,26.35,0
				C324.79,117.31,319.77,97.05,314.74,76.8z"/>
		</g>
	</g>
	<polygon class="st7" points="121.07,181.55 121.07,291.23 222.11,291.23 222.11,290.79 	"/>
</g>
</svg>
