<?xml version="1.0" encoding="utf-8"?>
<!-- Generator: Adobe Illustrator 24.2.0, SVG Export Plug-In . SVG Version: 6.00 Build 0)  -->
<svg version="1.1" id="Layer_1" xmlns="http://www.w3.org/2000/svg" xmlns:xlink="http://www.w3.org/1999/xlink" x="0px" y="0px"
	 viewBox="0 0 350 350" style="enable-background:new 0 0 350 350;" xml:space="preserve">
<style type="text/css">
	.st0{fill:#5A6E7F;}
	.st1{fill:#FFFFFF;}
	.st2{fill:#9BC9FF;}
	.st3{fill:#1E81CE;}
</style>
<g id="BACKGROUND">
</g>
<g id="OBJECTS">
	<g>
		<path class="st0" d="M46.38,228.35c0,4.99-2.71,9.22-6.49,10.78l0.12,0.61h30.53c0.47,0.02,0.93,0.04,1.41,0.04
			c14.67,0,26.45-12.35,25.53-27.22c-0.79-12.74-11.16-23.11-23.9-23.89c-14.87-0.92-27.22,10.86-27.22,25.53v0.49l0,0v13.66H46.38z
			"/>
		<path class="st0" d="M57.14,242.2c-13.28,0-24.04,10.76-24.04,24.04v11.67h77.71v-11.67c0-13.28-10.76-24.04-24.04-24.04H57.14z"
			/>
		<path class="st0" d="M287.52,181.52V76.36c0-7.55-5.89-13.69-13.13-13.69H87.08c-7.24,0-13.13,6.14-13.13,13.69v106.62
			c3.02,0.24,5.83,0.76,8.39,1.61V76.36c0-2.93,2.13-5.31,4.74-5.31H274.4c2.63,0,4.74,2.39,4.74,5.31v107.77
			C281.68,182.94,284.49,182.06,287.52,181.52z"/>
		<path class="st0" d="M111.18,218.23c0,10.51,8.52,19.03,19.02,19.03c10.51,0,19.04-8.52,19.04-19.03s-8.53-19.04-19.04-19.04
			C119.7,199.19,111.18,207.72,111.18,218.23z"/>
		<path class="st0" d="M155.78,213.74c0,14.22,11.54,25.77,25.77,25.77c14.23,0,25.78-11.53,25.78-25.77s-11.54-25.77-25.78-25.77
			S155.78,199.5,155.78,213.74z"/>
		<path class="st0" d="M166.63,241.94c-13.38,0-24.23,10.84-24.23,24.23v11.75h78.29v-11.75c0-13.38-10.84-24.23-24.23-24.23H166.63
			z"/>
		<path class="st0" d="M291.06,187.97c-14.23,0-25.77,11.54-25.77,25.77s11.53,25.77,25.77,25.77s25.77-11.53,25.77-25.77
			C316.84,199.5,305.3,187.97,291.06,187.97z"/>
		<path class="st0" d="M276.15,241.94c-13.38,0-24.23,10.84-24.23,24.23v11.75h78.28v-11.75c0-13.38-10.84-24.23-24.23-24.23H276.15
			z"/>
		<path class="st0" d="M221.88,239.05c-4.14,0-7.97,1.42-11,3.8c7.67,4.75,12.83,13.15,13.02,22.77h25.17
			c0.15-7.78,3.59-14.74,8.99-19.59c-3.28-4.24-8.39-6.98-14.16-6.98L221.88,239.05L221.88,239.05z"/>
		<path class="st0" d="M105.04,246.03c5.39,4.85,8.84,11.81,8.99,19.59h25.25c0.18-9.61,5.34-18,12.98-22.75
			c-3.04-2.39-6.86-3.82-11.03-3.82h-22.03C113.43,239.05,108.3,241.79,105.04,246.03z"/>
		<path class="st0" d="M231.49,199.27c-9.49,0.59-17.23,8.31-17.81,17.81c-0.69,11.09,8.09,20.3,19.03,20.3l1.05-0.03h22.76
			l0.09-0.46c-2.82-1.16-4.83-4.32-4.83-8.04v-10.19h-0.01l0.01-0.36C251.78,207.36,242.58,198.57,231.49,199.27z"/>
		<g>
			<g id="_x31_00_x2C__Dumbbell_x2C__exercise_x2C__sport_x2C__weightlifting">
				<path class="st1" d="M176.09,75.41c5.98,0,10.75,4.78,10.75,10.75c0,5.98-4.78,10.76-10.75,10.76
					c-5.98,0-10.76-4.78-10.76-10.76C165.34,80.19,170.12,75.41,176.09,75.41z"/>
				<path class="st1" d="M215.54,88.21c2.39,0,4.26,1.88,4.26,4.26c0,2.39-1.88,4.26-4.26,4.26c-2.39,0-4.26-2.05-4.26-4.26
					C211.26,90.1,213.14,88.21,215.54,88.21z"/>
				<path class="st1" d="M148.26,152.24c1.7,0,3.24,1.37,3.24,3.24c0,1.7-1.37,3.24-3.24,3.24c-1.88,0-3.24-1.37-3.24-3.24
					C145.19,153.61,146.56,152.24,148.26,152.24z"/>
				<rect x="130.17" y="126.64" class="st2" width="6.49" height="12.8"/>
				<rect x="215.54" y="126.64" class="st2" width="6.49" height="12.8"/>
				<polygon class="st2" points="215.54,139.44 215.54,143.71 207,143.71 207,132.95 207,122.37 215.54,122.37 215.54,126.64 				
					"/>
				<polygon class="st2" points="145.19,132.95 145.19,143.71 136.65,143.71 136.65,139.44 136.65,126.64 136.65,122.37 
					145.19,122.37 				"/>
				<path class="st1" d="M176.09,168.13c0,2.91-2.39,5.29-5.29,5.29c-2.91,0-5.29-2.39-5.29-5.29v-35.17h21.34v35.17
					c0,2.91-2.39,5.29-5.29,5.29C178.64,173.42,176.09,171.2,176.09,168.13z"/>
				<path class="st1" d="M165.34,132.95h-9.56v-21.86c0-8.03,6.49-14.52,14.52-14.52h5.8h5.8c8.03,0,14.52,6.49,14.52,14.52v21.85
					h-9.56h-21.53V132.95z"/>
				<path class="st3" d="M210.58,105.8c0.34,0.35,0.68,0.86,0.68,1.54c0,0.68-0.17,1.19-0.68,1.54c-0.35,0.34-0.86,0.68-1.54,0.68
					c-1.19,0-2.21-1.02-2.21-2.22c0-0.51,0.17-1.19,0.68-1.54c0.34-0.34,0.86-0.68,1.54-0.68
					C209.73,105.13,210.24,105.46,210.58,105.8z"/>
				<path class="st3" d="M202.04,88.73c0.34,0.34,0.68,0.86,0.68,1.54c0,0.51-0.17,1.19-0.68,1.54c-0.34,0.35-0.86,0.68-1.54,0.68
					c-1.19,0-2.22-1.02-2.22-2.22c0-0.51,0.17-1.19,0.68-1.54c0.51-0.34,0.86-0.68,1.54-0.68C201.2,88.05,201.71,88.39,202.04,88.73
					z"/>
				<path class="st3" d="M202.04,152.75c0.34,0.34,0.68,0.86,0.68,1.54c0,0.51-0.17,1.19-0.68,1.54c-0.34,0.35-0.86,0.68-1.54,0.68
					c-1.19,0-2.22-1.02-2.22-2.22c0-0.51,0.17-1.19,0.68-1.54c0.34-0.34,0.86-0.68,1.54-0.68
					C201.2,152.24,201.71,152.42,202.04,152.75z"/>
				<path class="st3" d="M142.28,93c0.34,0.35,0.68,0.86,0.68,1.54c0,0.68-0.17,1.19-0.68,1.54c-0.51,0.35-0.86,0.68-1.54,0.68
					c-1.19,0-2.22-1.02-2.22-2.22c0-0.51,0.17-1.19,0.68-1.54c0.51-0.34,0.86-0.68,1.54-0.68C141.44,92.31,141.95,92.66,142.28,93z"
					/>
				<path class="st3" d="M181.39,175.64c-2.05,0-3.93-0.86-5.29-2.22c-1.37,1.37-3.24,2.22-5.29,2.22c-4.1,0-7.51-3.42-7.51-7.51
					v-47.99c0-1.19,1.02-2.22,2.22-2.22c1.2,0,2.22,1.02,2.22,2.22v47.98c0,1.7,1.37,3.24,3.24,3.24c1.88,0,3.24-1.37,3.24-3.24
					c0-1.19,1.02-2.22,2.21-2.22c1.19,0,2.22,1.02,2.22,2.22c0,1.7,1.37,3.24,3.24,3.24c1.88,0,3.24-1.37,3.24-3.24v-47.98
					c0-1.19,1.02-2.22,2.22-2.22c1.19,0,2.22,1.02,2.22,2.22v47.98C188.9,172.23,185.49,175.64,181.39,175.64z"/>
				<path class="st3" d="M176.09,98.8c-7,0-12.8-5.8-12.8-12.8s5.8-12.8,12.8-12.8s12.8,5.8,12.8,12.8
					C188.9,93,183.1,98.8,176.09,98.8z M176.09,77.46c-4.78,0-8.54,3.75-8.54,8.54s3.75,8.54,8.54,8.54c4.78,0,8.54-3.75,8.54-8.54
					S180.7,77.46,176.09,77.46z"/>
				<path class="st3" d="M196.41,135.17c-1.19,0-2.22-1.02-2.22-2.22v-21.85c0-6.84-5.47-12.29-12.29-12.29h-11.61
					c-6.82,0-12.29,5.47-12.29,12.29v21.85c0,1.19-1.02,2.22-2.22,2.22c-1.2,0-2.22-1.02-2.22-2.22v-21.85
					c0-9.22,7.51-16.57,16.57-16.57h11.61c9.22,0,16.57,7.52,16.57,16.57v21.85C198.46,134.15,197.44,135.17,196.41,135.17z"/>
				<path class="st3" d="M176.09,170.34c-1.19,0-2.22-1.02-2.22-2.22v-18.09c0-1.19,1.02-2.22,2.22-2.22c1.19,0,2.22,1.02,2.22,2.22
					v18.1C178.14,169.32,177.28,170.34,176.09,170.34z"/>
				<path class="st3" d="M207,135.17h-61.81c-1.19,0-2.22-1.02-2.22-2.22c0-1.2,1.02-2.22,2.22-2.22h61.98
					c1.19,0,2.22,1.02,2.22,2.22C209.4,134.15,208.19,135.17,207,135.17z"/>
				<path class="st3" d="M215.54,145.76H207c-1.19,0-2.22-1.02-2.22-2.22v-21.17c0-1.19,1.02-2.22,2.22-2.22h8.54
					c1.19,0,2.22,1.02,2.22,2.22v4.26c0,1.19-1.02,2.22-2.22,2.22c-1.19,0-2.22-1.02-2.22-2.22v-2.22h-4.26v17.08h4.26v-2.22
					c0-1.19,1.02-2.22,2.22-2.22c1.19,0,2.22,1.02,2.22,2.22v4.26C217.75,144.74,216.73,145.76,215.54,145.76z"/>
				<path class="st3" d="M222.03,141.49h-6.49c-1.19,0-2.22-1.02-2.22-2.22v-12.8c0-1.19,1.02-2.22,2.22-2.22h6.49
					c1.19,0,2.22,1.02,2.22,2.22v12.8C224.08,140.46,223.05,141.49,222.03,141.49z M217.75,137.22h2.05v-8.54h-2.22v8.54H217.75z"/>
				<path class="st3" d="M145.19,145.76h-8.54c-1.19,0-2.22-1.02-2.22-2.22v-4.26c0-1.19,1.02-2.22,2.22-2.22
					c1.19,0,2.22,1.02,2.22,2.22v2.22h4.1v-17.08h-4.26v2.22c0,1.19-1.03,2.22-2.22,2.22s-2.05-1.19-2.05-2.22v-4.27
					c0-1.19,1.02-2.22,2.22-2.22h8.54c1.19,0,2.22,1.02,2.22,2.22v21.34C147.24,144.74,146.21,145.76,145.19,145.76z"/>
				<path class="st3" d="M136.65,141.49h-6.49c-1.19,0-2.22-1.02-2.22-2.22v-12.8c0-1.19,1.02-2.22,2.22-2.22h6.49
					c1.19,0,2.22,1.02,2.22,2.22v12.8C138.7,140.46,137.67,141.49,136.65,141.49z M132.38,137.22h2.05v-8.54h-2.22v8.54H132.38z"/>
				<path class="st3" d="M148.26,160.78c-2.9,0-5.29-2.39-5.29-5.29s2.39-5.29,5.29-5.29s5.29,2.39,5.29,5.29
					C153.73,158.22,151.17,160.78,148.26,160.78z M148.26,154.3c-0.51,0-1.02,0.51-1.02,1.02c0,0.51,0.51,1.02,1.02,1.02
					s1.02-0.51,1.02-1.02C149.46,154.81,148.95,154.3,148.26,154.3z"/>
				<path class="st3" d="M215.54,98.8c-3.59,0-6.49-2.91-6.49-6.49c0-3.59,2.91-6.49,6.49-6.49s6.49,2.91,6.49,6.49
					C222.03,95.9,219.12,98.8,215.54,98.8z M215.54,90.26c-1.19,0-2.22,1.02-2.22,2.22s1.02,2.22,2.22,2.22
					c1.19,0,2.22-1.02,2.22-2.22S216.73,90.26,215.54,90.26z"/>
			</g>
			<g id="Layer_1_16_">
			</g>
		</g>
	</g>
</g>
</svg>
