<?xml version="1.0" encoding="utf-8"?>
<!-- Generator: Adobe Illustrator 24.2.0, SVG Export Plug-In . SVG Version: 6.00 Build 0)  -->
<svg version="1.1" id="Layer_1" xmlns="http://www.w3.org/2000/svg" xmlns:xlink="http://www.w3.org/1999/xlink" x="0px" y="0px"
	 viewBox="0 0 350 350" style="enable-background:new 0 0 350 350;" xml:space="preserve">
<style type="text/css">
	.st0{fill:#FFFFFF;}
	.st1{fill:#9BC9FF;}
	.st2{fill:#1E81CE;}
</style>
<g id="BACKGROUND">
</g>
<g>
	<g>
		<g>
			<g id="_x36_4_x2C__Dumbbell_x2C__exercise_x2C__gym_x2C__sport">
				<path class="st0" d="M53.14,267.42c7.59,0,13.57,5.95,13.57,13.54c0,7.59-5.98,13.57-13.57,13.57
					c-7.59,0-13.57-5.95-13.57-13.57C39.57,273.38,45.55,267.42,53.14,267.42z"/>
				<path class="st0" d="M290.13,226.73c7.59,0,13.57,5.95,13.57,13.54c0,7.59-5.95,13.57-13.57,13.57
					c-7.59,0-13.54-5.95-13.54-13.57C276.56,232.72,282.54,226.73,290.13,226.73z"/>
				<path class="st0" d="M164.86,16.86c18.98,0,34.16,15.18,34.16,34.16s-15.18,34.16-34.16,34.16S130.7,70.01,130.7,51.03
					C130.7,32.05,145.88,16.86,164.86,16.86z"/>
				<path class="st0" d="M56.39,111.22c13.17,0,23.87,10.67,23.87,23.87c0,13.17-10.67,23.87-23.87,23.87
					c-13.17,0-23.87-10.67-23.87-23.87C32.52,121.91,43.22,111.22,56.39,111.22z"/>
				<path class="st0" d="M279.8,111.22c13.17,0,23.87,10.67,23.87,23.87c0,13.17-10.7,23.87-23.87,23.87s-23.87-10.67-23.87-23.87
					C255.97,121.91,266.63,111.22,279.8,111.22z"/>
				<path class="st1" d="M164.86,311.34c0,9.23-7.59,16.82-16.82,16.82s-16.82-7.59-16.82-16.82V199.62H199v111.72
					c0,9.23-7.59,16.82-16.82,16.82C173,328.16,164.86,321.09,164.86,311.34z"/>
				<path class="st1" d="M198.48,199.62H130.7h-23.87v-87.85H59.64c-3.8,0-7.05-1.64-9.78-3.8c-2.7-2.7-3.8-5.95-3.8-9.75
					c0-7.59,5.98-13.54,13.57-13.54h47.74h13.54h43.94h43.91h13.57h47.74c3.8,0,7.05,1.64,9.75,3.8c2.7,2.16,3.8,5.95,3.8,9.75
					c0,7.59-5.95,13.54-13.54,13.54h-47.74v87.85H198.48z"/>
				<path class="st2" d="M287.94,201.8c1.09,1.09,2.16,2.7,2.16,4.89c0,2.16-0.55,3.8-2.16,4.89c-1.09,1.09-2.7,2.16-4.89,2.16
					c-3.8,0-7.05-3.25-7.05-7.05c0-1.64,0.55-3.8,2.16-4.89c1.09-1.09,2.7-2.16,4.89-2.16C285.24,199.62,286.88,200.16,287.94,201.8
					z"/>
				<path class="st2" d="M254.33,39.09c1.09,1.09,2.16,2.7,2.16,4.89c0,1.64-0.55,3.8-2.16,4.89c-1.64,1.09-2.7,2.16-4.89,2.16
					c-3.8,0-7.05-3.25-7.05-7.05c0-1.64,0.55-3.8,2.16-4.89c1.09-1.09,2.7-2.16,4.89-2.16C251.62,36.94,253.23,37.48,254.33,39.09z"
					/>
				<path class="st2" d="M233.74,289.65c1.09,1.09,2.19,2.7,2.19,4.89c0,1.64-0.55,3.8-2.19,4.89c-1.09,1.09-2.7,2.16-4.89,2.16
					c-3.8,0-7.05-3.25-7.05-7.05c0-1.64,0.55-3.8,2.19-4.89c1.09-1.09,2.7-2.16,4.89-2.16C231,287.47,232.64,288.56,233.74,289.65z"
					/>
				<path class="st2" d="M71.03,39.09c1.09,1.09,2.19,2.7,2.19,4.89c0,1.64-0.55,3.8-2.19,4.89c-1.64,1.09-2.7,2.16-4.89,2.16
					c-3.8,0-7.05-3.25-7.05-7.05c0-1.64,0.55-3.8,2.19-4.89c1.61-1.09,2.7-2.16,4.89-2.16C68.33,36.94,69.94,37.48,71.03,39.09z"/>
				<path class="st2" d="M50.98,215.35c1.09,1.09,2.16,2.7,2.16,4.89c0,2.16-0.55,3.8-2.16,4.89c-1.64,1.09-3.25,1.64-4.89,1.64
					c-3.8,0-7.05-3.25-7.05-7.05c0-1.64,0.55-3.8,2.16-4.89c1.64-1.09,2.7-2.16,4.89-2.16C48.25,212.64,49.89,213.74,50.98,215.35z"
					/>
				<path class="st2" d="M181.66,335.21c-6.5,0-12.48-2.7-16.82-7.05c-4.34,4.34-10.3,7.05-16.82,7.05
					c-13.03,0-23.87-10.84-23.87-23.87V158.95c0-3.8,3.25-7.05,7.05-7.05c3.8,0,7.05,3.25,7.05,7.05v152.38
					c0,5.44,4.34,10.3,10.3,10.3c5.98,0,10.3-4.34,10.3-10.3c0-3.8,3.25-7.05,7.05-7.05s7.05,3.25,7.05,7.05
					c0,5.44,4.34,10.3,10.3,10.3s10.3-4.34,10.3-10.3V158.95c0-3.8,3.25-7.05,7.05-7.05s7.05,3.25,7.05,7.05v152.38
					C205.53,324.36,194.68,335.21,181.66,335.21z"/>
				<path class="st2" d="M164.86,91.17c-22.23,0-40.66-18.43-40.66-40.66s18.43-40.66,40.66-40.66s40.66,18.43,40.66,40.66
					S187.09,91.17,164.86,91.17z M164.86,23.36c-15.18,0-27.12,11.93-27.12,27.12s11.93,27.12,27.12,27.12s27.12-11.93,27.12-27.12
					C191.95,35.3,179.5,23.36,164.86,23.36z"/>
				<path class="st2" d="M164.86,318.38c-3.8,0-7.05-3.25-7.05-7.05v-57.49c0-3.8,3.25-7.05,7.05-7.05s7.05,3.25,7.05,7.05v57.49
					C171.36,315.13,168.66,318.38,164.86,318.38z"/>
				<path class="st2" d="M222.35,206.66H107.38c-3.8,0-7.05-3.25-7.05-7.05v-81.33H59.64c-5.44,0-10.3-2.16-14.64-5.95
					c-3.8-3.8-5.95-9.23-5.95-14.64c0-11.39,9.23-20.62,20.62-20.62h210.42c5.41,0,10.3,2.16,14.64,5.95
					c3.8,3.8,5.98,9.23,5.98,14.64c0,11.39-9.23,20.62-20.62,20.62h-40.66v81.35C229.39,203.41,226.14,206.66,222.35,206.66z
					 M113.88,193.12h101.94v-81.35c0-3.8,3.25-7.05,7.05-7.05h47.71c3.8,0,7.05-3.25,7.05-7.05c0-1.64-0.55-3.25-2.19-4.89
					c-1.09-1.09-3.25-2.16-4.89-2.16H59.64c-3.8,0-7.05,3.25-7.05,7.05c0,1.64,0.55,3.25,2.19,4.89c1.09,1.09,2.7,2.16,4.89,2.16
					h47.74c3.8,0,7.05,3.25,7.05,7.05v81.35H113.88z"/>
				<path class="st2" d="M279.8,166c-16.82,0-30.37-13.54-30.37-30.37s13.57-30.37,30.37-30.37c16.82,0,30.37,13.57,30.37,30.37
					C310.72,151.91,296.63,166,279.8,166z M279.8,118.29c-9.23,0-16.82,7.59-16.82,16.82c0,9.23,7.59,16.82,16.82,16.82
					c9.23,0,16.82-7.59,16.82-16.82C296.63,125.88,289.04,118.29,279.8,118.29z"/>
				<path class="st2" d="M56.39,166c-16.82,0-30.37-13.54-30.37-30.37s13.54-30.37,30.37-30.37s30.37,13.03,30.37,29.82
					C86.76,151.91,73.21,166,56.39,166z M56.39,118.29c-9.23,0-16.82,7.59-16.82,16.82c0,9.23,7.59,16.82,16.82,16.82
					s16.82-7.59,16.82-16.82C73.21,125.88,65.62,118.29,56.39,118.29z"/>
				<path class="st2" d="M53.14,301.59c-11.39,0-20.62-9.23-20.62-20.62c0-11.39,9.23-20.62,20.62-20.62s20.62,9.23,20.62,20.62
					C73.73,292.36,63.98,301.59,53.14,301.59z M53.14,274.47c-3.8,0-7.05,3.25-7.05,7.05s3.25,7.05,7.05,7.05s6.5-3.8,6.5-7.59
					S56.39,274.47,53.14,274.47z"/>
				<path class="st2" d="M290.13,260.9c-11.39,0-20.62-9.23-20.62-20.62s9.23-20.62,20.62-20.62c11.39,0,20.62,9.23,20.62,20.62
					C310.72,251.69,301.52,260.9,290.13,260.9z M290.13,233.78c-3.8,0-7.05,3.25-7.05,7.05c0,3.8,3.25,7.05,7.05,7.05
					c3.8,0,7.05-3.25,7.05-7.05C297.17,237.03,293.92,233.78,290.13,233.78z"/>
			</g>
			<g id="Layer_1_22_">
			</g>
		</g>
	</g>
</g>
</svg>
