<?xml version="1.0" encoding="utf-8"?>
<!-- Generator: Adobe Illustrator 24.2.0, SVG Export Plug-In . SVG Version: 6.00 Build 0)  -->
<svg version="1.1" id="Layer_1" xmlns="http://www.w3.org/2000/svg" xmlns:xlink="http://www.w3.org/1999/xlink" x="0px" y="0px"
	 viewBox="0 0 841.89 279.13" style="enable-background:new 0 0 841.89 279.13;" xml:space="preserve">
<style type="text/css">
	.st0{fill:#FFFFFF;}
</style>
<path class="st0" d="M800.69,193.74H686.04V66.18h114.65V193.74z M754.08,85.65l-26.21,84.39l0.87-0.24l26.61-84.87L754.08,85.65z"
	/>
<g>
	<path class="st0" d="M116.35,171.68v-31.78H98.9l2.42-7.94h1.21v-1.21h-0.87l0.69-1.9h0.18v-0.52l1.9-6.22v0.68h1.04v-1.21h-0.87
		l0.52-1.9h0.35v-1.21l0,0l0.86-2.25h1.21v0.34h1.03v-0.34h1.91v0.34h1.22v-0.34h1.89v0.34h1.21v-0.34h1.55V83.75h26.28v87.93h-0.17
		v-0.86h-1.04v0.86h-2.07v-0.86h-1.04v0.86h-1.9v-0.86h-1.21v0.86h-1.9v-0.86h-1.21v0.86h-1.9v-0.86h-1.21v0.86h-1.91v-0.86h-1.21
		v0.86h-1.9v-0.86h-1.04v0.86h-1.9v-0.86h-1.21v0.86h-1.9v-0.86h-1.21v0.86H116.35z M116.7,85.83h1.21v-1.21h-1.21V85.83z
		 M119.81,85.83h1.21v-1.21h-1.21V85.83z M122.92,85.83h1.04v-1.21h-1.04V85.83z M125.86,85.83h1.21v-1.21h-1.21V85.83z
		 M128.97,85.83h1.21v-1.21h-1.21V85.83z M132.08,85.83h1.21v-1.21h-1.21V85.83z M135.19,85.83h1.21v-1.21h-1.21V85.83z
		 M138.3,85.83h1.04v-1.21h-1.04V85.83z M141.41,85.83h1.04v-1.21h-1.04V85.83z M116.7,88.94h1.21v-1.21h-1.21V88.94z M119.81,88.94
		h1.21v-1.21h-1.21V88.94z M122.92,88.94h1.04v-1.21h-1.04V88.94z M125.86,88.94h1.21v-1.21h-1.21V88.94z M128.97,88.94h1.21v-1.21
		h-1.21V88.94z M132.08,88.94h1.21v-1.21h-1.21V88.94z M135.19,88.94h1.21v-1.21h-1.21V88.94z M138.3,88.94h1.04v-1.21h-1.04V88.94z
		 M141.41,88.94h1.04v-1.21h-1.04V88.94z M116.7,91.87h1.21v-1.04h-1.21V91.87z M119.81,91.87h1.21v-1.04h-1.21V91.87z
		 M122.92,91.87h1.04v-1.04h-1.04V91.87z M125.86,91.87h1.21v-1.04h-1.21V91.87z M128.97,91.87h1.21v-1.04h-1.21V91.87z
		 M132.08,91.87h1.21v-1.04h-1.21V91.87z M135.19,91.87h1.21v-1.04h-1.21V91.87z M138.3,91.87h1.04v-1.04h-1.04V91.87z
		 M141.41,91.87h1.04v-1.04h-1.04V91.87z M116.7,94.98h1.21v-1.04h-1.21V94.98z M119.81,94.98h1.21v-1.04h-1.21V94.98z
		 M122.92,94.98h1.04v-1.04h-1.04V94.98z M125.86,94.98h1.21v-1.04h-1.21V94.98z M128.97,94.98h1.21v-1.04h-1.21V94.98z
		 M132.08,94.98h1.21v-1.04h-1.21V94.98z M135.19,94.98h1.21v-1.04h-1.21V94.98z M138.3,94.98h1.04v-1.04h-1.04V94.98z
		 M141.41,94.98h1.04v-1.04h-1.04V94.98z M116.7,98.09h1.21v-1.21h-1.21V98.09z M119.81,98.09h1.21v-1.21h-1.21V98.09z
		 M122.92,98.09h1.04v-1.21h-1.04V98.09z M125.86,98.09h1.21v-1.21h-1.21V98.09z M128.97,98.09h1.21v-1.21h-1.21V98.09z
		 M132.08,98.09h1.21v-1.21h-1.21V98.09z M135.19,98.09h1.21v-1.21h-1.21V98.09z M138.3,98.09h1.04v-1.21h-1.04V98.09z
		 M141.41,98.09h1.04v-1.21h-1.04V98.09z M116.7,101.2h1.21v-1.21h-1.21V101.2z M119.81,101.2h1.21v-1.21h-1.21V101.2z
		 M122.92,101.2h1.04v-1.21h-1.04V101.2z M125.86,101.2h1.21v-1.21h-1.21V101.2z M128.97,101.2h1.21v-1.21h-1.21V101.2z
		 M132.08,101.2h1.21v-1.21h-1.21V101.2z M135.19,101.2h1.21v-1.21h-1.21V101.2z M138.3,101.2h1.04v-1.21h-1.04V101.2z
		 M141.41,101.2h1.04v-1.21h-1.04V101.2z M116.7,104.31h1.21v-1.21h-1.21V104.31z M119.81,104.31h1.21v-1.21h-1.21V104.31z
		 M122.92,104.31h1.04v-1.21h-1.04V104.31z M125.86,104.31h1.21v-1.21h-1.21V104.31z M128.97,104.31h1.21v-1.21h-1.21V104.31z
		 M132.08,104.31h1.21v-1.21h-1.21V104.31z M135.19,104.31h1.21v-1.21h-1.21V104.31z M138.3,104.31h1.04v-1.21h-1.04V104.31z
		 M141.41,104.31h1.04v-1.21h-1.04V104.31z M116.7,107.25h1.21v-1.04h-1.21V107.25z M119.81,107.25h1.21v-1.04h-1.21V107.25z
		 M122.92,107.25h1.04v-1.04h-1.04V107.25z M125.86,107.25h1.21v-1.04h-1.21V107.25z M128.97,107.25h1.21v-1.04h-1.21V107.25z
		 M132.08,107.25h1.21v-1.04h-1.21V107.25z M135.19,107.25h1.21v-1.04h-1.21V107.25z M138.3,107.25h1.04v-1.04h-1.04V107.25z
		 M141.41,107.25h1.04v-1.04h-1.04V107.25z M116.7,110.35h1.21v-1.04h-1.21V110.35z M119.81,110.35h1.21v-1.04h-1.21V110.35z
		 M122.92,110.35h1.04v-1.04h-1.04V110.35z M125.86,110.35h1.21v-1.04h-1.21V110.35z M128.97,110.35h1.21v-1.04h-1.21V110.35z
		 M132.08,110.35h1.21v-1.04h-1.21V110.35z M135.19,110.35h1.21v-1.04h-1.21V110.35z M138.3,110.35h1.04v-1.04h-1.04V110.35z
		 M141.41,110.35h1.04v-1.04h-1.04V110.35z M116.7,113.46h1.21v-1.21h-1.21V113.46z M119.81,113.46h1.21v-1.21h-1.21V113.46z
		 M122.92,113.46h1.04v-1.21h-1.04V113.46z M125.86,113.46h1.21v-1.21h-1.21V113.46z M128.97,113.46h1.21v-1.21h-1.21V113.46z
		 M132.08,113.46h1.21v-1.21h-1.21V113.46z M135.19,113.46h1.21v-1.21h-1.21V113.46z M138.3,113.46h1.04v-1.21h-1.04V113.46z
		 M141.41,113.46h1.04v-1.21h-1.04V113.46z M116.7,116.57h1.21v-1.2h-1.21V116.57z M119.81,116.57h1.21v-1.2h-1.21V116.57z
		 M122.92,116.57h1.04v-1.2h-1.04V116.57z M125.86,116.57h1.21v-1.2h-1.21V116.57z M128.97,116.57h1.21v-1.2h-1.21V116.57z
		 M132.08,116.57h1.21v-1.2h-1.21V116.57z M135.19,116.57h1.21v-1.2h-1.21V116.57z M138.3,116.57h1.04v-1.2h-1.04V116.57z
		 M141.41,116.57h1.04v-1.2h-1.04V116.57z M107.54,119.68h1.03v-1.21h-1.03V119.68z M110.48,119.68h1.22v-1.21h-1.22V119.68z
		 M113.59,119.68h1.21v-1.21h-1.21V119.68z M116.7,119.68h1.21v-1.21h-1.21V119.68z M119.81,119.68h1.21v-1.21h-1.21V119.68z
		 M122.92,119.68h1.04v-1.21h-1.04V119.68z M125.86,119.68h1.21v-1.21h-1.21V119.68z M128.97,119.68h1.21v-1.21h-1.21V119.68z
		 M132.08,119.68h1.21v-1.21h-1.21V119.68z M135.19,119.68h1.21v-1.21h-1.21V119.68z M138.3,119.68h1.04v-1.21h-1.04V119.68z
		 M141.41,119.68h1.04v-1.21h-1.04V119.68z M107.54,122.79h1.03v-1.21h-1.03V122.79z M110.48,122.79h1.22v-1.21h-1.22V122.79z
		 M113.59,122.79h1.21v-1.21h-1.21V122.79z M116.7,122.79h1.21v-1.21h-1.21V122.79z M119.81,122.79h1.21v-1.21h-1.21V122.79z
		 M122.92,122.79h1.04v-1.21h-1.04V122.79z M125.86,122.79h1.21v-1.21h-1.21V122.79z M128.97,122.79h1.21v-1.21h-1.21V122.79z
		 M132.08,122.79h1.21v-1.21h-1.21V122.79z M135.19,122.79h1.21v-1.21h-1.21V122.79z M138.3,122.79h1.04v-1.21h-1.04V122.79z
		 M141.41,122.79h1.04v-1.21h-1.04V122.79z M104.43,125.73h1.04v-1.04h-1.04V125.73z M107.54,125.73h1.03v-1.04h-1.03V125.73z
		 M110.48,125.73h1.22v-1.04h-1.22V125.73z M113.59,125.73h1.21v-1.04h-1.21V125.73z M116.7,125.73h1.21v-1.04h-1.21V125.73z
		 M119.81,125.73h1.21v-1.04h-1.21V125.73z M122.92,125.73h1.04v-1.04h-1.04V125.73z M125.86,125.73h1.21v-1.04h-1.21V125.73z
		 M128.97,125.73h1.21v-1.04h-1.21V125.73z M132.08,125.73h1.21v-1.04h-1.21V125.73z M135.19,125.73h1.21v-1.04h-1.21V125.73z
		 M138.3,125.73h1.04v-1.04h-1.04V125.73z M141.41,125.73h1.04v-1.04h-1.04V125.73z M104.43,128.84h1.04v-1.03h-1.04V128.84z
		 M107.54,128.84h1.03v-1.03h-1.03V128.84z M110.48,128.84h1.22v-1.03h-1.22V128.84z M113.59,128.84h1.21v-1.03h-1.21V128.84z
		 M116.7,128.84h1.21v-1.03h-1.21V128.84z M119.81,128.84h1.21v-1.03h-1.21V128.84z M122.92,128.84h1.04v-1.03h-1.04V128.84z
		 M125.86,128.84h1.21v-1.03h-1.21V128.84z M128.97,128.84h1.21v-1.03h-1.21V128.84z M132.08,128.84h1.21v-1.03h-1.21V128.84z
		 M135.19,128.84h1.21v-1.03h-1.21V128.84z M138.3,128.84h1.04v-1.03h-1.04V128.84z M141.41,128.84h1.04v-1.03h-1.04V128.84z
		 M104.43,131.95h1.04v-1.21h-1.04V131.95z M107.54,131.95h1.03v-1.21h-1.03V131.95z M110.48,131.95h1.22v-1.21h-1.22V131.95z
		 M113.59,131.95h1.21v-1.21h-1.21V131.95z M116.7,131.95h1.21v-1.21h-1.21V131.95z M119.81,131.95h1.21v-1.21h-1.21V131.95z
		 M122.92,131.95h1.04v-1.21h-1.04V131.95z M125.86,131.95h1.21v-1.21h-1.21V131.95z M128.97,131.95h1.21v-1.21h-1.21V131.95z
		 M132.08,131.95h1.21v-1.21h-1.21V131.95z M135.19,131.95h1.21v-1.21h-1.21V131.95z M138.3,131.95h1.04v-1.21h-1.04V131.95z
		 M141.41,131.95h1.04v-1.21h-1.04V131.95z M101.32,135.05h1.21v-1.21h-1.21V135.05z M104.43,135.05h1.04v-1.21h-1.04V135.05z
		 M107.54,135.05h1.03v-1.21h-1.03V135.05z M110.48,135.05h1.22v-1.21h-1.22V135.05z M113.59,135.05h1.21v-1.21h-1.21V135.05z
		 M116.7,135.05h1.21v-1.21h-1.21V135.05z M119.81,135.05h1.21v-1.21h-1.21V135.05z M122.92,135.05h1.04v-1.21h-1.04V135.05z
		 M125.86,135.05h1.21v-1.21h-1.21V135.05z M128.97,135.05h1.21v-1.21h-1.21V135.05z M132.08,135.05h1.21v-1.21h-1.21V135.05z
		 M135.19,135.05h1.21v-1.21h-1.21V135.05z M138.3,135.05h1.04v-1.21h-1.04V135.05z M141.41,135.05h1.04v-1.21h-1.04V135.05z
		 M101.32,138.17h1.21v-1.21h-1.21V138.17z M104.43,138.17h1.04v-1.21h-1.04V138.17z M107.54,138.17h1.03v-1.21h-1.03V138.17z
		 M110.48,138.17h1.22v-1.21h-1.22V138.17z M113.59,138.17h1.21v-1.21h-1.21V138.17z M116.7,138.17h1.21v-1.21h-1.21V138.17z
		 M119.81,138.17h1.21v-1.21h-1.21V138.17z M122.92,138.17h1.04v-1.21h-1.04V138.17z M125.86,138.17h1.21v-1.21h-1.21V138.17z
		 M128.97,138.17h1.21v-1.21h-1.21V138.17z M132.08,138.17h1.21v-1.21h-1.21V138.17z M135.19,138.17h1.21v-1.21h-1.21V138.17z
		 M138.3,138.17h1.04v-1.21h-1.04V138.17z M141.41,138.17h1.04v-1.21h-1.04V138.17z M116.7,141.1h1.21v-1.03h-1.21V141.1z
		 M119.81,141.1h1.21v-1.03h-1.21V141.1z M122.92,141.1h1.04v-1.03h-1.04V141.1z M125.86,141.1h1.21v-1.03h-1.21V141.1z
		 M128.97,141.1h1.21v-1.03h-1.21V141.1z M132.08,141.1h1.21v-1.03h-1.21V141.1z M135.19,141.1h1.21v-1.03h-1.21V141.1z
		 M138.3,141.1h1.04v-1.03h-1.04V141.1z M141.41,141.1h1.04v-1.03h-1.04V141.1z M116.7,144.21h1.21v-1.04h-1.21V144.21z
		 M119.81,144.21h1.21v-1.04h-1.21V144.21z M122.92,144.21h1.04v-1.04h-1.04V144.21z M125.86,144.21h1.21v-1.04h-1.21V144.21z
		 M128.97,144.21h1.21v-1.04h-1.21V144.21z M132.08,144.21h1.21v-1.04h-1.21V144.21z M135.19,144.21h1.21v-1.04h-1.21V144.21z
		 M138.3,144.21h1.04v-1.04h-1.04V144.21z M141.41,144.21h1.04v-1.04h-1.04V144.21z M116.7,147.32h1.21v-1.21h-1.21V147.32z
		 M119.81,147.32h1.21v-1.21h-1.21V147.32z M122.92,147.32h1.04v-1.21h-1.04V147.32z M125.86,147.32h1.21v-1.21h-1.21V147.32z
		 M128.97,147.32h1.21v-1.21h-1.21V147.32z M132.08,147.32h1.21v-1.21h-1.21V147.32z M135.19,147.32h1.21v-1.21h-1.21V147.32z
		 M138.3,147.32h1.04v-1.21h-1.04V147.32z M141.41,147.32h1.04v-1.21h-1.04V147.32z M116.7,150.43h1.21v-1.21h-1.21V150.43z
		 M119.81,150.43h1.21v-1.21h-1.21V150.43z M122.92,150.43h1.04v-1.21h-1.04V150.43z M125.86,150.43h1.21v-1.21h-1.21V150.43z
		 M128.97,150.43h1.21v-1.21h-1.21V150.43z M132.08,150.43h1.21v-1.21h-1.21V150.43z M135.19,150.43h1.21v-1.21h-1.21V150.43z
		 M138.3,150.43h1.04v-1.21h-1.04V150.43z M141.41,150.43h1.04v-1.21h-1.04V150.43z M116.7,153.54h1.21v-1.21h-1.21V153.54z
		 M119.81,153.54h1.21v-1.21h-1.21V153.54z M122.92,153.54h1.04v-1.21h-1.04V153.54z M125.86,153.54h1.21v-1.21h-1.21V153.54z
		 M128.97,153.54h1.21v-1.21h-1.21V153.54z M132.08,153.54h1.21v-1.21h-1.21V153.54z M135.19,153.54h1.21v-1.21h-1.21V153.54z
		 M138.3,153.54h1.04v-1.21h-1.04V153.54z M141.41,153.54h1.04v-1.21h-1.04V153.54z M116.7,156.48h1.21v-1.04h-1.21V156.48z
		 M119.81,156.48h1.21v-1.04h-1.21V156.48z M122.92,156.48h1.04v-1.04h-1.04V156.48z M125.86,156.48h1.21v-1.04h-1.21V156.48z
		 M128.97,156.48h1.21v-1.04h-1.21V156.48z M132.08,156.48h1.21v-1.04h-1.21V156.48z M135.19,156.48h1.21v-1.04h-1.21V156.48z
		 M138.3,156.48h1.04v-1.04h-1.04V156.48z M141.41,156.48h1.04v-1.04h-1.04V156.48z M116.7,159.59h1.21v-1.04h-1.21V159.59z
		 M119.81,159.59h1.21v-1.04h-1.21V159.59z M122.92,159.59h1.04v-1.04h-1.04V159.59z M125.86,159.59h1.21v-1.04h-1.21V159.59z
		 M128.97,159.59h1.21v-1.04h-1.21V159.59z M132.08,159.59h1.21v-1.04h-1.21V159.59z M135.19,159.59h1.21v-1.04h-1.21V159.59z
		 M138.3,159.59h1.04v-1.04h-1.04V159.59z M141.41,159.59h1.04v-1.04h-1.04V159.59z M116.7,162.7h1.21v-1.21h-1.21V162.7z
		 M119.81,162.7h1.21v-1.21h-1.21V162.7z M122.92,162.7h1.04v-1.21h-1.04V162.7z M125.86,162.7h1.21v-1.21h-1.21V162.7z
		 M128.97,162.7h1.21v-1.21h-1.21V162.7z M132.08,162.7h1.21v-1.21h-1.21V162.7z M135.19,162.7h1.21v-1.21h-1.21V162.7z
		 M138.3,162.7h1.04v-1.21h-1.04V162.7z M141.41,162.7h1.04v-1.21h-1.04V162.7z M116.7,165.81h1.21v-1.21h-1.21V165.81z
		 M119.81,165.81h1.21v-1.21h-1.21V165.81z M122.92,165.81h1.04v-1.21h-1.04V165.81z M125.86,165.81h1.21v-1.21h-1.21V165.81z
		 M128.97,165.81h1.21v-1.21h-1.21V165.81z M132.08,165.81h1.21v-1.21h-1.21V165.81z M135.19,165.81h1.21v-1.21h-1.21V165.81z
		 M138.3,165.81h1.04v-1.21h-1.04V165.81z M141.41,165.81h1.04v-1.21h-1.04V165.81z M116.7,168.91h1.21v-1.21h-1.21V168.91z
		 M119.81,168.91h1.21v-1.21h-1.21V168.91z M122.92,168.91h1.04v-1.21h-1.04V168.91z M125.86,168.91h1.21v-1.21h-1.21V168.91z
		 M128.97,168.91h1.21v-1.21h-1.21V168.91z M132.08,168.91h1.21v-1.21h-1.21V168.91z M135.19,168.91h1.21v-1.21h-1.21V168.91z
		 M138.3,168.91h1.04v-1.21h-1.04V168.91z M141.41,168.91h1.04v-1.21h-1.04V168.91z"/>
	<g>
		<polygon class="st0" points="96.46,139.89 86.08,139.89 86.08,171.67 59.81,171.67 59.81,83.75 86.08,83.75 86.08,116.22 
			103.89,116.22 		"/>
	</g>
	<path class="st0" d="M201.95,141.27v0.34h-0.17v1.21h0.17v1.9h-0.17v1.22h0.17v1.89h-0.17v1.03h0.17v2.08h-0.17v1.03h0.17v1.9
		h-0.17v1.21h0.17v1.9h-0.17v1.21h0.17v1.9h-0.17v1.2h0.17v1.91h-0.17v1.04h0.17v2.07h-0.17v1.03h0.17v1.9h-0.17v1.21h0.17v1.21
		h-25.4v-3.46l0.52-1.72v0.86h1.21v-1.03h-1.04l0.52-2.07h0.52v-1.04h-0.18l2.59-8.12h0.69v-1.21h-0.34l2.42-7.94h1.04v-1.22h-0.69
		l2.59-8.12h1.21v-1.04h-0.87l0.7-2.07h0.17v-0.52l1.9-6.22v0.7h1.04v-1.21h-0.87l0.52-1.9h0.35v-1.21l0,0l2.59-8.12h0.52v-1.03
		h-0.17l2.42-8.12h0.87v-1.21h-0.52l2.6-7.95h1.03v-1.21h-0.69l0.69-1.9l0,0v-0.17l1.9-6.22v0.18h1.21v-1.21h-0.86l0.52-1.9h0.34
		v-0.52h1.9v0.52h1.04v-0.52h2.08v0.52h1.04v-0.52h1.9v0.52h1.21v-0.52h1.91v0.52h1.21v-0.52h1.9v0.52h1.21v-0.52h1.9v0.52h1.04
		v-0.52h2.07v0.52h1.04v-0.52h1.9v0.52h1.21v-0.52h1.9v0.52h1.04l-1.04,1.9l0,0v0.17l-1.9,3.81v-0.87h-1.21v1.21h1.03l-1.03,1.9l0,0
		l0,0l-1.9,3.79v-0.69h-1.04v1.21h0.86l-2.94,5.7v-0.69h-1.04v1.03h0.87l-2.77,5.87v-0.86h-1.21v1.2h1.04l-2.93,5.71v-0.69h-1.21
		v1.03h1.03l-2.94,5.88v-0.86h-1.21v1.22h1.04l-2.94,5.69v-0.68h-1.04v1.21h0.86l-2.94,5.69v-0.69h-1.04v1.04h0.87l-2.77,5.69v-0.69
		h-1.21v1.21h0.87L201.95,141.27z M230.64,83.75h0.18l-0.18,0.17V83.75z M204.89,87.38h1.04v-1.21h-1.04V87.38z M208.01,87.38h1.04
		v-1.21h-1.04V87.38z M210.94,87.38h1.21v-1.21h-1.21V87.38z M214.06,87.38h1.21v-1.21h-1.21V87.38z M217.16,87.38h1.21v-1.21h-1.21
		V87.38z M220.28,87.38h1.04v-1.21h-1.04V87.38z M223.39,87.38h1.04v-1.21h-1.04V87.38z M226.33,87.38h1.21v-1.21h-1.21V87.38z
		 M201.78,90.48h1.21v-1.21h-1.21V90.48z M204.89,90.48h1.04v-1.21h-1.04V90.48z M208.01,90.48h1.04v-1.21h-1.04V90.48z
		 M210.94,90.48h1.21v-1.21h-1.21V90.48z M214.06,90.48h1.21v-1.21h-1.21V90.48z M217.16,90.48h1.21v-1.21h-1.21V90.48z
		 M220.28,90.48h1.04v-1.21h-1.04V90.48z M223.39,90.48h1.04v-1.21h-1.04V90.48z M201.78,93.6h1.21v-1.21h-1.21V93.6z M204.89,93.6
		h1.04v-1.21h-1.04V93.6z M208.01,93.6h1.04v-1.21h-1.04V93.6z M210.94,93.6h1.21v-1.21h-1.21V93.6z M214.06,93.6h1.21v-1.21h-1.21
		V93.6z M217.16,93.6h1.21v-1.21h-1.21V93.6z M220.28,93.6h1.04v-1.21h-1.04V93.6z M223.39,93.6h1.04v-1.21h-1.04V93.6z
		 M201.78,96.7h1.21v-1.21h-1.21V96.7z M204.89,96.7h1.04v-1.21h-1.04V96.7z M208.01,96.7h1.04v-1.21h-1.04V96.7z M210.94,96.7h1.21
		v-1.21h-1.21V96.7z M214.06,96.7h1.21v-1.21h-1.21V96.7z M217.16,96.7h1.21v-1.21h-1.21V96.7z M220.28,96.7h1.04v-1.21h-1.04V96.7z
		 M198.67,99.64h1.21V98.6h-1.21V99.64z M201.78,99.64h1.21V98.6h-1.21V99.64z M204.89,99.64h1.04V98.6h-1.04V99.64z M208.01,99.64
		h1.04V98.6h-1.04V99.64z M210.94,99.64h1.21V98.6h-1.21V99.64z M214.06,99.64h1.21V98.6h-1.21V99.64z M217.16,99.64h1.21V98.6
		h-1.21V99.64z M220.28,99.64h1.04V98.6h-1.04V99.64z M198.67,102.75h1.21v-1.03h-1.21V102.75z M201.78,102.75h1.21v-1.03h-1.21
		V102.75z M204.89,102.75h1.04v-1.03h-1.04V102.75z M208.01,102.75h1.04v-1.03h-1.04V102.75z M210.94,102.75h1.21v-1.03h-1.21
		V102.75z M214.06,102.75h1.21v-1.03h-1.21V102.75z M217.16,102.75h1.21v-1.03h-1.21V102.75z M198.67,105.86h1.21v-1.21h-1.21
		V105.86z M201.78,105.86h1.21v-1.21h-1.21V105.86z M204.89,105.86h1.04v-1.21h-1.04V105.86z M208.01,105.86h1.04v-1.21h-1.04
		V105.86z M210.94,105.86h1.21v-1.21h-1.21V105.86z M214.06,105.86h1.21v-1.21h-1.21V105.86z M217.16,105.86h1.21v-1.21h-1.21
		V105.86z M195.56,108.96h1.21v-1.2h-1.21V108.96z M198.67,108.96h1.21v-1.2h-1.21V108.96z M201.78,108.96h1.21v-1.2h-1.21V108.96z
		 M204.89,108.96h1.04v-1.2h-1.04V108.96z M208.01,108.96h1.04v-1.2h-1.04V108.96z M210.94,108.96h1.21v-1.2h-1.21V108.96z
		 M214.06,108.96h1.21v-1.2h-1.21V108.96z M195.56,112.08h1.21v-1.21h-1.21V112.08z M198.67,112.08h1.21v-1.21h-1.21V112.08z
		 M201.78,112.08h1.21v-1.21h-1.21V112.08z M204.89,112.08h1.04v-1.21h-1.04V112.08z M208.01,112.08h1.04v-1.21h-1.04V112.08z
		 M210.94,112.08h1.21v-1.21h-1.21V112.08z M214.06,112.08h1.21v-1.21h-1.21V112.08z M195.56,115.01h1.21v-1.03h-1.21V115.01z
		 M198.67,115.01h1.21v-1.03h-1.21V115.01z M201.78,115.01h1.21v-1.03h-1.21V115.01z M204.89,115.01h1.04v-1.03h-1.04V115.01z
		 M208.01,115.01h1.04v-1.03h-1.04V115.01z M210.94,115.01h1.21v-1.03h-1.21V115.01z M192.63,118.12h1.03v-1.04h-1.03V118.12z
		 M195.56,118.12h1.21v-1.04h-1.21V118.12z M198.67,118.12h1.21v-1.04h-1.21V118.12z M201.78,118.12h1.21v-1.04h-1.21V118.12z
		 M204.89,118.12h1.04v-1.04h-1.04V118.12z M208.01,118.12h1.04v-1.04h-1.04V118.12z M210.94,118.12h1.21v-1.04h-1.21V118.12z
		 M192.63,121.24h1.03v-1.22h-1.03V121.24z M195.56,121.24h1.21v-1.22h-1.21V121.24z M198.67,121.24h1.21v-1.22h-1.21V121.24z
		 M201.78,121.24h1.21v-1.22h-1.21V121.24z M204.89,121.24h1.04v-1.22h-1.04V121.24z M208.01,121.24h1.04v-1.22h-1.04V121.24z
		 M192.63,124.34h1.03v-1.21h-1.03V124.34z M195.56,124.34h1.21v-1.21h-1.21V124.34z M198.67,124.34h1.21v-1.21h-1.21V124.34z
		 M201.78,124.34h1.21v-1.21h-1.21V124.34z M204.89,124.34h1.04v-1.21h-1.04V124.34z M208.01,124.34h1.04v-1.21h-1.04V124.34z
		 M192.63,127.45h1.03v-1.21h-1.03V127.45z M195.56,127.45h1.21v-1.21h-1.21V127.45z M198.67,127.45h1.21v-1.21h-1.21V127.45z
		 M201.78,127.45h1.21v-1.21h-1.21V127.45z M204.89,127.45h1.04v-1.21h-1.04V127.45z M189.51,130.56h1.04v-1.21h-1.04V130.56z
		 M192.63,130.56h1.03v-1.21h-1.03V130.56z M195.56,130.56h1.21v-1.21h-1.21V130.56z M198.67,130.56h1.21v-1.21h-1.21V130.56z
		 M201.78,130.56h1.21v-1.21h-1.21V130.56z M204.89,130.56h1.04v-1.21h-1.04V130.56z M189.51,133.5h1.04v-1.04h-1.04V133.5z
		 M192.63,133.5h1.03v-1.04h-1.03V133.5z M195.56,133.5h1.21v-1.04h-1.21V133.5z M198.67,133.5h1.21v-1.04h-1.21V133.5z
		 M201.78,133.5h1.21v-1.04h-1.21V133.5z M189.51,136.6h1.04v-1.04h-1.04V136.6z M192.63,136.6h1.03v-1.04h-1.03V136.6z
		 M195.56,136.6h1.21v-1.04h-1.21V136.6z M198.67,136.6h1.21v-1.04h-1.21V136.6z M201.78,136.6h1.21v-1.04h-1.21V136.6z
		 M186.4,139.72h1.21v-1.21h-1.21V139.72z M189.51,139.72h1.04v-1.21h-1.04V139.72z M192.63,139.72h1.03v-1.21h-1.03V139.72z
		 M195.56,139.72h1.21v-1.21h-1.21V139.72z M198.67,139.72h1.21v-1.21h-1.21V139.72z M186.4,142.82h1.21v-1.21h-1.21V142.82z
		 M189.51,142.82h1.04v-1.21h-1.04V142.82z M192.63,142.82h1.03v-1.21h-1.03V142.82z M195.56,142.82h1.21v-1.21h-1.21V142.82z
		 M198.67,142.82h1.21v-1.21h-1.21V142.82z M186.4,145.94h1.21v-1.22h-1.21V145.94z M189.51,145.94h1.04v-1.22h-1.04V145.94z
		 M192.63,145.94h1.03v-1.22h-1.03V145.94z M195.56,145.94h1.21v-1.22h-1.21V145.94z M198.67,145.94h1.21v-1.22h-1.21V145.94z
		 M183.29,148.87h1.21v-1.03h-1.21V148.87z M186.4,148.87h1.21v-1.03h-1.21V148.87z M189.51,148.87h1.04v-1.03h-1.04V148.87z
		 M192.63,148.87h1.03v-1.03h-1.03V148.87z M195.56,148.87h1.21v-1.03h-1.21V148.87z M198.67,148.87h1.21v-1.03h-1.21V148.87z
		 M183.29,151.98h1.21v-1.03h-1.21V151.98z M186.4,151.98h1.21v-1.03h-1.21V151.98z M189.51,151.98h1.04v-1.03h-1.04V151.98z
		 M192.63,151.98h1.03v-1.03h-1.03V151.98z M195.56,151.98h1.21v-1.03h-1.21V151.98z M198.67,151.98h1.21v-1.03h-1.21V151.98z
		 M183.29,155.09h1.21v-1.21h-1.21V155.09z M186.4,155.09h1.21v-1.21h-1.21V155.09z M189.51,155.09h1.04v-1.21h-1.04V155.09z
		 M192.63,155.09h1.03v-1.21h-1.03V155.09z M195.56,155.09h1.21v-1.21h-1.21V155.09z M198.67,155.09h1.21v-1.21h-1.21V155.09z
		 M180.18,158.2h1.21v-1.21h-1.21V158.2z M183.29,158.2h1.21v-1.21h-1.21V158.2z M186.4,158.2h1.21v-1.21h-1.21V158.2z
		 M189.51,158.2h1.04v-1.21h-1.04V158.2z M192.63,158.2h1.03v-1.21h-1.03V158.2z M195.56,158.2h1.21v-1.21h-1.21V158.2z
		 M198.67,158.2h1.21v-1.21h-1.21V158.2z M180.18,161.3h1.21v-1.2h-1.21V161.3z M183.29,161.3h1.21v-1.2h-1.21V161.3z M186.4,161.3
		h1.21v-1.2h-1.21V161.3z M189.51,161.3h1.04v-1.2h-1.04V161.3z M192.63,161.3h1.03v-1.2h-1.03V161.3z M195.56,161.3h1.21v-1.2
		h-1.21V161.3z M198.67,161.3h1.21v-1.2h-1.21V161.3z M180.18,164.25h1.21v-1.04h-1.21V164.25z M183.29,164.25h1.21v-1.04h-1.21
		V164.25z M186.4,164.25h1.21v-1.04h-1.21V164.25z M189.51,164.25h1.04v-1.04h-1.04V164.25z M192.63,164.25h1.03v-1.04h-1.03V164.25
		z M195.56,164.25h1.21v-1.04h-1.21V164.25z M198.67,164.25h1.21v-1.04h-1.21V164.25z M180.18,167.35h1.21v-1.03h-1.21V167.35z
		 M183.29,167.35h1.21v-1.03h-1.21V167.35z M186.4,167.35h1.21v-1.03h-1.21V167.35z M189.51,167.35h1.04v-1.03h-1.04V167.35z
		 M192.63,167.35h1.03v-1.03h-1.03V167.35z M195.56,167.35h1.21v-1.03h-1.21V167.35z M198.67,167.35h1.21v-1.03h-1.21V167.35z
		 M177.07,170.46h1.21v-1.21h-1.21V170.46z M180.18,170.46h1.21v-1.21h-1.21V170.46z M183.29,170.46h1.21v-1.21h-1.21V170.46z
		 M186.4,170.46h1.21v-1.21h-1.21V170.46z M189.51,170.46h1.04v-1.21h-1.04V170.46z M192.63,170.46h1.03v-1.21h-1.03V170.46z
		 M195.56,170.46h1.21v-1.21h-1.21V170.46z M198.67,170.46h1.21v-1.21h-1.21V170.46z"/>
	<g>
		<polygon class="st0" points="173.8,168.22 173.8,141.27 145.1,83.75 173.45,83.75 186.59,111.39 199.55,83.75 200.07,83.75 		"/>
	</g>
</g>
<g>
	<path class="st0" d="M278.28,175.3c-3.28,0-6.57-0.34-9.85-0.69l1.03-3.11h1.21v-1.2h-0.86l0.69-1.91h0.17v-0.51l1.91-6.21v0.51
		h1.03v-1.03h-0.86l0.52-2.07h0.34v-1.04l0,0l1.56-4.84c1.9,0.18,3.98,0.34,6.05,0.34c0.69,0,1.21,0,1.9,0c0.52,0,1.04,0,1.73-0.17
		c1.21,0,2.24-0.18,3.28-0.34h1.03v-0.52c0.7-0.34,1.39-0.86,2.07-1.56c0.18-0.34,0.52-0.69,0.69-1.03h0.17v-1.04
		c0.18-0.34,0.18-0.86,0.18-1.55c0-0.34,0-0.69-0.18-1.04v-0.69h-0.17c-0.34-0.34-0.52-0.69-1.04-0.87
		c-0.52-0.51-1.21-0.86-1.73-1.2v-0.86h-1.21v0.18c-0.52-0.18-1.03-0.35-1.55-0.52c-1.55-0.69-2.94-1.04-4.49-1.38l-2.07-0.34v-1.04
		h-0.34l2.42-8.12h1.04v-1.21h-0.69l0.69-1.9l0,0v-0.17l1.9-6.22v0.35h1.21v-1.21h-0.86l0.52-1.9h0.34v-0.87l0.35-1.03
		c1.21,0.17,2.42,0.51,3.81,0.86l0.87,0.35v0.69h1.03v-0.51c1.91,0.51,3.81,1.21,5.71,1.72c0.86,0.34,1.56,0.52,2.42,0.87v1.04h1.21
		v-0.52c1.21,0.52,2.42,1.21,3.63,1.9c0.52,0.17,0.86,0.51,1.37,0.69v0.87h1.04l0,0c1.03,0.52,1.9,1.2,2.76,2.07h-0.69v1.04h1.03
		v-0.7l0.52,0.53c0.69,0.69,1.38,1.38,2.07,2.07h-0.69v1.21h1.21v-0.34c0.69,1.04,1.38,2.07,1.73,3.29
		c0.35,0.69,0.69,1.38,0.86,2.07h-0.69v1.21h1.04c0.17,0.69,0.35,1.56,0.52,2.42c0.34,2.08,0.52,3.98,0.52,6.05
		c0,3.28-0.34,6.21-1.21,8.8h-0.87v1.21h0.52c-0.52,1.56-1.21,2.94-2.08,4.33l-0.35,0.69l0,0h-1.21v1.03h0.35
		c-0.69,1.04-1.39,1.91-2.25,2.77v-0.86h-1.03v1.2h0.69c-0.87,0.87-1.73,1.56-2.76,2.42v-0.52h-1.04v1.2h0.18
		c-0.69,0.35-1.21,0.7-1.73,1.04c-1.04,0.69-2.25,1.21-3.46,1.73v-0.87h-1.21v1.2h0.69c-1.91,0.7-3.81,1.39-5.71,1.91h-1.04v0.17
		c-0.69,0.17-1.38,0.34-1.9,0.34l-0.18,0.18v-0.69h-1.03v0.85c-0.69,0-1.39,0.18-1.91,0.18v-1.03h-1.21v1.03h1.04
		C285.36,174.96,281.9,175.3,278.28,175.3L278.28,175.3z M297.11,88.42h1.21V87.2h-1.21V88.42z M300.22,88.42h1.21V87.2h-1.21V88.42
		z M303.34,88.42h1.21V87.2h-1.21V88.42z M297.11,91.35h1.21v-1.04h-1.21V91.35z M300.22,91.35h1.21v-1.04h-1.21V91.35z
		 M303.34,91.35h1.21v-1.04h-1.21V91.35z M306.44,91.35h1.04v-1.04h-1.04V91.35z M309.56,91.35h1.03v-1.04h-1.03V91.35z
		 M294.17,94.46h1.04v-1.04h-1.04V94.46z M297.11,94.46h1.21v-1.04h-1.21V94.46z M300.22,94.46h1.21v-1.04h-1.21V94.46z
		 M303.34,94.46h1.21v-1.04h-1.21V94.46z M306.44,94.46h1.04v-1.04h-1.04V94.46z M309.56,94.46h1.03v-1.04h-1.03V94.46z
		 M294.17,97.57h1.04v-1.21h-1.04V97.57z M297.11,97.57h1.21v-1.21h-1.21V97.57z M300.22,97.57h1.21v-1.21h-1.21V97.57z
		 M303.34,97.57h1.21v-1.21h-1.21V97.57z M306.44,97.57h1.04v-1.21h-1.04V97.57z M309.56,97.57h1.03v-1.21h-1.03V97.57z
		 M294.17,100.68h1.04v-1.21h-1.04V100.68z M297.11,100.68h1.21v-1.21h-1.21V100.68z M300.22,100.68h1.21v-1.21h-1.21V100.68z
		 M303.34,100.68h1.21v-1.21h-1.21V100.68z M306.44,100.68h1.04v-1.21h-1.04V100.68z M291.07,103.79h1.03v-1.21h-1.03V103.79z
		 M294.17,103.79h1.04v-1.21h-1.04V103.79z M297.11,103.79h1.21v-1.21h-1.21V103.79z M300.22,103.79h1.21v-1.21h-1.21V103.79z
		 M303.34,103.79h1.21v-1.21h-1.21V103.79z M306.44,103.79h1.04v-1.21h-1.04V103.79z M294.17,106.9h1.04v-1.21h-1.04V106.9z
		 M297.11,106.9h1.21v-1.21h-1.21V106.9z M300.22,106.9h1.21v-1.21h-1.21V106.9z M303.34,106.9h1.21v-1.21h-1.21V106.9z
		 M287.95,119.16h1.21v-1.21h-1.21V119.16z M287.95,122.27h1.21v-1.21h-1.21V122.27z M291.07,122.27h1.03v-1.21h-1.03V122.27z
		 M294.17,122.27h1.04v-1.21h-1.04V122.27z M297.11,122.27h1.21v-1.21h-1.21V122.27z M284.84,125.21h1.21v-1.04h-1.21V125.21z
		 M287.95,125.21h1.21v-1.04h-1.21V125.21z M291.07,125.21h1.03v-1.04h-1.03V125.21z M294.17,125.21h1.04v-1.04h-1.04V125.21z
		 M297.11,125.21h1.21v-1.04h-1.21V125.21z M300.22,125.21h1.21v-1.04h-1.21V125.21z M303.34,125.21h1.21v-1.04h-1.21V125.21z
		 M284.84,128.32h1.21v-1.04h-1.21V128.32z M287.95,128.32h1.21v-1.04h-1.21V128.32z M291.07,128.32h1.03v-1.04h-1.03V128.32z
		 M294.17,128.32h1.04v-1.04h-1.04V128.32z M297.11,128.32h1.21v-1.04h-1.21V128.32z M300.22,128.32h1.21v-1.04h-1.21V128.32z
		 M303.34,128.32h1.21v-1.04h-1.21V128.32z M306.44,128.32h1.04v-1.04h-1.04V128.32z M284.84,131.42h1.21v-1.21h-1.21V131.42z
		 M287.95,131.42h1.21v-1.21h-1.21V131.42z M291.07,131.42h1.03v-1.21h-1.03V131.42z M294.17,131.42h1.04v-1.21h-1.04V131.42z
		 M297.11,131.42h1.21v-1.21h-1.21V131.42z M300.22,131.42h1.21v-1.21h-1.21V131.42z M303.34,131.42h1.21v-1.21h-1.21V131.42z
		 M306.44,131.42h1.04v-1.21h-1.04V131.42z M309.56,131.42h1.03v-1.21h-1.03V131.42z M281.73,134.54h1.21v-1.21h-1.21V134.54z
		 M284.84,134.54h1.21v-1.21h-1.21V134.54z M287.95,134.54h1.21v-1.21h-1.21V134.54z M291.07,134.54h1.03v-1.21h-1.03V134.54z
		 M294.17,134.54h1.04v-1.21h-1.04V134.54z M297.11,134.54h1.21v-1.21h-1.21V134.54z M300.22,134.54h1.21v-1.21h-1.21V134.54z
		 M303.34,134.54h1.21v-1.21h-1.21V134.54z M306.44,134.54h1.04v-1.21h-1.04V134.54z M309.56,134.54h1.03v-1.21h-1.03V134.54z
		 M312.49,134.54h1.21v-1.21h-1.21V134.54z M281.73,137.64h1.21v-1.21h-1.21V137.64z M284.84,137.64h1.21v-1.21h-1.21V137.64z
		 M287.95,137.64h1.21v-1.21h-1.21V137.64z M291.07,137.64h1.03v-1.21h-1.03V137.64z M294.17,137.64h1.04v-1.21h-1.04V137.64z
		 M297.11,137.64h1.21v-1.21h-1.21V137.64z M300.22,137.64h1.21v-1.21h-1.21V137.64z M303.34,137.64h1.21v-1.21h-1.21V137.64z
		 M306.44,137.64h1.04v-1.21h-1.04V137.64z M309.56,137.64h1.03v-1.21h-1.03V137.64z M312.49,137.64h1.21v-1.21h-1.21V137.64z
		 M281.73,140.58h1.21v-1.04h-1.21V140.58z M284.84,140.58h1.21v-1.04h-1.21V140.58z M287.95,140.58h1.21v-1.04h-1.21V140.58z
		 M291.07,140.58h1.03v-1.04h-1.03V140.58z M294.17,140.58h1.04v-1.04h-1.04V140.58z M297.11,140.58h1.21v-1.04h-1.21V140.58z
		 M300.22,140.58h1.21v-1.04h-1.21V140.58z M303.34,140.58h1.21v-1.04h-1.21V140.58z M306.44,140.58h1.04v-1.04h-1.04V140.58z
		 M309.56,140.58h1.03v-1.04h-1.03V140.58z M312.49,140.58h1.21v-1.04h-1.21V140.58z M315.61,140.58h1.21v-1.04h-1.21V140.58z
		 M291.07,143.69h1.03v-1.04h-1.03V143.69z M294.17,143.69h1.04v-1.04h-1.04V143.69z M297.11,143.69h1.21v-1.04h-1.21V143.69z
		 M300.22,143.69h1.21v-1.04h-1.21V143.69z M303.34,143.69h1.21v-1.04h-1.21V143.69z M306.44,143.69h1.04v-1.04h-1.04V143.69z
		 M309.56,143.69h1.03v-1.04h-1.03V143.69z M312.49,143.69h1.21v-1.04h-1.21V143.69z M315.61,143.69h1.21v-1.04h-1.21V143.69z
		 M294.17,146.8h1.04v-1.22h-1.04V146.8z M297.11,146.8h1.21v-1.22h-1.21V146.8z M300.22,146.8h1.21v-1.22h-1.21V146.8z
		 M303.34,146.8h1.21v-1.22h-1.21V146.8z M306.44,146.8h1.04v-1.22h-1.04V146.8z M309.56,146.8h1.03v-1.22h-1.03V146.8z
		 M312.49,146.8h1.21v-1.22h-1.21V146.8z M315.61,146.8h1.21v-1.22h-1.21V146.8z M294.17,149.91h1.04v-1.21h-1.04V149.91z
		 M297.11,149.91h1.21v-1.21h-1.21V149.91z M300.22,149.91h1.21v-1.21h-1.21V149.91z M303.34,149.91h1.21v-1.21h-1.21V149.91z
		 M306.44,149.91h1.04v-1.21h-1.04V149.91z M309.56,149.91h1.03v-1.21h-1.03V149.91z M312.49,149.91h1.21v-1.21h-1.21V149.91z
		 M315.61,149.91h1.21v-1.21h-1.21V149.91z M291.07,153.02h1.03v-1.21h-1.03V153.02z M294.17,153.02h1.04v-1.21h-1.04V153.02z
		 M297.11,153.02h1.21v-1.21h-1.21V153.02z M300.22,153.02h1.21v-1.21h-1.21V153.02z M303.34,153.02h1.21v-1.21h-1.21V153.02z
		 M306.44,153.02h1.04v-1.21h-1.04V153.02z M309.56,153.02h1.03v-1.21h-1.03V153.02z M312.49,153.02h1.21v-1.21h-1.21V153.02z
		 M315.61,153.02h1.21v-1.21h-1.21V153.02z M275.68,156.12h1.04v-1.21h-1.04V156.12z M278.62,156.12h1.21v-1.21h-1.21V156.12z
		 M281.73,156.12h1.21v-1.21h-1.21V156.12z M284.84,156.12h1.21v-1.21h-1.21V156.12z M287.95,156.12h1.21v-1.21h-1.21V156.12z
		 M291.07,156.12h1.03v-1.21h-1.03V156.12z M294.17,156.12h1.04v-1.21h-1.04V156.12z M297.11,156.12h1.21v-1.21h-1.21V156.12z
		 M300.22,156.12h1.21v-1.21h-1.21V156.12z M303.34,156.12h1.21v-1.21h-1.21V156.12z M306.44,156.12h1.04v-1.21h-1.04V156.12z
		 M309.56,156.12h1.03v-1.21h-1.03V156.12z M312.49,156.12h1.21v-1.21h-1.21V156.12z M275.68,159.07h1.04v-1.04h-1.04V159.07z
		 M278.62,159.07h1.21v-1.04h-1.21V159.07z M281.73,159.07h1.21v-1.04h-1.21V159.07z M284.84,159.07h1.21v-1.04h-1.21V159.07z
		 M287.95,159.07h1.21v-1.04h-1.21V159.07z M291.07,159.07h1.03v-1.04h-1.03V159.07z M294.17,159.07h1.04v-1.04h-1.04V159.07z
		 M297.11,159.07h1.21v-1.04h-1.21V159.07z M300.22,159.07h1.21v-1.04h-1.21V159.07z M303.34,159.07h1.21v-1.04h-1.21V159.07z
		 M306.44,159.07h1.04v-1.04h-1.04V159.07z M309.56,159.07h1.03v-1.04h-1.03V159.07z M312.49,159.07h1.21v-1.04h-1.21V159.07z
		 M275.68,162.17h1.04v-1.03h-1.04V162.17z M278.62,162.17h1.21v-1.03h-1.21V162.17z M281.73,162.17h1.21v-1.03h-1.21V162.17z
		 M284.84,162.17h1.21v-1.03h-1.21V162.17z M287.95,162.17h1.21v-1.03h-1.21V162.17z M291.07,162.17h1.03v-1.03h-1.03V162.17z
		 M294.17,162.17h1.04v-1.03h-1.04V162.17z M297.11,162.17h1.21v-1.03h-1.21V162.17z M300.22,162.17h1.21v-1.03h-1.21V162.17z
		 M303.34,162.17h1.21v-1.03h-1.21V162.17z M306.44,162.17h1.04v-1.03h-1.04V162.17z M309.56,162.17h1.03v-1.03h-1.03V162.17z
		 M272.57,165.28h1.03v-1.2h-1.03V165.28z M275.68,165.28h1.04v-1.2h-1.04V165.28z M278.62,165.28h1.21v-1.2h-1.21V165.28z
		 M281.73,165.28h1.21v-1.2h-1.21V165.28z M284.84,165.28h1.21v-1.2h-1.21V165.28z M287.95,165.28h1.21v-1.2h-1.21V165.28z
		 M291.07,165.28h1.03v-1.2h-1.03V165.28z M294.17,165.28h1.04v-1.2h-1.04V165.28z M297.11,165.28h1.21v-1.2h-1.21V165.28z
		 M300.22,165.28h1.21v-1.2h-1.21V165.28z M303.34,165.28h1.21v-1.2h-1.21V165.28z M306.44,165.28h1.04v-1.2h-1.04V165.28z
		 M272.57,168.38h1.03v-1.2h-1.03V168.38z M275.68,168.38h1.04v-1.2h-1.04V168.38z M278.62,168.38h1.21v-1.2h-1.21V168.38z
		 M281.73,168.38h1.21v-1.2h-1.21V168.38z M284.84,168.38h1.21v-1.2h-1.21V168.38z M287.95,168.38h1.21v-1.2h-1.21V168.38z
		 M291.07,168.38h1.03v-1.2h-1.03V168.38z M294.17,168.38h1.04v-1.2h-1.04V168.38z M297.11,168.38h1.21v-1.2h-1.21V168.38z
		 M300.22,168.38h1.21v-1.2h-1.21V168.38z M303.34,168.38h1.21v-1.2h-1.21V168.38z M272.57,171.5h1.03v-1.2h-1.03V171.5z
		 M275.68,171.5h1.04v-1.2h-1.04V171.5z M278.62,171.5h1.21v-1.2h-1.21V171.5z M281.73,171.5h1.21v-1.2h-1.21V171.5z M284.84,171.5
		h1.21v-1.2h-1.21V171.5z M287.95,171.5h1.21v-1.2h-1.21V171.5z M291.07,171.5h1.03v-1.2h-1.03V171.5z M294.17,171.5h1.04v-1.2
		h-1.04V171.5z M297.11,171.5h1.21v-1.2h-1.21V171.5z M269.45,174.44h1.21v-1.03h-1.21V174.44z M272.57,174.44h1.03v-1.03h-1.03
		V174.44z M275.68,174.44h1.04v-1.03h-1.04V174.44z M278.62,174.44h1.21v-1.03h-1.21V174.44z M281.73,174.44h1.21v-1.03h-1.21
		V174.44z M284.84,174.44h1.21v-1.03h-1.21V174.44z M296.77,83.75c0.52,0.17,0.87,0.34,1.38,0.34h-1.04v1.21h1.21v-1.21v0.18
		c0.69,0,1.39,0.17,1.9,0.34v0.69h1.21v-0.34c1.9,0.69,3.8,1.38,5.7,2.24h-0.69v1.21h1.04v-1.04c0.69,0.34,1.38,0.69,2.07,0.87v0.17
		l0,0c1.21,0.51,2.42,1.21,3.63,1.9h-0.69v1.04h1.21v-0.69c0.52,0.17,0.86,0.51,1.21,0.69l-1.21,2.25v-0.17h-1.21v1.04h0.69
		c-1.04,1.72-1.9,3.45-2.94,5.01h-0.69v1.21l0,0l-0.35,0.69c-0.69,1.38-1.56,2.76-2.42,4.32h-0.35v0.69l-1.9,3.28v-0.86h-1.21v1.03
		h1.03l-0.86,1.39c-0.87-0.52-1.9-0.87-2.77-1.39h0.69v-1.03h-1.21v0.86c-0.69-0.34-1.21-0.52-1.9-0.86l0,0l0,0
		c-2.25-1.04-4.15-1.73-6.22-2.42v-0.69h-1.03v0.17h-0.35l-0.7-0.34l1.56-4.84h0.51v-1.21h-0.17l2.42-8.12h0.86v-1.04h-0.52
		L296.77,83.75z"/>
	<g>
		<path class="st0" d="M265.82,176.16c-2.42-0.34-4.84-0.86-7.26-1.38c-5.7-1.39-11.06-3.46-16.24-5.88c-0.18,0-0.18,0-0.35-0.17
			c-0.17,0-0.51-0.17-0.69-0.17c-0.52-0.35-0.86-0.69-1.03-0.87c-0.18-0.34-0.34-0.69-0.34-0.87c0,0,0.52-1.04,1.55-2.77
			c0.86-1.89,2.07-3.97,3.46-6.21c1.21-2.07,2.42-3.98,3.45-6.05c1.04-1.9,1.9-3.28,2.59-4.49c1.03,0.35,1.73,0.69,2.24,1.03
			c0.52,0.18,0.87,0.35,1.39,0.7c3.97,1.89,7.77,3.45,11.75,4.48c2.07,0.53,4.15,1.04,6.22,1.21L265.82,176.16z M276.54,141.97
			l-2.07-0.35c-2.08-0.52-4.14-1.03-6.22-1.38c-2.07-0.52-4.15-1.04-6.05-1.56c-2.07-0.69-3.98-1.39-5.71-2.07
			c-1.73-0.87-3.45-1.73-5.18-2.6c-3.28-2.07-5.88-4.83-7.78-8.11c-1.9-3.28-2.94-7.78-2.94-13.31c0-3.97,0.87-7.59,2.59-11.22
			c1.55-3.63,3.8-6.57,6.39-8.81c2.59-2.25,5.53-4.15,8.82-5.36c3.11-1.38,6.39-2.25,10.02-2.76c3.46-0.52,6.92-0.69,10.37-0.69
			c5.19,0,10.2,0.52,15.39,1.73l-6.92,21.76c-3.63-1.2-7.61-1.72-11.93-1.72c-0.86,0-1.73,0-2.94,0.17c-1.04,0-2.07,0.17-3.11,0.52
			c-0.86,0.34-1.72,0.86-2.42,1.55c-0.52,0.69-0.87,1.72-0.87,3.11c0,0.86,0.18,1.56,0.52,2.25c0.52,0.7,1.21,1.38,2.42,1.9
			c1.21,0.34,2.76,0.87,4.84,1.55c2.07,0.52,4.15,1.04,6.57,1.38c1.04,0.35,2.25,0.52,3.46,0.87L276.54,141.97z"/>
	</g>
	<path class="st0" d="M373.62,145.25h-1.9v-1.04h-1.04v1.04h-2.08v-1.04h-1.04v1.04h-1.91v-1.04h-1.21v1.04h-1.9v-1.04h-1.21v1.04
		h-1.9v-1.04h-0.86l0.68-1.91h0.17v-0.68l1.9-6.22v0.87h1.21v-1.21h-1.04l0.52-1.9h0.52v-1.21h-0.17l2.59-8.12h0.69v-1.04h-0.34
		l0.17-1.04h7.44c1.55,0,2.94-0.34,4.15-1.04h0.86v-0.52c0.35-0.17,0.52-0.51,0.87-0.86c0.52-0.52,1.04-1.04,1.39-1.55h0.86v-1.21
		h-0.35c0.35-0.86,0.52-1.9,0.52-2.93c0-0.7-0.17-1.38-0.35-2.08h0.17v-1.21h-0.52c-0.34-0.87-1.04-1.91-1.73-2.76
		c-1.21-1.21-2.59-2.07-3.97-2.42v-0.87h-1.21V105c-0.17-0.18-0.35-0.18-0.69-0.18h-1.21v-0.51h-0.69l0.69-1.9l0,0v-0.34l1.9-6.22
		v0.34h1.21v-1.21h-0.87l0.52-1.89h0.35v-1.04l1.9-6.22v1.21h1.21v-1.21h-1.21l0.69-1.9h0.51v-0.17c2.77,0.34,5.54,1.04,8.13,2.08
		l0,0v1.21h1.04v-0.87c1.9,0.87,3.63,1.73,5.36,2.76h-0.35v1.04h1.22v-0.51c1.38,0.86,2.59,1.89,3.8,2.93
		c1.9,1.73,3.63,3.62,5.01,5.7h-0.69v1.21h1.03v-0.52c0.7,1.04,1.38,2.08,2.08,3.29v0.34l0,0c0.34,0.52,0.69,1.21,0.86,1.9h-0.86
		v1.04h1.04v-0.69c1.21,3.11,1.72,6.4,1.72,9.85c0,4.15-0.69,7.78-2.25,11.23h-0.51v1.21l0,0c-1.55,3.11-3.63,5.69-5.88,8.11h-0.35
		v0.34c-0.35,0.35-0.69,0.69-1.21,1.04c-2.07,1.9-4.32,3.46-6.91,4.84H389v0.52c-0.7,0.34-1.56,0.69-2.6,1.04
		c-1.72,0.69-3.63,1.21-5.36,1.55v-0.17h-1.21v0.52c-0.69,0-1.21,0.17-1.9,0.17v-0.69h-1.21v0.86c-0.69,0-1.21,0-1.9,0v-0.86h-1.21
		V145.25z M379.84,87.04h1.21v-1.21h-1.21V87.04z M382.95,87.04h1.04v-1.21h-1.04V87.04z M376.73,89.97h1.21v-1.04h-1.21V89.97z
		 M379.84,89.97h1.21v-1.04h-1.21V89.97z M382.95,89.97h1.04v-1.04h-1.04V89.97z M386.07,89.97h1.04v-1.04h-1.04V89.97z M389,89.97
		h1.21v-1.04H389V89.97z M376.73,93.08h1.21v-1.04h-1.21V93.08z M379.84,93.08h1.21v-1.04h-1.21V93.08z M382.95,93.08h1.04v-1.04
		h-1.04V93.08z M386.07,93.08h1.04v-1.04h-1.04V93.08z M389,93.08h1.21v-1.04H389V93.08z M392.11,93.08h1.22v-1.04h-1.22V93.08z
		 M395.22,93.08h1.21v-1.04h-1.21V93.08z M376.73,96.19h1.21v-1.21h-1.21V96.19z M379.84,96.19h1.21v-1.21h-1.21V96.19z
		 M382.95,96.19h1.04v-1.21h-1.04V96.19z M386.07,96.19h1.04v-1.21h-1.04V96.19z M389,96.19h1.21v-1.21H389V96.19z M392.11,96.19
		h1.22v-1.21h-1.22V96.19z M395.22,96.19h1.21v-1.21h-1.21V96.19z M398.34,96.19h1.21v-1.21h-1.21V96.19z M373.62,99.3h1.21v-1.21
		h-1.21V99.3z M376.73,99.3h1.21v-1.21h-1.21V99.3z M379.84,99.3h1.21v-1.21h-1.21V99.3z M382.95,99.3h1.04v-1.21h-1.04V99.3z
		 M386.07,99.3h1.04v-1.21h-1.04V99.3z M389,99.3h1.21v-1.21H389V99.3z M392.11,99.3h1.22v-1.21h-1.22V99.3z M395.22,99.3h1.21
		v-1.21h-1.21V99.3z M398.34,99.3h1.21v-1.21h-1.21V99.3z M373.62,102.41h1.21v-1.21h-1.21V102.41z M376.73,102.41h1.21v-1.21h-1.21
		V102.41z M379.84,102.41h1.21v-1.21h-1.21V102.41z M382.95,102.41h1.04v-1.21h-1.04V102.41z M386.07,102.41h1.04v-1.21h-1.04
		V102.41z M389,102.41h1.21v-1.21H389V102.41z M392.11,102.41h1.22v-1.21h-1.22V102.41z M395.22,102.41h1.21v-1.21h-1.21V102.41z
		 M398.34,102.41h1.21v-1.21h-1.21V102.41z M401.45,102.41h1.03v-1.21h-1.03V102.41z M376.73,105.34h1.21v-1.04h-1.21V105.34z
		 M379.84,105.34h1.21v-1.04h-1.21V105.34z M382.95,105.34h1.04v-1.04h-1.04V105.34z M386.07,105.34h1.04v-1.04h-1.04V105.34z
		 M389,105.34h1.21v-1.04H389V105.34z M392.11,105.34h1.22v-1.04h-1.22V105.34z M395.22,105.34h1.21v-1.04h-1.21V105.34z
		 M398.34,105.34h1.21v-1.04h-1.21V105.34z M401.45,105.34h1.03v-1.04h-1.03V105.34z M379.84,108.45h1.21v-1.03h-1.21V108.45z
		 M382.95,108.45h1.04v-1.03h-1.04V108.45z M386.07,108.45h1.04v-1.03h-1.04V108.45z M389,108.45h1.21v-1.03H389V108.45z
		 M392.11,108.45h1.22v-1.03h-1.22V108.45z M395.22,108.45h1.21v-1.03h-1.21V108.45z M398.34,108.45h1.21v-1.03h-1.21V108.45z
		 M401.45,108.45h1.03v-1.03h-1.03V108.45z M404.56,108.45h1.04v-1.03h-1.04V108.45z M382.95,111.56h1.04v-1.21h-1.04V111.56z
		 M386.07,111.56h1.04v-1.21h-1.04V111.56z M389,111.56h1.21v-1.21H389V111.56z M392.11,111.56h1.22v-1.21h-1.22V111.56z
		 M395.22,111.56h1.21v-1.21h-1.21V111.56z M398.34,111.56h1.21v-1.21h-1.21V111.56z M401.45,111.56h1.03v-1.21h-1.03V111.56z
		 M404.56,111.56h1.04v-1.21h-1.04V111.56z M382.95,114.67h1.04v-1.21h-1.04V114.67z M386.07,114.67h1.04v-1.21h-1.04V114.67z
		 M389,114.67h1.21v-1.21H389V114.67z M392.11,114.67h1.22v-1.21h-1.22V114.67z M395.22,114.67h1.21v-1.21h-1.21V114.67z
		 M398.34,114.67h1.21v-1.21h-1.21V114.67z M401.45,114.67h1.03v-1.21h-1.03V114.67z M404.56,114.67h1.04v-1.21h-1.04V114.67z
		 M382.95,117.78h1.04v-1.21h-1.04V117.78z M386.07,117.78h1.04v-1.21h-1.04V117.78z M389,117.78h1.21v-1.21H389V117.78z
		 M392.11,117.78h1.22v-1.21h-1.22V117.78z M395.22,117.78h1.21v-1.21h-1.21V117.78z M398.34,117.78h1.21v-1.21h-1.21V117.78z
		 M401.45,117.78h1.03v-1.21h-1.03V117.78z M404.56,117.78h1.04v-1.21h-1.04V117.78z M379.84,120.71h1.21v-1.03h-1.21V120.71z
		 M382.95,120.71h1.04v-1.03h-1.04V120.71z M386.07,120.71h1.04v-1.03h-1.04V120.71z M389,120.71h1.21v-1.03H389V120.71z
		 M392.11,120.71h1.22v-1.03h-1.22V120.71z M395.22,120.71h1.21v-1.03h-1.21V120.71z M398.34,120.71h1.21v-1.03h-1.21V120.71z
		 M401.45,120.71h1.03v-1.03h-1.03V120.71z M404.56,120.71h1.04v-1.03h-1.04V120.71z M367.57,123.83h1.04v-1.04h-1.04V123.83z
		 M370.68,123.83h1.04v-1.04h-1.04V123.83z M373.62,123.83h1.21v-1.04h-1.21V123.83z M376.73,123.83h1.21v-1.04h-1.21V123.83z
		 M379.84,123.83h1.21v-1.04h-1.21V123.83z M382.95,123.83h1.04v-1.04h-1.04V123.83z M386.07,123.83h1.04v-1.04h-1.04V123.83z
		 M389,123.83h1.21v-1.04H389V123.83z M392.11,123.83h1.22v-1.04h-1.22V123.83z M395.22,123.83h1.21v-1.04h-1.21V123.83z
		 M398.34,123.83h1.21v-1.04h-1.21V123.83z M401.45,123.83h1.03v-1.04h-1.03V123.83z M404.56,123.83h1.04v-1.04h-1.04V123.83z
		 M364.46,126.94h1.21v-1.21h-1.21V126.94z M367.57,126.94h1.04v-1.21h-1.04V126.94z M370.68,126.94h1.04v-1.21h-1.04V126.94z
		 M373.62,126.94h1.21v-1.21h-1.21V126.94z M376.73,126.94h1.21v-1.21h-1.21V126.94z M379.84,126.94h1.21v-1.21h-1.21V126.94z
		 M382.95,126.94h1.04v-1.21h-1.04V126.94z M386.07,126.94h1.04v-1.21h-1.04V126.94z M389,126.94h1.21v-1.21H389V126.94z
		 M392.11,126.94h1.22v-1.21h-1.22V126.94z M395.22,126.94h1.21v-1.21h-1.21V126.94z M398.34,126.94h1.21v-1.21h-1.21V126.94z
		 M401.45,126.94h1.03v-1.21h-1.03V126.94z M364.46,130.05h1.21v-1.22h-1.21V130.05z M367.57,130.05h1.04v-1.22h-1.04V130.05z
		 M370.68,130.05h1.04v-1.22h-1.04V130.05z M373.62,130.05h1.21v-1.22h-1.21V130.05z M376.73,130.05h1.21v-1.22h-1.21V130.05z
		 M379.84,130.05h1.21v-1.22h-1.21V130.05z M382.95,130.05h1.04v-1.22h-1.04V130.05z M386.07,130.05h1.04v-1.22h-1.04V130.05z
		 M389,130.05h1.21v-1.22H389V130.05z M392.11,130.05h1.22v-1.22h-1.22V130.05z M395.22,130.05h1.21v-1.22h-1.21V130.05z
		 M398.34,130.05h1.21v-1.22h-1.21V130.05z M401.45,130.05h1.03v-1.22h-1.03V130.05z M364.46,133.16h1.21v-1.21h-1.21V133.16z
		 M367.57,133.16h1.04v-1.21h-1.04V133.16z M370.68,133.16h1.04v-1.21h-1.04V133.16z M373.62,133.16h1.21v-1.21h-1.21V133.16z
		 M376.73,133.16h1.21v-1.21h-1.21V133.16z M379.84,133.16h1.21v-1.21h-1.21V133.16z M382.95,133.16h1.04v-1.21h-1.04V133.16z
		 M386.07,133.16h1.04v-1.21h-1.04V133.16z M389,133.16h1.21v-1.21H389V133.16z M392.11,133.16h1.22v-1.21h-1.22V133.16z
		 M395.22,133.16h1.21v-1.21h-1.21V133.16z M398.34,133.16h1.21v-1.21h-1.21V133.16z M364.46,136.26h1.21v-1.21h-1.21V136.26z
		 M367.57,136.26h1.04v-1.21h-1.04V136.26z M370.68,136.26h1.04v-1.21h-1.04V136.26z M373.62,136.26h1.21v-1.21h-1.21V136.26z
		 M376.73,136.26h1.21v-1.21h-1.21V136.26z M379.84,136.26h1.21v-1.21h-1.21V136.26z M382.95,136.26h1.04v-1.21h-1.04V136.26z
		 M386.07,136.26h1.04v-1.21h-1.04V136.26z M389,136.26h1.21v-1.21H389V136.26z M392.11,136.26h1.22v-1.21h-1.22V136.26z
		 M395.22,136.26h1.21v-1.21h-1.21V136.26z M361.35,139.2h1.21v-1.04h-1.21V139.2z M364.46,139.2h1.21v-1.04h-1.21V139.2z
		 M367.57,139.2h1.04v-1.04h-1.04V139.2z M370.68,139.2h1.04v-1.04h-1.04V139.2z M373.62,139.2h1.21v-1.04h-1.21V139.2z
		 M376.73,139.2h1.21v-1.04h-1.21V139.2z M379.84,139.2h1.21v-1.04h-1.21V139.2z M382.95,139.2h1.04v-1.04h-1.04V139.2z
		 M386.07,139.2h1.04v-1.04h-1.04V139.2z M389,139.2h1.21v-1.04H389V139.2z M392.11,139.2h1.22v-1.04h-1.22V139.2z M361.35,142.31
		h1.21v-1.04h-1.21V142.31z M364.46,142.31h1.21v-1.04h-1.21V142.31z M367.57,142.31h1.04v-1.04h-1.04V142.31z M370.68,142.31h1.04
		v-1.04h-1.04V142.31z M373.62,142.31h1.21v-1.04h-1.21V142.31z M376.73,142.31h1.21v-1.04h-1.21V142.31z M379.84,142.31h1.21v-1.04
		h-1.21V142.31z M382.95,142.31h1.04v-1.04h-1.04V142.31z M386.07,142.31h1.04v-1.04h-1.04V142.31z M358.4,145.42v1.9h-0.17v1.21
		h0.17v1.9h-0.17v1.21h0.17v1.89h-0.17v1.04h0.17v2.08h-0.17v1.04h0.17v1.9h-0.17v1.21h0.17v1.91h-0.17v1.21h0.17v1.9h-0.17v1.21
		h0.17v1.9h-0.17v1.2h0.17v1.39h-8.29l2.42-7.6h0.69v-1.21h-0.35l2.43-8.12h1.04v-1.04h-0.7l0.7-1.89l0,0v-0.17l1.89-6.22v0.17
		H358.4z M355.12,157.69h1.21v-1.04h-1.21V157.69z M355.12,160.79h1.21v-1.21h-1.21V160.79z M355.12,163.9h1.21v-1.21h-1.21V163.9z
		 M352.19,167.01h1.04v-1.21h-1.04V167.01z M355.12,167.01h1.21v-1.21h-1.21V167.01z M352.19,170.12h1.04v-1.2h-1.04V170.12z
		 M355.12,170.12h1.21v-1.2h-1.21V170.12z"/>
	<g>
		<path class="st0" d="M348.49,171.67h-17.11V83.75H372c1.21,0,2.42,0,3.63,0.18l-6.57,21.25h-11.92v16.93h6.74L348.49,171.67z"/>
	</g>
	<path class="st0" d="M468.3,174.44c-2.59,0-5.18-0.17-7.6-0.52h0.86v-1.21h-1.21v1.04c-0.69,0-1.21-0.18-1.9-0.35v-0.69h-1.21v0.52
		c-0.51-0.17-1.04-0.35-1.72-0.52l1.72-5.7v0.69h1.21v-1.21h-1.03l0.69-1.9h0.34v-1.04l0,0l2.43-8.11h0.69v-1.21h-0.17l1.38-4.67
		c1.73,0.52,3.63,0.69,5.53,0.69c2.59,0,5.18-0.34,7.43-1.38v0.35h1.22v-0.87c1.9-0.87,3.45-1.9,5.01-3.28v1.03h1.21v-1.03h-1.04
		c0.52-0.52,1.04-1.04,1.38-1.56c1.9-2.07,3.46-4.49,4.49-7.08l0.17-0.34v0.86h1.04v-1.21h-1.04c0.34-0.69,0.51-1.21,0.69-1.9h0.35
		v-1.21h-0.17c0.34-1.56,0.52-3.11,0.52-4.84c0-1.38-0.17-2.76-0.34-3.97v-0.35l0,0c-0.17-0.68-0.35-1.38-0.52-1.89h0.52v-1.21
		h-0.87c0-0.34-0.17-0.69-0.34-1.04c-0.52-1.38-1.21-2.76-1.9-3.97l0,0v-1.21h-0.87c-0.52-0.69-1.04-1.38-1.73-2.07l-0.35-0.34
		v-0.52h-0.69c-0.69-0.86-1.56-1.38-2.43-2.07v-1.04h-1.21v0.34c-0.69-0.52-1.38-0.87-2.07-1.21c-0.34,0-0.52-0.17-0.69-0.34
		l0.17-0.7h0.69V105h-0.35l2.59-8.11h0.86v-1.04h-0.52l2.42-8.12h1.21v-1.21h-0.87l0.69-1.9h0.17v-0.35v-0.52
		c0.69,0.34,1.21,0.52,1.9,0.69v0.18h0.34l1.04,0.34c1.56,0.87,3.11,1.55,4.67,2.42v0.34h0.52c1.04,0.52,2.07,1.21,3.11,1.91h-0.52
		v1.21h1.22v-0.69c2.07,1.38,3.97,3.11,5.87,4.84c2.07,2.08,3.98,4.49,5.7,6.91h-0.52v1.21h1.21l0,0c1.04,1.55,1.9,3.28,2.76,5.01
		h-0.86v1.04h1.21v-0.35l0.52,1.04c0.52,1.38,1.04,2.94,1.56,4.32h-0.18v1.21h0.52c0.17,0.69,0.34,1.38,0.52,1.9h-1.04v1.21h1.21
		v-0.51c0.69,3.28,1.04,6.56,1.04,10.02c0,3.63-0.52,7.43-1.39,10.88h-0.86v1.21h0.69c-0.17,0.52-0.34,1.21-0.69,1.91l0,0v0.17
		c-0.34,1.38-0.86,2.59-1.38,3.97c-0.35,0.69-0.69,1.38-1.04,1.9h-0.69v1.21h0.17c-0.86,1.72-1.9,3.45-2.94,5.01h-0.34v0.34
		c-0.52,0.87-1.21,1.89-2.08,2.76h-0.86v1.21c-0.69,0.69-1.38,1.38-2.07,2.08v-0.17h-1.04v1.03h0.17c-0.86,0.69-1.55,1.39-2.25,2.07
		h-1.04v0.69c-2.59,2.08-5.36,3.8-8.47,5.35h-0.69v0.34c-0.69,0.35-1.21,0.52-1.73,0.86c-2.07,0.87-4.32,1.56-6.4,2.08v-0.18h-1.21
		v0.52c-0.69,0.17-1.21,0.34-1.9,0.34v-0.86h-1.22v1.21C473.31,174.27,470.9,174.44,468.3,174.44L468.3,174.44z M485.07,87.72h1.04
		v-1.21h-1.04V87.72z M488.18,87.72h1.04v-1.21h-1.04V87.72z M481.95,90.83h1.21v-1.21h-1.21V90.83z M485.07,90.83h1.04v-1.21h-1.04
		V90.83z M488.18,90.83h1.04v-1.21h-1.04V90.83z M491.12,90.83h1.21v-1.21h-1.21V90.83z M481.95,93.77h1.21v-1.03h-1.21V93.77z
		 M485.07,93.77h1.04v-1.03h-1.04V93.77z M488.18,93.77h1.04v-1.03h-1.04V93.77z M491.12,93.77h1.21v-1.03h-1.21V93.77z
		 M494.23,93.77h1.22v-1.03h-1.22V93.77z M497.34,93.77h1.21v-1.03h-1.21V93.77z M481.95,96.88h1.21v-1.04h-1.21V96.88z
		 M485.07,96.88h1.04v-1.04h-1.04V96.88z M488.18,96.88h1.04v-1.04h-1.04V96.88z M491.12,96.88h1.21v-1.04h-1.21V96.88z
		 M494.23,96.88h1.22v-1.04h-1.22V96.88z M497.34,96.88h1.21v-1.04h-1.21V96.88z M500.45,96.88h1.04v-1.04h-1.04V96.88z
		 M478.84,99.99h1.21v-1.21h-1.21V99.99z M481.95,99.99h1.21v-1.21h-1.21V99.99z M485.07,99.99h1.04v-1.21h-1.04V99.99z
		 M488.18,99.99h1.04v-1.21h-1.04V99.99z M491.12,99.99h1.21v-1.21h-1.21V99.99z M494.23,99.99h1.22v-1.21h-1.22V99.99z
		 M497.34,99.99h1.21v-1.21h-1.21V99.99z M500.45,99.99h1.04v-1.21h-1.04V99.99z M503.56,99.99h1.04v-1.21h-1.04V99.99z
		 M478.84,103.1h1.21v-1.21h-1.21V103.1z M481.95,103.1h1.21v-1.21h-1.21V103.1z M485.07,103.1h1.04v-1.21h-1.04V103.1z
		 M488.18,103.1h1.04v-1.21h-1.04V103.1z M491.12,103.1h1.21v-1.21h-1.21V103.1z M494.23,103.1h1.22v-1.21h-1.22V103.1z
		 M497.34,103.1h1.21v-1.21h-1.21V103.1z M500.45,103.1h1.04v-1.21h-1.04V103.1z M503.56,103.1h1.04v-1.21h-1.04V103.1z
		 M478.84,106.2h1.21V105h-1.21V106.2z M481.95,106.2h1.21V105h-1.21V106.2z M485.07,106.2h1.04V105h-1.04V106.2z M488.18,106.2
		h1.04V105h-1.04V106.2z M491.12,106.2h1.21V105h-1.21V106.2z M494.23,106.2h1.22V105h-1.22V106.2z M497.34,106.2h1.21V105h-1.21
		V106.2z M500.45,106.2h1.04V105h-1.04V106.2z M503.56,106.2h1.04V105h-1.04V106.2z M506.5,106.2h1.21V105h-1.21V106.2z
		 M481.95,109.14h1.21v-1.04h-1.21V109.14z M485.07,109.14h1.04v-1.04h-1.04V109.14z M488.18,109.14h1.04v-1.04h-1.04V109.14z
		 M491.12,109.14h1.21v-1.04h-1.21V109.14z M494.23,109.14h1.22v-1.04h-1.22V109.14z M497.34,109.14h1.21v-1.04h-1.21V109.14z
		 M500.45,109.14h1.04v-1.04h-1.04V109.14z M503.56,109.14h1.04v-1.04h-1.04V109.14z M506.5,109.14h1.21v-1.04h-1.21V109.14z
		 M485.07,112.25h1.04v-1.04h-1.04V112.25z M488.18,112.25h1.04v-1.04h-1.04V112.25z M491.12,112.25h1.21v-1.04h-1.21V112.25z
		 M494.23,112.25h1.22v-1.04h-1.22V112.25z M497.34,112.25h1.21v-1.04h-1.21V112.25z M500.45,112.25h1.04v-1.04h-1.04V112.25z
		 M503.56,112.25h1.04v-1.04h-1.04V112.25z M506.5,112.25h1.21v-1.04h-1.21V112.25z M509.61,112.25h1.21v-1.04h-1.21V112.25z
		 M488.18,115.36h1.04v-1.21h-1.04V115.36z M491.12,115.36h1.21v-1.21h-1.21V115.36z M494.23,115.36h1.22v-1.21h-1.22V115.36z
		 M497.34,115.36h1.21v-1.21h-1.21V115.36z M500.45,115.36h1.04v-1.21h-1.04V115.36z M503.56,115.36h1.04v-1.21h-1.04V115.36z
		 M506.5,115.36h1.21v-1.21h-1.21V115.36z M509.61,115.36h1.21v-1.21h-1.21V115.36z M488.18,118.47h1.04v-1.21h-1.04V118.47z
		 M491.12,118.47h1.21v-1.21h-1.21V118.47z M494.23,118.47h1.22v-1.21h-1.22V118.47z M497.34,118.47h1.21v-1.21h-1.21V118.47z
		 M500.45,118.47h1.04v-1.21h-1.04V118.47z M503.56,118.47h1.04v-1.21h-1.04V118.47z M506.5,118.47h1.21v-1.21h-1.21V118.47z
		 M509.61,118.47h1.21v-1.21h-1.21V118.47z M491.12,121.58h1.21v-1.21h-1.21V121.58z M494.23,121.58h1.22v-1.21h-1.22V121.58z
		 M497.34,121.58h1.21v-1.21h-1.21V121.58z M500.45,121.58h1.04v-1.21h-1.04V121.58z M503.56,121.58h1.04v-1.21h-1.04V121.58z
		 M506.5,121.58h1.21v-1.21h-1.21V121.58z M509.61,121.58h1.21v-1.21h-1.21V121.58z M512.72,121.58h1.21v-1.21h-1.21V121.58z
		 M491.12,124.69h1.21v-1.21h-1.21V124.69z M494.23,124.69h1.22v-1.21h-1.22V124.69z M497.34,124.69h1.21v-1.21h-1.21V124.69z
		 M500.45,124.69h1.04v-1.21h-1.04V124.69z M503.56,124.69h1.04v-1.21h-1.04V124.69z M506.5,124.69h1.21v-1.21h-1.21V124.69z
		 M509.61,124.69h1.21v-1.21h-1.21V124.69z M512.72,124.69h1.21v-1.21h-1.21V124.69z M491.12,127.63h1.21v-1.04h-1.21V127.63z
		 M494.23,127.63h1.22v-1.04h-1.22V127.63z M497.34,127.63h1.21v-1.04h-1.21V127.63z M500.45,127.63h1.04v-1.04h-1.04V127.63z
		 M503.56,127.63h1.04v-1.04h-1.04V127.63z M506.5,127.63h1.21v-1.04h-1.21V127.63z M509.61,127.63h1.21v-1.04h-1.21V127.63z
		 M512.72,127.63h1.21v-1.04h-1.21V127.63z M491.12,130.73h1.21v-1.03h-1.21V130.73z M494.23,130.73h1.22v-1.03h-1.22V130.73z
		 M497.34,130.73h1.21v-1.03h-1.21V130.73z M500.45,130.73h1.04v-1.03h-1.04V130.73z M503.56,130.73h1.04v-1.03h-1.04V130.73z
		 M506.5,130.73h1.21v-1.03h-1.21V130.73z M509.61,130.73h1.21v-1.03h-1.21V130.73z M512.72,130.73h1.21v-1.03h-1.21V130.73z
		 M491.12,133.84h1.21v-1.21h-1.21V133.84z M494.23,133.84h1.22v-1.21h-1.22V133.84z M497.34,133.84h1.21v-1.21h-1.21V133.84z
		 M500.45,133.84h1.04v-1.21h-1.04V133.84z M503.56,133.84h1.04v-1.21h-1.04V133.84z M506.5,133.84h1.21v-1.21h-1.21V133.84z
		 M509.61,133.84h1.21v-1.21h-1.21V133.84z M512.72,133.84h1.21v-1.21h-1.21V133.84z M491.12,136.95h1.21v-1.21h-1.21V136.95z
		 M494.23,136.95h1.22v-1.21h-1.22V136.95z M497.34,136.95h1.21v-1.21h-1.21V136.95z M500.45,136.95h1.04v-1.21h-1.04V136.95z
		 M503.56,136.95h1.04v-1.21h-1.04V136.95z M506.5,136.95h1.21v-1.21h-1.21V136.95z M509.61,136.95h1.21v-1.21h-1.21V136.95z
		 M512.72,136.95h1.21v-1.21h-1.21V136.95z M488.18,140.06h1.04v-1.21h-1.04V140.06z M491.12,140.06h1.21v-1.21h-1.21V140.06z
		 M494.23,140.06h1.22v-1.21h-1.22V140.06z M497.34,140.06h1.21v-1.21h-1.21V140.06z M500.45,140.06h1.04v-1.21h-1.04V140.06z
		 M503.56,140.06h1.04v-1.21h-1.04V140.06z M506.5,140.06h1.21v-1.21h-1.21V140.06z M509.61,140.06h1.21v-1.21h-1.21V140.06z
		 M485.07,143h1.04v-1.03h-1.04V143z M488.18,143h1.04v-1.03h-1.04V143z M491.12,143h1.21v-1.03h-1.21V143z M494.23,143h1.22v-1.03
		h-1.22V143z M497.34,143h1.21v-1.03h-1.21V143z M500.45,143h1.04v-1.03h-1.04V143z M503.56,143h1.04v-1.03h-1.04V143z M506.5,143
		h1.21v-1.03h-1.21V143z M509.61,143h1.21v-1.03h-1.21V143z M485.07,146.11h1.04v-1.03h-1.04V146.11z M488.18,146.11h1.04v-1.03
		h-1.04V146.11z M491.12,146.11h1.21v-1.03h-1.21V146.11z M494.23,146.11h1.22v-1.03h-1.22V146.11z M497.34,146.11h1.21v-1.03h-1.21
		V146.11z M500.45,146.11h1.04v-1.03h-1.04V146.11z M503.56,146.11h1.04v-1.03h-1.04V146.11z M506.5,146.11h1.21v-1.03h-1.21V146.11
		z M509.61,146.11h1.21v-1.03h-1.21V146.11z M478.84,149.22h1.21v-1.21h-1.21V149.22z M481.95,149.22h1.21v-1.21h-1.21V149.22z
		 M485.07,149.22h1.04v-1.21h-1.04V149.22z M488.18,149.22h1.04v-1.21h-1.04V149.22z M491.12,149.22h1.21v-1.21h-1.21V149.22z
		 M494.23,149.22h1.22v-1.21h-1.22V149.22z M497.34,149.22h1.21v-1.21h-1.21V149.22z M500.45,149.22h1.04v-1.21h-1.04V149.22z
		 M503.56,149.22h1.04v-1.21h-1.04V149.22z M506.5,149.22h1.21v-1.21h-1.21V149.22z M463.46,152.33h1.21v-1.21h-1.21V152.33z
		 M466.58,152.33h1.21v-1.21h-1.21V152.33z M469.68,152.33h1.04v-1.21h-1.04V152.33z M472.63,152.33h1.21v-1.21h-1.21V152.33z
		 M475.73,152.33h1.22v-1.21h-1.22V152.33z M478.84,152.33h1.21v-1.21h-1.21V152.33z M481.95,152.33h1.21v-1.21h-1.21V152.33z
		 M485.07,152.33h1.04v-1.21h-1.04V152.33z M488.18,152.33h1.04v-1.21h-1.04V152.33z M491.12,152.33h1.21v-1.21h-1.21V152.33z
		 M494.23,152.33h1.22v-1.21h-1.22V152.33z M497.34,152.33h1.21v-1.21h-1.21V152.33z M500.45,152.33h1.04v-1.21h-1.04V152.33z
		 M503.56,152.33h1.04v-1.21h-1.04V152.33z M506.5,152.33h1.21v-1.21h-1.21V152.33z M463.46,155.44h1.21v-1.21h-1.21V155.44z
		 M466.58,155.44h1.21v-1.21h-1.21V155.44z M469.68,155.44h1.04v-1.21h-1.04V155.44z M472.63,155.44h1.21v-1.21h-1.21V155.44z
		 M475.73,155.44h1.22v-1.21h-1.22V155.44z M478.84,155.44h1.21v-1.21h-1.21V155.44z M481.95,155.44h1.21v-1.21h-1.21V155.44z
		 M485.07,155.44h1.04v-1.21h-1.04V155.44z M488.18,155.44h1.04v-1.21h-1.04V155.44z M491.12,155.44h1.21v-1.21h-1.21V155.44z
		 M494.23,155.44h1.22v-1.21h-1.22V155.44z M497.34,155.44h1.21v-1.21h-1.21V155.44z M500.45,155.44h1.04v-1.21h-1.04V155.44z
		 M503.56,155.44h1.04v-1.21h-1.04V155.44z M460.35,158.54h1.21v-1.21h-1.21V158.54z M463.46,158.54h1.21v-1.21h-1.21V158.54z
		 M466.58,158.54h1.21v-1.21h-1.21V158.54z M469.68,158.54h1.04v-1.21h-1.04V158.54z M472.63,158.54h1.21v-1.21h-1.21V158.54z
		 M475.73,158.54h1.22v-1.21h-1.22V158.54z M478.84,158.54h1.21v-1.21h-1.21V158.54z M481.95,158.54h1.21v-1.21h-1.21V158.54z
		 M485.07,158.54h1.04v-1.21h-1.04V158.54z M488.18,158.54h1.04v-1.21h-1.04V158.54z M491.12,158.54h1.21v-1.21h-1.21V158.54z
		 M494.23,158.54h1.22v-1.21h-1.22V158.54z M497.34,158.54h1.21v-1.21h-1.21V158.54z M500.45,158.54h1.04v-1.21h-1.04V158.54z
		 M460.35,161.48h1.21v-1.03h-1.21V161.48z M463.46,161.48h1.21v-1.03h-1.21V161.48z M466.58,161.48h1.21v-1.03h-1.21V161.48z
		 M469.68,161.48h1.04v-1.03h-1.04V161.48z M472.63,161.48h1.21v-1.03h-1.21V161.48z M475.73,161.48h1.22v-1.03h-1.22V161.48z
		 M478.84,161.48h1.21v-1.03h-1.21V161.48z M481.95,161.48h1.21v-1.03h-1.21V161.48z M485.07,161.48h1.04v-1.03h-1.04V161.48z
		 M488.18,161.48h1.04v-1.03h-1.04V161.48z M491.12,161.48h1.21v-1.03h-1.21V161.48z M494.23,161.48h1.22v-1.03h-1.22V161.48z
		 M497.34,161.48h1.21v-1.03h-1.21V161.48z M460.35,164.59h1.21v-1.04h-1.21V164.59z M463.46,164.59h1.21v-1.04h-1.21V164.59z
		 M466.58,164.59h1.21v-1.04h-1.21V164.59z M469.68,164.59h1.04v-1.04h-1.04V164.59z M472.63,164.59h1.21v-1.04h-1.21V164.59z
		 M475.73,164.59h1.22v-1.04h-1.22V164.59z M478.84,164.59h1.21v-1.04h-1.21V164.59z M481.95,164.59h1.21v-1.04h-1.21V164.59z
		 M485.07,164.59h1.04v-1.04h-1.04V164.59z M488.18,164.59h1.04v-1.04h-1.04V164.59z M491.12,164.59h1.21v-1.04h-1.21V164.59z
		 M494.23,164.59h1.22v-1.04h-1.22V164.59z M460.35,167.7h1.21v-1.21h-1.21V167.7z M463.46,167.7h1.21v-1.21h-1.21V167.7z
		 M466.58,167.7h1.21v-1.21h-1.21V167.7z M469.68,167.7h1.04v-1.21h-1.04V167.7z M472.63,167.7h1.21v-1.21h-1.21V167.7z
		 M475.73,167.7h1.22v-1.21h-1.22V167.7z M478.84,167.7h1.21v-1.21h-1.21V167.7z M481.95,167.7h1.21v-1.21h-1.21V167.7z
		 M485.07,167.7h1.04v-1.21h-1.04V167.7z M488.18,167.7h1.04v-1.21h-1.04V167.7z M491.12,167.7h1.21v-1.21h-1.21V167.7z
		 M457.24,170.8h1.21v-1.2h-1.21V170.8z M460.35,170.8h1.21v-1.2h-1.21V170.8z M463.46,170.8h1.21v-1.2h-1.21V170.8z M466.58,170.8
		h1.21v-1.2h-1.21V170.8z M469.68,170.8h1.04v-1.2h-1.04V170.8z M472.63,170.8h1.21v-1.2h-1.21V170.8z M475.73,170.8h1.22v-1.2
		h-1.22V170.8z M478.84,170.8h1.21v-1.2h-1.21V170.8z M481.95,170.8h1.21v-1.2h-1.21V170.8z M485.07,170.8h1.04v-1.2h-1.04V170.8z
		 M463.46,173.92h1.21v-1.21h-1.21V173.92z M466.58,173.92h1.21v-1.21h-1.21V173.92z M469.68,173.92h1.04v-1.21h-1.04V173.92z
		 M472.63,173.92h1.21v-1.21h-1.21V173.92z"/>
	<path class="st0" d="M581.96,171.67l-0.35-0.7v-0.17h-0.17l-1.03-1.89h1.21v-1.21h-1.21v1.04l-1.9-3.63v-0.52h-0.17l-2.94-5.53
		v-0.52h-0.34l-2.76-5.35v-0.87h-0.35l-2.59-5.18v-0.86h-0.69l-0.69-1.55h-15.56v26.95h-1.55v-0.87h-1.21v0.87h-1.9v-0.87h-1.21
		v0.87h-1.9v-0.87h-1.21v0.87h-1.38l1.73-5.88h0.86v-1.21h-0.52l2.59-7.94h1.04v-1.21h-0.7l0.7-1.9l0,0v-0.17l1.9-6.22v0.17h1.21
		v-1.04h-0.87l0.52-2.07h0.34v-0.69l1.9-6.22v0.86h1.03v-1.21h-1.03l0.69-1.91h0.35v-1.21l0,0l2.42-7.94h0.69v-1.21h-0.17l1.04-3.63
		h7.61c2.25,0,4.15-0.7,5.88-2.42v1.03h1.04v-1.21h-0.86c1.55-1.55,2.42-3.62,2.42-5.87c0-2.07-0.52-3.8-1.9-5.19h0.35v-1.21h-1.04
		v0.35c-1.56-1.38-3.46-2.25-5.53-2.25h0.52v-1.21h-1.21v1.21h-1.9v-0.34l1.9-6.22v0.35h1.21v-1.04h-1.04l0.69-2.07h0.34v-1.04
		l1.9-6.22v1.21h1.21v-1.21h-1.21l0.52-1.9h0.69v-1.21h-0.17l0.17-0.86h3.28c1.9,0,4.15,0.34,6.22,0.86
		c0.52,0.17,1.04,0.35,1.55,0.52v0.69h1.21v-0.35c1.21,0.35,2.42,0.87,3.63,1.56c0.52,0.17,0.86,0.51,1.38,0.69l0,0v1.21h1.04v-0.52
		c1.21,0.69,2.25,1.38,3.28,2.25c1.72,1.38,3.11,3.11,4.49,4.84c0.17,0.51,0.52,1.03,0.87,1.55h-0.52v1.04h1.21
		c0.69,1.55,1.39,2.93,1.9,4.49v0.52l0,0v1.21h0.34c0.18,0.69,0.35,1.21,0.35,1.9h-0.69v1.21h0.87c0.17,0.52,0.17,1.21,0.17,1.9
		h-1.04v1.04h1.21v0.17c0,0.69-0.17,1.21-0.17,1.9h-1.04v1.03h1.04c-0.17,0.7-0.17,1.39-0.34,1.91h-0.69v1.21h0.52
		c-0.52,2.08-1.38,4.15-2.25,6.05c-0.52,0.68-0.86,1.38-1.22,2.07h-0.17v0.17c-0.69,1.04-1.38,1.89-2.08,2.93h-1.04v1.04
		c-0.51,0.69-1.21,1.39-1.9,1.9h-1.04v0.86l-0.69,0.52l1.04,1.73h-0.34v1.21h0.86l2.59,5.01h-0.52v1.21h1.21l2.6,5.01h-0.69v1.04
		h1.21l0,0l2.6,5.01h-0.69v1.21h1.21v-0.34l2.77,5.35H602v1.04h1.04v-0.52l2.94,5.53h-0.86v1.21h1.04v-0.68l1.9,3.63v0.17h0.17
		l1.38,2.76h-1.21l0.69-0.87h-1.03v0.87h-1.9v-0.87h-1.04v0.87h-2.08v-0.87H602v0.87h-1.9v-0.87h-1.21v0.87h-1.9v-0.87h-1.21v0.87
		h-1.91v-0.87h-1.21v0.87h-1.9v-0.87h-1.04v0.87h-2.07v-0.87h-1.04v0.87h-1.91v-0.87h-1.21v0.87H581.96z M571.24,85.82h1.04v-1.21
		h-1.04V85.82z M574.35,85.82h1.03v-1.21h-1.03V85.82z M577.29,85.82h1.21v-1.21h-1.21V85.82z M571.24,88.93h1.04v-1.21h-1.04V88.93
		z M574.35,88.93h1.03v-1.21h-1.03V88.93z M577.29,88.93h1.21v-1.21h-1.21V88.93z M580.4,88.93h1.21v-1.21h-1.21V88.93z
		 M583.51,88.93h1.21v-1.21h-1.21V88.93z M568.13,92.04h1.21v-1.21h-1.21V92.04z M571.24,92.04h1.04v-1.21h-1.04V92.04z
		 M574.35,92.04h1.03v-1.21h-1.03V92.04z M577.29,92.04h1.21v-1.21h-1.21V92.04z M580.4,92.04h1.21v-1.21h-1.21V92.04z
		 M583.51,92.04h1.21v-1.21h-1.21V92.04z M586.62,92.04h1.04v-1.21h-1.04V92.04z M589.73,92.04h1.04v-1.21h-1.04V92.04z
		 M568.13,94.98h1.21v-1.04h-1.21V94.98z M571.24,94.98h1.04v-1.04h-1.04V94.98z M574.35,94.98h1.03v-1.04h-1.03V94.98z
		 M577.29,94.98h1.21v-1.04h-1.21V94.98z M580.4,94.98h1.21v-1.04h-1.21V94.98z M583.51,94.98h1.21v-1.04h-1.21V94.98z
		 M586.62,94.98h1.04v-1.04h-1.04V94.98z M589.73,94.98h1.04v-1.04h-1.04V94.98z M592.67,94.98h1.21v-1.04h-1.21V94.98z
		 M568.13,98.09h1.21v-1.04h-1.21V98.09z M571.24,98.09h1.04v-1.04h-1.04V98.09z M574.35,98.09h1.03v-1.04h-1.03V98.09z
		 M577.29,98.09h1.21v-1.04h-1.21V98.09z M580.4,98.09h1.21v-1.04h-1.21V98.09z M583.51,98.09h1.21v-1.04h-1.21V98.09z
		 M586.62,98.09h1.04v-1.04h-1.04V98.09z M589.73,98.09h1.04v-1.04h-1.04V98.09z M592.67,98.09h1.21v-1.04h-1.21V98.09z
		 M565.01,101.2h1.21v-1.21h-1.21V101.2z M568.13,101.2h1.21v-1.21h-1.21V101.2z M571.24,101.2h1.04v-1.21h-1.04V101.2z
		 M574.35,101.2h1.03v-1.21h-1.03V101.2z M577.29,101.2h1.21v-1.21h-1.21V101.2z M580.4,101.2h1.21v-1.21h-1.21V101.2z
		 M583.51,101.2h1.21v-1.21h-1.21V101.2z M586.62,101.2h1.04v-1.21h-1.04V101.2z M589.73,101.2h1.04v-1.21h-1.04V101.2z
		 M592.67,101.2h1.21v-1.21h-1.21V101.2z M595.78,101.2h1.21v-1.21h-1.21V101.2z M568.13,104.31h1.21v-1.21h-1.21V104.31z
		 M571.24,104.31h1.04v-1.21h-1.04V104.31z M574.35,104.31h1.03v-1.21h-1.03V104.31z M577.29,104.31h1.21v-1.21h-1.21V104.31z
		 M580.4,104.31h1.21v-1.21h-1.21V104.31z M583.51,104.31h1.21v-1.21h-1.21V104.31z M586.62,104.31h1.04v-1.21h-1.04V104.31z
		 M589.73,104.31h1.04v-1.21h-1.04V104.31z M592.67,104.31h1.21v-1.21h-1.21V104.31z M595.78,104.31h1.21v-1.21h-1.21V104.31z
		 M574.35,107.41h1.03v-1.21h-1.03V107.41z M577.29,107.41h1.21v-1.21h-1.21V107.41z M580.4,107.41h1.21v-1.21h-1.21V107.41z
		 M583.51,107.41h1.21v-1.21h-1.21V107.41z M586.62,107.41h1.04v-1.21h-1.04V107.41z M589.73,107.41h1.04v-1.21h-1.04V107.41z
		 M592.67,107.41h1.21v-1.21h-1.21V107.41z M595.78,107.41h1.21v-1.21h-1.21V107.41z M574.35,110.35h1.03v-1.04h-1.03V110.35z
		 M577.29,110.35h1.21v-1.04h-1.21V110.35z M580.4,110.35h1.21v-1.04h-1.21V110.35z M583.51,110.35h1.21v-1.04h-1.21V110.35z
		 M586.62,110.35h1.04v-1.04h-1.04V110.35z M589.73,110.35h1.04v-1.04h-1.04V110.35z M592.67,110.35h1.21v-1.04h-1.21V110.35z
		 M595.78,110.35h1.21v-1.04h-1.21V110.35z M574.35,113.46h1.03v-1.03h-1.03V113.46z M577.29,113.46h1.21v-1.03h-1.21V113.46z
		 M580.4,113.46h1.21v-1.03h-1.21V113.46z M583.51,113.46h1.21v-1.03h-1.21V113.46z M586.62,113.46h1.04v-1.03h-1.04V113.46z
		 M589.73,113.46h1.04v-1.03h-1.04V113.46z M592.67,113.46h1.21v-1.03h-1.21V113.46z M595.78,113.46h1.21v-1.03h-1.21V113.46z
		 M574.35,116.57h1.03v-1.21h-1.03V116.57z M577.29,116.57h1.21v-1.21h-1.21V116.57z M580.4,116.57h1.21v-1.21h-1.21V116.57z
		 M583.51,116.57h1.21v-1.21h-1.21V116.57z M586.62,116.57h1.04v-1.21h-1.04V116.57z M589.73,116.57h1.04v-1.21h-1.04V116.57z
		 M592.67,116.57h1.21v-1.21h-1.21V116.57z M595.78,116.57h1.21v-1.21h-1.21V116.57z M574.35,119.68h1.03v-1.21h-1.03V119.68z
		 M577.29,119.68h1.21v-1.21h-1.21V119.68z M580.4,119.68h1.21v-1.21h-1.21V119.68z M583.51,119.68h1.21v-1.21h-1.21V119.68z
		 M586.62,119.68h1.04v-1.21h-1.04V119.68z M589.73,119.68h1.04v-1.21h-1.04V119.68z M592.67,119.68h1.21v-1.21h-1.21V119.68z
		 M595.78,119.68h1.21v-1.21h-1.21V119.68z M558.79,122.79H560v-1.21h-1.21V122.79z M561.9,122.79h1.21v-1.21h-1.21V122.79z
		 M565.01,122.79h1.21v-1.21h-1.21V122.79z M568.13,122.79h1.21v-1.21h-1.21V122.79z M571.24,122.79h1.04v-1.21h-1.04V122.79z
		 M574.35,122.79h1.03v-1.21h-1.03V122.79z M577.29,122.79h1.21v-1.21h-1.21V122.79z M580.4,122.79h1.21v-1.21h-1.21V122.79z
		 M583.51,122.79h1.21v-1.21h-1.21V122.79z M586.62,122.79h1.04v-1.21h-1.04V122.79z M589.73,122.79h1.04v-1.21h-1.04V122.79z
		 M592.67,122.79h1.21v-1.21h-1.21V122.79z M595.78,122.79h1.21v-1.21h-1.21V122.79z M558.79,125.9H560v-1.21h-1.21V125.9z
		 M561.9,125.9h1.21v-1.21h-1.21V125.9z M565.01,125.9h1.21v-1.21h-1.21V125.9z M568.13,125.9h1.21v-1.21h-1.21V125.9z
		 M571.24,125.9h1.04v-1.21h-1.04V125.9z M574.35,125.9h1.03v-1.21h-1.03V125.9z M577.29,125.9h1.21v-1.21h-1.21V125.9z
		 M580.4,125.9h1.21v-1.21h-1.21V125.9z M583.51,125.9h1.21v-1.21h-1.21V125.9z M586.62,125.9h1.04v-1.21h-1.04V125.9z
		 M589.73,125.9h1.04v-1.21h-1.04V125.9z M592.67,125.9h1.21v-1.21h-1.21V125.9z M555.86,128.83h1.03v-1.04h-1.03V128.83z
		 M558.79,128.83H560v-1.04h-1.21V128.83z M561.9,128.83h1.21v-1.04h-1.21V128.83z M565.01,128.83h1.21v-1.04h-1.21V128.83z
		 M568.13,128.83h1.21v-1.04h-1.21V128.83z M571.24,128.83h1.04v-1.04h-1.04V128.83z M574.35,128.83h1.03v-1.04h-1.03V128.83z
		 M577.29,128.83h1.21v-1.04h-1.21V128.83z M580.4,128.83h1.21v-1.04h-1.21V128.83z M583.51,128.83h1.21v-1.04h-1.21V128.83z
		 M586.62,128.83h1.04v-1.04h-1.04V128.83z M589.73,128.83h1.04v-1.04h-1.04V128.83z M555.86,131.94h1.03v-1.2h-1.03V131.94z
		 M558.79,131.94H560v-1.2h-1.21V131.94z M561.9,131.94h1.21v-1.2h-1.21V131.94z M565.01,131.94h1.21v-1.2h-1.21V131.94z
		 M568.13,131.94h1.21v-1.2h-1.21V131.94z M571.24,131.94h1.04v-1.2h-1.04V131.94z M574.35,131.94h1.03v-1.2h-1.03V131.94z
		 M577.29,131.94h1.21v-1.2h-1.21V131.94z M580.4,131.94h1.21v-1.2h-1.21V131.94z M583.51,131.94h1.21v-1.2h-1.21V131.94z
		 M586.62,131.94h1.04v-1.2h-1.04V131.94z M555.86,135.05h1.03v-1.21h-1.03V135.05z M558.79,135.05H560v-1.21h-1.21V135.05z
		 M561.9,135.05h1.21v-1.21h-1.21V135.05z M565.01,135.05h1.21v-1.21h-1.21V135.05z M568.13,135.05h1.21v-1.21h-1.21V135.05z
		 M571.24,135.05h1.04v-1.21h-1.04V135.05z M574.35,135.05h1.03v-1.21h-1.03V135.05z M577.29,135.05h1.21v-1.21h-1.21V135.05z
		 M580.4,135.05h1.21v-1.21h-1.21V135.05z M583.51,135.05h1.21v-1.21h-1.21V135.05z M586.62,135.05h1.04v-1.21h-1.04V135.05z
		 M555.86,138.16h1.03v-1.21h-1.03V138.16z M558.79,138.16H560v-1.21h-1.21V138.16z M561.9,138.16h1.21v-1.21h-1.21V138.16z
		 M565.01,138.16h1.21v-1.21h-1.21V138.16z M568.13,138.16h1.21v-1.21h-1.21V138.16z M571.24,138.16h1.04v-1.21h-1.04V138.16z
		 M574.35,138.16h1.03v-1.21h-1.03V138.16z M577.29,138.16h1.21v-1.21h-1.21V138.16z M580.4,138.16h1.21v-1.21h-1.21V138.16z
		 M583.51,138.16h1.21v-1.21h-1.21V138.16z M586.62,138.16h1.04v-1.21h-1.04V138.16z M589.73,138.16h1.04v-1.21h-1.04V138.16z
		 M552.75,141.27h1.03v-1.21h-1.03V141.27z M555.86,141.27h1.03v-1.21h-1.03V141.27z M558.79,141.27H560v-1.21h-1.21V141.27z
		 M561.9,141.27h1.21v-1.21h-1.21V141.27z M565.01,141.27h1.21v-1.21h-1.21V141.27z M568.13,141.27h1.21v-1.21h-1.21V141.27z
		 M571.24,141.27h1.04v-1.21h-1.04V141.27z M574.35,141.27h1.03v-1.21h-1.03V141.27z M577.29,141.27h1.21v-1.21h-1.21V141.27z
		 M580.4,141.27h1.21v-1.21h-1.21V141.27z M583.51,141.27h1.21v-1.21h-1.21V141.27z M586.62,141.27h1.04v-1.21h-1.04V141.27z
		 M589.73,141.27h1.04v-1.21h-1.04V141.27z M552.75,144.21h1.03v-1.04h-1.03V144.21z M555.86,144.21h1.03v-1.04h-1.03V144.21z
		 M558.79,144.21H560v-1.04h-1.21V144.21z M561.9,144.21h1.21v-1.04h-1.21V144.21z M565.01,144.21h1.21v-1.04h-1.21V144.21z
		 M568.13,144.21h1.21v-1.04h-1.21V144.21z M571.24,144.21h1.04v-1.04h-1.04V144.21z M574.35,144.21h1.03v-1.04h-1.03V144.21z
		 M577.29,144.21h1.21v-1.04h-1.21V144.21z M580.4,144.21h1.21v-1.04h-1.21V144.21z M583.51,144.21h1.21v-1.04h-1.21V144.21z
		 M586.62,144.21h1.04v-1.04h-1.04V144.21z M589.73,144.21h1.04v-1.04h-1.04V144.21z M592.67,144.21h1.21v-1.04h-1.21V144.21z
		 M571.24,147.32h1.04v-1.04h-1.04V147.32z M574.35,147.32h1.03v-1.04h-1.03V147.32z M577.29,147.32h1.21v-1.04h-1.21V147.32z
		 M580.4,147.32h1.21v-1.04h-1.21V147.32z M583.51,147.32h1.21v-1.04h-1.21V147.32z M586.62,147.32h1.04v-1.04h-1.04V147.32z
		 M589.73,147.32h1.04v-1.04h-1.04V147.32z M592.67,147.32h1.21v-1.04h-1.21V147.32z M549.64,150.43h1.21v-1.22h-1.21V150.43z
		 M571.24,150.43h1.04v-1.22h-1.04V150.43z M574.35,150.43h1.03v-1.22h-1.03V150.43z M577.29,150.43h1.21v-1.22h-1.21V150.43z
		 M580.4,150.43h1.21v-1.22h-1.21V150.43z M583.51,150.43h1.21v-1.22h-1.21V150.43z M586.62,150.43h1.04v-1.22h-1.04V150.43z
		 M589.73,150.43h1.04v-1.22h-1.04V150.43z M592.67,150.43h1.21v-1.22h-1.21V150.43z M595.78,150.43h1.21v-1.22h-1.21V150.43z
		 M549.64,153.53h1.21v-1.21h-1.21V153.53z M574.35,153.53h1.03v-1.21h-1.03V153.53z M577.29,153.53h1.21v-1.21h-1.21V153.53z
		 M580.4,153.53h1.21v-1.21h-1.21V153.53z M583.51,153.53h1.21v-1.21h-1.21V153.53z M586.62,153.53h1.04v-1.21h-1.04V153.53z
		 M589.73,153.53h1.04v-1.21h-1.04V153.53z M592.67,153.53h1.21v-1.21h-1.21V153.53z M595.78,153.53h1.21v-1.21h-1.21V153.53z
		 M549.64,156.65h1.21v-1.21h-1.21V156.65z M574.35,156.65h1.03v-1.21h-1.03V156.65z M577.29,156.65h1.21v-1.21h-1.21V156.65z
		 M580.4,156.65h1.21v-1.21h-1.21V156.65z M583.51,156.65h1.21v-1.21h-1.21V156.65z M586.62,156.65h1.04v-1.21h-1.04V156.65z
		 M589.73,156.65h1.04v-1.21h-1.04V156.65z M592.67,156.65h1.21v-1.21h-1.21V156.65z M595.78,156.65h1.21v-1.21h-1.21V156.65z
		 M598.89,156.65h1.21v-1.21h-1.21V156.65z M546.52,159.58h1.21v-1.04h-1.21V159.58z M549.64,159.58h1.21v-1.04h-1.21V159.58z
		 M577.29,159.58h1.21v-1.04h-1.21V159.58z M580.4,159.58h1.21v-1.04h-1.21V159.58z M583.51,159.58h1.21v-1.04h-1.21V159.58z
		 M586.62,159.58h1.04v-1.04h-1.04V159.58z M589.73,159.58h1.04v-1.04h-1.04V159.58z M592.67,159.58h1.21v-1.04h-1.21V159.58z
		 M595.78,159.58h1.21v-1.04h-1.21V159.58z M598.89,159.58h1.21v-1.04h-1.21V159.58z M546.52,162.69h1.21v-1.04h-1.21V162.69z
		 M549.64,162.69h1.21v-1.04h-1.21V162.69z M577.29,162.69h1.21v-1.04h-1.21V162.69z M580.4,162.69h1.21v-1.04h-1.21V162.69z
		 M583.51,162.69h1.21v-1.04h-1.21V162.69z M586.62,162.69h1.04v-1.04h-1.04V162.69z M589.73,162.69h1.04v-1.04h-1.04V162.69z
		 M592.67,162.69h1.21v-1.04h-1.21V162.69z M595.78,162.69h1.21v-1.04h-1.21V162.69z M598.89,162.69h1.21v-1.04h-1.21V162.69z
		 M602,162.69h1.04v-1.04H602V162.69z M546.52,165.8h1.21v-1.21h-1.21V165.8z M549.64,165.8h1.21v-1.21h-1.21V165.8z M580.4,165.8
		h1.21v-1.21h-1.21V165.8z M583.51,165.8h1.21v-1.21h-1.21V165.8z M586.62,165.8h1.04v-1.21h-1.04V165.8z M589.73,165.8h1.04v-1.21
		h-1.04V165.8z M592.67,165.8h1.21v-1.21h-1.21V165.8z M595.78,165.8h1.21v-1.21h-1.21V165.8z M598.89,165.8h1.21v-1.21h-1.21V165.8
		z M602,165.8h1.04v-1.21H602V165.8z M543.41,168.91h1.21v-1.21h-1.21V168.91z M546.52,168.91h1.21v-1.21h-1.21V168.91z
		 M549.64,168.91h1.21v-1.21h-1.21V168.91z M583.51,168.91h1.21v-1.21h-1.21V168.91z M586.62,168.91h1.04v-1.21h-1.04V168.91z
		 M589.73,168.91h1.04v-1.21h-1.04V168.91z M592.67,168.91h1.21v-1.21h-1.21V168.91z M595.78,168.91h1.21v-1.21h-1.21V168.91z
		 M598.89,168.91h1.21v-1.21h-1.21V168.91z M602,168.91h1.04v-1.21H602V168.91z M605.12,168.91h1.04v-1.21h-1.04V168.91z"/>
	<g>
		<path class="st0" d="M453.15,175.13c-1.9-0.52-3.8-1.21-5.53-1.9c-5.7-2.42-10.72-5.7-14.87-10.02
			c-4.32-4.14-7.61-8.98-10.02-14.68c-2.42-5.69-3.63-11.74-3.63-18.14c0-6.39,1.21-12.43,3.63-18.13
			c2.42-5.7,5.7-10.54,10.02-14.86c4.15-4.14,9.16-7.43,14.87-9.84c5.7-2.59,11.75-3.8,18.15-3.8c5.19,0,10.2,0.87,15.04,2.42
			l-7.26,23.32c-2.42-1.03-5.02-1.55-7.78-1.55c-2.94,0-5.71,0.7-8.3,1.73c-2.76,1.21-5.01,2.93-6.91,5.01
			c-1.9,1.89-3.28,4.31-4.49,7.07c-1.04,2.6-1.73,5.53-1.73,8.47c0,3.11,0.69,5.87,1.73,8.64c1.21,2.77,2.59,5.02,4.49,7.26
			c1.9,2.08,4.15,3.63,6.91,4.84c0.87,0.52,1.9,0.87,2.77,1.04L453.15,175.13z"/>
	</g>
	<g>
		<polygon class="st0" points="540.2,171.67 524.82,171.67 524.82,83.75 567.68,83.75 561.28,104.31 550.57,104.31 550.57,121.06 
			555.93,121.06 		"/>
	</g>
	<path class="st0" d="M684.23,106.55h-22.64v0.34h-0.87v1.04h0.87v1.89h-0.87v1.21h0.87v1.9h-0.87v1.21h0.87v1.9h-0.87v1.21h0.87
		v1.9h-0.87v1.04h0.87v2.07h-0.87v1.03h0.87v1.9h-0.87v1.21h0.87v1.9h-0.87v1.21h0.87v1.9h-0.87v1.22h0.87v1.89h-0.87v1.21h0.87v1.9
		h-0.87v1.04h0.87v2.07h-0.87v1.04h0.87v1.9h-0.87v1.21h0.87v1.9h-0.87V148h0.87v1.9h-0.87v1.2h0.87v1.91h-0.87v1.03h0.87v2.08
		h-0.87v1.03h0.87v1.9h-0.87v1.21h0.87v1.9h-0.87v1.21h0.87v1.9h-0.87v1.21h0.87v1.89h-0.87v1.22h0.87v1.9h-0.87v0.18h-1.9v-0.18
		h-1.21v0.18h-1.91v-0.18h-1.21v0.18h-1.9v-0.18h-1.04v0.18h-2.07v-0.18h-1.03v0.18h-1.9v-0.18h-1.21v0.18h-1.9v-0.18h-1.21v0.18
		h-1.9v-0.18h-1.22v0.18h-1.56l1.56-5.53v0.35h1.22v-1.21h-0.87l0.52-1.9h0.35v-0.87l1.9-6.22v0.86h1.21v-1.03h-1.21l0.69-2.08h0.52
		v-1.03h-0.17l2.59-8.12h0.69v-1.21h-0.35l2.42-7.95h0.86v-1.21h-0.52l2.59-8.11h1.04v-1.21h-0.69l0.52-1.9h0.18v-0.34l1.9-6.21
		v0.52h1.21v-1.21h-0.86l0.52-1.9h0.34v-1.21l2.6-8.12h0.52v-1.04h-0.18l2.42-8.11h0.87v-1.21h-0.52l2.6-7.95h0.87V85.3h-0.52
		l0.52-1.55h21.6v1.55h-1.04v1.21h1.04v1.91h-1.04v1.03h1.04v2.07h-1.04v1.04h1.04v1.91h-1.04v1.21h1.04v1.9h-1.04v1.2h1.04v1.91
		h-1.04v1.2h1.04v1.9h-1.04v1.04h0.52L684.23,106.55z M666.95,86.51h1.04V85.3h-1.04V86.51z M669.89,86.51h1.21V85.3h-1.21V86.51z
		 M673,86.51h1.21V85.3H673V86.51z M676.11,86.51h1.21V85.3h-1.21V86.51z M679.22,86.51h1.21V85.3h-1.21V86.51z M682.33,86.51h1.04
		V85.3h-1.04V86.51z M663.84,89.45h1.04v-1.03h-1.04V89.45z M666.95,89.45h1.04v-1.03h-1.04V89.45z M669.89,89.45h1.21v-1.03h-1.21
		V89.45z M673,89.45h1.21v-1.03H673V89.45z M676.11,89.45h1.21v-1.03h-1.21V89.45z M679.22,89.45h1.21v-1.03h-1.21V89.45z
		 M682.33,89.45h1.04v-1.03h-1.04V89.45z M663.84,92.56h1.04v-1.04h-1.04V92.56z M666.95,92.56h1.04v-1.04h-1.04V92.56z
		 M669.89,92.56h1.21v-1.04h-1.21V92.56z M673,92.56h1.21v-1.04H673V92.56z M676.11,92.56h1.21v-1.04h-1.21V92.56z M679.22,92.56
		h1.21v-1.04h-1.21V92.56z M682.33,92.56h1.04v-1.04h-1.04V92.56z M663.84,95.67h1.04v-1.21h-1.04V95.67z M666.95,95.67h1.04v-1.21
		h-1.04V95.67z M669.89,95.67h1.21v-1.21h-1.21V95.67z M673,95.67h1.21v-1.21H673V95.67z M676.11,95.67h1.21v-1.21h-1.21V95.67z
		 M679.22,95.67h1.21v-1.21h-1.21V95.67z M682.33,95.67h1.04v-1.21h-1.04V95.67z M660.73,98.77h1.21v-1.2h-1.21V98.77z
		 M663.84,98.77h1.04v-1.2h-1.04V98.77z M666.95,98.77h1.04v-1.2h-1.04V98.77z M669.89,98.77h1.21v-1.2h-1.21V98.77z M673,98.77
		h1.21v-1.2H673V98.77z M676.11,98.77h1.21v-1.2h-1.21V98.77z M679.22,98.77h1.21v-1.2h-1.21V98.77z M682.33,98.77h1.04v-1.2h-1.04
		V98.77z M660.73,101.88h1.21v-1.2h-1.21V101.88z M663.84,101.88h1.04v-1.2h-1.04V101.88z M666.95,101.88h1.04v-1.2h-1.04V101.88z
		 M669.89,101.88h1.21v-1.2h-1.21V101.88z M673,101.88h1.21v-1.2H673V101.88z M676.11,101.88h1.21v-1.2h-1.21V101.88z
		 M679.22,101.88h1.21v-1.2h-1.21V101.88z M682.33,101.88h1.04v-1.2h-1.04V101.88z M660.73,104.82h1.21v-1.04h-1.21V104.82z
		 M663.84,104.82h1.04v-1.04h-1.04V104.82z M666.95,104.82h1.04v-1.04h-1.04V104.82z M669.89,104.82h1.21v-1.04h-1.21V104.82z
		 M673,104.82h1.21v-1.04H673V104.82z M676.11,104.82h1.21v-1.04h-1.21V104.82z M679.22,104.82h1.21v-1.04h-1.21V104.82z
		 M682.33,104.82h1.04v-1.04h-1.04V104.82z M657.62,107.93h1.21v-1.04h-1.21V107.93z M657.62,111.04h1.21v-1.21h-1.21V111.04z
		 M657.62,114.15h1.21v-1.21h-1.21V114.15z M657.62,117.26h1.21v-1.21h-1.21V117.26z M654.5,120.2h1.21v-1.04h-1.21V120.2z
		 M657.62,120.2h1.21v-1.04h-1.21V120.2z M654.5,123.3h1.21v-1.03h-1.21V123.3z M657.62,123.3h1.21v-1.03h-1.21V123.3z
		 M654.5,126.41h1.21v-1.21h-1.21V126.41z M657.62,126.41h1.21v-1.21h-1.21V126.41z M651.56,129.52h1.04v-1.21h-1.04V129.52z
		 M654.5,129.52h1.21v-1.21h-1.21V129.52z M657.62,129.52h1.21v-1.21h-1.21V129.52z M651.56,132.63h1.04v-1.22h-1.04V132.63z
		 M654.5,132.63h1.21v-1.22h-1.21V132.63z M657.62,132.63h1.21v-1.22h-1.21V132.63z M651.56,135.74h1.04v-1.21h-1.04V135.74z
		 M654.5,135.74h1.21v-1.21h-1.21V135.74z M657.62,135.74h1.21v-1.21h-1.21V135.74z M648.46,138.68h1.03v-1.04h-1.03V138.68z
		 M651.56,138.68h1.04v-1.04h-1.04V138.68z M654.5,138.68h1.21v-1.04h-1.21V138.68z M657.62,138.68h1.21v-1.04h-1.21V138.68z
		 M648.46,141.79h1.03v-1.04h-1.03V141.79z M651.56,141.79h1.04v-1.04h-1.04V141.79z M654.5,141.79h1.21v-1.04h-1.21V141.79z
		 M657.62,141.79h1.21v-1.04h-1.21V141.79z M648.46,144.9h1.03v-1.21h-1.03V144.9z M651.56,144.9h1.04v-1.21h-1.04V144.9z
		 M654.5,144.9h1.21v-1.21h-1.21V144.9z M657.62,144.9h1.21v-1.21h-1.21V144.9z M645.34,148h1.21v-1.21h-1.21V148z M648.46,148h1.03
		v-1.21h-1.03V148z M651.56,148h1.04v-1.21h-1.04V148z M654.5,148h1.21v-1.21h-1.21V148z M657.62,148h1.21v-1.21h-1.21V148z
		 M645.34,151.11h1.21v-1.2h-1.21V151.11z M648.46,151.11h1.03v-1.2h-1.03V151.11z M651.56,151.11h1.04v-1.2h-1.04V151.11z
		 M654.5,151.11h1.21v-1.2h-1.21V151.11z M657.62,151.11h1.21v-1.2h-1.21V151.11z M645.34,154.05h1.21v-1.03h-1.21V154.05z
		 M648.46,154.05h1.03v-1.03h-1.03V154.05z M651.56,154.05h1.04v-1.03h-1.04V154.05z M654.5,154.05h1.21v-1.03h-1.21V154.05z
		 M657.62,154.05h1.21v-1.03h-1.21V154.05z M645.34,157.16h1.21v-1.03h-1.21V157.16z M648.46,157.16h1.03v-1.03h-1.03V157.16z
		 M651.56,157.16h1.04v-1.03h-1.04V157.16z M654.5,157.16h1.21v-1.03h-1.21V157.16z M657.62,157.16h1.21v-1.03h-1.21V157.16z
		 M642.23,160.27h1.21v-1.21h-1.21V160.27z M645.34,160.27h1.21v-1.21h-1.21V160.27z M648.46,160.27h1.03v-1.21h-1.03V160.27z
		 M651.56,160.27h1.04v-1.21h-1.04V160.27z M654.5,160.27h1.21v-1.21h-1.21V160.27z M657.62,160.27h1.21v-1.21h-1.21V160.27z
		 M642.23,163.38h1.21v-1.21h-1.21V163.38z M645.34,163.38h1.21v-1.21h-1.21V163.38z M648.46,163.38h1.03v-1.21h-1.03V163.38z
		 M651.56,163.38h1.04v-1.21h-1.04V163.38z M654.5,163.38h1.21v-1.21h-1.21V163.38z M657.62,163.38h1.21v-1.21h-1.21V163.38z
		 M642.23,166.49h1.21v-1.21h-1.21V166.49z M645.34,166.49h1.21v-1.21h-1.21V166.49z M648.46,166.49h1.03v-1.21h-1.03V166.49z
		 M651.56,166.49h1.04v-1.21h-1.04V166.49z M654.5,166.49h1.21v-1.21h-1.21V166.49z M657.62,166.49h1.21v-1.21h-1.21V166.49z
		 M639.12,169.6h1.22v-1.22h-1.22V169.6z M642.23,169.6h1.21v-1.22h-1.21V169.6z M645.34,169.6h1.21v-1.22h-1.21V169.6z
		 M648.46,169.6h1.03v-1.22h-1.03V169.6z M651.56,169.6h1.04v-1.22h-1.04V169.6z M654.5,169.6h1.21v-1.22h-1.21V169.6z
		 M657.62,169.6h1.21v-1.22h-1.21V169.6z"/>
	<g>
		<polygon class="st0" points="635.41,171.67 634.55,171.67 634.55,106.55 611.91,106.55 609.66,104.47 609.66,83.75 662.9,83.75 		
			"/>
	</g>
</g>
<g>
	<path d="M757.76,171.67l-0.52-1.04h0.35v-1.03h-1.21l0,0l-1.9-2.94v-0.17h-0.17l-3.28-5.01h0.34v-1.21h-1.04l-1.89-2.94v-0.18
		h-0.18l-3.28-5h0.34v-1.04h-1.21l-1.21-1.72l-1.03,1.72h-0.86v1.04l0,0l-1.9,3.1v-1.03h-1.21v1.03h1.21l-3.29,5.02h-0.86v1.21l0,0
		l-5.36,8.12h-0.17l2.6-8.12h0.86v-1.21h-0.52l0.52-1.9l0,0v-0.17l2.07-6.22v0.18h1.04v-1.04h-0.87l0.69-1.9h0.17v-0.86l1.9-6.22
		v0.86h1.21v-1.21h-1.04l0.52-1.9h0.52v-1.04h-0.17l2.59-8.12h0.7v-1.21h-0.34l2.59-8.11h0.86v-1.04h-0.52l2.42-8.12h1.21v-1.21
		h-0.87l0.68-1.9h0.18v-0.53l1.89-6.21v0.52h1.04v-1.04h-0.86l0.52-1.9h0.34v-1.21l2.59-8.11h0.52v-1.22h-0.17l1.21-3.62l0.86-1.39
		v0.17h1.21v-0.86h1.9v0.86h1.21v-0.86h1.9v0.86h1.21v-0.86h1.91v0.86h1.03v-0.86h2.08v0.86h1.04v-0.86h1.9v0.86h1.21v-0.86h1.9
		v0.86h1.21v-0.86h1.9v0.86h1.21v-0.86h1.9v0.86h1.04v-0.86h2.07v0.86h1.03v-0.86h1.05l-1.73,2.76h-0.34v0.52l-2.07,2.93v-0.52
		h-1.04v1.22h0.69l-3.28,5.01h-0.52v0.69l-1.9,2.94v-0.53h-1.21v1.21h0.69l-3.28,5.01h-0.52v0.69l-1.9,2.93v-0.68h-1.04v1.21h0.69
		l-3.28,5.01h-0.51v0.86l-1.91,2.94v-0.69h-1.21v1.04h0.86l-3.28,5h-0.69v1.04l-1.73,2.58l1.73,2.6l0,0v1.21h0.87l3.28,5h-1.04v1.04
		h1.21v-0.86l1.91,2.93v1.04h0.69l3.28,5.01h-0.86v1.21h1.04v-0.87l1.9,2.94v1.03h0.69l3.28,5.02h-0.86v1.03h1.21v-0.69l1.9,2.94
		v0.87h0.52l3.28,5.01h-0.69v1.21h1.04v-0.69l2.07,2.93v0.68h0.52l2.59,4.15H757.76z M756.37,87.55h1.21v-1.04h-1.21V87.55z
		 M759.49,87.55h1.21v-1.04h-1.21V87.55z M762.59,87.55h1.21v-1.04h-1.21V87.55z M765.71,87.55h1.03v-1.04h-1.03V87.55z
		 M768.82,87.55h1.04v-1.04h-1.04V87.55z M771.76,87.55h1.21v-1.04h-1.21V87.55z M774.87,87.55h1.21v-1.04h-1.21V87.55z
		 M777.98,87.55h1.21v-1.04h-1.21V87.55z M781.09,87.55h1.04v-1.04h-1.04V87.55z M756.37,90.66h1.21v-1.22h-1.21V90.66z
		 M759.49,90.66h1.21v-1.22h-1.21V90.66z M762.59,90.66h1.21v-1.22h-1.21V90.66z M765.71,90.66h1.03v-1.22h-1.03V90.66z
		 M768.82,90.66h1.04v-1.22h-1.04V90.66z M771.76,90.66h1.21v-1.22h-1.21V90.66z M774.87,90.66h1.21v-1.22h-1.21V90.66z
		 M777.98,90.66h1.21v-1.22h-1.21V90.66z M753.44,93.77h1.04v-1.21h-1.04V93.77z M756.37,93.77h1.21v-1.21h-1.21V93.77z
		 M759.49,93.77h1.21v-1.21h-1.21V93.77z M762.59,93.77h1.21v-1.21h-1.21V93.77z M765.71,93.77h1.03v-1.21h-1.03V93.77z
		 M768.82,93.77h1.04v-1.21h-1.04V93.77z M771.76,93.77h1.21v-1.21h-1.21V93.77z M774.87,93.77h1.21v-1.21h-1.21V93.77z
		 M777.98,93.77h1.21v-1.21h-1.21V93.77z M753.44,96.88h1.04v-1.21h-1.04V96.88z M756.37,96.88h1.21v-1.21h-1.21V96.88z
		 M759.49,96.88h1.21v-1.21h-1.21V96.88z M762.59,96.88h1.21v-1.21h-1.21V96.88z M765.71,96.88h1.03v-1.21h-1.03V96.88z
		 M768.82,96.88h1.04v-1.21h-1.04V96.88z M771.76,96.88h1.21v-1.21h-1.21V96.88z M774.87,96.88h1.21v-1.21h-1.21V96.88z
		 M753.44,99.99h1.04v-1.21h-1.04V99.99z M756.37,99.99h1.21v-1.21h-1.21V99.99z M759.49,99.99h1.21v-1.21h-1.21V99.99z
		 M762.59,99.99h1.21v-1.21h-1.21V99.99z M765.71,99.99h1.03v-1.21h-1.03V99.99z M768.82,99.99h1.04v-1.21h-1.04V99.99z
		 M771.76,99.99h1.21v-1.21h-1.21V99.99z M753.44,102.93h1.04v-1.04h-1.04V102.93z M756.37,102.93h1.21v-1.04h-1.21V102.93z
		 M759.49,102.93h1.21v-1.04h-1.21V102.93z M762.59,102.93h1.21v-1.04h-1.21V102.93z M765.71,102.93h1.03v-1.04h-1.03V102.93z
		 M768.82,102.93h1.04v-1.04h-1.04V102.93z M771.76,102.93h1.21v-1.04h-1.21V102.93z M750.32,106.03h1.04v-1.04h-1.04V106.03z
		 M753.44,106.03h1.04v-1.04h-1.04V106.03z M756.37,106.03h1.21v-1.04h-1.21V106.03z M759.49,106.03h1.21v-1.04h-1.21V106.03z
		 M762.59,106.03h1.21v-1.04h-1.21V106.03z M765.71,106.03h1.03v-1.04h-1.03V106.03z M768.82,106.03h1.04v-1.04h-1.04V106.03z
		 M750.32,109.14h1.04v-1.21h-1.04V109.14z M753.44,109.14h1.04v-1.21h-1.04V109.14z M756.37,109.14h1.21v-1.21h-1.21V109.14z
		 M759.49,109.14h1.21v-1.21h-1.21V109.14z M762.59,109.14h1.21v-1.21h-1.21V109.14z M765.71,109.14h1.03v-1.21h-1.03V109.14z
		 M750.32,112.25h1.04v-1.21h-1.04V112.25z M753.44,112.25h1.04v-1.21h-1.04V112.25z M756.37,112.25h1.21v-1.21h-1.21V112.25z
		 M759.49,112.25h1.21v-1.21h-1.21V112.25z M762.59,112.25h1.21v-1.21h-1.21V112.25z M765.71,112.25h1.03v-1.21h-1.03V112.25z
		 M747.21,115.36h1.21v-1.2h-1.21V115.36z M750.32,115.36h1.04v-1.2h-1.04V115.36z M753.44,115.36h1.04v-1.2h-1.04V115.36z
		 M756.37,115.36h1.21v-1.2h-1.21V115.36z M759.49,115.36h1.21v-1.2h-1.21V115.36z M762.59,115.36h1.21v-1.2h-1.21V115.36z
		 M747.21,118.3h1.21v-1.04h-1.21V118.3z M750.32,118.3h1.04v-1.04h-1.04V118.3z M753.44,118.3h1.04v-1.04h-1.04V118.3z
		 M756.37,118.3h1.21v-1.04h-1.21V118.3z M759.49,118.3h1.21v-1.04h-1.21V118.3z M747.21,121.41h1.21v-1.04h-1.21V121.41z
		 M750.32,121.41h1.04v-1.04h-1.04V121.41z M753.44,121.41h1.04v-1.04h-1.04V121.41z M756.37,121.41h1.21v-1.04h-1.21V121.41z
		 M759.49,121.41h1.21v-1.04h-1.21V121.41z M744.1,124.51h1.21v-1.21h-1.21V124.51z M747.21,124.51h1.21v-1.21h-1.21V124.51z
		 M750.32,124.51h1.04v-1.21h-1.04V124.51z M753.44,124.51h1.04v-1.21h-1.04V124.51z M756.37,124.51h1.21v-1.21h-1.21V124.51z
		 M744.1,127.62h1.21v-1.21h-1.21V127.62z M747.21,127.62h1.21v-1.21h-1.21V127.62z M750.32,127.62h1.04v-1.21h-1.04V127.62z
		 M753.44,127.62h1.04v-1.21h-1.04V127.62z M756.37,127.62h1.21v-1.21h-1.21V127.62z M744.1,130.73h1.21v-1.21h-1.21V130.73z
		 M747.21,130.73h1.21v-1.21h-1.21V130.73z M750.32,130.73h1.04v-1.21h-1.04V130.73z M753.44,130.73h1.04v-1.21h-1.04V130.73z
		 M756.37,130.73h1.21v-1.21h-1.21V130.73z M740.99,133.84h1.21v-1.21h-1.21V133.84z M744.1,133.84h1.21v-1.21h-1.21V133.84z
		 M747.21,133.84h1.21v-1.21h-1.21V133.84z M750.32,133.84h1.04v-1.21h-1.04V133.84z M753.44,133.84h1.04v-1.21h-1.04V133.84z
		 M756.37,133.84h1.21v-1.21h-1.21V133.84z M759.49,133.84h1.21v-1.21h-1.21V133.84z M740.99,136.78h1.21v-1.04h-1.21V136.78z
		 M744.1,136.78h1.21v-1.04h-1.21V136.78z M747.21,136.78h1.21v-1.04h-1.21V136.78z M750.32,136.78h1.04v-1.04h-1.04V136.78z
		 M753.44,136.78h1.04v-1.04h-1.04V136.78z M756.37,136.78h1.21v-1.04h-1.21V136.78z M759.49,136.78h1.21v-1.04h-1.21V136.78z
		 M740.99,139.89h1.21v-1.04h-1.21V139.89z M744.1,139.89h1.21v-1.04h-1.21V139.89z M747.21,139.89h1.21v-1.04h-1.21V139.89z
		 M750.32,139.89h1.04v-1.04h-1.04V139.89z M753.44,139.89h1.04v-1.04h-1.04V139.89z M756.37,139.89h1.21v-1.04h-1.21V139.89z
		 M759.49,139.89h1.21v-1.04h-1.21V139.89z M762.59,139.89h1.21v-1.04h-1.21V139.89z M740.99,142.99h1.21v-1.21h-1.21V142.99z
		 M744.1,142.99h1.21v-1.21h-1.21V142.99z M747.21,142.99h1.21v-1.21h-1.21V142.99z M750.32,142.99h1.04v-1.21h-1.04V142.99z
		 M753.44,142.99h1.04v-1.21h-1.04V142.99z M756.37,142.99h1.21v-1.21h-1.21V142.99z M759.49,142.99h1.21v-1.21h-1.21V142.99z
		 M762.59,142.99h1.21v-1.21h-1.21V142.99z M765.71,142.99h1.03v-1.21h-1.03V142.99z M737.88,146.11h1.21v-1.21h-1.21V146.11z
		 M740.99,146.11h1.21v-1.21h-1.21V146.11z M744.1,146.11h1.21v-1.21h-1.21V146.11z M747.21,146.11h1.21v-1.21h-1.21V146.11z
		 M750.32,146.11h1.04v-1.21h-1.04V146.11z M753.44,146.11h1.04v-1.21h-1.04V146.11z M756.37,146.11h1.21v-1.21h-1.21V146.11z
		 M759.49,146.11h1.21v-1.21h-1.21V146.11z M762.59,146.11h1.21v-1.21h-1.21V146.11z M765.71,146.11h1.03v-1.21h-1.03V146.11z
		 M737.88,149.21h1.21V148h-1.21V149.21z M740.99,149.21h1.21V148h-1.21V149.21z M744.1,149.21h1.21V148h-1.21V149.21z
		 M747.21,149.21h1.21V148h-1.21V149.21z M750.32,149.21h1.04V148h-1.04V149.21z M753.44,149.21h1.04V148h-1.04V149.21z
		 M756.37,149.21h1.21V148h-1.21V149.21z M759.49,149.21h1.21V148h-1.21V149.21z M762.59,149.21h1.21V148h-1.21V149.21z
		 M765.71,149.21h1.03V148h-1.03V149.21z M768.82,149.21h1.04V148h-1.04V149.21z M737.88,152.15h1.21v-1.04h-1.21V152.15z
		 M747.21,152.15h1.21v-1.04h-1.21V152.15z M750.32,152.15h1.04v-1.04h-1.04V152.15z M753.44,152.15h1.04v-1.04h-1.04V152.15z
		 M756.37,152.15h1.21v-1.04h-1.21V152.15z M759.49,152.15h1.21v-1.04h-1.21V152.15z M762.59,152.15h1.21v-1.04h-1.21V152.15z
		 M765.71,152.15h1.03v-1.04h-1.03V152.15z M768.82,152.15h1.04v-1.04h-1.04V152.15z M771.76,152.15h1.21v-1.04h-1.21V152.15z
		 M734.94,155.25h1.04v-1.03h-1.04V155.25z M747.21,155.25h1.21v-1.03h-1.21V155.25z M750.32,155.25h1.04v-1.03h-1.04V155.25z
		 M753.44,155.25h1.04v-1.03h-1.04V155.25z M756.37,155.25h1.21v-1.03h-1.21V155.25z M759.49,155.25h1.21v-1.03h-1.21V155.25z
		 M762.59,155.25h1.21v-1.03h-1.21V155.25z M765.71,155.25h1.03v-1.03h-1.03V155.25z M768.82,155.25h1.04v-1.03h-1.04V155.25z
		 M771.76,155.25h1.21v-1.03h-1.21V155.25z M734.94,158.37h1.04v-1.22h-1.04V158.37z M750.32,158.37h1.04v-1.22h-1.04V158.37z
		 M753.44,158.37h1.04v-1.22h-1.04V158.37z M756.37,158.37h1.21v-1.22h-1.21V158.37z M759.49,158.37h1.21v-1.22h-1.21V158.37z
		 M762.59,158.37h1.21v-1.22h-1.21V158.37z M765.71,158.37h1.03v-1.22h-1.03V158.37z M768.82,158.37h1.04v-1.22h-1.04V158.37z
		 M771.76,158.37h1.21v-1.22h-1.21V158.37z M774.87,158.37h1.21v-1.22h-1.21V158.37z M753.44,161.48h1.04v-1.21h-1.04V161.48z
		 M756.37,161.48h1.21v-1.21h-1.21V161.48z M759.49,161.48h1.21v-1.21h-1.21V161.48z M762.59,161.48h1.21v-1.21h-1.21V161.48z
		 M765.71,161.48h1.03v-1.21h-1.03V161.48z M768.82,161.48h1.04v-1.21h-1.04V161.48z M771.76,161.48h1.21v-1.21h-1.21V161.48z
		 M774.87,161.48h1.21v-1.21h-1.21V161.48z M777.98,161.48h1.21v-1.21h-1.21V161.48z M731.83,164.59h1.04v-1.21h-1.04V164.59z
		 M753.44,164.59h1.04v-1.21h-1.04V164.59z M756.37,164.59h1.21v-1.21h-1.21V164.59z M759.49,164.59h1.21v-1.21h-1.21V164.59z
		 M762.59,164.59h1.21v-1.21h-1.21V164.59z M765.71,164.59h1.03v-1.21h-1.03V164.59z M768.82,164.59h1.04v-1.21h-1.04V164.59z
		 M771.76,164.59h1.21v-1.21h-1.21V164.59z M774.87,164.59h1.21v-1.21h-1.21V164.59z M777.98,164.59h1.21v-1.21h-1.21V164.59z
		 M756.37,167.52h1.21v-1.03h-1.21V167.52z M759.49,167.52h1.21v-1.03h-1.21V167.52z M762.59,167.52h1.21v-1.03h-1.21V167.52z
		 M765.71,167.52h1.03v-1.03h-1.03V167.52z M768.82,167.52h1.04v-1.03h-1.04V167.52z M771.76,167.52h1.21v-1.03h-1.21V167.52z
		 M774.87,167.52h1.21v-1.03h-1.21V167.52z M777.98,167.52h1.21v-1.03h-1.21V167.52z M781.09,167.52h1.04v-1.03h-1.04V167.52z
		 M759.49,170.63h1.21v-1.03h-1.21V170.63z M762.59,170.63h1.21v-1.03h-1.21V170.63z M765.71,170.63h1.03v-1.03h-1.03V170.63z
		 M768.82,170.63h1.04v-1.03h-1.04V170.63z M771.76,170.63h1.21v-1.03h-1.21V170.63z M774.87,170.63h1.21v-1.03h-1.21V170.63z
		 M777.98,170.63h1.21v-1.03h-1.21V170.63z M781.09,170.63h1.04v-1.03h-1.04V170.63z M784.2,170.63h1.03v-1.03h-1.03V170.63z"/>
	<g>
		<polygon points="727.18,170.29 726.15,171.67 696.76,171.67 726.15,126.94 697.46,83.75 727.02,83.75 740.84,104.65 753.45,85.82 
					"/>
	</g>
</g>
<g>
	<path class="st0" d="M58.5,209.45v-23.81h5.3v9.37H74.2v-9.37h5.3v23.81h-5.3v-10.41H63.81v10.41H58.5z"/>
	<path class="st0" d="M89.91,192.2h5.36l4.55,12.24l4.44-12.24h5.21l-6.72,16.6l-1.2,3c-0.44,1.01-0.86,1.78-1.26,2.31
		c-0.4,0.53-0.86,0.96-1.38,1.29c-0.52,0.33-1.16,0.59-1.92,0.77c-0.76,0.18-1.62,0.28-2.57,0.28c-0.97,0-1.92-0.09-2.85-0.28
		l-0.45-3.57c0.79,0.14,1.5,0.21,2.13,0.21c1.17,0,2.04-0.31,2.6-0.93c0.56-0.62,0.99-1.42,1.29-2.38L89.91,192.2z"/>
	<path class="st0" d="M119.83,209.45v-23.81h5.04v8.57c1.55-1.6,3.39-2.4,5.52-2.4c2.32,0,4.24,0.76,5.75,2.28
		c1.52,1.52,2.28,3.71,2.28,6.55c0,2.94-0.77,5.21-2.32,6.8c-1.55,1.59-3.43,2.39-5.64,2.39c-1.09,0-2.16-0.25-3.22-0.74
		c-1.06-0.49-1.97-1.22-2.73-2.18v2.53H119.83z M124.83,200.45c0,1.79,0.31,3.11,0.93,3.96c0.87,1.21,2.03,1.82,3.48,1.82
		c1.11,0,2.06-0.43,2.84-1.29c0.78-0.86,1.17-2.22,1.17-4.07c0-1.97-0.39-3.39-1.18-4.26c-0.79-0.87-1.8-1.31-3.03-1.31
		c-1.21,0-2.21,0.42-3.01,1.27C125.23,197.43,124.83,198.72,124.83,200.45z"/>
	<path class="st0" d="M154.63,209.45h-5.04V192.2h4.68v2.45c0.8-1.16,1.52-1.92,2.16-2.29c0.64-0.37,1.36-0.55,2.18-0.55
		c1.15,0,2.25,0.29,3.32,0.86l-1.56,3.98c-0.85-0.5-1.64-0.75-2.37-0.75c-0.71,0-1.3,0.18-1.79,0.53c-0.49,0.35-0.88,0.99-1.16,1.91
		c-0.28,0.92-0.42,2.85-0.42,5.78V209.45z"/>
	<path class="st0" d="M171.43,189.86v-4.22h5.04v4.22H171.43z M171.43,209.45V192.2h5.04v17.25H171.43z"/>
	<path class="st0" d="M206.43,209.45h-4.68v-2.53c-0.78,0.99-1.69,1.72-2.75,2.2c-1.06,0.48-2.12,0.72-3.2,0.72
		c-2.19,0-4.06-0.8-5.62-2.4s-2.34-3.82-2.34-6.68c0-2.92,0.76-5.15,2.28-6.67c1.52-1.52,3.43-2.28,5.75-2.28
		c2.13,0,3.97,0.8,5.52,2.4v-8.57h5.04V209.45z M192.99,200.45c0,1.84,0.28,3.17,0.84,4c0.81,1.19,1.95,1.79,3.41,1.79
		c1.16,0,2.14-0.45,2.96-1.34s1.22-2.23,1.22-4c0-1.98-0.39-3.41-1.18-4.28c-0.79-0.87-1.8-1.31-3.03-1.31c-1.2,0-2.2,0.43-3,1.29
		C193.39,197.46,192.99,198.74,192.99,200.45z"/>
	<path class="st0" d="M234.96,201.7l5.16-0.45c0.31,1.57,0.94,2.72,1.89,3.46c0.95,0.74,2.23,1.1,3.84,1.1c1.71,0,3-0.33,3.86-0.98
		c0.87-0.65,1.3-1.42,1.3-2.3c0-0.56-0.18-1.04-0.55-1.44c-0.37-0.4-1-0.74-1.91-1.03c-0.62-0.19-2.04-0.54-4.25-1.04
		c-2.84-0.64-4.84-1.42-5.99-2.35c-1.61-1.31-2.42-2.91-2.42-4.79c0-1.21,0.38-2.35,1.14-3.4s1.85-1.86,3.28-2.41
		c1.43-0.55,3.15-0.83,5.17-0.83c3.3,0,5.78,0.66,7.45,1.96c1.67,1.31,2.54,3.06,2.63,5.25l-5.3,0.21c-0.23-1.22-0.71-2.1-1.46-2.64
		c-0.75-0.54-1.87-0.8-3.36-0.8c-1.54,0-2.75,0.29-3.62,0.86c-0.56,0.37-0.84,0.86-0.84,1.48c0,0.56,0.26,1.04,0.79,1.45
		c0.67,0.51,2.29,1.04,4.87,1.59c2.58,0.55,4.49,1.12,5.73,1.71c1.24,0.59,2.2,1.4,2.9,2.42c0.7,1.02,1.05,2.29,1.05,3.79
		c0,1.36-0.42,2.64-1.25,3.83c-0.84,1.19-2.02,2.08-3.55,2.65c-1.53,0.58-3.43,0.87-5.72,0.87c-3.32,0-5.87-0.7-7.65-2.09
		S235.31,204.37,234.96,201.7z"/>
	<path class="st0" d="M267.95,192.2h4.7v2.53c0.61-0.87,1.43-1.57,2.47-2.11c1.04-0.54,2.19-0.81,3.46-0.81
		c2.21,0,4.09,0.78,5.63,2.35s2.31,3.76,2.31,6.56c0,2.88-0.78,5.12-2.33,6.71c-1.55,1.6-3.44,2.4-5.65,2.4
		c-1.05,0-2-0.19-2.86-0.57c-0.85-0.38-1.75-1.03-2.7-1.95v8.69h-5.04V192.2z M272.93,200.53c0,1.94,0.42,3.37,1.27,4.29
		c0.85,0.93,1.88,1.39,3.1,1.39c1.17,0,2.14-0.42,2.92-1.27c0.78-0.85,1.17-2.24,1.17-4.18c0-1.81-0.4-3.15-1.2-4.03
		c-0.8-0.88-1.79-1.32-2.97-1.32c-1.23,0-2.25,0.43-3.06,1.29C273.34,197.57,272.93,198.84,272.93,200.53z"/>
	<path class="st0" d="M296.69,200.58c0-1.52,0.41-2.98,1.24-4.4s1.99-2.5,3.5-3.25s3.2-1.12,5.06-1.12c2.88,0,5.24,0.85,7.08,2.54
		c1.84,1.69,2.76,3.84,2.76,6.42c0,2.61-0.93,4.77-2.79,6.49c-1.86,1.72-4.2,2.57-7.02,2.57c-1.74,0-3.41-0.36-4.99-1.07
		c-1.58-0.71-2.79-1.76-3.61-3.14S296.69,202.56,296.69,200.58z M301.85,200.83c0,1.71,0.45,3.02,1.34,3.93
		c0.9,0.91,2,1.36,3.32,1.36c1.31,0,2.42-0.45,3.31-1.36c0.89-0.91,1.33-2.23,1.33-3.96c0-1.69-0.45-2.99-1.33-3.9
		c-0.89-0.91-1.99-1.36-3.31-1.36c-1.31,0-2.42,0.46-3.32,1.36C302.3,197.8,301.85,199.11,301.85,200.83z"/>
	<path class="st0" d="M332.44,209.45h-5.04V192.2h4.68v2.45c0.8-1.16,1.52-1.92,2.16-2.29c0.64-0.37,1.36-0.55,2.18-0.55
		c1.15,0,2.25,0.29,3.32,0.86l-1.56,3.98c-0.85-0.5-1.64-0.75-2.37-0.75c-0.71,0-1.3,0.18-1.79,0.53c-0.49,0.35-0.88,0.99-1.16,1.91
		c-0.28,0.92-0.42,2.85-0.42,5.78V209.45z"/>
	<path class="st0" d="M357.97,192.2v3.64h-3.44v6.95c0,1.41,0.03,2.23,0.1,2.46c0.07,0.23,0.22,0.42,0.45,0.58
		c0.23,0.15,0.52,0.23,0.85,0.23c0.47,0,1.14-0.15,2.03-0.44l0.43,3.54c-1.17,0.46-2.5,0.68-3.98,0.68c-0.91,0-1.73-0.14-2.46-0.41
		c-0.73-0.28-1.26-0.63-1.6-1.07c-0.34-0.44-0.58-1.03-0.71-1.78c-0.11-0.53-0.16-1.6-0.16-3.22v-7.52h-2.31v-3.64h2.31v-3.43
		l5.05-2.66v6.09H357.97z"/>
	<path class="st0" d="M367.03,204.53l5.05-0.7c0.21,0.89,0.65,1.56,1.31,2.02c0.66,0.46,1.58,0.69,2.76,0.69
		c1.3,0,2.28-0.22,2.94-0.65c0.44-0.3,0.66-0.71,0.66-1.22c0-0.35-0.12-0.63-0.36-0.86c-0.25-0.22-0.81-0.42-1.68-0.6
		c-4.06-0.81-6.64-1.55-7.72-2.22c-1.51-0.93-2.26-2.22-2.26-3.88c0-1.49,0.65-2.75,1.95-3.77c1.3-1.02,3.32-1.53,6.06-1.53
		c2.6,0,4.54,0.38,5.81,1.15s2.14,1.91,2.62,3.41l-4.75,0.8c-0.2-0.67-0.59-1.19-1.16-1.54s-1.38-0.54-2.43-0.54
		c-1.33,0-2.28,0.17-2.85,0.5c-0.38,0.24-0.57,0.55-0.57,0.93c0,0.32,0.17,0.6,0.5,0.83c0.45,0.3,2.02,0.73,4.71,1.28
		c2.68,0.55,4.55,1.23,5.62,2.03c1.05,0.81,1.58,1.94,1.58,3.39c0,1.58-0.73,2.94-2.19,4.08s-3.61,1.71-6.47,1.71
		c-2.59,0-4.64-0.48-6.16-1.43S367.49,206.16,367.03,204.53z"/>
	<path class="st0" d="M414.13,209.45v-23.81h19.48v4.03h-14.18v5.28h13.19v4.01h-13.19v6.48h14.68v4.01H414.13z"/>
	<path class="st0" d="M443.5,209.45l6.86-8.88l-6.58-8.36h6.15l3.37,4.74l3.55-4.74h5.92l-6.45,8.17l7.04,9.08h-6.18l-3.87-5.34
		l-3.91,5.34H443.5z"/>
	<path class="st0" d="M484.69,203.96l5.02,0.76c-0.65,1.67-1.66,2.94-3.06,3.81c-1.39,0.87-3.13,1.31-5.22,1.31
		c-3.31,0-5.76-0.98-7.35-2.94c-1.25-1.57-1.88-3.55-1.88-5.94c0-2.86,0.82-5.1,2.47-6.71c1.65-1.62,3.73-2.43,6.25-2.43
		c2.83,0,5.07,0.85,6.7,2.54c1.64,1.69,2.42,4.29,2.35,7.79h-12.62c0.04,1.35,0.44,2.41,1.22,3.16s1.74,1.13,2.9,1.13
		c0.79,0,1.45-0.19,1.99-0.58C484.01,205.45,484.42,204.83,484.69,203.96z M484.98,199.35c-0.04-1.32-0.41-2.32-1.13-3.01
		s-1.59-1.03-2.62-1.03c-1.1,0-2.01,0.36-2.72,1.09c-0.72,0.73-1.07,1.71-1.06,2.96H484.98z"/>
	<path class="st0" d="M506.24,209.45h-5.04V192.2h4.68v2.45c0.8-1.16,1.52-1.92,2.16-2.29c0.64-0.37,1.36-0.55,2.18-0.55
		c1.15,0,2.25,0.29,3.32,0.86l-1.56,3.98c-0.85-0.5-1.64-0.75-2.37-0.75c-0.71,0-1.3,0.18-1.79,0.53c-0.49,0.35-0.88,0.99-1.16,1.91
		c-0.28,0.92-0.42,2.85-0.42,5.78V209.45z"/>
	<path class="st0" d="M539.64,197.3l-4.96,0.81c-0.17-0.9-0.55-1.58-1.14-2.03c-0.59-0.45-1.36-0.68-2.3-0.68
		c-1.25,0-2.26,0.39-3,1.18c-0.75,0.78-1.12,2.1-1.12,3.94c0,2.05,0.38,3.49,1.14,4.34c0.76,0.84,1.78,1.27,3.06,1.27
		c0.96,0,1.74-0.25,2.35-0.74s1.04-1.34,1.29-2.54l4.95,0.76c-0.51,2.06-1.5,3.61-2.96,4.66c-1.46,1.05-3.41,1.58-5.86,1.58
		c-2.78,0-5-0.8-6.66-2.39c-1.66-1.59-2.48-3.79-2.48-6.61c0-2.85,0.83-5.06,2.49-6.65c1.66-1.59,3.91-2.38,6.74-2.38
		c2.32,0,4.16,0.45,5.53,1.36C538.06,194.07,539.05,195.45,539.64,197.3z"/>
	<path class="st0" d="M550.8,189.86v-4.22h5.04v4.22H550.8z M550.8,209.45V192.2h5.04v17.25H550.8z"/>
	<path class="st0" d="M566.57,204.53l5.05-0.7c0.21,0.89,0.65,1.56,1.31,2.02c0.66,0.46,1.58,0.69,2.76,0.69
		c1.3,0,2.28-0.22,2.94-0.65c0.44-0.3,0.66-0.71,0.66-1.22c0-0.35-0.12-0.63-0.36-0.86c-0.25-0.22-0.81-0.42-1.68-0.6
		c-4.06-0.81-6.64-1.55-7.72-2.22c-1.51-0.93-2.26-2.22-2.26-3.88c0-1.49,0.65-2.75,1.95-3.77c1.3-1.02,3.32-1.53,6.06-1.53
		c2.6,0,4.54,0.38,5.81,1.15s2.14,1.91,2.62,3.41l-4.75,0.8c-0.2-0.67-0.59-1.19-1.16-1.54s-1.38-0.54-2.43-0.54
		c-1.33,0-2.28,0.17-2.85,0.5c-0.38,0.24-0.57,0.55-0.57,0.93c0,0.32,0.17,0.6,0.5,0.83c0.45,0.3,2.02,0.73,4.71,1.28
		c2.68,0.55,4.55,1.23,5.62,2.03c1.05,0.81,1.58,1.94,1.58,3.39c0,1.58-0.73,2.94-2.19,4.08s-3.61,1.71-6.47,1.71
		c-2.59,0-4.64-0.48-6.16-1.43S567.03,206.16,566.57,204.53z"/>
	<path class="st0" d="M607.11,203.96l5.02,0.76c-0.65,1.67-1.66,2.94-3.06,3.81c-1.39,0.87-3.13,1.31-5.22,1.31
		c-3.31,0-5.76-0.98-7.35-2.94c-1.25-1.57-1.88-3.55-1.88-5.94c0-2.86,0.82-5.1,2.47-6.71c1.65-1.62,3.73-2.43,6.25-2.43
		c2.83,0,5.07,0.85,6.7,2.54c1.64,1.69,2.42,4.29,2.35,7.79h-12.62c0.04,1.35,0.44,2.41,1.22,3.16s1.74,1.13,2.9,1.13
		c0.79,0,1.45-0.19,1.99-0.58C606.43,205.45,606.84,204.83,607.11,203.96z M607.4,199.35c-0.04-1.32-0.41-2.32-1.13-3.01
		s-1.59-1.03-2.62-1.03c-1.1,0-2.01,0.36-2.72,1.09c-0.72,0.73-1.07,1.71-1.06,2.96H607.4z"/>
	<path class="st0" d="M622.07,204.53l5.05-0.7c0.21,0.89,0.65,1.56,1.31,2.02c0.66,0.46,1.58,0.69,2.76,0.69
		c1.3,0,2.28-0.22,2.94-0.65c0.44-0.3,0.66-0.71,0.66-1.22c0-0.35-0.12-0.63-0.36-0.86c-0.25-0.22-0.81-0.42-1.68-0.6
		c-4.06-0.81-6.64-1.55-7.72-2.22c-1.51-0.93-2.26-2.22-2.26-3.88c0-1.49,0.65-2.75,1.95-3.77c1.3-1.02,3.32-1.53,6.06-1.53
		c2.6,0,4.54,0.38,5.81,1.15s2.14,1.91,2.62,3.41l-4.75,0.8c-0.2-0.67-0.59-1.19-1.16-1.54s-1.38-0.54-2.43-0.54
		c-1.33,0-2.28,0.17-2.85,0.5c-0.38,0.24-0.57,0.55-0.57,0.93c0,0.32,0.17,0.6,0.5,0.83c0.45,0.3,2.02,0.73,4.71,1.28
		c2.68,0.55,4.55,1.23,5.62,2.03c1.05,0.81,1.58,1.94,1.58,3.39c0,1.58-0.73,2.94-2.19,4.08s-3.61,1.71-6.47,1.71
		c-2.59,0-4.64-0.48-6.16-1.43S622.54,206.16,622.07,204.53z"/>
</g>
<g>
	<path d="M767.24,74.4h-3.44v-1.12h8.38v1.12h-3.46v9.12h-1.48V74.4z"/>
	<path d="M782.98,79.02c-0.08-1.43-0.18-3.15-0.17-4.42h-0.05c-0.39,1.2-0.86,2.48-1.43,3.89l-2,4.97h-1.11l-1.83-4.88
		c-0.54-1.44-0.99-2.77-1.31-3.98h-0.03c-0.03,1.28-0.12,2.99-0.22,4.53l-0.3,4.39h-1.39l0.79-10.24h1.87l1.93,4.95
		c0.47,1.26,0.86,2.39,1.14,3.45h0.05c0.29-1.03,0.69-2.16,1.19-3.45l2.02-4.95h1.87l0.71,10.24h-1.43L782.98,79.02z"/>
</g>
</svg>
